<svg xmlns="http://www.w3.org/2000/svg" width="1200" height="600">
  <rect width="100%" height="100%" fill="white" />
  <text x="600.0" y="25.0" font-size="20" text-anchor="middle" fill="#222">AUDUSD Weekly Exchange Rate</text>
  <polyline points="50.00,412.90 50.81,396.77 51.62,404.84 52.43,420.97 53.24,420.97 54.05,429.03 54.86,429.03 55.67,437.10 56.48,445.16 57.28,437.10 58.09,445.16 58.90,445.16 59.71,445.16 60.52,453.23 61.33,453.23 62.14,461.29 62.95,469.35 63.76,453.23 64.57,469.35 65.38,477.42 66.19,477.42 67.00,469.35 67.81,461.29 68.62,445.16 69.43,461.29 70.24,453.23 71.04,461.29 71.85,469.35 72.66,461.29 73.47,461.29 74.28,461.29 75.09,469.35 75.90,461.29 76.71,477.42 77.52,469.35 78.33,485.48 79.14,501.61 79.95,501.61 80.76,501.61 81.57,509.68 82.38,509.68 83.19,509.68 84.00,517.74 84.81,509.68 85.61,517.74 86.42,517.74 87.23,517.74 88.04,501.61 88.85,493.55 89.66,493.55 90.47,485.48 91.28,485.48 92.09,477.42 92.90,485.48 93.71,485.48 94.52,501.61 95.33,493.55 96.14,501.61 96.95,509.68 97.76,509.68 98.57,509.68 99.37,525.81 100.18,541.94 100.99,533.87 101.80,541.94 102.61,533.87 103.42,525.81 104.23,517.74 105.04,525.81 105.85,517.74 106.66,517.74 107.47,509.68 108.28,517.74 109.09,525.81 109.90,509.68 110.71,517.74 111.52,517.74 112.33,525.81 113.13,525.81 113.94,525.81 114.75,525.81 115.56,525.81 116.37,517.74 117.18,525.81 117.99,501.61 118.80,509.68 119.61,509.68 120.42,517.74 121.23,525.81 122.04,550.00 122.85,541.94 123.66,525.81 124.47,525.81 125.28,525.81 126.09,533.87 126.89,525.81 127.70,517.74 128.51,517.74 129.32,517.74 130.13,517.74 130.94,525.81 131.75,517.74 132.56,525.81 133.37,525.81 134.18,517.74 134.99,517.74 135.80,525.81 136.61,517.74 137.42,525.81 138.23,525.81 139.04,517.74 139.85,525.81 140.65,517.74 141.46,517.74 142.27,509.68 143.08,509.68 143.89,509.68 144.70,509.68 145.51,509.68 146.32,501.61 147.13,501.61 147.94,501.61 148.75,493.55 149.56,493.55 150.37,485.48 151.18,477.42 151.99,477.42 152.80,485.48 153.61,477.42 154.42,485.48 155.22,485.48 156.03,485.48 156.84,485.48 157.65,501.61 158.46,501.61 159.27,501.61 160.08,493.55 160.89,501.61 161.70,493.55 162.51,493.55 163.32,493.55 164.13,493.55 164.94,501.61 165.75,493.55 166.56,493.55 167.37,493.55 168.18,485.48 168.98,485.48 169.79,485.48 170.60,485.48 171.41,485.48 172.22,485.48 173.03,485.48 173.84,477.42 174.65,485.48 175.46,485.48 176.27,477.42 177.08,469.35 177.89,461.29 178.70,461.29 179.51,461.29 180.32,461.29 181.13,461.29 181.94,453.23 182.74,445.16 183.55,445.16 184.36,453.23 185.17,461.29 185.98,453.23 186.79,453.23 187.60,445.16 188.41,445.16 189.22,437.10 190.03,429.03 190.84,412.90 191.65,412.90 192.46,404.84 193.27,412.90 194.08,404.84 194.89,396.77 195.70,396.77 196.50,396.77 197.31,388.71 198.12,404.84 198.93,412.90 199.74,404.84 200.55,412.90 201.36,412.90 202.17,404.84 202.98,412.90 203.79,412.90 204.60,412.90 205.41,404.84 206.22,396.77 207.03,396.77 207.84,388.71 208.65,380.65 209.46,380.65 210.26,372.58 211.07,364.52 211.88,364.52 212.69,356.45 213.50,356.45 214.31,356.45 215.12,340.32 215.93,340.32 216.74,340.32 217.55,340.32 218.36,324.19 219.17,308.06 219.98,324.19 220.79,316.13 221.60,324.19 222.41,316.13 223.22,300.00 224.03,316.13 224.83,316.13 225.64,324.19 226.45,348.39 227.26,332.26 228.07,332.26 228.88,324.19 229.69,324.19 230.50,340.32 231.31,348.39 232.12,356.45 232.93,372.58 233.74,380.65 234.55,372.58 235.36,364.52 236.17,372.58 236.98,380.65 237.79,380.65 238.59,372.58 239.40,364.52 240.21,356.45 241.02,348.39 241.83,364.52 242.64,372.58 243.45,364.52 244.26,356.45 245.07,356.45 245.88,372.58 246.69,380.65 247.50,372.58 248.31,372.58 249.12,364.52 249.93,348.39 250.74,348.39 251.55,348.39 252.35,340.32 253.16,332.26 253.97,324.19 254.78,316.13 255.59,308.06 256.40,300.00 257.21,308.06 258.02,332.26 258.83,324.19 259.64,316.13 260.45,308.06 261.26,324.19 262.07,324.19 262.88,316.13 263.69,308.06 264.50,316.13 265.31,300.00 266.11,300.00 266.92,300.00 267.73,300.00 268.54,300.00 269.35,291.94 270.16,316.13 270.97,316.13 271.78,316.13 272.59,316.13 273.40,308.06 274.21,308.06 275.02,308.06 275.83,324.19 276.64,324.19 277.45,324.19 278.26,324.19 279.07,324.19 279.87,308.06 280.68,316.13 281.49,332.26 282.30,340.32 283.11,332.26 283.92,324.19 284.73,324.19 285.54,316.13 286.35,316.13 287.16,332.26 287.97,324.19 288.78,316.13 289.59,308.06 290.40,316.13 291.21,324.19 292.02,324.19 292.83,324.19 293.64,332.26 294.44,332.26 295.25,332.26 296.06,348.39 296.87,348.39 297.68,348.39 298.49,340.32 299.30,332.26 300.11,332.26 300.92,340.32 301.73,348.39 302.54,348.39 303.35,332.26 304.16,324.19 304.97,332.26 305.78,332.26 306.59,332.26 307.40,340.32 308.20,340.32 309.01,340.32 309.82,332.26 310.63,348.39 311.44,348.39 312.25,364.52 313.06,356.45 313.87,348.39 314.68,348.39 315.49,340.32 316.30,324.19 317.11,316.13 317.92,316.13 318.73,324.19 319.54,324.19 320.35,332.26 321.16,332.26 321.96,340.32 322.77,348.39 323.58,340.32 324.39,332.26 325.20,332.26 326.01,332.26 326.82,316.13 327.63,316.13 328.44,316.13 329.25,324.19 330.06,324.19 330.87,316.13 331.68,332.26 332.49,332.26 333.30,332.26 334.11,332.26 334.92,340.32 335.72,332.26 336.53,324.19 337.34,316.13 338.15,316.13 338.96,316.13 339.77,316.13 340.58,308.06 341.39,300.00 342.20,300.00 343.01,308.06 343.82,308.06 344.63,300.00 345.44,308.06 346.25,308.06 347.06,300.00 347.87,316.13 348.68,308.06 349.48,308.06 350.29,300.00 351.10,300.00 351.91,308.06 352.72,308.06 353.53,291.94 354.34,283.87 355.15,283.87 355.96,275.81 356.77,267.74 357.58,259.68 358.39,267.74 359.20,275.81 360.01,267.74 360.82,275.81 361.63,275.81 362.44,267.74 363.25,259.68 364.05,259.68 364.86,251.61 365.67,251.61 366.48,243.55 367.29,235.48 368.10,227.42 368.91,251.61 369.72,251.61 370.53,259.68 371.34,291.94 372.15,267.74 372.96,275.81 373.77,267.74 374.58,259.68 375.39,235.48 376.20,219.35 377.01,211.29 377.81,211.29 378.62,219.35 379.43,195.16 380.24,195.16 381.05,203.23 381.86,219.35 382.67,227.42 383.48,227.42 384.29,227.42 385.10,243.55 385.91,235.48 386.72,227.42 387.53,235.48 388.34,219.35 389.15,227.42 389.96,227.42 390.77,211.29 391.57,211.29 392.38,203.23 393.19,195.16 394.00,187.10 394.81,187.10 395.62,179.03 396.43,211.29 397.24,195.16 398.05,195.16 398.86,187.10 399.67,187.10 400.48,187.10 401.29,187.10 402.10,179.03 402.91,162.90 403.72,162.90 404.53,162.90 405.33,162.90 406.14,179.03 406.95,170.97 407.76,162.90 408.57,162.90 409.38,154.84 410.19,154.84 411.00,162.90 411.81,187.10 412.62,219.35 413.43,235.48 414.24,235.48 415.05,243.55 415.86,275.81 416.67,275.81 417.48,267.74 418.29,267.74 419.09,316.13 419.90,420.97 420.71,380.65 421.52,437.10 422.33,396.77 423.14,396.77 423.95,412.90 424.76,429.03 425.57,404.84 426.38,412.90 427.19,404.84 428.00,388.71 428.81,388.71 429.62,364.52 430.43,372.58 431.24,396.77 432.05,412.90 432.86,420.97 433.66,388.71 434.47,404.84 435.28,412.90 436.09,420.97 436.90,420.97 437.71,404.84 438.52,380.65 439.33,380.65 440.14,356.45 440.95,356.45 441.76,356.45 442.57,356.45 443.38,348.39 444.19,316.13 445.00,332.26 445.81,308.06 446.62,291.94 447.42,300.00 448.23,283.87 449.04,283.87 449.85,283.87 450.66,291.94 451.47,308.06 452.28,291.94 453.09,275.81 453.90,259.68 454.71,259.68 455.52,267.74 456.33,267.74 457.14,259.68 457.95,251.61 458.76,243.55 459.57,235.48 460.38,235.48 461.18,235.48 461.99,211.29 462.80,195.16 463.61,195.16 464.42,211.29 465.23,195.16 466.04,187.10 466.85,203.23 467.66,203.23 468.47,203.23 469.28,203.23 470.09,219.35 470.90,227.42 471.71,211.29 472.52,195.16 473.33,195.16 474.14,211.29 474.94,227.42 475.75,235.48 476.56,219.35 477.37,211.29 478.18,211.29 478.99,203.23 479.80,195.16 480.61,195.16 481.42,211.29 482.23,195.16 483.04,187.10 483.85,195.16 484.66,187.10 485.47,195.16 486.28,219.35 487.09,219.35 487.90,267.74 488.70,251.61 489.51,275.81 490.32,251.61 491.13,235.48 491.94,235.48 492.75,259.68 493.56,227.42 494.37,235.48 495.18,211.29 495.99,211.29 496.80,195.16 497.61,219.35 498.42,219.35 499.23,211.29 500.04,195.16 500.85,187.10 501.66,179.03 502.47,162.90 503.27,154.84 504.08,138.71 504.89,138.71 505.70,146.77 506.51,146.77 507.32,114.52 508.13,146.77 508.94,138.71 509.75,162.90 510.56,138.71 511.37,138.71 512.18,138.71 512.99,130.65 513.80,114.52 514.61,130.65 515.42,138.71 516.23,138.71 517.03,138.71 517.84,122.58 518.65,130.65 519.46,122.58 520.27,114.52 521.08,122.58 521.89,122.58 522.70,130.65 523.51,106.45 524.32,98.39 525.13,82.26 525.94,82.26 526.75,74.19 527.56,50.00 528.37,74.19 529.18,82.26 529.99,74.19 530.79,74.19 531.60,74.19 532.41,90.32 533.22,82.26 534.03,90.32 534.84,66.13 535.65,66.13 536.46,74.19 537.27,58.06 538.08,50.00 538.89,98.39 539.70,98.39 540.51,98.39 541.32,82.26 542.13,82.26 542.94,90.32 543.75,98.39 544.55,146.77 545.36,154.84 546.17,146.77 546.98,106.45 547.79,98.39 548.60,74.19 549.41,98.39 550.22,106.45 551.03,130.65 551.84,154.84 552.65,114.52 553.46,114.52 554.27,130.65 555.08,114.52 555.89,114.52 556.70,114.52 557.51,106.45 558.31,90.32 559.12,74.19 559.93,66.13 560.74,74.19 561.55,74.19 562.36,74.19 563.17,74.19 563.98,82.26 564.79,82.26 565.60,90.32 566.41,106.45 567.22,106.45 568.03,98.39 568.84,98.39 569.65,90.32 570.46,114.52 571.27,130.65 572.08,146.77 572.88,146.77 573.69,154.84 574.50,138.71 575.31,122.58 576.12,122.58 576.93,114.52 577.74,114.52 578.55,114.52 579.36,98.39 580.17,90.32 580.98,82.26 581.79,82.26 582.60,98.39 583.41,98.39 584.22,106.45 585.03,98.39 585.84,82.26 586.64,90.32 587.45,98.39 588.26,114.52 589.07,114.52 589.88,106.45 590.69,98.39 591.50,106.45 592.31,98.39 593.12,106.45 593.93,90.32 594.74,98.39 595.55,90.32 596.36,82.26 597.17,98.39 597.98,98.39 598.79,90.32 599.60,90.32 600.40,90.32 601.21,98.39 602.02,98.39 602.83,106.45 603.64,106.45 604.45,106.45 605.26,114.52 606.07,114.52 606.88,98.39 607.69,98.39 608.50,98.39 609.31,98.39 610.12,90.32 610.93,106.45 611.74,106.45 612.55,106.45 613.36,130.65 614.16,154.84 614.97,154.84 615.78,162.90 616.59,170.97 617.40,162.90 618.21,195.16 619.02,203.23 619.83,203.23 620.64,211.29 621.45,195.16 622.26,187.10 623.07,219.35 623.88,195.16 624.69,195.16 625.50,211.29 626.31,219.35 627.12,195.16 627.92,195.16 628.73,179.03 629.54,187.10 630.35,179.03 631.16,170.97 631.97,154.84 632.78,162.90 633.59,179.03 634.40,179.03 635.21,179.03 636.02,195.16 636.83,203.23 637.64,203.23 638.45,211.29 639.26,219.35 640.07,219.35 640.88,219.35 641.69,211.29 642.49,227.42 643.30,235.48 644.11,227.42 644.92,211.29 645.73,211.29 646.54,211.29 647.35,219.35 648.16,203.23 648.97,211.29 649.78,203.23 650.59,195.16 651.40,187.10 652.21,179.03 653.02,187.10 653.83,187.10 654.64,187.10 655.45,179.03 656.25,179.03 657.06,195.16 657.87,187.10 658.68,187.10 659.49,179.03 660.30,179.03 661.11,179.03 661.92,179.03 662.73,179.03 663.54,179.03 664.35,179.03 665.16,187.10 665.97,187.10 666.78,187.10 667.59,187.10 668.40,187.10 669.21,179.03 670.01,211.29 670.82,219.35 671.63,227.42 672.44,235.48 673.25,235.48 674.06,235.48 674.87,227.42 675.68,227.42 676.49,243.55 677.30,227.42 678.11,235.48 678.92,251.61 679.73,267.74 680.54,275.81 681.35,283.87 682.16,283.87 682.97,283.87 683.77,275.81 684.58,275.81 685.39,300.00 686.20,308.06 687.01,308.06 687.82,308.06 688.63,308.06 689.44,308.06 690.25,316.13 691.06,324.19 691.87,308.06 692.68,308.06 693.49,324.19 694.30,316.13 695.11,308.06 695.92,308.06 696.73,300.00 697.53,300.00 698.34,291.94 699.15,308.06 699.96,324.19 700.77,324.19 701.58,316.13 702.39,308.06 703.20,316.13 704.01,332.26 704.82,340.32 705.63,340.32 706.44,348.39 707.25,348.39 708.06,340.32 708.87,340.32 709.68,348.39 710.49,356.45 711.30,380.65 712.10,364.52 712.91,356.45 713.72,372.58 714.53,372.58 715.34,348.39 716.15,348.39 716.96,356.45 717.77,364.52 718.58,372.58 719.39,364.52 720.20,356.45 721.01,356.45 721.82,348.39 722.63,356.45 723.44,356.45 724.25,348.39 725.06,348.39 725.86,372.58 726.67,380.65 727.48,372.58 728.29,364.52 729.10,364.52 729.91,364.52 730.72,364.52 731.53,364.52 732.34,340.32 733.15,324.19 733.96,324.19 734.77,332.26 735.58,316.13 736.39,324.19 737.20,316.13 738.01,316.13 738.82,324.19 739.62,340.32 740.43,348.39 741.24,356.45 742.05,356.45 742.86,340.32 743.67,340.32 744.48,340.32 745.29,332.26 746.10,332.26 746.91,324.19 747.72,324.19 748.53,332.26 749.34,324.19 750.15,324.19 750.96,316.13 751.77,324.19 752.58,324.19 753.38,324.19 754.19,332.26 755.00,332.26 755.81,324.19 756.62,316.13 757.43,324.19 758.24,324.19 759.05,324.19 759.86,324.19 760.67,316.13 761.48,332.26 762.29,348.39 763.10,340.32 763.91,332.26 764.72,340.32 765.53,348.39 766.34,356.45 767.14,356.45 767.95,348.39 768.76,332.26 769.57,324.19 770.38,324.19 771.19,316.13 772.00,316.13 772.81,316.13 773.62,316.13 774.43,324.19 775.24,332.26 776.05,316.13 776.86,324.19 777.67,324.19 778.48,332.26 779.29,324.19 780.10,332.26 780.91,332.26 781.71,340.32 782.52,340.32 783.33,332.26 784.14,340.32 784.95,340.32 785.76,332.26 786.57,324.19 787.38,324.19 788.19,316.13 789.00,324.19 789.81,308.06 790.62,300.00 791.43,291.94 792.24,300.00 793.05,300.00 793.86,300.00 794.67,300.00 795.47,291.94 796.28,283.87 797.09,291.94 797.90,291.94 798.71,308.06 799.52,308.06 800.33,300.00 801.14,308.06 801.95,316.13 802.76,316.13 803.57,316.13 804.38,324.19 805.19,324.19 806.00,324.19 806.81,332.26 807.62,324.19 808.43,316.13 809.23,308.06 810.04,300.00 810.85,300.00 811.66,291.94 812.47,283.87 813.28,300.00 814.09,308.06 814.90,300.00 815.71,308.06 816.52,308.06 817.33,308.06 818.14,316.13 818.95,316.13 819.76,316.13 820.57,316.13 821.38,308.06 822.19,316.13 822.99,324.19 823.80,332.26 824.61,332.26 825.42,332.26 826.23,332.26 827.04,324.19 827.85,324.19 828.66,340.32 829.47,340.32 830.28,340.32 831.09,340.32 831.90,340.32 832.71,340.32 833.52,340.32 834.33,340.32 835.14,348.39 835.95,348.39 836.75,348.39 837.56,356.45 838.37,364.52 839.18,356.45 839.99,348.39 840.80,356.45 841.61,364.52 842.42,364.52 843.23,364.52 844.04,364.52 844.85,356.45 845.66,356.45 846.47,348.39 847.28,356.45 848.09,348.39 848.90,356.45 849.71,356.45 850.52,372.58 851.32,372.58 852.13,364.52 852.94,356.45 853.75,356.45 854.56,356.45 855.37,348.39 856.18,364.52 856.99,364.52 857.80,364.52 858.61,364.52 859.42,372.58 860.23,364.52 861.04,364.52 861.85,364.52 862.66,364.52 863.47,356.45 864.28,356.45 865.08,372.58 865.89,372.58 866.70,372.58 867.51,380.65 868.32,380.65 869.13,380.65 869.94,372.58 870.75,380.65 871.56,380.65 872.37,372.58 873.18,372.58 873.99,372.58 874.80,372.58 875.61,380.65 876.42,388.71 877.23,388.71 878.04,388.71 878.84,388.71 879.65,396.77 880.46,388.71 881.27,380.65 882.08,388.71 882.89,388.71 883.70,388.71 884.51,388.71 885.32,380.65 886.13,388.71 886.94,380.65 887.75,380.65 888.56,388.71 889.37,388.71 890.18,388.71 890.99,388.71 891.80,380.65 892.60,380.65 893.41,372.58 894.22,372.58 895.03,380.65 895.84,380.65 896.65,388.71 897.46,396.77 898.27,396.77 899.08,396.77 899.89,404.84 900.70,412.90 901.51,404.84 902.32,437.10 903.13,469.35 903.94,437.10 904.75,453.23 905.56,429.03 906.36,420.97 907.17,420.97 907.98,420.97 908.79,412.90 909.60,420.97 910.41,412.90 911.22,396.77 912.03,372.58 912.84,380.65 913.65,388.71 914.46,380.65 915.27,380.65 916.08,372.58 916.89,372.58 917.70,364.52 918.51,364.52 919.32,356.45 920.13,356.45 920.93,356.45 921.74,340.32 922.55,348.39 923.36,348.39 924.17,348.39 924.98,372.58 925.79,356.45 926.60,356.45 927.41,364.52 928.22,364.52 929.03,372.58 929.84,348.39 930.65,348.39 931.46,348.39 932.27,340.32 933.08,340.32 933.89,332.26 934.69,324.19 935.50,324.19 936.31,316.13 937.12,308.06 937.93,316.13 938.74,316.13 939.55,324.19 940.36,316.13 941.17,308.06 941.98,300.00 942.79,316.13 943.60,316.13 944.41,308.06 945.22,316.13 946.03,324.19 946.84,324.19 947.65,324.19 948.45,316.13 949.26,316.13 950.07,316.13 950.88,308.06 951.69,308.06 952.50,316.13 953.31,316.13 954.12,316.13 954.93,316.13 955.74,332.26 956.55,324.19 957.36,332.26 958.17,332.26 958.98,340.32 959.79,340.32 960.60,348.39 961.41,340.32 962.21,340.32 963.02,364.52 963.83,348.39 964.64,332.26 965.45,340.32 966.26,348.39 967.07,348.39 967.88,348.39 968.69,348.39 969.50,340.32 970.31,332.26 971.12,332.26 971.93,340.32 972.74,348.39 973.55,356.45 974.36,364.52 975.17,372.58 975.97,356.45 976.78,364.52 977.59,356.45 978.40,348.39 979.21,356.45 980.02,356.45 980.83,356.45 981.64,372.58 982.45,364.52 983.26,364.52 984.07,356.45 984.88,356.45 985.69,340.32 986.50,348.39 987.31,340.32 988.12,332.26 988.93,332.26 989.74,332.26 990.54,340.32 991.35,356.45 992.16,364.52 992.97,364.52 993.78,380.65 994.59,372.58 995.40,356.45 996.21,356.45 997.02,364.52 997.83,380.65 998.64,380.65 999.45,388.71 1000.26,380.65 1001.07,388.71 1001.88,380.65 1002.69,372.58 1003.50,380.65 1004.30,364.52 1005.11,380.65 1005.92,380.65 1006.73,388.71 1007.54,388.71 1008.35,396.77 1009.16,412.90 1009.97,420.97 1010.78,420.97 1011.59,437.10 1012.40,420.97 1013.21,420.97 1014.02,412.90 1014.83,396.77 1015.64,396.77 1016.45,388.71 1017.26,388.71 1018.06,388.71 1018.87,396.77 1019.68,396.77 1020.49,388.71 1021.30,380.65 1022.11,372.58 1022.92,372.58 1023.73,364.52 1024.54,380.65 1025.35,380.65 1026.16,380.65 1026.97,396.77 1027.78,388.71 1028.59,404.84 1029.40,396.77 1030.21,404.84 1031.02,396.77 1031.82,396.77 1032.63,396.77 1033.44,396.77 1034.25,404.84 1035.06,396.77 1035.87,404.84 1036.68,396.77 1037.49,412.90 1038.30,404.84 1039.11,396.77 1039.92,380.65 1040.73,396.77 1041.54,396.77 1042.35,396.77 1043.16,388.71 1043.97,396.77 1044.78,396.77 1045.58,404.84 1046.39,412.90 1047.20,420.97 1048.01,420.97 1048.82,412.90 1049.63,420.97 1050.44,420.97 1051.25,420.97 1052.06,420.97 1052.87,420.97 1053.68,429.03 1054.49,429.03 1055.30,429.03 1056.11,412.90 1056.92,420.97 1057.73,412.90 1058.54,404.84 1059.35,396.77 1060.15,404.84 1060.96,396.77 1061.77,388.71 1062.58,388.71 1063.39,396.77 1064.20,396.77 1065.01,404.84 1065.82,404.84 1066.63,412.90 1067.44,412.90 1068.25,412.90 1069.06,404.84 1069.87,412.90 1070.68,404.84 1071.49,404.84 1072.30,412.90 1073.11,412.90 1073.91,404.84 1074.72,412.90 1075.53,420.97 1076.34,412.90 1077.15,404.84 1077.96,404.84 1078.77,396.77 1079.58,404.84 1080.39,396.77 1081.20,404.84 1082.01,404.84 1082.82,404.84 1083.63,396.77 1084.44,396.77 1085.25,388.71 1086.06,396.77 1086.87,412.90 1087.67,412.90 1088.48,404.84 1089.29,396.77 1090.10,388.71 1090.91,388.71 1091.72,396.77 1092.53,396.77 1093.34,388.71 1094.15,380.65 1094.96,388.71 1095.77,388.71 1096.58,396.77 1097.39,404.84 1098.20,404.84 1099.01,404.84 1099.82,412.90 1100.63,412.90 1101.43,412.90 1102.24,420.97 1103.05,420.97 1103.86,429.03 1104.67,437.10 1105.48,437.10 1106.29,445.16 1107.10,437.10 1107.91,429.03 1108.72,437.10 1109.53,429.03 1110.34,420.97 1111.15,420.97 1111.96,437.10 1112.77,429.03 1113.58,429.03 1114.39,429.03 1115.19,429.03 1116.00,453.23 1116.81,429.03 1117.62,420.97 1118.43,420.97 1119.24,420.97 1120.05,420.97 1120.86,420.97 1121.67,412.90 1122.48,420.97 1123.29,412.90 1124.10,412.90 1124.91,412.90 1125.72,412.90 1126.53,404.84 1127.34,404.84 1128.15,412.90 1128.96,404.84 1129.76,412.90 1130.57,412.90 1131.38,412.90 1132.19,412.90 1133.00,412.90 1133.81,404.84 1134.62,404.84 1135.43,404.84 1136.24,412.90 1137.05,404.84 1137.86,412.90 1138.67,412.90 1139.48,412.90 1140.29,412.90 1141.10,412.90 1141.91,412.90 1142.72,412.90 1143.52,404.84 1144.33,404.84 1145.14,396.77 1145.95,404.84 1146.76,396.77 1147.57,396.77 1148.38,396.77 1149.19,396.77 1150.00,380.65" fill="none" stroke="#2f6fb0" stroke-width="2" />
  <text x="50.00" y="575.0" font-size="12" text-anchor="middle" fill="#444">2000</text>
  <text x="261.26" y="575.0" font-size="12" text-anchor="middle" fill="#444">2005</text>
  <text x="471.71" y="575.0" font-size="12" text-anchor="middle" fill="#444">2010</text>
  <text x="682.97" y="575.0" font-size="12" text-anchor="middle" fill="#444">2015</text>
  <text x="894.22" y="575.0" font-size="12" text-anchor="middle" fill="#444">2020</text>
  <text x="1105.48" y="575.0" font-size="12" text-anchor="middle" fill="#444">2025</text>
  <text x="600.0" y="590" font-size="14" text-anchor="middle" fill="#222">Year</text>
  <text x="20" y="300.0" font-size="14" text-anchor="middle" fill="#222" transform="rotate(-90, 20, 300.0)">Exchange Rate</text>
  <text x="50" y="50" font-size="12" fill="#444">Max: 1.1000</text>
  <text x="50" y="66" font-size="12" fill="#444">Min: 0.4800</text>
</svg>
