<svg xmlns="http://www.w3.org/2000/svg" width="1200" height="600">
  <rect width="100%" height="100%" fill="white" />
  <line x1="50.00" y1="50" x2="50.00" y2="550" stroke="#e0e0e0" stroke-width="1" />
  <line x1="261.26" y1="50" x2="261.26" y2="550" stroke="#e0e0e0" stroke-width="1" />
  <line x1="471.71" y1="50" x2="471.71" y2="550" stroke="#e0e0e0" stroke-width="1" />
  <line x1="682.97" y1="50" x2="682.97" y2="550" stroke="#e0e0e0" stroke-width="1" />
  <line x1="894.22" y1="50" x2="894.22" y2="550" stroke="#e0e0e0" stroke-width="1" />
  <line x1="1105.48" y1="50" x2="1105.48" y2="550" stroke="#e0e0e0" stroke-width="1" />
  <line x1="50" y1="550.00" x2="1150" y2="550.00" stroke="#e0e0e0" stroke-width="1" />
  <line x1="50" y1="500.00" x2="1150" y2="500.00" stroke="#e0e0e0" stroke-width="1" />
  <line x1="50" y1="450.00" x2="1150" y2="450.00" stroke="#e0e0e0" stroke-width="1" />
  <line x1="50" y1="400.00" x2="1150" y2="400.00" stroke="#e0e0e0" stroke-width="1" />
  <line x1="50" y1="350.00" x2="1150" y2="350.00" stroke="#e0e0e0" stroke-width="1" />
  <line x1="50" y1="300.00" x2="1150" y2="300.00" stroke="#e0e0e0" stroke-width="1" />
  <line x1="50" y1="250.00" x2="1150" y2="250.00" stroke="#e0e0e0" stroke-width="1" />
  <line x1="50" y1="200.00" x2="1150" y2="200.00" stroke="#e0e0e0" stroke-width="1" />
  <line x1="50" y1="150.00" x2="1150" y2="150.00" stroke="#e0e0e0" stroke-width="1" />
  <line x1="50" y1="100.00" x2="1150" y2="100.00" stroke="#e0e0e0" stroke-width="1" />
  <line x1="50" y1="50.00" x2="1150" y2="50.00" stroke="#e0e0e0" stroke-width="1" />
  <text x="600.0" y="25.0" font-size="20" text-anchor="middle" fill="#222">BRLUSD Weekly Exchange Rate</text>
  <polyline points="50.00,152.04 50.81,152.04 51.62,131.63 52.43,141.84 53.24,131.63 54.05,131.63 54.86,141.84 55.67,141.84 56.48,131.63 57.28,131.63 58.09,121.43 58.90,121.43 59.71,121.43 60.52,131.63 61.33,141.84 62.14,141.84 62.95,152.04 63.76,152.04 64.57,162.24 65.38,162.24 66.19,162.24 67.00,141.84 67.81,152.04 68.62,152.04 69.43,152.04 70.24,141.84 71.04,141.84 71.85,152.04 72.66,141.84 73.47,141.84 74.28,141.84 75.09,141.84 75.90,152.04 76.71,152.04 77.52,152.04 78.33,152.04 79.14,162.24 79.95,162.24 80.76,162.24 81.57,162.24 82.38,172.45 83.19,172.45 84.00,182.65 84.81,192.86 85.61,192.86 86.42,192.86 87.23,192.86 88.04,192.86 88.85,192.86 89.66,192.86 90.47,192.86 91.28,192.86 92.09,192.86 92.90,192.86 93.71,192.86 94.52,192.86 95.33,203.06 96.14,203.06 96.95,203.06 97.76,213.27 98.57,213.27 99.37,213.27 100.18,233.67 100.99,243.88 101.80,233.67 102.61,243.88 103.42,243.88 104.23,254.08 105.04,254.08 105.85,254.08 106.66,264.29 107.47,274.49 108.28,274.49 109.09,284.69 109.90,284.69 110.71,294.90 111.52,274.49 112.33,274.49 113.13,294.90 113.94,315.31 114.75,294.90 115.56,294.90 116.37,305.10 117.18,305.10 117.99,305.10 118.80,315.31 119.61,315.31 120.42,315.31 121.23,335.71 122.04,356.12 122.85,335.71 123.66,345.92 124.47,345.92 125.28,335.71 126.09,335.71 126.89,335.71 127.70,315.31 128.51,315.31 129.32,305.10 130.13,305.10 130.94,284.69 131.75,284.69 132.56,274.49 133.37,274.49 134.18,274.49 134.99,284.69 135.80,274.49 136.61,284.69 137.42,294.90 138.23,294.90 139.04,294.90 139.85,294.90 140.65,274.49 141.46,274.49 142.27,274.49 143.08,284.69 143.89,274.49 144.70,264.29 145.51,264.29 146.32,274.49 147.13,284.69 147.94,284.69 148.75,294.90 149.56,305.10 150.37,305.10 151.18,305.10 151.99,325.51 152.80,335.71 153.61,356.12 154.42,356.12 155.22,356.12 156.03,345.92 156.84,356.12 157.65,376.53 158.46,376.53 159.27,376.53 160.08,386.73 160.89,386.73 161.70,376.53 162.51,386.73 163.32,386.73 164.13,417.35 164.94,447.96 165.75,427.55 166.56,447.96 167.37,447.96 168.18,437.76 168.98,427.55 169.79,427.55 170.60,437.76 171.41,427.55 172.22,437.76 173.03,437.76 173.84,437.76 174.65,417.35 175.46,427.55 176.27,417.35 177.08,407.14 177.89,407.14 178.70,427.55 179.51,427.55 180.32,427.55 181.13,437.76 181.94,427.55 182.74,427.55 183.55,417.35 184.36,417.35 185.17,417.35 185.98,407.14 186.79,396.94 187.60,396.94 188.41,376.53 189.22,376.53 190.03,366.33 190.84,356.12 191.65,366.33 192.46,366.33 193.27,366.33 194.08,356.12 194.89,356.12 195.70,356.12 196.50,356.12 197.31,356.12 198.12,356.12 198.93,356.12 199.74,356.12 200.55,376.53 201.36,366.33 202.17,376.53 202.98,366.33 203.79,366.33 204.60,366.33 205.41,366.33 206.22,366.33 207.03,366.33 207.84,356.12 208.65,356.12 209.46,356.12 210.26,356.12 211.07,356.12 211.88,356.12 212.69,366.33 213.50,366.33 214.31,366.33 215.12,366.33 215.93,366.33 216.74,366.33 217.55,366.33 218.36,366.33 219.17,356.12 219.98,356.12 220.79,356.12 221.60,366.33 222.41,366.33 223.22,366.33 224.03,366.33 224.83,366.33 225.64,356.12 226.45,366.33 227.26,366.33 228.07,366.33 228.88,356.12 229.69,356.12 230.50,366.33 231.31,366.33 232.12,366.33 232.93,376.53 233.74,386.73 234.55,396.94 235.36,386.73 236.17,386.73 236.98,386.73 237.79,386.73 238.59,386.73 239.40,376.53 240.21,376.53 241.02,376.53 241.83,376.53 242.64,376.53 243.45,376.53 244.26,376.53 245.07,366.33 245.88,366.33 246.69,366.33 247.50,366.33 248.31,356.12 249.12,356.12 249.93,356.12 250.74,356.12 251.55,356.12 252.35,356.12 253.16,356.12 253.97,356.12 254.78,345.92 255.59,345.92 256.40,335.71 257.21,335.71 258.02,345.92 258.83,335.71 259.64,335.71 260.45,325.51 261.26,335.71 262.07,335.71 262.88,335.71 263.69,325.51 264.50,325.51 265.31,325.51 266.11,315.31 266.92,325.51 267.73,325.51 268.54,335.71 269.35,335.71 270.16,345.92 270.97,325.51 271.78,315.31 272.59,325.51 273.40,315.31 274.21,305.10 275.02,294.90 275.83,305.10 276.64,294.90 277.45,284.69 278.26,294.90 279.07,305.10 279.87,284.69 280.68,284.69 281.49,284.69 282.30,284.69 283.11,274.49 283.92,284.69 284.73,284.69 285.54,274.49 286.35,284.69 287.16,294.90 287.97,284.69 288.78,274.49 289.59,274.49 290.40,274.49 291.21,264.29 292.02,254.08 292.83,264.29 293.64,254.08 294.44,264.29 295.25,264.29 296.06,254.08 296.87,243.88 297.68,254.08 298.49,254.08 299.30,254.08 300.11,264.29 300.92,274.49 301.73,274.49 302.54,274.49 303.35,264.29 304.16,264.29 304.97,264.29 305.78,254.08 306.59,254.08 307.40,243.88 308.20,233.67 309.01,233.67 309.82,233.67 310.63,233.67 311.44,233.67 312.25,243.88 313.06,243.88 313.87,233.67 314.68,233.67 315.49,233.67 316.30,223.47 317.11,213.27 317.92,233.67 318.73,254.08 319.54,254.08 320.35,264.29 321.16,264.29 321.96,254.08 322.77,254.08 323.58,243.88 324.39,243.88 325.20,254.08 326.01,254.08 326.82,243.88 327.63,243.88 328.44,243.88 329.25,233.67 330.06,243.88 330.87,233.67 331.68,243.88 332.49,243.88 333.30,254.08 334.11,243.88 334.92,243.88 335.72,233.67 336.53,233.67 337.34,233.67 338.15,233.67 338.96,243.88 339.77,243.88 340.58,243.88 341.39,243.88 342.20,233.67 343.01,233.67 343.82,233.67 344.63,233.67 345.44,243.88 346.25,233.67 347.06,233.67 347.87,233.67 348.68,223.47 349.48,233.67 350.29,223.47 351.10,223.47 351.91,233.67 352.72,223.47 353.53,223.47 354.34,213.27 355.15,213.27 355.96,213.27 356.77,213.27 357.58,213.27 358.39,213.27 359.20,213.27 360.01,203.06 360.82,192.86 361.63,192.86 362.44,172.45 363.25,192.86 364.05,182.65 364.86,192.86 365.67,182.65 366.48,172.45 367.29,162.24 368.10,162.24 368.91,172.45 369.72,172.45 370.53,192.86 371.34,213.27 372.15,192.86 372.96,192.86 373.77,192.86 374.58,172.45 375.39,162.24 376.20,152.04 377.01,152.04 377.81,141.84 378.62,141.84 379.43,131.63 380.24,131.63 381.05,131.63 381.86,131.63 382.67,141.84 383.48,141.84 384.29,131.63 385.10,141.84 385.91,141.84 386.72,141.84 387.53,131.63 388.34,131.63 389.15,141.84 389.96,141.84 390.77,131.63 391.57,141.84 392.38,131.63 393.19,111.22 394.00,111.22 394.81,111.22 395.62,121.43 396.43,121.43 397.24,131.63 398.05,111.22 398.86,111.22 399.67,101.02 400.48,101.02 401.29,90.82 402.10,111.22 402.91,90.82 403.72,101.02 404.53,80.61 405.33,90.82 406.14,90.82 406.95,80.61 407.76,70.41 408.57,80.61 409.38,80.61 410.19,70.41 411.00,60.20 411.81,60.20 412.62,80.61 413.43,90.82 414.24,90.82 415.05,90.82 415.86,121.43 416.67,141.84 417.48,152.04 418.29,162.24 419.09,213.27 419.90,274.49 420.71,233.67 421.52,274.49 422.33,243.88 423.14,243.88 423.95,264.29 424.76,305.10 425.57,274.49 426.38,294.90 427.19,284.69 428.00,284.69 428.81,284.69 429.62,274.49 430.43,264.29 431.24,274.49 432.05,274.49 432.86,274.49 433.66,264.29 434.47,264.29 435.28,284.69 436.09,284.69 436.90,284.69 437.71,274.49 438.52,264.29 439.33,264.29 440.14,254.08 440.95,243.88 441.76,243.88 442.57,243.88 443.38,243.88 444.19,213.27 445.00,233.67 445.81,213.27 446.62,192.86 447.42,192.86 448.23,182.65 449.04,192.86 449.85,182.65 450.66,192.86 451.47,203.06 452.28,182.65 453.09,172.45 453.90,162.24 454.71,152.04 455.52,162.24 456.33,152.04 457.14,172.45 457.95,162.24 458.76,152.04 459.57,152.04 460.38,141.84 461.18,141.84 461.99,131.63 462.80,121.43 463.61,121.43 464.42,131.63 465.23,121.43 466.04,121.43 466.85,121.43 467.66,131.63 468.47,121.43 469.28,131.63 470.09,141.84 470.90,131.63 471.71,131.63 472.52,121.43 473.33,141.84 474.14,152.04 474.94,172.45 475.75,172.45 476.56,162.24 477.37,152.04 478.18,152.04 478.99,141.84 479.80,131.63 480.61,141.84 481.42,152.04 482.23,131.63 483.04,131.63 483.85,131.63 484.66,131.63 485.47,121.43 486.28,162.24 487.09,141.84 487.90,162.24 488.70,152.04 489.51,162.24 490.32,152.04 491.13,141.84 491.94,141.84 492.75,141.84 493.56,131.63 494.37,141.84 495.18,141.84 495.99,131.63 496.80,131.63 497.61,141.84 498.42,131.63 499.23,131.63 500.04,121.43 500.85,121.43 501.66,121.43 502.47,121.43 503.27,111.22 504.08,101.02 504.89,101.02 505.70,111.22 506.51,111.22 507.32,101.02 508.13,121.43 508.94,121.43 509.75,121.43 510.56,111.22 511.37,111.22 512.18,121.43 512.99,111.22 513.80,101.02 514.61,111.22 515.42,111.22 516.23,101.02 517.03,111.22 517.84,101.02 518.65,101.02 519.46,101.02 520.27,101.02 521.08,101.02 521.89,101.02 522.70,101.02 523.51,101.02 524.32,80.61 525.13,60.20 525.94,70.41 526.75,60.20 527.56,70.41 528.37,80.61 529.18,90.82 529.99,80.61 530.79,80.61 531.60,70.41 532.41,70.41 533.22,70.41 534.03,80.61 534.84,60.20 535.65,60.20 536.46,60.20 537.27,60.20 538.08,50.00 538.89,70.41 539.70,80.61 540.51,70.41 541.32,80.61 542.13,90.82 542.94,101.02 543.75,121.43 544.55,152.04 545.36,172.45 546.17,131.63 546.98,121.43 547.79,141.84 548.60,111.22 549.41,131.63 550.22,131.63 551.03,141.84 551.84,172.45 552.65,141.84 553.46,152.04 554.27,162.24 555.08,162.24 555.89,162.24 556.70,162.24 557.51,141.84 558.31,131.63 559.12,121.43 559.93,121.43 560.74,121.43 561.55,121.43 562.36,111.22 563.17,121.43 563.98,141.84 564.79,141.84 565.60,152.04 566.41,152.04 567.22,152.04 568.03,162.24 568.84,172.45 569.65,172.45 570.46,182.65 571.27,192.86 572.08,213.27 572.88,203.06 573.69,213.27 574.50,213.27 575.31,213.27 576.12,223.47 576.93,203.06 577.74,213.27 578.55,213.27 579.36,213.27 580.17,213.27 580.98,213.27 581.79,203.06 582.60,203.06 583.41,213.27 584.22,213.27 585.03,213.27 585.84,203.06 586.64,213.27 587.45,213.27 588.26,213.27 589.07,213.27 589.88,213.27 590.69,213.27 591.50,213.27 592.31,213.27 593.12,223.47 593.93,223.47 594.74,233.67 595.55,223.47 596.36,223.47 597.17,223.47 597.98,213.27 598.79,213.27 599.60,213.27 600.40,213.27 601.21,213.27 602.02,203.06 602.83,192.86 603.64,192.86 604.45,192.86 605.26,192.86 606.07,192.86 606.88,192.86 607.69,203.06 608.50,213.27 609.31,203.06 610.12,192.86 610.93,203.06 611.74,203.06 612.55,203.06 613.36,213.27 614.16,213.27 614.97,213.27 615.78,233.67 616.59,233.67 617.40,233.67 618.21,254.08 619.02,254.08 619.83,264.29 620.64,264.29 621.45,264.29 622.26,264.29 623.07,264.29 623.88,264.29 624.69,284.69 625.50,274.49 626.31,284.69 627.12,274.49 627.92,264.29 628.73,254.08 629.54,264.29 630.35,254.08 631.16,243.88 631.97,243.88 632.78,243.88 633.59,264.29 634.40,274.49 635.21,274.49 636.02,264.29 636.83,274.49 637.64,274.49 638.45,274.49 639.26,284.69 640.07,274.49 640.88,284.69 641.69,284.69 642.49,274.49 643.30,284.69 644.11,294.90 644.92,284.69 645.73,284.69 646.54,274.49 647.35,274.49 648.16,274.49 648.97,274.49 649.78,274.49 650.59,264.29 651.40,254.08 652.21,254.08 653.02,254.08 653.83,254.08 654.64,254.08 655.45,254.08 656.25,254.08 657.06,254.08 657.87,254.08 658.68,264.29 659.49,254.08 660.30,254.08 661.11,243.88 661.92,254.08 662.73,254.08 663.54,254.08 664.35,254.08 665.16,264.29 665.97,264.29 666.78,264.29 667.59,264.29 668.40,254.08 669.21,254.08 670.01,274.49 670.82,284.69 671.63,294.90 672.44,305.10 673.25,294.90 674.06,294.90 674.87,294.90 675.68,305.10 676.49,315.31 677.30,325.51 678.11,305.10 678.92,315.31 679.73,315.31 680.54,325.51 681.35,325.51 682.16,335.71 682.97,335.71 683.77,325.51 684.58,325.51 685.39,315.31 686.20,335.71 687.01,345.92 687.82,356.12 688.63,356.12 689.44,356.12 690.25,376.53 691.06,396.94 691.87,396.94 692.68,396.94 693.49,386.73 694.30,376.53 695.11,376.53 695.92,366.33 696.73,376.53 697.53,366.33 698.34,376.53 699.15,386.73 699.96,396.94 700.77,386.73 701.58,386.73 702.39,386.73 703.20,386.73 704.01,386.73 704.82,386.73 705.63,396.94 706.44,407.14 707.25,417.35 708.06,417.35 708.87,417.35 709.68,417.35 710.49,427.55 711.30,447.96 712.10,447.96 712.91,458.16 713.72,458.16 714.53,458.16 715.34,437.76 716.15,458.16 716.96,447.96 717.77,447.96 718.58,437.76 719.39,447.96 720.20,437.76 721.01,447.96 721.82,437.76 722.63,447.96 723.44,458.16 724.25,458.16 725.06,458.16 725.86,458.16 726.67,458.16 727.48,468.37 728.29,458.16 729.10,447.96 729.91,458.16 730.72,458.16 731.53,458.16 732.34,437.76 733.15,427.55 733.96,427.55 734.77,437.76 735.58,427.55 736.39,427.55 737.20,427.55 738.01,427.55 738.82,417.35 739.62,417.35 740.43,427.55 741.24,427.55 742.05,427.55 742.86,427.55 743.67,417.35 744.48,417.35 745.29,407.14 746.10,396.94 746.91,407.14 747.72,396.94 748.53,396.94 749.34,396.94 750.15,386.73 750.96,396.94 751.77,396.94 752.58,396.94 753.38,396.94 754.19,396.94 755.00,396.94 755.81,396.94 756.62,396.94 757.43,396.94 758.24,396.94 759.05,386.73 759.86,396.94 760.67,396.94 761.48,417.35 762.29,407.14 763.10,417.35 763.91,417.35 764.72,407.14 765.53,417.35 766.34,396.94 767.14,396.94 767.95,396.94 768.76,396.94 769.57,386.73 770.38,386.73 771.19,386.73 772.00,386.73 772.81,386.73 773.62,386.73 774.43,386.73 775.24,386.73 776.05,386.73 776.86,386.73 777.67,386.73 778.48,386.73 779.29,386.73 780.10,386.73 780.91,396.94 781.71,396.94 782.52,386.73 783.33,396.94 784.14,396.94 784.95,396.94 785.76,407.14 786.57,407.14 787.38,407.14 788.19,407.14 789.00,407.14 789.81,396.94 790.62,386.73 791.43,386.73 792.24,386.73 793.05,396.94 793.86,386.73 794.67,386.73 795.47,386.73 796.28,386.73 797.09,386.73 797.90,386.73 798.71,386.73 799.52,386.73 800.33,386.73 801.14,396.94 801.95,396.94 802.76,407.14 803.57,396.94 804.38,396.94 805.19,396.94 806.00,396.94 806.81,407.14 807.62,407.14 808.43,407.14 809.23,407.14 810.04,396.94 810.85,396.94 811.66,396.94 812.47,386.73 813.28,396.94 814.09,407.14 814.90,396.94 815.71,396.94 816.52,396.94 817.33,396.94 818.14,407.14 818.95,407.14 819.76,407.14 820.57,407.14 821.38,417.35 822.19,417.35 822.99,417.35 823.80,427.55 824.61,427.55 825.42,437.76 826.23,437.76 827.04,437.76 827.85,437.76 828.66,437.76 829.47,447.96 830.28,447.96 831.09,447.96 831.90,447.96 832.71,437.76 833.52,437.76 834.33,437.76 835.14,447.96 835.95,447.96 836.75,468.37 837.56,458.16 838.37,458.16 839.18,468.37 839.99,458.16 840.80,458.16 841.61,447.96 842.42,447.96 843.23,437.76 844.04,437.76 844.85,437.76 845.66,437.76 846.47,437.76 847.28,447.96 848.09,447.96 848.90,447.96 849.71,447.96 850.52,447.96 851.32,447.96 852.13,437.76 852.94,437.76 853.75,437.76 854.56,447.96 855.37,437.76 856.18,437.76 856.99,437.76 857.80,437.76 858.61,447.96 859.42,447.96 860.23,447.96 861.04,447.96 861.85,447.96 862.66,447.96 863.47,447.96 864.28,458.16 865.08,458.16 865.89,458.16 866.70,458.16 867.51,468.37 868.32,458.16 869.13,458.16 869.94,447.96 870.75,447.96 871.56,447.96 872.37,447.96 873.18,447.96 873.99,437.76 874.80,437.76 875.61,447.96 876.42,447.96 877.23,458.16 878.04,458.16 878.84,468.37 879.65,468.37 880.46,458.16 881.27,468.37 882.08,468.37 882.89,468.37 883.70,458.16 884.51,468.37 885.32,468.37 886.13,458.16 886.94,458.16 887.75,468.37 888.56,468.37 889.37,468.37 890.18,468.37 890.99,468.37 891.80,468.37 892.60,468.37 893.41,458.16 894.22,458.16 895.03,468.37 895.84,468.37 896.65,468.37 897.46,478.57 898.27,478.57 899.08,478.57 899.89,478.57 900.70,488.78 901.51,488.78 902.32,498.98 903.13,509.18 903.94,509.18 904.75,519.39 905.56,509.18 906.36,519.39 907.17,529.59 907.98,529.59 908.79,539.80 909.60,539.80 910.41,529.59 911.22,519.39 912.03,509.18 912.84,509.18 913.65,519.39 914.46,529.59 915.27,519.39 916.08,519.39 916.89,519.39 917.70,519.39 918.51,519.39 919.32,529.59 920.13,529.59 920.93,529.59 921.74,519.39 922.55,519.39 923.36,519.39 924.17,519.39 924.98,529.59 925.79,529.59 926.60,529.59 927.41,529.59 928.22,529.59 929.03,539.80 929.84,519.39 930.65,529.59 931.46,519.39 932.27,519.39 933.08,519.39 933.89,509.18 934.69,509.18 935.50,519.39 936.31,519.39 937.12,529.59 937.93,519.39 938.74,529.59 939.55,529.59 940.36,519.39 941.17,519.39 941.98,519.39 942.79,529.59 943.60,529.59 944.41,529.59 945.22,529.59 946.03,539.80 946.84,529.59 947.65,529.59 948.45,529.59 949.26,529.59 950.07,529.59 950.88,519.39 951.69,519.39 952.50,519.39 953.31,519.39 954.12,509.18 954.93,509.18 955.74,509.18 956.55,509.18 957.36,509.18 958.17,519.39 958.98,509.18 959.79,519.39 960.60,519.39 961.41,519.39 962.21,519.39 963.02,519.39 963.83,519.39 964.64,519.39 965.45,519.39 966.26,519.39 967.07,519.39 967.88,519.39 968.69,529.59 969.50,529.59 970.31,529.59 971.12,529.59 971.93,529.59 972.74,529.59 973.55,529.59 974.36,529.59 975.17,529.59 975.97,529.59 976.78,529.59 977.59,529.59 978.40,529.59 979.21,529.59 980.02,529.59 980.83,529.59 981.64,519.39 982.45,519.39 983.26,519.39 984.07,519.39 984.88,519.39 985.69,509.18 986.50,509.18 987.31,509.18 988.12,498.98 988.93,498.98 989.74,498.98 990.54,498.98 991.35,498.98 992.16,509.18 992.97,509.18 993.78,509.18 994.59,509.18 995.40,498.98 996.21,498.98 997.02,509.18 997.83,519.39 998.64,519.39 999.45,519.39 1000.26,519.39 1001.07,529.59 1001.88,529.59 1002.69,519.39 1003.50,519.39 1004.30,509.18 1005.11,519.39 1005.92,509.18 1006.73,519.39 1007.54,519.39 1008.35,519.39 1009.16,519.39 1009.97,529.59 1010.78,519.39 1011.59,519.39 1012.40,519.39 1013.21,519.39 1014.02,509.18 1014.83,519.39 1015.64,519.39 1016.45,519.39 1017.26,519.39 1018.06,519.39 1018.87,519.39 1019.68,519.39 1020.49,519.39 1021.30,519.39 1022.11,509.18 1022.92,519.39 1023.73,509.18 1024.54,519.39 1025.35,519.39 1026.16,519.39 1026.97,519.39 1027.78,519.39 1028.59,519.39 1029.40,519.39 1030.21,519.39 1031.02,509.18 1031.82,509.18 1032.63,509.18 1033.44,509.18 1034.25,509.18 1035.06,509.18 1035.87,509.18 1036.68,509.18 1037.49,509.18 1038.30,509.18 1039.11,509.18 1039.92,498.98 1040.73,498.98 1041.54,498.98 1042.35,498.98 1043.16,498.98 1043.97,498.98 1044.78,498.98 1045.58,498.98 1046.39,509.18 1047.20,509.18 1048.01,498.98 1048.82,509.18 1049.63,509.18 1050.44,498.98 1051.25,509.18 1052.06,509.18 1052.87,519.39 1053.68,509.18 1054.49,509.18 1055.30,509.18 1056.11,509.18 1056.92,509.18 1057.73,509.18 1058.54,509.18 1059.35,509.18 1060.15,509.18 1060.96,509.18 1061.77,498.98 1062.58,498.98 1063.39,498.98 1064.20,498.98 1065.01,509.18 1065.82,509.18 1066.63,509.18 1067.44,509.18 1068.25,509.18 1069.06,509.18 1069.87,509.18 1070.68,509.18 1071.49,509.18 1072.30,509.18 1073.11,509.18 1073.91,509.18 1074.72,509.18 1075.53,519.39 1076.34,509.18 1077.15,509.18 1077.96,519.39 1078.77,509.18 1079.58,519.39 1080.39,519.39 1081.20,519.39 1082.01,519.39 1082.82,529.59 1083.63,529.59 1084.44,529.59 1085.25,529.59 1086.06,529.59 1086.87,529.59 1087.67,539.80 1088.48,529.59 1089.29,529.59 1090.10,529.59 1090.91,529.59 1091.72,529.59 1092.53,529.59 1093.34,529.59 1094.15,529.59 1094.96,529.59 1095.77,529.59 1096.58,529.59 1097.39,529.59 1098.20,539.80 1099.01,539.80 1099.82,539.80 1100.63,539.80 1101.43,539.80 1102.24,550.00 1103.05,539.80 1103.86,550.00 1104.67,550.00 1105.48,550.00 1106.29,550.00 1107.10,550.00 1107.91,539.80 1108.72,539.80 1109.53,539.80 1110.34,529.59 1111.15,539.80 1111.96,539.80 1112.77,539.80 1113.58,539.80 1114.39,539.80 1115.19,539.80 1116.00,539.80 1116.81,539.80 1117.62,539.80 1118.43,529.59 1119.24,529.59 1120.05,529.59 1120.86,529.59 1121.67,529.59 1122.48,539.80 1123.29,529.59 1124.10,529.59 1124.91,529.59 1125.72,529.59 1126.53,529.59 1127.34,529.59 1128.15,529.59 1128.96,529.59 1129.76,529.59 1130.57,529.59 1131.38,519.39 1132.19,529.59 1133.00,529.59 1133.81,529.59 1134.62,519.39 1135.43,519.39 1136.24,519.39 1137.05,519.39 1137.86,529.59 1138.67,529.59 1139.48,519.39 1140.29,519.39 1141.10,519.39 1141.91,519.39 1142.72,519.39 1143.52,519.39 1144.33,529.59 1145.14,529.59 1145.95,529.59 1146.76,529.59 1147.57,529.59 1148.38,519.39 1149.19,519.39 1150.00,519.39" fill="none" stroke="#2f6fb0" stroke-width="2" />
  <text x="50.00" y="575.0" font-size="12" text-anchor="middle" fill="#444">2000</text>
  <text x="261.26" y="575.0" font-size="12" text-anchor="middle" fill="#444">2005</text>
  <text x="471.71" y="575.0" font-size="12" text-anchor="middle" fill="#444">2010</text>
  <text x="682.97" y="575.0" font-size="12" text-anchor="middle" fill="#444">2015</text>
  <text x="894.22" y="575.0" font-size="12" text-anchor="middle" fill="#444">2020</text>
  <text x="1105.48" y="575.0" font-size="12" text-anchor="middle" fill="#444">2025</text>
  <text x="42" y="554.00" font-size="12" text-anchor="end" fill="#444">0.1600</text>
  <text x="42" y="504.00" font-size="12" text-anchor="end" fill="#444">0.2090</text>
  <text x="42" y="454.00" font-size="12" text-anchor="end" fill="#444">0.2580</text>
  <text x="42" y="404.00" font-size="12" text-anchor="end" fill="#444">0.3070</text>
  <text x="42" y="354.00" font-size="12" text-anchor="end" fill="#444">0.3560</text>
  <text x="42" y="304.00" font-size="12" text-anchor="end" fill="#444">0.4050</text>
  <text x="42" y="254.00" font-size="12" text-anchor="end" fill="#444">0.4540</text>
  <text x="42" y="204.00" font-size="12" text-anchor="end" fill="#444">0.5030</text>
  <text x="42" y="154.00" font-size="12" text-anchor="end" fill="#444">0.5520</text>
  <text x="42" y="104.00" font-size="12" text-anchor="end" fill="#444">0.6010</text>
  <text x="42" y="54.00" font-size="12" text-anchor="end" fill="#444">0.6500</text>
  <text x="600.0" y="590" font-size="14" text-anchor="middle" fill="#222">Year</text>
  <text x="20" y="300.0" font-size="14" text-anchor="middle" fill="#222" transform="rotate(-90, 20, 300.0)">Exchange Rate</text>
  <text x="50" y="50" font-size="12" fill="#444">Max: 0.6500</text>
  <text x="50" y="66" font-size="12" fill="#444">Min: 0.1600</text>
</svg>
