<svg xmlns="http://www.w3.org/2000/svg" width="1200" height="600">
  <rect width="100%" height="100%" fill="white" />
  <text x="600.0" y="25.0" font-size="20" text-anchor="middle" fill="#222">CADUSD Weekly Exchange Rate</text>
  <polyline points="50.00,472.22 50.81,472.22 51.62,472.22 52.43,472.22 53.24,472.22 54.05,472.22 54.86,472.22 55.67,472.22 56.48,472.22 57.28,472.22 58.09,483.33 58.90,483.33 59.71,472.22 60.52,472.22 61.33,483.33 62.14,483.33 62.95,483.33 63.76,494.44 64.57,494.44 65.38,494.44 66.19,494.44 67.00,483.33 67.81,483.33 68.62,483.33 69.43,494.44 70.24,483.33 71.04,483.33 71.85,494.44 72.66,483.33 73.47,483.33 74.28,494.44 75.09,494.44 75.90,483.33 76.71,494.44 77.52,483.33 78.33,483.33 79.14,494.44 79.95,494.44 80.76,494.44 81.57,494.44 82.38,505.56 83.19,505.56 84.00,516.67 84.81,516.67 85.61,516.67 86.42,527.78 87.23,516.67 88.04,516.67 88.85,505.56 89.66,505.56 90.47,505.56 91.28,494.44 92.09,494.44 92.90,494.44 93.71,505.56 94.52,505.56 95.33,494.44 96.14,505.56 96.95,516.67 97.76,516.67 98.57,516.67 99.37,516.67 100.18,527.78 100.99,527.78 101.80,538.89 102.61,527.78 103.42,527.78 104.23,516.67 105.04,516.67 105.85,516.67 106.66,516.67 107.47,516.67 108.28,516.67 109.09,516.67 109.90,505.56 110.71,505.56 111.52,505.56 112.33,505.56 113.13,505.56 113.94,516.67 114.75,516.67 115.56,516.67 116.37,516.67 117.18,516.67 117.99,516.67 118.80,516.67 119.61,527.78 120.42,527.78 121.23,527.78 122.04,527.78 122.85,538.89 123.66,527.78 124.47,527.78 125.28,527.78 126.09,538.89 126.89,538.89 127.70,550.00 128.51,538.89 129.32,538.89 130.13,527.78 130.94,527.78 131.75,527.78 132.56,538.89 133.37,538.89 134.18,538.89 134.99,538.89 135.80,550.00 136.61,550.00 137.42,538.89 138.23,538.89 139.04,538.89 139.85,538.89 140.65,538.89 141.46,538.89 142.27,538.89 143.08,538.89 143.89,538.89 144.70,538.89 145.51,538.89 146.32,527.78 147.13,527.78 147.94,527.78 148.75,527.78 149.56,516.67 150.37,516.67 151.18,516.67 151.99,516.67 152.80,516.67 153.61,505.56 154.42,505.56 155.22,505.56 156.03,516.67 156.84,516.67 157.65,538.89 158.46,538.89 159.27,527.78 160.08,527.78 160.89,527.78 161.70,527.78 162.51,527.78 163.32,538.89 164.13,527.78 164.94,538.89 165.75,538.89 166.56,538.89 167.37,527.78 168.18,527.78 168.98,527.78 169.79,527.78 170.60,538.89 171.41,538.89 172.22,527.78 173.03,527.78 173.84,527.78 174.65,527.78 175.46,527.78 176.27,527.78 177.08,516.67 177.89,516.67 178.70,505.56 179.51,505.56 180.32,505.56 181.13,505.56 181.94,505.56 182.74,494.44 183.55,483.33 184.36,483.33 185.17,494.44 185.98,483.33 186.79,483.33 187.60,472.22 188.41,472.22 189.22,472.22 190.03,461.11 190.84,438.89 191.65,427.78 192.46,427.78 193.27,427.78 194.08,416.67 194.89,405.56 195.70,416.67 196.50,416.67 197.31,405.56 198.12,427.78 198.93,450.00 199.74,438.89 200.55,450.00 201.36,438.89 202.17,438.89 202.98,450.00 203.79,438.89 204.60,427.78 205.41,427.78 206.22,416.67 207.03,416.67 207.84,416.67 208.65,394.44 209.46,394.44 210.26,394.44 211.07,394.44 211.88,394.44 212.69,383.33 213.50,383.33 214.31,383.33 215.12,383.33 215.93,394.44 216.74,405.56 217.55,383.33 218.36,372.22 219.17,361.11 219.98,383.33 220.79,394.44 221.60,405.56 222.41,394.44 223.22,394.44 224.03,405.56 224.83,405.56 225.64,394.44 226.45,405.56 227.26,405.56 228.07,394.44 228.88,394.44 229.69,405.56 230.50,416.67 231.31,427.78 232.12,427.78 232.93,438.89 233.74,438.89 234.55,427.78 235.36,427.78 236.17,416.67 236.98,427.78 237.79,427.78 238.59,416.67 239.40,394.44 240.21,394.44 241.02,394.44 241.83,394.44 242.64,405.56 243.45,394.44 244.26,394.44 245.07,383.33 245.88,394.44 246.69,383.33 247.50,383.33 248.31,383.33 249.12,372.22 249.93,361.11 250.74,350.00 251.55,350.00 252.35,338.89 253.16,327.78 253.97,305.56 254.78,305.56 255.59,305.56 256.40,294.44 257.21,305.56 258.02,327.78 258.83,338.89 259.64,338.89 260.45,316.67 261.26,338.89 262.07,327.78 262.88,327.78 263.69,338.89 264.50,350.00 265.31,338.89 266.11,338.89 266.92,338.89 267.73,338.89 268.54,316.67 269.35,316.67 270.16,327.78 270.97,327.78 271.78,338.89 272.59,350.00 273.40,338.89 274.21,361.11 275.02,350.00 275.83,361.11 276.64,361.11 277.45,350.00 278.26,350.00 279.07,350.00 279.87,338.89 280.68,338.89 281.49,338.89 282.30,327.78 283.11,327.78 283.92,327.78 284.73,327.78 285.54,327.78 286.35,305.56 287.16,316.67 287.97,316.67 288.78,305.56 289.59,294.44 290.40,294.44 291.21,294.44 292.02,283.33 292.83,294.44 293.64,305.56 294.44,305.56 295.25,294.44 296.06,305.56 296.87,305.56 297.68,305.56 298.49,283.33 299.30,283.33 300.11,283.33 300.92,283.33 301.73,283.33 302.54,283.33 303.35,283.33 304.16,283.33 304.97,272.22 305.78,272.22 306.59,272.22 307.40,272.22 308.20,272.22 309.01,272.22 309.82,261.11 310.63,283.33 311.44,283.33 312.25,283.33 313.06,283.33 313.87,272.22 314.68,272.22 315.49,261.11 316.30,238.89 317.11,238.89 317.92,238.89 318.73,250.00 319.54,238.89 320.35,227.78 321.16,238.89 321.96,250.00 322.77,250.00 323.58,238.89 324.39,238.89 325.20,250.00 326.01,261.11 326.82,261.11 327.63,250.00 328.44,250.00 329.25,250.00 330.06,238.89 330.87,227.78 331.68,250.00 332.49,250.00 333.30,250.00 334.11,250.00 334.92,250.00 335.72,261.11 336.53,250.00 337.34,250.00 338.15,250.00 338.96,261.11 339.77,272.22 340.58,261.11 341.39,272.22 342.20,272.22 343.01,283.33 343.82,283.33 344.63,283.33 345.44,294.44 346.25,294.44 347.06,294.44 347.87,294.44 348.68,305.56 349.48,294.44 350.29,283.33 351.10,283.33 351.91,294.44 352.72,294.44 353.53,294.44 354.34,283.33 355.15,272.22 355.96,272.22 356.77,261.11 357.58,250.00 358.39,238.89 359.20,238.89 360.01,238.89 360.82,216.67 361.63,205.56 362.44,194.44 363.25,194.44 364.05,194.44 364.86,194.44 365.67,194.44 366.48,183.33 367.29,183.33 368.10,183.33 368.91,194.44 369.72,183.33 370.53,183.33 371.34,194.44 372.15,183.33 372.96,183.33 373.77,183.33 374.58,161.11 375.39,127.78 376.20,116.67 377.01,105.56 377.81,94.44 378.62,94.44 379.43,83.33 380.24,50.00 381.05,61.11 381.86,94.44 382.67,116.67 383.48,127.78 384.29,138.89 385.10,150.00 385.91,116.67 386.72,105.56 387.53,127.78 388.34,150.00 389.15,161.11 389.96,138.89 390.77,127.78 391.57,127.78 392.38,138.89 393.19,138.89 394.00,116.67 394.81,116.67 395.62,116.67 396.43,150.00 397.24,150.00 398.05,138.89 398.86,150.00 399.67,127.78 400.48,138.89 401.29,150.00 402.10,138.89 402.91,127.78 403.72,116.67 404.53,116.67 405.33,150.00 406.14,161.11 406.95,150.00 407.76,138.89 408.57,150.00 409.38,138.89 410.19,138.89 411.00,150.00 411.81,161.11 412.62,194.44 413.43,194.44 414.24,172.22 415.05,194.44 415.86,194.44 416.67,194.44 417.48,172.22 418.29,161.11 419.09,216.67 419.90,294.44 420.71,294.44 421.52,372.22 422.33,327.78 423.14,305.56 423.95,338.89 424.76,361.11 425.57,338.89 426.38,361.11 427.19,350.00 428.00,327.78 428.81,327.78 429.62,316.67 430.43,305.56 431.24,350.00 432.05,338.89 432.86,338.89 433.66,327.78 434.47,338.89 435.28,350.00 436.09,372.22 436.90,372.22 437.71,361.11 438.52,338.89 439.33,338.89 440.14,338.89 440.95,327.78 441.76,327.78 442.57,316.67 443.38,305.56 444.19,272.22 445.00,294.44 445.81,250.00 446.62,216.67 447.42,250.00 448.23,250.00 449.04,261.11 449.85,272.22 450.66,283.33 451.47,283.33 452.28,238.89 453.09,216.67 453.90,205.56 454.71,216.67 455.52,227.78 456.33,205.56 457.14,216.67 457.95,216.67 458.76,205.56 459.57,194.44 460.38,216.67 461.18,205.56 461.99,172.22 462.80,172.22 463.61,183.33 464.42,216.67 465.23,205.56 466.04,183.33 466.85,205.56 467.66,194.44 468.47,183.33 469.28,194.44 470.09,194.44 470.90,183.33 471.71,183.33 472.52,161.11 473.33,161.11 474.14,183.33 474.94,205.56 475.75,205.56 476.56,183.33 477.37,172.22 478.18,183.33 478.99,161.11 479.80,150.00 480.61,150.00 481.42,161.11 482.23,138.89 483.04,127.78 483.85,138.89 484.66,127.78 485.47,150.00 486.28,172.22 487.09,161.11 487.90,194.44 488.70,183.33 489.51,194.44 490.32,161.11 491.13,150.00 491.94,161.11 492.75,194.44 493.56,161.11 494.37,183.33 495.18,161.11 495.99,161.11 496.80,161.11 497.61,172.22 498.42,183.33 499.23,183.33 500.04,172.22 500.85,172.22 501.66,161.11 502.47,150.00 503.27,150.00 504.08,138.89 504.89,138.89 505.70,161.11 506.51,150.00 507.32,127.78 508.13,138.89 508.94,150.00 509.75,150.00 510.56,127.78 511.37,138.89 512.18,138.89 512.99,138.89 513.80,127.78 514.61,116.67 515.42,116.67 516.23,116.67 517.03,127.78 517.84,116.67 518.65,116.67 519.46,116.67 520.27,105.56 521.08,94.44 521.89,94.44 522.70,105.56 523.51,105.56 524.32,83.33 525.13,72.22 525.94,83.33 526.75,72.22 527.56,61.11 528.37,94.44 529.18,94.44 529.99,94.44 530.79,105.56 531.60,105.56 532.41,105.56 533.22,105.56 534.03,116.67 534.84,83.33 535.65,83.33 536.46,72.22 537.27,72.22 538.08,72.22 538.89,105.56 539.70,116.67 540.51,116.67 541.32,105.56 542.13,116.67 542.94,127.78 543.75,105.56 544.55,161.11 545.36,183.33 546.17,172.22 546.98,138.89 547.79,138.89 548.60,116.67 549.41,150.00 550.22,138.89 551.03,161.11 551.84,172.22 552.65,150.00 553.46,150.00 554.27,172.22 555.08,150.00 555.89,150.00 556.70,161.11 557.51,150.00 558.31,138.89 559.12,127.78 559.93,116.67 560.74,127.78 561.55,127.78 562.36,127.78 563.17,116.67 563.98,116.67 564.79,116.67 565.60,127.78 566.41,127.78 567.22,127.78 568.03,127.78 568.84,116.67 569.65,105.56 570.46,127.78 571.27,127.78 572.08,150.00 572.88,161.11 573.69,172.22 574.50,161.11 575.31,150.00 576.12,150.00 576.93,150.00 577.74,150.00 578.55,138.89 579.36,138.89 580.17,127.78 580.98,127.78 581.79,116.67 582.60,116.67 583.41,116.67 584.22,116.67 585.03,105.56 585.84,94.44 586.64,105.56 587.45,105.56 588.26,105.56 589.07,105.56 589.88,116.67 590.69,127.78 591.50,127.78 592.31,127.78 593.12,127.78 593.93,116.67 594.74,116.67 595.55,116.67 596.36,116.67 597.17,116.67 597.98,127.78 598.79,116.67 599.60,105.56 600.40,116.67 601.21,138.89 602.02,127.78 602.83,127.78 603.64,138.89 604.45,150.00 605.26,161.11 606.07,161.11 606.88,150.00 607.69,150.00 608.50,150.00 609.31,150.00 610.12,138.89 610.93,161.11 611.74,150.00 612.55,138.89 613.36,138.89 614.16,161.11 614.97,161.11 615.78,172.22 616.59,150.00 617.40,150.00 618.21,172.22 619.02,183.33 619.83,183.33 620.64,172.22 621.45,172.22 622.26,161.11 623.07,172.22 623.88,161.11 624.69,161.11 625.50,183.33 626.31,183.33 627.12,172.22 627.92,161.11 628.73,161.11 629.54,161.11 630.35,161.11 631.16,161.11 631.97,161.11 632.78,172.22 633.59,172.22 634.40,183.33 635.21,172.22 636.02,183.33 636.83,194.44 637.64,194.44 638.45,194.44 639.26,194.44 640.07,205.56 640.88,194.44 641.69,216.67 642.49,227.78 643.30,238.89 644.11,238.89 644.92,227.78 645.73,227.78 646.54,238.89 647.35,238.89 648.16,238.89 648.97,238.89 649.78,250.00 650.59,238.89 651.40,227.78 652.21,227.78 653.02,227.78 653.83,227.78 654.64,227.78 655.45,216.67 656.25,216.67 657.06,216.67 657.87,216.67 658.68,227.78 659.49,216.67 660.30,205.56 661.11,194.44 661.92,194.44 662.73,205.56 663.54,205.56 664.35,216.67 665.16,216.67 665.97,227.78 666.78,216.67 667.59,227.78 668.40,216.67 669.21,216.67 670.01,238.89 670.82,227.78 671.63,238.89 672.44,250.00 673.25,250.00 674.06,250.00 674.87,250.00 675.68,250.00 676.49,261.11 677.30,250.00 678.11,250.00 678.92,261.11 679.73,272.22 680.54,283.33 681.35,283.33 682.16,283.33 682.97,294.44 683.77,305.56 684.58,316.67 685.39,350.00 686.20,361.11 687.01,350.00 687.82,350.00 688.63,350.00 689.44,350.00 690.25,361.11 691.06,372.22 691.87,350.00 692.68,361.11 693.49,350.00 694.30,350.00 695.11,327.78 695.92,327.78 696.73,327.78 697.53,316.67 698.34,316.67 699.15,338.89 699.96,350.00 700.77,350.00 701.58,338.89 702.39,327.78 703.20,338.89 704.01,350.00 704.82,361.11 705.63,383.33 706.44,383.33 707.25,394.44 708.06,394.44 708.87,394.44 709.68,394.44 710.49,394.44 711.30,405.56 712.10,405.56 712.91,394.44 713.72,405.56 714.53,394.44 715.34,383.33 716.15,383.33 716.96,394.44 717.77,394.44 718.58,405.56 719.39,405.56 720.20,405.56 721.01,405.56 721.82,405.56 722.63,427.78 723.44,438.89 724.25,438.89 725.06,438.89 725.86,450.00 726.67,472.22 727.48,450.00 728.29,438.89 729.10,438.89 729.91,438.89 730.72,427.78 731.53,416.67 732.34,405.56 733.15,394.44 733.96,383.33 734.77,405.56 735.58,383.33 736.39,383.33 737.20,372.22 738.01,361.11 738.82,350.00 739.62,383.33 740.43,383.33 741.24,394.44 742.05,383.33 742.86,383.33 743.67,372.22 744.48,372.22 745.29,383.33 746.10,383.33 746.91,383.33 747.72,383.33 748.53,394.44 749.34,383.33 750.15,394.44 750.96,383.33 751.77,372.22 752.58,383.33 753.38,383.33 754.19,383.33 755.00,394.44 755.81,394.44 756.62,394.44 757.43,405.56 758.24,394.44 759.05,405.56 759.86,405.56 760.67,405.56 761.48,416.67 762.29,416.67 763.10,416.67 763.91,405.56 764.72,394.44 765.53,405.56 766.34,416.67 767.14,416.67 767.95,394.44 768.76,394.44 769.57,405.56 770.38,394.44 771.19,383.33 772.00,394.44 772.81,394.44 773.62,394.44 774.43,405.56 775.24,416.67 776.05,405.56 776.86,405.56 777.67,405.56 778.48,405.56 779.29,405.56 780.10,416.67 780.91,427.78 781.71,427.78 782.52,427.78 783.33,416.67 784.14,416.67 784.95,416.67 785.76,416.67 786.57,394.44 787.38,405.56 788.19,383.33 789.00,372.22 789.81,361.11 790.62,350.00 791.43,350.00 792.24,361.11 793.05,361.11 793.86,361.11 794.67,350.00 795.47,338.89 796.28,327.78 797.09,327.78 797.90,338.89 798.71,350.00 799.52,350.00 800.33,350.00 801.14,361.11 801.95,372.22 802.76,372.22 803.57,361.11 804.38,372.22 805.19,361.11 806.00,361.11 806.81,372.22 807.62,372.22 808.43,361.11 809.23,350.00 810.04,338.89 810.85,350.00 811.66,350.00 812.47,338.89 813.28,350.00 814.09,361.11 814.90,350.00 815.71,361.11 816.52,372.22 817.33,372.22 818.14,394.44 818.95,372.22 819.76,372.22 820.57,372.22 821.38,361.11 822.19,372.22 822.99,372.22 823.80,372.22 824.61,372.22 825.42,372.22 826.23,383.33 827.04,383.33 827.85,383.33 828.66,394.44 829.47,405.56 830.28,394.44 831.09,394.44 831.90,394.44 832.71,394.44 833.52,383.33 834.33,383.33 835.14,394.44 835.95,383.33 836.75,383.33 837.56,383.33 838.37,394.44 839.18,383.33 839.99,383.33 840.80,383.33 841.61,383.33 842.42,383.33 843.23,394.44 844.04,394.44 844.85,394.44 845.66,394.44 846.47,394.44 847.28,394.44 848.09,405.56 848.90,405.56 849.71,405.56 850.52,416.67 851.32,427.78 852.13,405.56 852.94,405.56 853.75,405.56 854.56,394.44 855.37,394.44 856.18,405.56 856.99,394.44 857.80,394.44 858.61,405.56 859.42,405.56 860.23,405.56 861.04,416.67 861.85,405.56 862.66,405.56 863.47,405.56 864.28,405.56 865.08,416.67 865.89,405.56 866.70,405.56 867.51,416.67 868.32,416.67 869.13,416.67 869.94,405.56 870.75,405.56 871.56,394.44 872.37,394.44 873.18,394.44 873.99,383.33 874.80,383.33 875.61,394.44 876.42,394.44 877.23,394.44 878.04,405.56 878.84,405.56 879.65,405.56 880.46,394.44 881.27,405.56 882.08,405.56 882.89,405.56 883.70,405.56 884.51,394.44 885.32,394.44 886.13,383.33 886.94,394.44 887.75,394.44 888.56,394.44 889.37,405.56 890.18,405.56 890.99,405.56 891.80,394.44 892.60,394.44 893.41,394.44 894.22,383.33 895.03,383.33 895.84,383.33 896.65,394.44 897.46,394.44 898.27,405.56 899.08,405.56 899.89,394.44 900.70,405.56 901.51,405.56 902.32,438.89 903.13,461.11 903.94,438.89 904.75,461.11 905.56,438.89 906.36,450.00 907.17,450.00 907.98,450.00 908.79,438.89 909.60,450.00 910.41,450.00 911.22,427.78 912.03,405.56 912.84,416.67 913.65,427.78 914.46,427.78 915.27,416.67 916.08,416.67 916.89,416.67 917.70,405.56 918.51,405.56 919.32,405.56 920.13,405.56 920.93,394.44 921.74,394.44 922.55,383.33 923.36,394.44 924.17,394.44 924.98,405.56 925.79,405.56 926.60,394.44 927.41,394.44 928.22,394.44 929.03,405.56 929.84,383.33 930.65,394.44 931.46,394.44 932.27,383.33 933.08,372.22 933.89,372.22 934.69,372.22 935.50,372.22 936.31,361.11 937.12,361.11 937.93,361.11 938.74,361.11 939.55,372.22 940.36,372.22 941.17,361.11 941.98,361.11 942.79,361.11 943.60,361.11 944.41,350.00 945.22,350.00 946.03,350.00 946.84,350.00 947.65,350.00 948.45,350.00 949.26,350.00 950.07,338.89 950.88,327.78 951.69,316.67 952.50,316.67 953.31,316.67 954.12,316.67 954.93,327.78 955.74,350.00 956.55,338.89 957.36,338.89 958.17,350.00 958.98,361.11 959.79,350.00 960.60,350.00 961.41,350.00 962.21,350.00 963.02,372.22 963.83,361.11 964.64,350.00 965.45,361.11 966.26,372.22 967.07,361.11 967.88,361.11 968.69,350.00 969.50,338.89 970.31,338.89 971.12,338.89 971.93,350.00 972.74,350.00 973.55,361.11 974.36,372.22 975.17,372.22 975.97,361.11 976.78,372.22 977.59,372.22 978.40,361.11 979.21,361.11 980.02,350.00 980.83,361.11 981.64,372.22 982.45,372.22 983.26,361.11 984.07,372.22 984.88,361.11 985.69,361.11 986.50,372.22 987.31,361.11 988.12,350.00 988.93,350.00 989.74,350.00 990.54,361.11 991.35,361.11 992.16,372.22 992.97,383.33 993.78,383.33 994.59,372.22 995.40,361.11 996.21,361.11 997.02,372.22 997.83,383.33 998.64,372.22 999.45,372.22 1000.26,383.33 1001.07,383.33 1001.88,383.33 1002.69,372.22 1003.50,383.33 1004.30,372.22 1005.11,383.33 1005.92,383.33 1006.73,394.44 1007.54,383.33 1008.35,405.56 1009.16,416.67 1009.97,438.89 1010.78,427.78 1011.59,438.89 1012.40,427.78 1013.21,416.67 1014.02,416.67 1014.83,405.56 1015.64,405.56 1016.45,405.56 1017.26,416.67 1018.06,427.78 1018.87,427.78 1019.68,416.67 1020.49,416.67 1021.30,416.67 1022.11,405.56 1022.92,405.56 1023.73,405.56 1024.54,405.56 1025.35,405.56 1026.16,416.67 1026.97,427.78 1027.78,416.67 1028.59,438.89 1029.40,427.78 1030.21,427.78 1031.02,416.67 1031.82,416.67 1032.63,405.56 1033.44,416.67 1034.25,416.67 1035.06,405.56 1035.87,416.67 1036.68,416.67 1037.49,427.78 1038.30,416.67 1039.11,405.56 1039.92,394.44 1040.73,394.44 1041.54,394.44 1042.35,405.56 1043.16,394.44 1043.97,394.44 1044.78,394.44 1045.58,405.56 1046.39,416.67 1047.20,416.67 1048.01,416.67 1048.82,416.67 1049.63,427.78 1050.44,416.67 1051.25,416.67 1052.06,416.67 1052.87,427.78 1053.68,427.78 1054.49,427.78 1055.30,438.89 1056.11,427.78 1056.92,438.89 1057.73,427.78 1058.54,427.78 1059.35,416.67 1060.15,416.67 1060.96,405.56 1061.77,405.56 1062.58,394.44 1063.39,405.56 1064.20,405.56 1065.01,416.67 1065.82,416.67 1066.63,416.67 1067.44,416.67 1068.25,416.67 1069.06,416.67 1069.87,416.67 1070.68,416.67 1071.49,416.67 1072.30,416.67 1073.11,416.67 1073.91,416.67 1074.72,427.78 1075.53,427.78 1076.34,427.78 1077.15,427.78 1077.96,427.78 1078.77,427.78 1079.58,427.78 1080.39,427.78 1081.20,427.78 1082.01,427.78 1082.82,427.78 1083.63,427.78 1084.44,427.78 1085.25,427.78 1086.06,427.78 1086.87,438.89 1087.67,438.89 1088.48,427.78 1089.29,427.78 1090.10,416.67 1090.91,416.67 1091.72,416.67 1092.53,416.67 1093.34,416.67 1094.15,416.67 1094.96,416.67 1095.77,427.78 1096.58,438.89 1097.39,438.89 1098.20,438.89 1099.01,438.89 1099.82,450.00 1100.63,438.89 1101.43,450.00 1102.24,450.00 1103.05,461.11 1103.86,461.11 1104.67,472.22 1105.48,472.22 1106.29,472.22 1107.10,472.22 1107.91,461.11 1108.72,472.22 1109.53,461.11 1110.34,450.00 1111.15,461.11 1111.96,472.22 1112.77,461.11 1113.58,461.11 1114.39,461.11 1115.19,461.11 1116.00,461.11 1116.81,438.89 1117.62,438.89 1118.43,438.89 1119.24,438.89 1120.05,438.89 1120.86,438.89 1121.67,427.78 1122.48,427.78 1123.29,427.78 1124.10,416.67 1124.91,427.78 1125.72,427.78 1126.53,416.67 1127.34,427.78 1128.15,427.78 1128.96,427.78 1129.76,427.78 1130.57,427.78 1131.38,438.89 1132.19,438.89 1133.00,427.78 1133.81,438.89 1134.62,438.89 1135.43,427.78 1136.24,438.89 1137.05,438.89 1137.86,450.00 1138.67,450.00 1139.48,450.00 1140.29,450.00 1141.10,450.00 1141.91,450.00 1142.72,450.00 1143.52,438.89 1144.33,438.89 1145.14,427.78 1145.95,438.89 1146.76,427.78 1147.57,427.78 1148.38,438.89 1149.19,438.89 1150.00,427.78" fill="none" stroke="#2f6fb0" stroke-width="2" />
  <text x="50.00" y="575.0" font-size="12" text-anchor="middle" fill="#444">2000</text>
  <text x="261.26" y="575.0" font-size="12" text-anchor="middle" fill="#444">2005</text>
  <text x="471.71" y="575.0" font-size="12" text-anchor="middle" fill="#444">2010</text>
  <text x="682.97" y="575.0" font-size="12" text-anchor="middle" fill="#444">2015</text>
  <text x="894.22" y="575.0" font-size="12" text-anchor="middle" fill="#444">2020</text>
  <text x="1105.48" y="575.0" font-size="12" text-anchor="middle" fill="#444">2025</text>
  <text x="600.0" y="590" font-size="14" text-anchor="middle" fill="#222">Year</text>
  <text x="20" y="300.0" font-size="14" text-anchor="middle" fill="#222" transform="rotate(-90, 20, 300.0)">Exchange Rate</text>
  <text x="50" y="50" font-size="12" fill="#444">Max: 1.0700</text>
  <text x="50" y="66" font-size="12" fill="#444">Min: 0.6200</text>
</svg>
