<svg xmlns="http://www.w3.org/2000/svg" width="1200" height="600">
  <rect width="100%" height="100%" fill="white" />
  <text x="600.0" y="25.0" font-size="20" text-anchor="middle" fill="#222">CHFUSD Weekly Exchange Rate</text>
  <polyline points="50.00,490.00 50.81,496.67 51.62,496.67 52.43,510.00 53.24,510.00 54.05,503.33 54.86,510.00 55.67,510.00 56.48,516.67 57.28,516.67 58.09,516.67 58.90,503.33 59.71,516.67 60.52,510.00 61.33,510.00 62.14,516.67 62.95,530.00 63.76,530.00 64.57,523.33 65.38,530.00 66.19,523.33 67.00,516.67 67.81,510.00 68.62,503.33 69.43,516.67 70.24,510.00 71.04,510.00 71.85,510.00 72.66,516.67 73.47,516.67 74.28,523.33 75.09,530.00 75.90,530.00 76.71,530.00 77.52,530.00 78.33,543.33 79.14,543.33 79.95,530.00 80.76,530.00 81.57,536.67 82.38,536.67 83.19,543.33 84.00,550.00 84.81,536.67 85.61,543.33 86.42,543.33 87.23,550.00 88.04,530.00 88.85,523.33 89.66,523.33 90.47,510.00 91.28,503.33 92.09,496.67 92.90,503.33 93.71,510.00 94.52,510.00 95.33,510.00 96.14,516.67 96.95,516.67 97.76,516.67 98.57,510.00 99.37,510.00 100.18,523.33 100.99,530.00 101.80,536.67 102.61,523.33 103.42,530.00 104.23,523.33 105.04,530.00 105.85,530.00 106.66,536.67 107.47,536.67 108.28,543.33 109.09,543.33 109.90,543.33 110.71,543.33 111.52,543.33 112.33,543.33 113.13,543.33 113.94,536.67 114.75,530.00 115.56,530.00 116.37,523.33 117.18,523.33 117.99,516.67 118.80,516.67 119.61,516.67 120.42,516.67 121.23,503.33 122.04,496.67 122.85,503.33 123.66,503.33 124.47,503.33 125.28,510.00 126.09,510.00 126.89,510.00 127.70,510.00 128.51,516.67 129.32,516.67 130.13,510.00 130.94,516.67 131.75,510.00 132.56,510.00 133.37,516.67 134.18,516.67 134.99,510.00 135.80,516.67 136.61,523.33 137.42,530.00 138.23,523.33 139.04,523.33 139.85,523.33 140.65,523.33 141.46,523.33 142.27,516.67 143.08,516.67 143.89,523.33 144.70,516.67 145.51,516.67 146.32,510.00 147.13,503.33 147.94,496.67 148.75,496.67 149.56,496.67 150.37,496.67 151.18,490.00 151.99,490.00 152.80,490.00 153.61,476.67 154.42,463.33 155.22,476.67 156.03,470.00 156.84,456.67 157.65,463.33 158.46,463.33 159.27,470.00 160.08,470.00 160.89,476.67 161.70,470.00 162.51,470.00 163.32,476.67 164.13,470.00 164.94,470.00 165.75,470.00 166.56,470.00 167.37,476.67 168.18,470.00 168.98,463.33 169.79,456.67 170.60,456.67 171.41,463.33 172.22,470.00 173.03,456.67 173.84,456.67 174.65,450.00 175.46,436.67 176.27,436.67 177.08,436.67 177.89,430.00 178.70,423.33 179.51,430.00 180.32,423.33 181.13,430.00 181.94,423.33 182.74,423.33 183.55,416.67 184.36,430.00 185.17,443.33 185.98,430.00 186.79,436.67 187.60,436.67 188.41,436.67 189.22,430.00 190.03,423.33 190.84,410.00 191.65,403.33 192.46,396.67 193.27,403.33 194.08,410.00 194.89,403.33 195.70,416.67 196.50,423.33 197.31,423.33 198.12,430.00 198.93,430.00 199.74,423.33 200.55,430.00 201.36,423.33 202.17,430.00 202.98,443.33 203.79,443.33 204.60,436.67 205.41,430.00 206.22,430.00 207.03,423.33 207.84,416.67 208.65,410.00 209.46,416.67 210.26,410.00 211.07,416.67 211.88,430.00 212.69,416.67 213.50,403.33 214.31,403.33 215.12,396.67 215.93,390.00 216.74,383.33 217.55,383.33 218.36,376.67 219.17,370.00 219.98,390.00 220.79,383.33 221.60,383.33 222.41,376.67 223.22,376.67 224.03,390.00 224.83,390.00 225.64,390.00 226.45,396.67 227.26,390.00 228.07,396.67 228.88,396.67 229.69,396.67 230.50,403.33 231.31,410.00 232.12,403.33 232.93,403.33 233.74,403.33 234.55,396.67 235.36,383.33 236.17,376.67 236.98,390.00 237.79,383.33 238.59,383.33 239.40,376.67 240.21,370.00 241.02,370.00 241.83,390.00 242.64,396.67 243.45,383.33 244.26,376.67 245.07,383.33 245.88,396.67 246.69,390.00 247.50,390.00 248.31,390.00 249.12,390.00 249.93,383.33 250.74,383.33 251.55,376.67 252.35,363.33 253.16,356.67 253.97,350.00 254.78,350.00 255.59,343.33 256.40,330.00 257.21,330.00 258.02,343.33 258.83,343.33 259.64,336.67 260.45,330.00 261.26,356.67 262.07,350.00 262.88,356.67 263.69,356.67 264.50,363.33 265.31,363.33 266.11,350.00 266.92,343.33 267.73,343.33 268.54,336.67 269.35,343.33 270.16,363.33 270.97,363.33 271.78,356.67 272.59,363.33 273.40,350.00 274.21,356.67 275.02,363.33 275.83,370.00 276.64,376.67 277.45,376.67 278.26,383.33 279.07,390.00 279.87,383.33 280.68,396.67 281.49,403.33 282.30,403.33 283.11,403.33 283.92,403.33 284.73,396.67 285.54,390.00 286.35,383.33 287.16,396.67 287.97,390.00 288.78,376.67 289.59,383.33 290.40,390.00 291.21,403.33 292.02,403.33 292.83,396.67 293.64,396.67 294.44,403.33 295.25,396.67 296.06,410.00 296.87,410.00 297.68,410.00 298.49,410.00 299.30,410.00 300.11,403.33 300.92,396.67 301.73,410.00 302.54,410.00 303.35,390.00 304.16,396.67 304.97,396.67 305.78,396.67 306.59,403.33 307.40,403.33 308.20,410.00 309.01,410.00 309.82,403.33 310.63,410.00 311.44,396.67 312.25,410.00 313.06,403.33 313.87,403.33 314.68,403.33 315.49,396.67 316.30,376.67 317.11,370.00 317.92,363.33 318.73,370.00 319.54,370.00 320.35,363.33 321.16,376.67 321.96,376.67 322.77,383.33 323.58,370.00 324.39,370.00 325.20,376.67 326.01,376.67 326.82,376.67 327.63,370.00 328.44,383.33 329.25,376.67 330.06,376.67 330.87,376.67 331.68,383.33 332.49,383.33 333.30,376.67 334.11,383.33 334.92,390.00 335.72,390.00 336.53,390.00 337.34,383.33 338.15,383.33 338.96,376.67 339.77,383.33 340.58,363.33 341.39,356.67 342.20,363.33 343.01,370.00 343.82,370.00 344.63,370.00 345.44,376.67 346.25,383.33 347.06,383.33 347.87,383.33 348.68,383.33 349.48,383.33 350.29,376.67 351.10,376.67 351.91,370.00 352.72,376.67 353.53,363.33 354.34,370.00 355.15,370.00 355.96,370.00 356.77,370.00 357.58,363.33 358.39,363.33 359.20,363.33 360.01,370.00 360.82,376.67 361.63,376.67 362.44,376.67 363.25,376.67 364.05,376.67 364.86,376.67 365.67,370.00 366.48,370.00 367.29,363.33 368.10,363.33 368.91,363.33 369.72,356.67 370.53,363.33 371.34,363.33 372.15,363.33 372.96,363.33 373.77,356.67 374.58,356.67 375.39,350.00 376.20,343.33 377.01,350.00 377.81,356.67 378.62,343.33 379.43,343.33 380.24,336.67 381.05,323.33 381.86,323.33 382.67,310.00 383.48,330.00 384.29,323.33 385.10,336.67 385.91,336.67 386.72,323.33 387.53,316.67 388.34,310.00 389.15,310.00 389.96,310.00 390.77,303.33 391.57,310.00 392.38,310.00 393.19,303.33 394.00,276.67 394.81,263.33 395.62,250.00 396.43,256.67 397.24,250.00 398.05,256.67 398.86,250.00 399.67,263.33 400.48,270.00 401.29,283.33 402.10,276.67 402.91,283.33 403.72,263.33 404.53,276.67 405.33,263.33 406.14,276.67 406.95,270.00 407.76,263.33 408.57,263.33 409.38,263.33 410.19,263.33 411.00,276.67 411.81,283.33 412.62,303.33 413.43,310.00 414.24,310.00 415.05,310.00 415.86,323.33 416.67,330.00 417.48,316.67 418.29,303.33 419.09,323.33 419.90,330.00 420.71,330.00 421.52,343.33 422.33,343.33 423.14,350.00 423.95,356.67 424.76,370.00 425.57,370.00 426.38,370.00 427.19,350.00 428.00,310.00 428.81,296.67 429.62,303.33 430.43,316.67 431.24,323.33 432.05,336.67 432.86,343.33 433.66,343.33 434.47,343.33 435.28,336.67 436.09,343.33 436.90,343.33 437.71,356.67 438.52,323.33 439.33,336.67 440.14,330.00 440.95,336.67 441.76,343.33 442.57,330.00 443.38,330.00 444.19,316.67 445.00,323.33 445.81,303.33 446.62,290.00 447.42,303.33 448.23,296.67 449.04,296.67 449.85,303.33 450.66,303.33 451.47,303.33 452.28,296.67 453.09,296.67 453.90,290.00 454.71,296.67 455.52,296.67 456.33,290.00 457.14,290.00 457.95,290.00 458.76,276.67 459.57,270.00 460.38,270.00 461.18,270.00 461.99,270.00 462.80,263.33 463.61,256.67 464.42,270.00 465.23,263.33 466.04,256.67 466.85,263.33 467.66,256.67 468.47,263.33 469.28,270.00 470.09,276.67 470.90,270.00 471.71,270.00 472.52,263.33 473.33,263.33 474.14,276.67 474.94,290.00 475.75,296.67 476.56,296.67 477.37,296.67 478.18,296.67 478.99,296.67 479.80,283.33 480.61,290.00 481.42,290.00 482.23,290.00 483.04,290.00 483.85,290.00 484.66,296.67 485.47,296.67 486.28,316.67 487.09,330.00 487.90,336.67 488.70,343.33 489.51,343.33 490.32,336.67 491.13,316.67 491.94,303.33 492.75,290.00 493.56,283.33 494.37,283.33 495.18,283.33 495.99,276.67 496.80,276.67 497.61,283.33 498.42,270.00 499.23,270.00 500.04,263.33 500.85,263.33 501.66,256.67 502.47,236.67 503.27,230.00 504.08,223.33 504.89,223.33 505.70,236.67 506.51,236.67 507.32,223.33 508.13,236.67 508.94,243.33 509.75,250.00 510.56,230.00 511.37,236.67 512.18,230.00 512.99,223.33 513.80,203.33 514.61,230.00 515.42,223.33 516.23,223.33 517.03,210.00 517.84,216.67 518.65,230.00 519.46,210.00 520.27,196.67 521.08,196.67 521.89,196.67 522.70,176.67 523.51,190.00 524.32,196.67 525.13,183.33 525.94,170.00 526.75,163.33 527.56,143.33 528.37,156.67 529.18,170.00 529.99,156.67 530.79,130.00 531.60,116.67 532.41,123.33 533.22,130.00 534.03,116.67 534.84,130.00 535.65,116.67 536.46,96.67 537.27,103.33 538.08,70.00 538.89,50.00 539.70,63.33 540.51,70.00 541.32,90.00 542.13,70.00 542.94,163.33 543.75,156.67 544.55,183.33 545.36,183.33 546.17,196.67 546.98,170.00 547.79,163.33 548.60,143.33 549.41,163.33 550.22,176.67 551.03,190.00 551.84,196.67 552.65,190.00 553.46,196.67 554.27,203.33 555.08,203.33 555.89,210.00 556.70,216.67 557.51,216.67 558.31,203.33 559.12,183.33 559.93,190.00 560.74,190.00 561.55,190.00 562.36,170.00 563.17,190.00 563.98,190.00 564.79,190.00 565.60,183.33 566.41,176.67 567.22,190.00 568.03,190.00 568.84,183.33 569.65,183.33 570.46,190.00 571.27,196.67 572.08,210.00 572.88,223.33 573.69,223.33 574.50,223.33 575.31,216.67 576.12,216.67 576.93,216.67 577.74,236.67 578.55,236.67 579.36,243.33 580.17,230.00 580.98,230.00 581.79,236.67 582.60,230.00 583.41,223.33 584.22,216.67 585.03,210.00 585.84,196.67 586.64,203.33 587.45,210.00 588.26,196.67 589.07,203.33 589.88,196.67 590.69,203.33 591.50,210.00 592.31,216.67 593.12,210.00 593.93,196.67 594.74,196.67 595.55,203.33 596.36,190.00 597.17,190.00 597.98,190.00 598.79,196.67 599.60,190.00 600.40,203.33 601.21,196.67 602.02,183.33 602.83,190.00 603.64,196.67 604.45,196.67 605.26,210.00 606.07,216.67 606.88,203.33 607.69,210.00 608.50,216.67 609.31,203.33 610.12,196.67 610.93,203.33 611.74,210.00 612.55,203.33 613.36,216.67 614.16,230.00 614.97,223.33 615.78,216.67 616.59,203.33 617.40,190.00 618.21,203.33 619.02,210.00 619.83,223.33 620.64,210.00 621.45,210.00 622.26,196.67 623.07,196.67 623.88,196.67 624.69,196.67 625.50,196.67 626.31,196.67 627.12,203.33 627.92,196.67 628.73,183.33 629.54,183.33 630.35,183.33 631.16,183.33 631.97,176.67 632.78,170.00 633.59,183.33 634.40,190.00 635.21,190.00 636.02,183.33 636.83,183.33 637.64,170.00 638.45,170.00 639.26,170.00 640.07,170.00 640.88,183.33 641.69,176.67 642.49,183.33 643.30,170.00 644.11,183.33 644.92,176.67 645.73,170.00 646.54,163.33 647.35,156.67 648.16,156.67 648.97,150.00 649.78,163.33 650.59,163.33 651.40,170.00 652.21,156.67 653.02,163.33 653.83,163.33 654.64,156.67 655.45,163.33 656.25,170.00 657.06,170.00 657.87,170.00 658.68,170.00 659.49,176.67 660.30,170.00 661.11,170.00 661.92,170.00 662.73,170.00 663.54,176.67 664.35,176.67 665.16,183.33 665.97,183.33 666.78,176.67 667.59,190.00 668.40,190.00 669.21,203.33 670.01,203.33 670.82,210.00 671.63,216.67 672.44,230.00 673.25,223.33 674.06,210.00 674.87,216.67 675.68,223.33 676.49,223.33 677.30,223.33 678.11,230.00 678.92,223.33 679.73,236.67 680.54,223.33 681.35,236.67 682.16,243.33 682.97,250.00 683.77,256.67 684.58,143.33 685.39,163.33 686.20,190.00 687.01,196.67 687.82,203.33 688.63,203.33 689.44,216.67 690.25,243.33 691.06,250.00 691.87,230.00 692.68,223.33 693.49,216.67 694.30,236.67 695.11,216.67 695.92,216.67 696.73,203.33 697.53,203.33 698.34,190.00 699.15,210.00 699.96,210.00 700.77,210.00 701.58,196.67 702.39,190.00 703.20,203.33 704.01,210.00 704.82,203.33 705.63,223.33 706.44,223.33 707.25,230.00 708.06,236.67 708.87,236.67 709.68,210.00 710.49,223.33 711.30,230.00 712.10,230.00 712.91,230.00 713.72,236.67 714.53,230.00 715.34,223.33 716.15,216.67 716.96,236.67 717.77,243.33 718.58,256.67 719.39,256.67 720.20,263.33 721.01,270.00 721.82,250.00 722.63,236.67 723.44,243.33 724.25,243.33 725.06,250.00 725.86,243.33 726.67,250.00 727.48,263.33 728.29,263.33 729.10,243.33 729.91,236.67 730.72,243.33 731.53,250.00 732.34,243.33 733.15,236.67 733.96,230.00 734.77,236.67 735.58,223.33 736.39,216.67 737.20,230.00 738.01,236.67 738.82,223.33 739.62,230.00 740.43,230.00 741.24,243.33 742.05,243.33 742.86,236.67 743.67,223.33 744.48,223.33 745.29,230.00 746.10,230.00 746.91,236.67 747.72,236.67 748.53,243.33 749.34,230.00 750.15,236.67 750.96,230.00 751.77,223.33 752.58,236.67 753.38,236.67 754.19,230.00 755.00,236.67 755.81,230.00 756.62,230.00 757.43,236.67 758.24,243.33 759.05,243.33 759.86,243.33 760.67,230.00 761.48,243.33 762.29,256.67 763.10,256.67 763.91,256.67 764.72,263.33 765.53,270.00 766.34,270.00 767.14,263.33 767.95,263.33 768.76,256.67 769.57,250.00 770.38,250.00 771.19,243.33 772.00,250.00 772.81,250.00 773.62,256.67 774.43,256.67 775.24,256.67 776.05,250.00 776.86,243.33 777.67,250.00 778.48,256.67 779.29,256.67 780.10,250.00 780.91,243.33 781.71,243.33 782.52,250.00 783.33,230.00 784.14,230.00 784.95,223.33 785.76,230.00 786.57,230.00 787.38,230.00 788.19,223.33 789.00,223.33 789.81,223.33 790.62,210.00 791.43,230.00 792.24,230.00 793.05,223.33 793.86,223.33 794.67,216.67 795.47,223.33 796.28,210.00 797.09,223.33 797.90,230.00 798.71,230.00 799.52,236.67 800.33,230.00 801.14,236.67 801.95,250.00 802.76,250.00 803.57,250.00 804.38,243.33 805.19,236.67 806.00,236.67 806.81,243.33 807.62,243.33 808.43,243.33 809.23,230.00 810.04,230.00 810.85,230.00 811.66,223.33 812.47,203.33 813.28,203.33 814.09,210.00 814.90,196.67 815.71,203.33 816.52,203.33 817.33,216.67 818.14,216.67 818.95,210.00 819.76,216.67 820.57,223.33 821.38,223.33 822.19,230.00 822.99,243.33 823.80,250.00 824.61,250.00 825.42,250.00 826.23,243.33 827.04,243.33 827.85,243.33 828.66,250.00 829.47,243.33 830.28,243.33 831.09,243.33 831.90,250.00 832.71,243.33 833.52,243.33 834.33,243.33 835.14,250.00 835.95,250.00 836.75,236.67 837.56,230.00 838.37,230.00 839.18,230.00 839.99,223.33 840.80,236.67 841.61,243.33 842.42,243.33 843.23,250.00 844.04,250.00 844.85,250.00 845.66,256.67 846.47,250.00 847.28,250.00 848.09,250.00 848.90,243.33 849.71,250.00 850.52,250.00 851.32,236.67 852.13,243.33 852.94,236.67 853.75,250.00 854.56,243.33 855.37,250.00 856.18,250.00 856.99,256.67 857.80,250.00 858.61,250.00 859.42,256.67 860.23,250.00 861.04,243.33 861.85,250.00 862.66,250.00 863.47,250.00 864.28,256.67 865.08,263.33 865.89,263.33 866.70,256.67 867.51,256.67 868.32,250.00 869.13,250.00 869.94,243.33 870.75,250.00 871.56,236.67 872.37,236.67 873.18,243.33 873.99,236.67 874.80,236.67 875.61,243.33 876.42,236.67 877.23,230.00 878.04,236.67 878.84,230.00 879.65,243.33 880.46,243.33 881.27,243.33 882.08,243.33 882.89,243.33 883.70,250.00 884.51,250.00 885.32,236.67 886.13,243.33 886.94,243.33 887.75,250.00 888.56,243.33 889.37,250.00 890.18,250.00 890.99,243.33 891.80,236.67 892.60,236.67 893.41,230.00 894.22,230.00 895.03,230.00 895.84,230.00 896.65,230.00 897.46,223.33 898.27,236.67 899.08,236.67 899.89,236.67 900.70,223.33 901.51,203.33 902.32,216.67 903.13,243.33 903.94,216.67 904.75,236.67 905.56,223.33 906.36,230.00 907.17,230.00 907.98,223.33 908.79,230.00 909.60,230.00 910.41,230.00 911.22,223.33 912.03,223.33 912.84,216.67 913.65,216.67 914.46,216.67 915.27,210.00 916.08,210.00 916.89,203.33 917.70,190.00 918.51,190.00 919.32,183.33 920.13,183.33 920.93,183.33 921.74,176.67 922.55,190.00 923.36,183.33 924.17,183.33 924.98,196.67 925.79,190.00 926.60,183.33 927.41,190.00 928.22,176.67 929.03,190.00 929.84,176.67 930.65,183.33 931.46,183.33 932.27,183.33 933.08,170.00 933.89,170.00 934.69,163.33 935.50,170.00 936.31,163.33 937.12,163.33 937.93,170.00 938.74,163.33 939.55,170.00 940.36,176.67 941.17,170.00 941.98,170.00 942.79,183.33 943.60,203.33 944.41,196.67 945.22,196.67 946.03,210.00 946.84,210.00 947.65,196.67 948.45,190.00 949.26,190.00 950.07,183.33 950.88,176.67 951.69,176.67 952.50,176.67 953.31,176.67 954.12,176.67 954.93,176.67 955.74,196.67 956.55,190.00 957.36,190.00 958.17,190.00 958.98,190.00 959.79,190.00 960.60,183.33 961.41,190.00 962.21,190.00 963.02,190.00 963.83,183.33 964.64,190.00 965.45,190.00 966.26,203.33 967.07,196.67 967.88,203.33 968.69,196.67 969.50,196.67 970.31,190.00 971.12,190.00 971.93,183.33 972.74,190.00 973.55,196.67 974.36,196.67 975.17,190.00 975.97,190.00 976.78,196.67 977.59,190.00 978.40,183.33 979.21,190.00 980.02,190.00 980.83,183.33 981.64,203.33 982.45,196.67 983.26,196.67 984.07,190.00 984.88,196.67 985.69,190.00 986.50,203.33 987.31,203.33 988.12,203.33 988.93,196.67 989.74,203.33 990.54,210.00 991.35,223.33 992.16,230.00 992.97,243.33 993.78,250.00 994.59,230.00 995.40,223.33 996.21,223.33 997.02,243.33 997.83,230.00 998.64,223.33 999.45,223.33 1000.26,236.67 1001.07,236.67 1001.88,223.33 1002.69,216.67 1003.50,223.33 1004.30,210.00 1005.11,223.33 1005.92,223.33 1006.73,236.67 1007.54,223.33 1008.35,223.33 1009.16,236.67 1009.97,243.33 1010.78,243.33 1011.59,256.67 1012.40,250.00 1013.21,250.00 1014.02,250.00 1014.83,210.00 1015.64,216.67 1016.45,210.00 1017.26,203.33 1018.06,203.33 1018.87,203.33 1019.68,203.33 1020.49,196.67 1021.30,196.67 1022.11,196.67 1022.92,190.00 1023.73,190.00 1024.54,196.67 1025.35,196.67 1026.16,196.67 1026.97,210.00 1027.78,203.33 1028.59,190.00 1029.40,196.67 1030.21,190.00 1031.02,190.00 1031.82,183.33 1032.63,170.00 1033.44,170.00 1034.25,170.00 1035.06,170.00 1035.87,176.67 1036.68,176.67 1037.49,183.33 1038.30,183.33 1039.11,176.67 1039.92,170.00 1040.73,176.67 1041.54,170.00 1042.35,163.33 1043.16,143.33 1043.97,143.33 1044.78,150.00 1045.58,150.00 1046.39,156.67 1047.20,163.33 1048.01,163.33 1048.82,163.33 1049.63,170.00 1050.44,170.00 1051.25,183.33 1052.06,190.00 1052.87,183.33 1053.68,176.67 1054.49,170.00 1055.30,176.67 1056.11,176.67 1056.92,176.67 1057.73,163.33 1058.54,163.33 1059.35,150.00 1060.15,156.67 1060.96,150.00 1061.77,136.67 1062.58,123.33 1063.39,130.00 1064.20,136.67 1065.01,150.00 1065.82,143.33 1066.63,150.00 1067.44,156.67 1068.25,156.67 1069.06,156.67 1069.87,163.33 1070.68,156.67 1071.49,163.33 1072.30,176.67 1073.11,176.67 1073.91,176.67 1074.72,190.00 1075.53,183.33 1076.34,190.00 1077.15,183.33 1077.96,183.33 1078.77,183.33 1079.58,190.00 1080.39,176.67 1081.20,170.00 1082.01,170.00 1082.82,170.00 1083.63,176.67 1084.44,170.00 1085.25,170.00 1086.06,163.33 1086.87,163.33 1087.67,143.33 1088.48,143.33 1089.29,150.00 1090.10,130.00 1090.91,130.00 1091.72,123.33 1092.53,130.00 1093.34,130.00 1094.15,123.33 1094.96,136.67 1095.77,136.67 1096.58,143.33 1097.39,150.00 1098.20,150.00 1099.01,156.67 1099.82,163.33 1100.63,170.00 1101.43,156.67 1102.24,156.67 1103.05,170.00 1103.86,170.00 1104.67,176.67 1105.48,183.33 1106.29,190.00 1107.10,190.00 1107.91,183.33 1108.72,183.33 1109.53,183.33 1110.34,176.67 1111.15,176.67 1111.96,176.67 1112.77,156.67 1113.58,163.33 1114.39,163.33 1115.19,156.67 1116.00,143.33 1116.81,96.67 1117.62,103.33 1118.43,110.00 1119.24,110.00 1120.05,116.67 1120.86,123.33 1121.67,103.33 1122.48,103.33 1123.29,103.33 1124.10,96.67 1124.91,103.33 1125.72,83.33 1126.53,76.67 1127.34,76.67 1128.15,83.33 1128.96,76.67 1129.76,90.00 1130.57,90.00 1131.38,90.00 1132.19,83.33 1133.00,83.33 1133.81,83.33 1134.62,76.67 1135.43,76.67 1136.24,83.33 1137.05,76.67 1137.86,83.33 1138.67,76.67 1139.48,76.67 1140.29,90.00 1141.10,90.00 1141.91,76.67 1142.72,90.00 1143.52,90.00 1144.33,90.00 1145.14,76.67 1145.95,76.67 1146.76,70.00 1147.57,76.67 1148.38,83.33 1149.19,83.33 1150.00,63.33" fill="none" stroke="#2f6fb0" stroke-width="2" />
  <text x="50.00" y="575.0" font-size="12" text-anchor="middle" fill="#444">2000</text>
  <text x="261.26" y="575.0" font-size="12" text-anchor="middle" fill="#444">2005</text>
  <text x="471.71" y="575.0" font-size="12" text-anchor="middle" fill="#444">2010</text>
  <text x="682.97" y="575.0" font-size="12" text-anchor="middle" fill="#444">2015</text>
  <text x="894.22" y="575.0" font-size="12" text-anchor="middle" fill="#444">2020</text>
  <text x="1105.48" y="575.0" font-size="12" text-anchor="middle" fill="#444">2025</text>
  <text x="600.0" y="590" font-size="14" text-anchor="middle" fill="#222">Year</text>
  <text x="20" y="300.0" font-size="14" text-anchor="middle" fill="#222" transform="rotate(-90, 20, 300.0)">Exchange Rate</text>
  <text x="50" y="50" font-size="12" fill="#444">Max: 1.3000</text>
  <text x="50" y="66" font-size="12" fill="#444">Min: 0.5500</text>
</svg>
