<svg xmlns="http://www.w3.org/2000/svg" width="1200" height="600">
  <rect width="100%" height="100%" fill="white" />
  <text x="600.0" y="25.0" font-size="20" text-anchor="middle" fill="#222">CNYUSD Weekly Exchange Rate</text>
  <polyline points="50.00,550.00 50.81,550.00 51.62,550.00 52.43,550.00 53.24,550.00 54.05,550.00 54.86,550.00 55.67,550.00 56.48,550.00 57.28,550.00 58.09,550.00 58.90,550.00 59.71,550.00 60.52,550.00 61.33,550.00 62.14,550.00 62.95,550.00 63.76,550.00 64.57,550.00 65.38,550.00 66.19,550.00 67.00,550.00 67.81,550.00 68.62,550.00 69.43,550.00 70.24,550.00 71.04,550.00 71.85,550.00 72.66,550.00 73.47,550.00 74.28,550.00 75.09,550.00 75.90,550.00 76.71,550.00 77.52,550.00 78.33,550.00 79.14,550.00 79.95,550.00 80.76,550.00 81.57,550.00 82.38,550.00 83.19,550.00 84.00,550.00 84.81,550.00 85.61,550.00 86.42,550.00 87.23,550.00 88.04,550.00 88.85,550.00 89.66,550.00 90.47,550.00 91.28,550.00 92.09,550.00 92.90,550.00 93.71,550.00 94.52,550.00 95.33,550.00 96.14,550.00 96.95,550.00 97.76,550.00 98.57,550.00 99.37,550.00 100.18,550.00 100.99,550.00 101.80,550.00 102.61,550.00 103.42,550.00 104.23,550.00 105.04,550.00 105.85,550.00 106.66,550.00 107.47,550.00 108.28,550.00 109.09,550.00 109.90,550.00 110.71,550.00 111.52,550.00 112.33,550.00 113.13,550.00 113.94,550.00 114.75,550.00 115.56,550.00 116.37,550.00 117.18,550.00 117.99,550.00 118.80,550.00 119.61,550.00 120.42,550.00 121.23,550.00 122.04,550.00 122.85,550.00 123.66,550.00 124.47,550.00 125.28,550.00 126.09,550.00 126.89,550.00 127.70,550.00 128.51,550.00 129.32,550.00 130.13,550.00 130.94,550.00 131.75,550.00 132.56,550.00 133.37,550.00 134.18,550.00 134.99,550.00 135.80,550.00 136.61,550.00 137.42,550.00 138.23,550.00 139.04,550.00 139.85,550.00 140.65,550.00 141.46,550.00 142.27,550.00 143.08,550.00 143.89,550.00 144.70,550.00 145.51,550.00 146.32,550.00 147.13,550.00 147.94,550.00 148.75,550.00 149.56,550.00 150.37,550.00 151.18,550.00 151.99,550.00 152.80,550.00 153.61,550.00 154.42,550.00 155.22,550.00 156.03,550.00 156.84,550.00 157.65,550.00 158.46,550.00 159.27,550.00 160.08,550.00 160.89,550.00 161.70,550.00 162.51,550.00 163.32,550.00 164.13,550.00 164.94,550.00 165.75,550.00 166.56,550.00 167.37,550.00 168.18,550.00 168.98,550.00 169.79,550.00 170.60,550.00 171.41,550.00 172.22,550.00 173.03,550.00 173.84,550.00 174.65,550.00 175.46,550.00 176.27,550.00 177.08,550.00 177.89,550.00 178.70,550.00 179.51,550.00 180.32,550.00 181.13,550.00 181.94,550.00 182.74,550.00 183.55,550.00 184.36,550.00 185.17,550.00 185.98,550.00 186.79,550.00 187.60,550.00 188.41,550.00 189.22,550.00 190.03,550.00 190.84,550.00 191.65,550.00 192.46,550.00 193.27,550.00 194.08,550.00 194.89,550.00 195.70,550.00 196.50,550.00 197.31,550.00 198.12,550.00 198.93,550.00 199.74,550.00 200.55,550.00 201.36,550.00 202.17,550.00 202.98,550.00 203.79,550.00 204.60,550.00 205.41,550.00 206.22,550.00 207.03,550.00 207.84,550.00 208.65,550.00 209.46,550.00 210.26,550.00 211.07,550.00 211.88,550.00 212.69,550.00 213.50,550.00 214.31,550.00 215.12,550.00 215.93,550.00 216.74,550.00 217.55,550.00 218.36,550.00 219.17,550.00 219.98,550.00 220.79,550.00 221.60,550.00 222.41,550.00 223.22,550.00 224.03,550.00 224.83,550.00 225.64,550.00 226.45,550.00 227.26,550.00 228.07,550.00 228.88,550.00 229.69,550.00 230.50,550.00 231.31,550.00 232.12,550.00 232.93,550.00 233.74,550.00 234.55,550.00 235.36,550.00 236.17,550.00 236.98,550.00 237.79,550.00 238.59,550.00 239.40,550.00 240.21,550.00 241.02,550.00 241.83,550.00 242.64,550.00 243.45,550.00 244.26,550.00 245.07,550.00 245.88,550.00 246.69,550.00 247.50,550.00 248.31,550.00 249.12,550.00 249.93,550.00 250.74,550.00 251.55,550.00 252.35,550.00 253.16,550.00 253.97,550.00 254.78,550.00 255.59,550.00 256.40,550.00 257.21,550.00 258.02,550.00 258.83,550.00 259.64,550.00 260.45,550.00 261.26,550.00 262.07,550.00 262.88,550.00 263.69,550.00 264.50,550.00 265.31,550.00 266.11,550.00 266.92,550.00 267.73,550.00 268.54,550.00 269.35,550.00 270.16,550.00 270.97,550.00 271.78,550.00 272.59,550.00 273.40,550.00 274.21,550.00 275.02,550.00 275.83,550.00 276.64,550.00 277.45,550.00 278.26,550.00 279.07,550.00 279.87,550.00 280.68,550.00 281.49,550.00 282.30,550.00 283.11,550.00 283.92,550.00 284.73,550.00 285.54,550.00 286.35,550.00 287.16,550.00 287.97,550.00 288.78,550.00 289.59,550.00 290.40,550.00 291.21,550.00 292.02,550.00 292.83,550.00 293.64,550.00 294.44,550.00 295.25,550.00 296.06,550.00 296.87,550.00 297.68,550.00 298.49,550.00 299.30,550.00 300.11,550.00 300.92,550.00 301.73,550.00 302.54,550.00 303.35,550.00 304.16,550.00 304.97,550.00 305.78,550.00 306.59,550.00 307.40,550.00 308.20,550.00 309.01,550.00 309.82,550.00 310.63,550.00 311.44,550.00 312.25,550.00 313.06,550.00 313.87,550.00 314.68,550.00 315.49,550.00 316.30,550.00 317.11,550.00 317.92,550.00 318.73,550.00 319.54,550.00 320.35,550.00 321.16,550.00 321.96,450.00 322.77,450.00 323.58,450.00 324.39,450.00 325.20,450.00 326.01,450.00 326.82,450.00 327.63,450.00 328.44,450.00 329.25,450.00 330.06,450.00 330.87,450.00 331.68,450.00 332.49,450.00 333.30,450.00 334.11,450.00 334.92,450.00 335.72,450.00 336.53,450.00 337.34,450.00 338.15,450.00 338.96,450.00 339.77,450.00 340.58,450.00 341.39,450.00 342.20,450.00 343.01,450.00 343.82,450.00 344.63,450.00 345.44,450.00 346.25,450.00 347.06,450.00 347.87,450.00 348.68,450.00 349.48,450.00 350.29,450.00 351.10,450.00 351.91,450.00 352.72,450.00 353.53,450.00 354.34,450.00 355.15,450.00 355.96,450.00 356.77,450.00 357.58,450.00 358.39,450.00 359.20,450.00 360.01,450.00 360.82,450.00 361.63,450.00 362.44,450.00 363.25,450.00 364.05,450.00 364.86,450.00 365.67,450.00 366.48,450.00 367.29,450.00 368.10,450.00 368.91,450.00 369.72,450.00 370.53,450.00 371.34,450.00 372.15,450.00 372.96,450.00 373.77,450.00 374.58,450.00 375.39,450.00 376.20,450.00 377.01,450.00 377.81,450.00 378.62,450.00 379.43,450.00 380.24,450.00 381.05,450.00 381.86,450.00 382.67,350.00 383.48,350.00 384.29,350.00 385.10,350.00 385.91,350.00 386.72,350.00 387.53,350.00 388.34,350.00 389.15,350.00 389.96,350.00 390.77,350.00 391.57,350.00 392.38,350.00 393.19,350.00 394.00,350.00 394.81,350.00 395.62,350.00 396.43,350.00 397.24,350.00 398.05,350.00 398.86,350.00 399.67,350.00 400.48,350.00 401.29,350.00 402.10,350.00 402.91,350.00 403.72,350.00 404.53,350.00 405.33,350.00 406.14,350.00 406.95,250.00 407.76,250.00 408.57,250.00 409.38,250.00 410.19,250.00 411.00,250.00 411.81,250.00 412.62,250.00 413.43,250.00 414.24,250.00 415.05,250.00 415.86,250.00 416.67,250.00 417.48,250.00 418.29,250.00 419.09,250.00 419.90,250.00 420.71,250.00 421.52,250.00 422.33,250.00 423.14,250.00 423.95,250.00 424.76,250.00 425.57,250.00 426.38,250.00 427.19,250.00 428.00,250.00 428.81,250.00 429.62,250.00 430.43,250.00 431.24,250.00 432.05,250.00 432.86,250.00 433.66,250.00 434.47,250.00 435.28,250.00 436.09,250.00 436.90,250.00 437.71,250.00 438.52,250.00 439.33,250.00 440.14,250.00 440.95,250.00 441.76,250.00 442.57,250.00 443.38,250.00 444.19,250.00 445.00,250.00 445.81,250.00 446.62,250.00 447.42,250.00 448.23,250.00 449.04,250.00 449.85,250.00 450.66,250.00 451.47,250.00 452.28,250.00 453.09,250.00 453.90,250.00 454.71,250.00 455.52,250.00 456.33,250.00 457.14,250.00 457.95,250.00 458.76,250.00 459.57,250.00 460.38,250.00 461.18,250.00 461.99,250.00 462.80,250.00 463.61,250.00 464.42,250.00 465.23,250.00 466.04,250.00 466.85,250.00 467.66,250.00 468.47,250.00 469.28,250.00 470.09,250.00 470.90,250.00 471.71,250.00 472.52,250.00 473.33,250.00 474.14,250.00 474.94,250.00 475.75,250.00 476.56,250.00 477.37,250.00 478.18,250.00 478.99,250.00 479.80,250.00 480.61,250.00 481.42,250.00 482.23,250.00 483.04,250.00 483.85,250.00 484.66,250.00 485.47,250.00 486.28,250.00 487.09,250.00 487.90,250.00 488.70,250.00 489.51,250.00 490.32,250.00 491.13,250.00 491.94,250.00 492.75,250.00 493.56,250.00 494.37,250.00 495.18,250.00 495.99,250.00 496.80,250.00 497.61,250.00 498.42,250.00 499.23,250.00 500.04,250.00 500.85,250.00 501.66,250.00 502.47,250.00 503.27,250.00 504.08,250.00 504.89,250.00 505.70,250.00 506.51,250.00 507.32,250.00 508.13,250.00 508.94,250.00 509.75,250.00 510.56,250.00 511.37,250.00 512.18,250.00 512.99,250.00 513.80,250.00 514.61,250.00 515.42,250.00 516.23,250.00 517.03,250.00 517.84,250.00 518.65,250.00 519.46,250.00 520.27,250.00 521.08,250.00 521.89,250.00 522.70,250.00 523.51,250.00 524.32,250.00 525.13,250.00 525.94,250.00 526.75,250.00 527.56,250.00 528.37,250.00 529.18,250.00 529.99,250.00 530.79,250.00 531.60,250.00 532.41,250.00 533.22,250.00 534.03,250.00 534.84,250.00 535.65,250.00 536.46,250.00 537.27,150.00 538.08,150.00 538.89,150.00 539.70,150.00 540.51,150.00 541.32,150.00 542.13,150.00 542.94,150.00 543.75,150.00 544.55,150.00 545.36,150.00 546.17,150.00 546.98,150.00 547.79,150.00 548.60,150.00 549.41,150.00 550.22,150.00 551.03,150.00 551.84,150.00 552.65,150.00 553.46,150.00 554.27,150.00 555.08,150.00 555.89,150.00 556.70,150.00 557.51,150.00 558.31,150.00 559.12,150.00 559.93,150.00 560.74,150.00 561.55,150.00 562.36,150.00 563.17,150.00 563.98,150.00 564.79,150.00 565.60,150.00 566.41,150.00 567.22,150.00 568.03,150.00 568.84,150.00 569.65,150.00 570.46,150.00 571.27,150.00 572.08,150.00 572.88,150.00 573.69,150.00 574.50,150.00 575.31,150.00 576.12,150.00 576.93,150.00 577.74,150.00 578.55,150.00 579.36,150.00 580.17,150.00 580.98,150.00 581.79,150.00 582.60,150.00 583.41,150.00 584.22,150.00 585.03,150.00 585.84,150.00 586.64,150.00 587.45,150.00 588.26,150.00 589.07,150.00 589.88,150.00 590.69,150.00 591.50,150.00 592.31,150.00 593.12,150.00 593.93,150.00 594.74,150.00 595.55,150.00 596.36,150.00 597.17,150.00 597.98,150.00 598.79,150.00 599.60,150.00 600.40,150.00 601.21,150.00 602.02,150.00 602.83,150.00 603.64,150.00 604.45,150.00 605.26,150.00 606.07,150.00 606.88,150.00 607.69,150.00 608.50,150.00 609.31,150.00 610.12,150.00 610.93,150.00 611.74,150.00 612.55,150.00 613.36,150.00 614.16,150.00 614.97,150.00 615.78,150.00 616.59,150.00 617.40,150.00 618.21,150.00 619.02,150.00 619.83,150.00 620.64,150.00 621.45,150.00 622.26,150.00 623.07,150.00 623.88,150.00 624.69,150.00 625.50,150.00 626.31,150.00 627.12,150.00 627.92,150.00 628.73,150.00 629.54,150.00 630.35,150.00 631.16,150.00 631.97,150.00 632.78,150.00 633.59,150.00 634.40,150.00 635.21,150.00 636.02,150.00 636.83,150.00 637.64,150.00 638.45,150.00 639.26,150.00 640.07,150.00 640.88,50.00 641.69,50.00 642.49,50.00 643.30,50.00 644.11,50.00 644.92,150.00 645.73,150.00 646.54,150.00 647.35,150.00 648.16,150.00 648.97,150.00 649.78,150.00 650.59,150.00 651.40,150.00 652.21,150.00 653.02,150.00 653.83,150.00 654.64,150.00 655.45,150.00 656.25,150.00 657.06,150.00 657.87,150.00 658.68,150.00 659.49,150.00 660.30,150.00 661.11,150.00 661.92,150.00 662.73,150.00 663.54,150.00 664.35,150.00 665.16,150.00 665.97,150.00 666.78,150.00 667.59,150.00 668.40,150.00 669.21,150.00 670.01,150.00 670.82,150.00 671.63,150.00 672.44,150.00 673.25,150.00 674.06,150.00 674.87,150.00 675.68,150.00 676.49,150.00 677.30,150.00 678.11,150.00 678.92,150.00 679.73,150.00 680.54,150.00 681.35,150.00 682.16,150.00 682.97,150.00 683.77,150.00 684.58,150.00 685.39,150.00 686.20,150.00 687.01,150.00 687.82,150.00 688.63,150.00 689.44,150.00 690.25,150.00 691.06,150.00 691.87,150.00 692.68,150.00 693.49,150.00 694.30,150.00 695.11,150.00 695.92,150.00 696.73,150.00 697.53,150.00 698.34,150.00 699.15,150.00 699.96,150.00 700.77,150.00 701.58,150.00 702.39,150.00 703.20,150.00 704.01,150.00 704.82,150.00 705.63,150.00 706.44,150.00 707.25,150.00 708.06,150.00 708.87,150.00 709.68,150.00 710.49,150.00 711.30,150.00 712.10,150.00 712.91,150.00 713.72,150.00 714.53,150.00 715.34,150.00 716.15,150.00 716.96,150.00 717.77,150.00 718.58,150.00 719.39,150.00 720.20,150.00 721.01,150.00 721.82,150.00 722.63,250.00 723.44,250.00 724.25,250.00 725.06,250.00 725.86,250.00 726.67,250.00 727.48,250.00 728.29,250.00 729.10,250.00 729.91,250.00 730.72,250.00 731.53,250.00 732.34,250.00 733.15,250.00 733.96,250.00 734.77,250.00 735.58,250.00 736.39,250.00 737.20,250.00 738.01,250.00 738.82,250.00 739.62,250.00 740.43,250.00 741.24,250.00 742.05,250.00 742.86,250.00 743.67,250.00 744.48,250.00 745.29,250.00 746.10,250.00 746.91,250.00 747.72,250.00 748.53,250.00 749.34,250.00 750.15,250.00 750.96,250.00 751.77,250.00 752.58,250.00 753.38,250.00 754.19,250.00 755.00,250.00 755.81,250.00 756.62,250.00 757.43,250.00 758.24,250.00 759.05,250.00 759.86,250.00 760.67,250.00 761.48,250.00 762.29,250.00 763.10,350.00 763.91,250.00 764.72,350.00 765.53,350.00 766.34,350.00 767.14,350.00 767.95,350.00 768.76,250.00 769.57,250.00 770.38,250.00 771.19,250.00 772.00,250.00 772.81,250.00 773.62,250.00 774.43,250.00 775.24,250.00 776.05,350.00 776.86,250.00 777.67,250.00 778.48,350.00 779.29,250.00 780.10,250.00 780.91,250.00 781.71,250.00 782.52,250.00 783.33,250.00 784.14,250.00 784.95,250.00 785.76,250.00 786.57,250.00 787.38,250.00 788.19,250.00 789.00,250.00 789.81,250.00 790.62,250.00 791.43,250.00 792.24,250.00 793.05,250.00 793.86,250.00 794.67,250.00 795.47,250.00 796.28,250.00 797.09,250.00 797.90,250.00 798.71,250.00 799.52,250.00 800.33,250.00 801.14,250.00 801.95,250.00 802.76,250.00 803.57,250.00 804.38,250.00 805.19,250.00 806.00,250.00 806.81,250.00 807.62,250.00 808.43,250.00 809.23,250.00 810.04,250.00 810.85,150.00 811.66,150.00 812.47,150.00 813.28,150.00 814.09,150.00 814.90,150.00 815.71,150.00 816.52,150.00 817.33,150.00 818.14,150.00 818.95,150.00 819.76,150.00 820.57,150.00 821.38,150.00 822.19,150.00 822.99,150.00 823.80,150.00 824.61,150.00 825.42,150.00 826.23,150.00 827.04,150.00 827.85,150.00 828.66,150.00 829.47,250.00 830.28,250.00 831.09,250.00 831.90,250.00 832.71,250.00 833.52,250.00 834.33,250.00 835.14,250.00 835.95,250.00 836.75,250.00 837.56,250.00 838.37,250.00 839.18,250.00 839.99,250.00 840.80,250.00 841.61,250.00 842.42,350.00 843.23,350.00 844.04,350.00 844.85,250.00 845.66,350.00 846.47,350.00 847.28,350.00 848.09,350.00 848.90,250.00 849.71,350.00 850.52,350.00 851.32,250.00 852.13,250.00 852.94,250.00 853.75,250.00 854.56,250.00 855.37,250.00 856.18,250.00 856.99,250.00 857.80,250.00 858.61,250.00 859.42,250.00 860.23,250.00 861.04,250.00 861.85,250.00 862.66,250.00 863.47,250.00 864.28,250.00 865.08,250.00 865.89,250.00 866.70,250.00 867.51,350.00 868.32,350.00 869.13,350.00 869.94,350.00 870.75,350.00 871.56,250.00 872.37,250.00 873.18,250.00 873.99,250.00 874.80,250.00 875.61,250.00 876.42,350.00 877.23,350.00 878.04,350.00 878.84,350.00 879.65,350.00 880.46,350.00 881.27,350.00 882.08,350.00 882.89,350.00 883.70,350.00 884.51,350.00 885.32,350.00 886.13,350.00 886.94,350.00 887.75,350.00 888.56,350.00 889.37,350.00 890.18,350.00 890.99,350.00 891.80,350.00 892.60,350.00 893.41,350.00 894.22,350.00 895.03,350.00 895.84,250.00 896.65,350.00 897.46,350.00 898.27,350.00 899.08,350.00 899.89,350.00 900.70,350.00 901.51,350.00 902.32,350.00 903.13,350.00 903.94,350.00 904.75,350.00 905.56,350.00 906.36,350.00 907.17,350.00 907.98,350.00 908.79,350.00 909.60,350.00 910.41,350.00 911.22,350.00 912.03,350.00 912.84,350.00 913.65,350.00 914.46,350.00 915.27,350.00 916.08,350.00 916.89,350.00 917.70,350.00 918.51,350.00 919.32,350.00 920.13,350.00 920.93,350.00 921.74,250.00 922.55,250.00 923.36,250.00 924.17,250.00 924.98,250.00 925.79,250.00 926.60,250.00 927.41,250.00 928.22,250.00 929.03,250.00 929.84,250.00 930.65,250.00 931.46,250.00 932.27,250.00 933.08,250.00 933.89,250.00 934.69,250.00 935.50,250.00 936.31,250.00 937.12,250.00 937.93,250.00 938.74,250.00 939.55,150.00 940.36,250.00 941.17,250.00 941.98,250.00 942.79,250.00 943.60,250.00 944.41,250.00 945.22,250.00 946.03,250.00 946.84,250.00 947.65,250.00 948.45,250.00 949.26,250.00 950.07,250.00 950.88,150.00 951.69,150.00 952.50,150.00 953.31,150.00 954.12,150.00 954.93,150.00 955.74,150.00 956.55,250.00 957.36,250.00 958.17,250.00 958.98,250.00 959.79,250.00 960.60,250.00 961.41,250.00 962.21,250.00 963.02,250.00 963.83,250.00 964.64,250.00 965.45,150.00 966.26,250.00 967.07,250.00 967.88,150.00 968.69,150.00 969.50,150.00 970.31,150.00 971.12,150.00 971.93,150.00 972.74,150.00 973.55,150.00 974.36,150.00 975.17,150.00 975.97,150.00 976.78,150.00 977.59,150.00 978.40,150.00 979.21,150.00 980.02,150.00 980.83,150.00 981.64,150.00 983.26,150.00 984.07,150.00 984.88,150.00 985.69,150.00 986.50,150.00 987.31,150.00 988.12,150.00 988.93,150.00 989.74,150.00 990.54,150.00 991.35,250.00 992.16,250.00 992.97,250.00 993.78,250.00 994.59,250.00 995.40,250.00 996.21,250.00 997.02,250.00 997.83,250.00 998.64,250.00 999.45,250.00 1000.26,250.00 1001.07,250.00 1001.88,250.00 1002.69,250.00 1003.50,250.00 1004.30,250.00 1005.11,250.00 1005.92,250.00 1006.73,350.00 1007.54,350.00 1008.35,350.00 1009.16,350.00 1009.97,350.00 1011.59,350.00 1012.40,350.00 1013.21,350.00 1014.02,350.00 1014.83,350.00 1015.64,350.00 1016.45,350.00 1017.26,350.00 1018.06,350.00 1018.87,350.00 1019.68,350.00 1020.49,250.00 1021.30,250.00 1022.11,250.00 1022.92,250.00 1024.54,250.00 1025.35,250.00 1026.16,250.00 1026.97,350.00 1027.78,350.00 1028.59,350.00 1029.40,250.00 1030.21,250.00 1031.02,250.00 1031.82,250.00 1032.63,250.00 1033.44,250.00 1034.25,350.00 1035.06,350.00 1035.87,350.00 1036.68,350.00 1037.49,350.00 1038.30,350.00 1039.11,350.00 1039.92,350.00 1040.73,350.00 1041.54,350.00 1042.35,350.00 1043.16,350.00 1043.97,350.00 1044.78,350.00 1045.58,350.00 1046.39,350.00 1047.20,350.00 1048.01,350.00 1048.82,350.00 1049.63,350.00 1050.44,350.00 1051.25,350.00 1052.06,350.00 1053.68,350.00 1054.49,350.00 1055.30,350.00 1056.11,350.00 1056.92,350.00 1057.73,350.00 1058.54,350.00 1059.35,350.00 1060.15,350.00 1060.96,350.00 1061.77,350.00 1062.58,350.00 1063.39,350.00 1064.20,350.00 1065.01,350.00 1065.82,350.00 1066.63,350.00 1067.44,350.00 1069.06,350.00 1069.87,350.00 1070.68,350.00 1071.49,350.00 1072.30,350.00 1073.11,350.00 1073.91,350.00 1074.72,350.00 1075.53,350.00 1076.34,350.00 1077.15,350.00 1077.96,350.00 1078.77,350.00 1079.58,350.00 1080.39,350.00 1081.20,350.00 1082.01,350.00 1082.82,350.00 1083.63,350.00 1084.44,350.00 1085.25,350.00 1086.06,350.00 1086.87,350.00 1087.67,350.00 1088.48,350.00 1089.29,350.00 1090.10,350.00 1090.91,350.00 1091.72,350.00 1092.53,350.00 1093.34,350.00 1094.15,350.00 1094.96,350.00 1095.77,350.00 1096.58,350.00 1097.39,350.00 1098.20,350.00 1099.01,350.00 1099.82,350.00 1100.63,350.00 1101.43,350.00 1102.24,350.00 1103.05,350.00 1103.86,350.00 1104.67,350.00 1105.48,350.00 1106.29,350.00 1107.10,350.00 1107.91,350.00 1108.72,350.00 1109.53,350.00 1110.34,350.00 1111.15,350.00 1111.96,350.00 1112.77,350.00 1113.58,350.00 1114.39,350.00 1115.19,350.00 1116.00,350.00 1116.81,350.00 1117.62,350.00 1118.43,350.00 1119.24,350.00 1120.05,350.00 1120.86,350.00 1121.67,350.00 1122.48,350.00 1123.29,350.00 1124.10,350.00 1124.91,350.00 1125.72,350.00 1126.53,350.00 1127.34,350.00 1128.15,350.00 1128.96,350.00 1129.76,350.00 1130.57,350.00 1131.38,350.00 1132.19,350.00 1133.00,350.00 1133.81,350.00 1134.62,350.00 1135.43,350.00 1136.24,350.00 1137.05,350.00 1137.86,350.00 1138.67,350.00 1139.48,350.00 1140.29,350.00 1141.10,350.00 1141.91,350.00 1142.72,350.00 1143.52,350.00 1144.33,350.00 1145.14,350.00 1145.95,350.00 1146.76,350.00 1147.57,350.00 1148.38,350.00 1149.19,350.00 1150.00,350.00" fill="none" stroke="#2f6fb0" stroke-width="2" />
  <text x="50" y="575.0" font-size="12" fill="#444">2000-01-07</text>
  <text x="1150" y="575.0" font-size="12" text-anchor="end" fill="#444">2026-01-23</text>
  <text x="50" y="50" font-size="12" fill="#444">Max: 0.1700</text>
  <text x="50" y="66" font-size="12" fill="#444">Min: 0.1200</text>
</svg>
