<svg xmlns="http://www.w3.org/2000/svg" width="1200" height="600">
  <rect width="100%" height="100%" fill="white" />
  <text x="600.0" y="25.0" font-size="20" text-anchor="middle" fill="#222">EURUSD Weekly Exchange Rate</text>
  <polyline points="50.00,423.33 50.81,436.67 51.62,436.67 52.43,463.33 53.24,456.67 54.05,450.00 54.86,456.67 55.67,463.33 56.48,470.00 57.28,470.00 58.09,463.33 58.90,456.67 59.71,470.00 60.52,470.00 61.33,470.00 62.14,483.33 62.95,503.33 63.76,510.00 64.57,496.67 65.38,510.00 66.19,490.00 67.00,476.67 67.81,476.67 68.62,463.33 69.43,483.33 70.24,476.67 71.04,476.67 71.85,483.33 72.66,483.33 73.47,496.67 74.28,503.33 75.09,510.00 75.90,503.33 76.71,510.00 77.52,510.00 78.33,530.00 79.14,543.33 79.95,523.33 80.76,523.33 81.57,530.00 82.38,536.67 83.19,550.00 84.00,550.00 84.81,530.00 85.61,536.67 86.42,543.33 87.23,550.00 88.04,523.33 88.85,516.67 89.66,510.00 90.47,496.67 91.28,483.33 92.09,470.00 92.90,476.67 93.71,490.00 94.52,496.67 95.33,483.33 96.14,496.67 96.95,496.67 97.76,496.67 98.57,483.33 99.37,490.00 100.18,510.00 100.99,516.67 101.80,523.33 102.61,510.00 103.42,516.67 104.23,510.00 105.04,516.67 105.85,516.67 106.66,523.33 107.47,523.33 108.28,536.67 109.09,543.33 109.90,543.33 110.71,536.67 111.52,536.67 112.33,543.33 113.13,543.33 113.94,543.33 114.75,530.00 115.56,523.33 116.37,523.33 117.18,516.67 117.99,496.67 118.80,503.33 119.61,503.33 120.42,503.33 121.23,496.67 122.04,503.33 122.85,503.33 123.66,496.67 124.47,503.33 125.28,510.00 126.09,516.67 126.89,510.00 127.70,516.67 128.51,523.33 129.32,523.33 130.13,510.00 130.94,516.67 131.75,510.00 132.56,516.67 133.37,516.67 134.18,516.67 134.99,516.67 135.80,523.33 136.61,530.00 137.42,536.67 138.23,530.00 139.04,530.00 139.85,523.33 140.65,530.00 141.46,530.00 142.27,523.33 143.08,523.33 143.89,530.00 144.70,523.33 145.51,523.33 146.32,516.67 147.13,510.00 147.94,496.67 148.75,503.33 149.56,496.67 150.37,496.67 151.18,490.00 151.99,483.33 152.80,476.67 153.61,463.33 154.42,450.00 155.22,463.33 156.03,450.00 156.84,436.67 157.65,450.00 158.46,450.00 159.27,463.33 160.08,456.67 160.89,463.33 161.70,456.67 162.51,456.67 163.32,463.33 164.13,456.67 164.94,456.67 165.75,456.67 166.56,450.00 167.37,463.33 168.18,456.67 168.98,443.33 169.79,436.67 170.60,436.67 171.41,443.33 172.22,450.00 173.03,436.67 173.84,430.00 174.65,423.33 175.46,416.67 176.27,416.67 177.08,403.33 177.89,396.67 178.70,390.00 179.51,390.00 180.32,390.00 181.13,390.00 181.94,390.00 182.74,390.00 183.55,376.67 184.36,396.67 185.17,410.00 185.98,390.00 186.79,396.67 187.60,390.00 188.41,383.33 189.22,376.67 190.03,363.33 190.84,343.33 191.65,336.67 192.46,323.33 193.27,323.33 194.08,330.00 194.89,316.67 195.70,336.67 196.50,350.00 197.31,343.33 198.12,356.67 198.93,356.67 199.74,343.33 200.55,356.67 201.36,356.67 202.17,356.67 202.98,383.33 203.79,376.67 204.60,370.00 205.41,356.67 206.22,350.00 207.03,343.33 207.84,336.67 208.65,323.33 209.46,330.00 210.26,323.33 211.07,336.67 211.88,343.33 212.69,323.33 213.50,316.67 214.31,310.00 215.12,296.67 215.93,290.00 216.74,283.33 217.55,283.33 218.36,270.00 219.17,256.67 219.98,283.33 220.79,270.00 221.60,276.67 222.41,263.33 223.22,263.33 224.03,276.67 224.83,276.67 225.64,283.33 226.45,296.67 227.26,290.00 228.07,303.33 228.88,303.33 229.69,303.33 230.50,310.00 231.31,323.33 232.12,310.00 232.93,316.67 233.74,316.67 234.55,310.00 235.36,296.67 236.17,290.00 236.98,310.00 237.79,303.33 238.59,296.67 239.40,290.00 240.21,283.33 241.02,276.67 241.83,303.33 242.64,310.00 243.45,290.00 244.26,283.33 245.07,290.00 245.88,310.00 246.69,303.33 247.50,290.00 248.31,296.67 249.12,290.00 249.93,283.33 250.74,283.33 251.55,276.67 252.35,263.33 253.16,256.67 253.97,243.33 254.78,243.33 255.59,243.33 256.40,223.33 257.21,210.00 258.02,230.00 258.83,223.33 259.64,210.00 260.45,203.33 261.26,236.67 262.07,236.67 262.88,243.33 263.69,243.33 264.50,250.00 265.31,250.00 266.11,236.67 266.92,230.00 267.73,230.00 268.54,210.00 269.35,223.33 270.16,243.33 270.97,250.00 271.78,250.00 272.59,250.00 273.40,236.67 274.21,250.00 275.02,256.67 275.83,270.00 276.64,270.00 277.45,270.00 278.26,296.67 279.07,303.33 279.87,290.00 280.68,303.33 281.49,310.00 282.30,310.00 283.11,310.00 283.92,303.33 284.73,303.33 285.54,283.33 286.35,283.33 287.16,296.67 287.97,290.00 288.78,276.67 289.59,283.33 290.40,296.67 291.21,310.00 292.02,310.00 292.83,303.33 293.64,303.33 294.44,310.00 295.25,303.33 296.06,323.33 296.87,330.00 297.68,323.33 298.49,330.00 299.30,330.00 300.11,323.33 300.92,310.00 301.73,316.67 302.54,323.33 303.35,296.67 304.16,303.33 304.97,303.33 305.78,303.33 306.59,310.00 307.40,316.67 308.20,316.67 309.01,316.67 309.82,310.00 310.63,316.67 311.44,296.67 312.25,310.00 313.06,303.33 313.87,303.33 314.68,303.33 315.49,290.00 316.30,270.00 317.11,263.33 317.92,250.00 318.73,256.67 319.54,263.33 320.35,250.00 321.16,270.00 321.96,270.00 322.77,276.67 323.58,256.67 324.39,256.67 325.20,263.33 326.01,263.33 326.82,256.67 327.63,250.00 328.44,263.33 329.25,256.67 330.06,256.67 330.87,256.67 331.68,263.33 332.49,263.33 333.30,256.67 334.11,263.33 334.92,270.00 335.72,276.67 336.53,270.00 337.34,263.33 338.15,263.33 338.96,256.67 339.77,256.67 340.58,236.67 341.39,223.33 342.20,230.00 343.01,236.67 343.82,236.67 344.63,230.00 345.44,243.33 346.25,250.00 347.06,243.33 347.87,250.00 348.68,243.33 349.48,243.33 350.29,236.67 351.10,230.00 351.91,230.00 352.72,236.67 353.53,223.33 354.34,223.33 355.15,216.67 355.96,216.67 356.77,210.00 357.58,203.33 358.39,196.67 359.20,203.33 360.01,210.00 360.82,210.00 361.63,216.67 362.44,216.67 363.25,216.67 364.05,216.67 364.86,210.00 365.67,210.00 366.48,203.33 367.29,190.00 368.10,190.00 368.91,203.33 369.72,190.00 370.53,196.67 371.34,210.00 372.15,196.67 372.96,203.33 373.77,190.00 374.58,183.33 375.39,170.00 376.20,156.67 377.01,170.00 377.81,163.33 378.62,156.67 379.43,150.00 380.24,143.33 381.05,130.00 381.86,130.00 382.67,123.33 383.48,136.67 384.29,130.00 385.10,150.00 385.91,150.00 386.72,130.00 387.53,130.00 388.34,123.33 389.15,136.67 389.96,130.00 390.77,123.33 391.57,143.33 392.38,130.00 393.19,123.33 394.00,96.67 394.81,83.33 395.62,63.33 396.43,83.33 397.24,56.67 398.05,63.33 398.86,56.67 399.67,56.67 400.48,70.00 401.29,83.33 402.10,76.67 402.91,70.00 403.72,56.67 404.53,70.00 405.33,56.67 406.14,83.33 406.95,70.00 407.76,56.67 408.57,63.33 409.38,50.00 410.19,56.67 411.00,63.33 411.81,70.00 412.62,110.00 413.43,130.00 414.24,123.33 415.05,130.00 415.86,156.67 416.67,163.33 417.48,143.33 418.29,136.67 419.09,190.00 419.90,216.67 420.71,216.67 421.52,270.00 422.33,263.33 423.14,263.33 423.95,270.00 424.76,270.00 425.57,263.33 426.38,263.33 427.19,216.67 428.00,183.33 428.81,176.67 429.62,183.33 430.43,210.00 431.24,223.33 432.05,243.33 432.86,256.67 433.66,250.00 434.47,250.00 435.28,256.67 436.09,263.33 436.90,263.33 437.71,250.00 438.52,203.33 439.33,223.33 440.14,210.00 440.95,230.00 441.76,243.33 442.57,230.00 443.38,223.33 444.19,203.33 445.00,210.00 445.81,176.67 446.62,163.33 447.42,176.67 448.23,176.67 449.04,183.33 449.85,170.00 450.66,176.67 451.47,183.33 452.28,170.00 453.09,163.33 453.90,156.67 454.71,163.33 455.52,163.33 456.33,156.67 457.14,156.67 457.95,156.67 458.76,136.67 459.57,130.00 460.38,130.00 461.18,136.67 461.99,130.00 462.80,116.67 463.61,110.00 464.42,130.00 465.23,123.33 466.04,116.67 466.85,116.67 467.66,110.00 468.47,116.67 469.28,136.67 470.09,156.67 470.90,150.00 471.71,156.67 472.52,150.00 473.33,150.00 474.14,170.00 474.94,183.33 475.75,196.67 476.56,203.33 477.37,203.33 478.18,203.33 478.99,203.33 479.80,190.00 480.61,210.00 481.42,216.67 482.23,210.00 483.04,210.00 483.85,210.00 484.66,216.67 485.47,223.33 486.28,256.67 487.09,283.33 487.90,270.00 488.70,290.00 489.51,310.00 490.32,303.33 491.13,283.33 491.94,283.33 492.75,270.00 493.56,270.00 494.37,250.00 495.18,250.00 495.99,236.67 496.80,223.33 497.61,256.67 498.42,263.33 499.23,256.67 500.04,250.00 500.85,263.33 501.66,236.67 502.47,210.00 503.27,190.00 504.08,183.33 504.89,176.67 505.70,176.67 506.51,183.33 507.32,176.67 508.13,196.67 508.94,196.67 509.75,230.00 510.56,216.67 511.37,230.00 512.18,230.00 512.99,236.67 513.80,216.67 514.61,250.00 515.42,216.67 516.23,203.33 517.03,203.33 517.84,203.33 518.65,203.33 519.46,196.67 520.27,190.00 521.08,176.67 521.89,183.33 522.70,163.33 523.51,170.00 524.32,163.33 525.13,143.33 525.94,150.00 526.75,136.67 527.56,123.33 528.37,156.67 529.18,170.00 529.99,163.33 530.79,156.67 531.60,136.67 532.41,156.67 533.22,156.67 534.03,163.33 534.84,143.33 535.65,156.67 536.46,163.33 537.27,150.00 538.08,150.00 538.89,156.67 539.70,163.33 540.51,150.00 541.32,143.33 542.13,163.33 542.94,196.67 543.75,190.00 544.55,210.00 545.36,216.67 546.17,216.67 546.98,183.33 547.79,183.33 548.60,170.00 549.41,190.00 550.22,190.00 551.03,210.00 551.84,230.00 552.65,216.67 553.46,216.67 554.27,243.33 555.08,243.33 555.89,243.33 556.70,263.33 557.51,263.33 558.31,250.00 559.12,230.00 559.93,230.00 560.74,230.00 561.55,236.67 562.36,216.67 563.17,230.00 563.98,236.67 564.79,230.00 565.60,223.33 566.41,223.33 567.22,236.67 568.03,236.67 568.84,230.00 569.65,223.33 570.46,236.67 571.27,250.00 572.08,256.67 572.88,276.67 573.69,283.33 574.50,276.67 575.31,270.00 576.12,270.00 576.93,263.33 577.74,290.00 578.55,296.67 579.36,296.67 580.17,290.00 580.98,283.33 581.79,290.00 582.60,290.00 583.41,276.67 584.22,270.00 585.03,256.67 585.84,236.67 586.64,243.33 587.45,250.00 588.26,243.33 589.07,243.33 589.88,243.33 590.69,250.00 591.50,256.67 592.31,263.33 593.12,263.33 593.93,243.33 594.74,243.33 595.55,250.00 596.36,230.00 597.17,230.00 597.98,230.00 598.79,236.67 599.60,223.33 600.40,223.33 601.21,210.00 602.02,203.33 602.83,216.67 603.64,216.67 604.45,230.00 605.26,243.33 606.07,243.33 606.88,236.67 607.69,243.33 608.50,256.67 609.31,243.33 610.12,236.67 610.93,236.67 611.74,243.33 612.55,236.67 613.36,243.33 614.16,256.67 614.97,250.00 615.78,243.33 616.59,230.00 617.40,223.33 618.21,236.67 619.02,243.33 619.83,256.67 620.64,236.67 621.45,236.67 622.26,223.33 623.07,223.33 623.88,223.33 624.69,223.33 625.50,216.67 626.31,230.00 627.12,230.00 627.92,223.33 628.73,210.00 629.54,210.00 630.35,203.33 631.16,210.00 631.97,196.67 632.78,190.00 633.59,210.00 634.40,216.67 635.21,210.00 636.02,203.33 636.83,203.33 637.64,196.67 638.45,196.67 639.26,196.67 640.07,196.67 640.88,203.33 641.69,196.67 642.49,210.00 643.30,196.67 644.11,210.00 644.92,203.33 645.73,196.67 646.54,196.67 647.35,190.00 648.16,183.33 648.97,183.33 649.78,190.00 650.59,190.00 651.40,196.67 652.21,183.33 653.02,190.00 653.83,190.00 654.64,183.33 655.45,190.00 656.25,196.67 657.06,203.33 657.87,203.33 658.68,203.33 659.49,210.00 660.30,203.33 661.11,203.33 661.92,203.33 662.73,203.33 663.54,210.00 664.35,216.67 665.16,216.67 665.97,216.67 666.78,216.67 667.59,230.00 668.40,236.67 669.21,243.33 670.01,243.33 670.82,256.67 671.63,263.33 672.44,276.67 673.25,270.00 674.06,256.67 674.87,263.33 675.68,276.67 676.49,276.67 677.30,276.67 678.11,283.33 678.92,276.67 679.73,290.00 680.54,276.67 681.35,296.67 682.16,296.67 682.97,310.00 683.77,323.33 684.58,336.67 685.39,363.33 686.20,356.67 687.01,356.67 687.82,350.00 688.63,350.00 689.44,363.33 690.25,390.00 691.06,410.00 691.87,390.00 692.68,383.33 693.49,376.67 694.30,403.33 695.11,390.00 695.92,383.33 696.73,363.33 697.53,363.33 698.34,343.33 699.15,376.67 699.96,376.67 700.77,370.00 701.58,356.67 702.39,350.00 703.20,363.33 704.01,370.00 704.82,363.33 705.63,390.00 706.44,376.67 707.25,376.67 708.06,376.67 708.87,370.00 709.68,350.00 710.49,363.33 711.30,370.00 712.10,356.67 712.91,356.67 713.72,363.33 714.53,363.33 715.34,350.00 716.15,356.67 716.96,376.67 717.77,376.67 718.58,396.67 719.39,390.00 720.20,403.33 721.01,403.33 721.82,383.33 722.63,376.67 723.44,383.33 724.25,376.67 725.06,383.33 725.86,383.33 726.67,383.33 727.48,390.00 728.29,390.00 729.10,363.33 729.91,356.67 730.72,370.00 731.53,383.33 732.34,376.67 733.15,363.33 733.96,356.67 734.77,363.33 735.58,350.00 736.39,350.00 737.20,356.67 738.01,363.33 738.82,343.33 739.62,350.00 740.43,356.67 741.24,363.33 742.05,370.00 742.86,350.00 743.67,356.67 744.48,356.67 745.29,370.00 746.10,370.00 746.91,370.00 747.72,376.67 748.53,376.67 749.34,363.33 750.15,370.00 750.96,363.33 751.77,356.67 752.58,363.33 753.38,363.33 754.19,363.33 755.00,363.33 755.81,363.33 756.62,363.33 757.43,363.33 758.24,376.67 759.05,383.33 759.86,376.67 760.67,370.00 761.48,383.33 762.29,403.33 763.10,403.33 763.91,396.67 764.72,403.33 765.53,410.00 766.34,410.00 767.14,410.00 767.95,410.00 768.76,403.33 769.57,396.67 770.38,396.67 771.19,390.00 772.00,403.33 772.81,403.33 773.62,403.33 774.43,403.33 775.24,396.67 776.05,396.67 776.86,390.00 777.67,396.67 778.48,403.33 779.29,403.33 780.10,396.67 780.91,383.33 781.71,376.67 782.52,383.33 783.33,363.33 784.14,363.33 784.95,356.67 785.76,363.33 786.57,363.33 787.38,363.33 788.19,350.00 789.00,350.00 789.81,343.33 790.62,330.00 791.43,323.33 792.24,323.33 793.05,323.33 793.86,323.33 794.67,316.67 795.47,316.67 796.28,310.00 797.09,316.67 797.90,310.00 798.71,323.33 799.52,330.00 800.33,323.33 801.14,323.33 801.95,336.67 802.76,336.67 803.57,330.00 804.38,323.33 805.19,316.67 806.00,316.67 806.81,323.33 807.62,330.00 808.43,316.67 809.23,310.00 810.04,310.00 810.85,296.67 811.66,296.67 812.47,283.33 813.28,276.67 814.09,290.00 814.90,283.33 815.71,290.00 816.52,290.00 817.33,290.00 818.14,290.00 818.95,283.33 819.76,290.00 820.57,290.00 821.38,290.00 822.19,290.00 822.99,303.33 823.80,310.00 824.61,316.67 825.42,323.33 826.23,330.00 827.04,330.00 827.85,323.33 828.66,336.67 829.47,330.00 830.28,330.00 831.09,330.00 831.90,330.00 832.71,330.00 833.52,330.00 834.33,336.67 835.14,350.00 835.95,350.00 836.75,336.67 837.56,336.67 838.37,336.67 839.18,336.67 839.99,330.00 840.80,336.67 841.61,343.33 842.42,336.67 843.23,343.33 844.04,350.00 844.85,350.00 845.66,356.67 846.47,350.00 847.28,356.67 848.09,356.67 848.90,350.00 849.71,356.67 850.52,350.00 851.32,350.00 852.13,350.00 852.94,343.33 853.75,350.00 854.56,350.00 855.37,343.33 856.18,356.67 856.99,356.67 857.80,356.67 858.61,350.00 859.42,363.33 860.23,356.67 861.04,356.67 861.85,363.33 862.66,363.33 863.47,356.67 864.28,363.33 865.08,363.33 865.89,363.33 866.70,363.33 867.51,363.33 868.32,363.33 869.13,363.33 869.94,356.67 870.75,363.33 871.56,350.00 872.37,350.00 873.18,363.33 873.99,356.67 874.80,363.33 875.61,370.00 876.42,370.00 877.23,363.33 878.04,370.00 878.84,370.00 879.65,376.67 880.46,376.67 881.27,370.00 882.08,376.67 882.89,383.33 883.70,376.67 884.51,376.67 885.32,363.33 886.13,370.00 886.94,363.33 887.75,376.67 888.56,370.00 889.37,376.67 890.18,376.67 890.99,370.00 891.80,370.00 892.60,370.00 893.41,363.33 894.22,363.33 895.03,370.00 895.84,370.00 896.65,376.67 897.46,370.00 898.27,383.33 899.08,390.00 899.89,390.00 900.70,376.67 901.51,356.67 902.32,370.00 903.13,396.67 903.94,370.00 904.75,390.00 905.56,383.33 906.36,383.33 907.17,390.00 907.98,376.67 908.79,390.00 909.60,390.00 910.41,383.33 911.22,370.00 912.03,356.67 912.84,356.67 913.65,363.33 914.46,363.33 915.27,363.33 916.08,356.67 916.89,350.00 917.70,330.00 918.51,323.33 919.32,323.33 920.13,323.33 920.93,323.33 921.74,316.67 922.55,323.33 923.36,323.33 924.17,323.33 924.98,336.67 925.79,330.00 926.60,323.33 927.41,330.00 928.22,316.67 929.03,336.67 929.84,316.67 930.65,323.33 931.46,316.67 932.27,310.00 933.08,303.33 933.89,303.33 934.69,290.00 935.50,296.67 936.31,296.67 937.12,296.67 937.93,303.33 938.74,296.67 939.55,303.33 940.36,310.00 941.17,303.33 941.98,303.33 942.79,303.33 943.60,316.67 944.41,310.00 945.22,316.67 946.03,323.33 946.84,323.33 947.65,316.67 948.45,310.00 949.26,303.33 950.07,310.00 950.88,296.67 951.69,303.33 952.50,296.67 953.31,296.67 954.12,296.67 954.93,303.33 955.74,316.67 956.55,316.67 957.36,316.67 958.17,316.67 958.98,323.33 959.79,323.33 960.60,316.67 961.41,323.33 962.21,323.33 963.02,330.00 963.83,323.33 964.64,316.67 965.45,323.33 966.26,330.00 967.07,330.00 967.88,336.67 968.69,336.67 969.50,336.67 970.31,336.67 971.12,336.67 971.93,336.67 972.74,350.00 973.55,356.67 974.36,356.67 975.17,356.67 975.97,356.67 976.78,363.33 977.59,356.67 978.40,350.00 979.21,350.00 980.02,350.00 980.83,356.67 981.64,363.33 982.45,350.00 983.26,350.00 984.07,356.67 984.88,356.67 985.69,383.33 986.50,383.33 987.31,370.00 988.12,376.67 988.93,376.67 989.74,383.33 990.54,390.00 991.35,390.00 992.16,410.00 992.97,403.33 993.78,416.67 994.59,403.33 995.40,396.67 996.21,396.67 997.02,410.00 997.83,410.00 998.64,403.33 999.45,416.67 1000.26,430.00 1001.07,436.67 1001.88,430.00 1002.69,430.00 1003.50,430.00 1004.30,423.33 1005.11,443.33 1005.92,443.33 1006.73,443.33 1007.54,443.33 1008.35,443.33 1009.16,463.33 1009.97,456.67 1010.78,463.33 1011.59,463.33 1012.40,450.00 1013.21,443.33 1014.02,443.33 1014.83,423.33 1015.64,423.33 1016.45,416.67 1017.26,410.00 1018.06,410.00 1018.87,403.33 1019.68,403.33 1020.49,396.67 1021.30,403.33 1022.11,390.00 1022.92,383.33 1023.73,383.33 1024.54,390.00 1025.35,396.67 1026.16,396.67 1026.97,410.00 1027.78,403.33 1028.59,403.33 1029.40,396.67 1030.21,390.00 1031.02,390.00 1031.82,383.33 1032.63,376.67 1033.44,376.67 1034.25,376.67 1035.06,376.67 1035.87,390.00 1036.68,390.00 1037.49,396.67 1038.30,396.67 1039.11,396.67 1039.92,383.33 1040.73,383.33 1041.54,383.33 1042.35,376.67 1043.16,363.33 1043.97,370.00 1044.78,376.67 1045.58,376.67 1046.39,383.33 1047.20,383.33 1048.01,390.00 1048.82,390.00 1049.63,396.67 1050.44,396.67 1051.25,396.67 1052.06,403.33 1052.87,403.33 1053.68,410.00 1054.49,403.33 1055.30,403.33 1056.11,396.67 1056.92,396.67 1057.73,383.33 1058.54,383.33 1059.35,383.33 1060.15,390.00 1060.96,383.33 1061.77,376.67 1062.58,376.67 1063.39,383.33 1064.20,376.67 1065.01,383.33 1065.82,383.33 1066.63,390.00 1067.44,390.00 1068.25,390.00 1069.06,390.00 1069.87,390.00 1070.68,383.33 1071.49,383.33 1072.30,390.00 1073.11,390.00 1073.91,390.00 1074.72,403.33 1075.53,396.67 1076.34,396.67 1077.15,390.00 1077.96,390.00 1078.77,383.33 1079.58,390.00 1080.39,390.00 1081.20,390.00 1082.01,396.67 1082.82,396.67 1083.63,396.67 1084.44,390.00 1085.25,383.33 1086.06,383.33 1086.87,383.33 1087.67,383.33 1088.48,383.33 1089.29,376.67 1090.10,363.33 1090.91,376.67 1091.72,370.00 1092.53,370.00 1093.34,363.33 1094.15,363.33 1094.96,376.67 1095.77,383.33 1096.58,383.33 1097.39,390.00 1098.20,390.00 1099.01,396.67 1099.82,410.00 1100.63,416.67 1101.43,403.33 1102.24,403.33 1103.05,410.00 1103.86,416.67 1104.67,416.67 1105.48,423.33 1106.29,430.00 1107.10,423.33 1107.91,410.00 1108.72,416.67 1109.53,423.33 1110.34,410.00 1111.15,410.00 1111.96,416.67 1112.77,390.00 1113.58,383.33 1114.39,390.00 1115.19,390.00 1116.00,376.67 1116.81,350.00 1117.62,350.00 1118.43,350.00 1119.24,356.67 1120.05,356.67 1120.86,363.33 1121.67,350.00 1122.48,356.67 1123.29,350.00 1124.10,343.33 1124.91,343.33 1125.72,330.00 1126.53,323.33 1127.34,330.00 1128.15,336.67 1128.96,330.00 1129.76,336.67 1130.57,336.67 1131.38,330.00 1132.19,330.00 1133.00,330.00 1133.81,330.00 1134.62,330.00 1135.43,330.00 1136.24,330.00 1137.05,330.00 1137.86,336.67 1138.67,330.00 1139.48,336.67 1140.29,343.33 1141.10,336.67 1141.91,336.67 1142.72,343.33 1143.52,336.67 1144.33,336.67 1145.14,330.00 1145.95,330.00 1146.76,323.33 1147.57,330.00 1148.38,336.67 1149.19,336.67 1150.00,323.33" fill="none" stroke="#2f6fb0" stroke-width="2" />
  <text x="50" y="575.0" font-size="12" fill="#444">2000-01-07</text>
  <text x="1150" y="575.0" font-size="12" text-anchor="end" fill="#444">2026-01-23</text>
  <text x="50" y="50" font-size="12" fill="#444">Max: 1.5900</text>
  <text x="50" y="66" font-size="12" fill="#444">Min: 0.8400</text>
</svg>
