<svg xmlns="http://www.w3.org/2000/svg" width="1200" height="600">
  <rect width="100%" height="100%" fill="white" />
  <text x="600.0" y="25.0" font-size="20" text-anchor="middle" fill="#222">GBPUSD Weekly Exchange Rate</text>
  <polyline points="50.00,275.00 50.81,280.00 51.62,270.00 52.43,285.00 53.24,300.00 54.05,300.00 54.86,295.00 55.67,295.00 56.48,305.00 57.28,305.00 58.09,310.00 58.90,300.00 59.71,300.00 60.52,305.00 61.33,300.00 62.14,305.00 62.95,320.00 63.76,330.00 64.57,335.00 65.38,350.00 66.19,350.00 67.00,340.00 67.81,340.00 68.62,335.00 69.43,345.00 70.24,340.00 71.04,340.00 71.85,345.00 72.66,335.00 73.47,345.00 74.28,340.00 75.09,345.00 75.90,350.00 76.71,360.00 77.52,365.00 78.33,385.00 79.14,395.00 79.95,370.00 80.76,355.00 81.57,370.00 82.38,370.00 83.19,370.00 84.00,365.00 84.81,370.00 85.61,380.00 86.42,385.00 87.23,395.00 88.04,375.00 88.85,370.00 89.66,355.00 90.47,355.00 91.28,350.00 92.09,345.00 92.90,355.00 93.71,365.00 94.52,365.00 95.33,360.00 96.14,375.00 96.95,370.00 97.76,365.00 98.57,360.00 99.37,360.00 100.18,380.00 100.99,380.00 101.80,385.00 102.61,375.00 103.42,375.00 104.23,375.00 105.04,375.00 105.85,375.00 106.66,385.00 107.47,375.00 108.28,385.00 109.09,385.00 109.90,405.00 110.71,395.00 111.52,390.00 112.33,385.00 113.13,390.00 113.94,395.00 114.75,380.00 115.56,385.00 116.37,380.00 117.18,385.00 117.99,370.00 118.80,375.00 119.61,370.00 120.42,365.00 121.23,360.00 122.04,365.00 122.85,360.00 123.66,355.00 124.47,370.00 125.28,380.00 126.09,375.00 126.89,365.00 127.70,365.00 128.51,380.00 129.32,390.00 130.13,385.00 130.94,380.00 131.75,370.00 132.56,375.00 133.37,370.00 134.18,370.00 134.99,370.00 135.80,375.00 136.61,390.00 137.42,385.00 138.23,385.00 139.04,380.00 139.85,380.00 140.65,385.00 141.46,385.00 142.27,385.00 143.08,380.00 143.89,380.00 144.70,380.00 145.51,375.00 146.32,370.00 147.13,365.00 147.94,360.00 148.75,365.00 149.56,365.00 150.37,365.00 151.18,365.00 151.99,365.00 152.80,355.00 153.61,345.00 154.42,330.00 155.22,335.00 156.03,320.00 156.84,305.00 157.65,310.00 158.46,310.00 159.27,335.00 160.08,325.00 160.89,335.00 161.70,320.00 162.51,315.00 163.32,320.00 164.13,320.00 164.94,315.00 165.75,310.00 166.56,315.00 167.37,320.00 168.18,320.00 168.98,315.00 169.79,300.00 170.60,305.00 171.41,305.00 172.22,315.00 173.03,305.00 173.84,300.00 174.65,295.00 175.46,295.00 176.27,290.00 177.08,290.00 177.89,290.00 178.70,280.00 179.51,270.00 180.32,280.00 181.13,285.00 181.94,305.00 182.74,310.00 183.55,295.00 184.36,305.00 185.17,315.00 185.98,310.00 186.79,315.00 187.60,310.00 188.41,310.00 189.22,300.00 190.03,295.00 190.84,290.00 191.65,285.00 192.46,275.00 193.27,275.00 194.08,265.00 194.89,260.00 195.70,265.00 196.50,270.00 197.31,260.00 198.12,280.00 198.93,300.00 199.74,285.00 200.55,290.00 201.36,295.00 202.17,295.00 202.98,305.00 203.79,305.00 204.60,300.00 205.41,295.00 206.22,275.00 207.03,265.00 207.84,265.00 208.65,265.00 209.46,255.00 210.26,245.00 211.07,245.00 211.88,255.00 212.69,250.00 213.50,245.00 214.31,235.00 215.12,230.00 215.93,220.00 216.74,210.00 217.55,210.00 218.36,200.00 219.17,170.00 219.98,195.00 220.79,180.00 221.60,185.00 222.41,170.00 223.22,150.00 224.03,165.00 224.83,160.00 225.64,170.00 226.45,195.00 227.26,180.00 228.07,185.00 228.88,180.00 229.69,180.00 230.50,195.00 231.31,210.00 232.12,205.00 232.93,200.00 233.74,215.00 234.55,200.00 235.36,180.00 236.17,175.00 236.98,185.00 237.79,175.00 238.59,180.00 239.40,180.00 240.21,165.00 241.02,160.00 241.83,180.00 242.64,185.00 243.45,175.00 244.26,175.00 245.07,185.00 245.88,200.00 246.69,205.00 247.50,195.00 248.31,200.00 249.12,190.00 249.93,195.00 250.74,195.00 251.55,195.00 252.35,180.00 253.16,175.00 253.97,165.00 254.78,165.00 255.59,165.00 256.40,150.00 257.21,125.00 258.02,140.00 258.83,125.00 259.64,135.00 260.45,135.00 261.26,160.00 262.07,160.00 262.88,155.00 263.69,150.00 264.50,155.00 265.31,160.00 266.11,150.00 266.92,135.00 267.73,135.00 268.54,130.00 269.35,135.00 270.16,160.00 270.97,155.00 271.78,150.00 272.59,150.00 273.40,140.00 274.21,140.00 275.02,150.00 275.83,170.00 276.64,180.00 277.45,185.00 278.26,185.00 279.07,190.00 279.87,180.00 280.68,185.00 281.49,210.00 282.30,225.00 283.11,220.00 283.92,225.00 284.73,215.00 285.54,205.00 286.35,190.00 287.16,195.00 287.97,195.00 288.78,175.00 289.59,175.00 290.40,190.00 291.21,205.00 292.02,215.00 292.83,215.00 293.64,210.00 294.44,210.00 295.25,210.00 296.06,220.00 296.87,225.00 297.68,235.00 298.49,240.00 299.30,230.00 300.11,220.00 300.92,210.00 301.73,230.00 302.54,235.00 303.35,210.00 304.16,205.00 304.97,210.00 305.78,210.00 306.59,215.00 307.40,225.00 308.20,225.00 309.01,220.00 309.82,215.00 310.63,230.00 311.44,215.00 312.25,225.00 313.06,225.00 313.87,225.00 314.68,220.00 315.49,205.00 316.30,180.00 317.11,165.00 317.92,150.00 318.73,155.00 319.54,165.00 320.35,155.00 321.16,175.00 321.96,170.00 322.77,185.00 323.58,170.00 324.39,170.00 325.20,175.00 326.01,165.00 326.82,165.00 327.63,140.00 328.44,150.00 329.25,155.00 330.06,150.00 330.87,140.00 331.68,160.00 332.49,155.00 333.30,145.00 334.11,160.00 334.92,160.00 335.72,165.00 336.53,155.00 337.34,145.00 338.15,145.00 338.96,140.00 339.77,150.00 340.58,130.00 341.39,105.00 342.20,120.00 343.01,120.00 343.82,115.00 344.63,115.00 345.44,130.00 346.25,115.00 347.06,110.00 347.87,115.00 348.68,110.00 349.48,120.00 350.29,120.00 351.10,115.00 351.91,125.00 352.72,130.00 353.53,125.00 354.34,115.00 355.15,110.00 355.96,110.00 356.77,100.00 357.58,95.00 358.39,95.00 359.20,100.00 360.01,105.00 360.82,110.00 361.63,105.00 362.44,105.00 363.25,110.00 364.05,105.00 364.86,95.00 365.67,90.00 366.48,90.00 367.29,80.00 368.10,65.00 368.91,85.00 369.72,75.00 370.53,85.00 371.34,105.00 372.15,90.00 372.96,85.00 373.77,80.00 374.58,90.00 375.39,85.00 376.20,70.00 377.01,75.00 377.81,75.00 378.62,70.00 379.43,70.00 380.24,50.00 381.05,50.00 381.86,70.00 382.67,65.00 383.48,65.00 384.29,80.00 385.10,85.00 385.91,105.00 386.72,95.00 387.53,110.00 388.34,115.00 389.15,115.00 389.96,105.00 390.77,110.00 391.57,120.00 392.38,115.00 393.19,110.00 394.00,100.00 394.81,90.00 395.62,85.00 396.43,105.00 397.24,100.00 398.05,100.00 398.86,110.00 399.67,95.00 400.48,100.00 401.29,110.00 402.10,120.00 402.91,115.00 403.72,105.00 404.53,105.00 405.33,110.00 406.14,120.00 406.95,105.00 407.76,95.00 408.57,105.00 409.38,100.00 410.19,95.00 411.00,100.00 411.81,105.00 412.62,135.00 413.43,160.00 414.24,170.00 415.05,185.00 415.86,210.00 416.67,200.00 417.48,180.00 418.29,175.00 419.09,210.00 419.90,245.00 420.71,230.00 421.52,300.00 422.33,290.00 423.14,315.00 423.95,360.00 424.76,350.00 425.57,325.00 426.38,360.00 427.19,350.00 428.00,350.00 428.81,365.00 429.62,370.00 430.43,335.00 431.24,360.00 432.05,405.00 432.86,370.00 433.66,355.00 434.47,375.00 435.28,375.00 436.09,380.00 436.90,390.00 437.71,395.00 438.52,370.00 439.33,380.00 440.14,355.00 440.95,360.00 441.76,355.00 442.57,360.00 443.38,350.00 444.19,335.00 445.00,335.00 445.81,300.00 446.62,285.00 447.42,295.00 448.23,275.00 449.04,270.00 449.85,270.00 450.66,280.00 451.47,285.00 452.28,280.00 453.09,275.00 453.90,260.00 454.71,260.00 455.52,270.00 456.33,270.00 457.14,280.00 457.95,275.00 458.76,260.00 459.57,280.00 460.38,295.00 461.18,300.00 461.99,305.00 462.80,275.00 463.61,280.00 464.42,270.00 465.23,265.00 466.04,260.00 466.85,270.00 467.66,270.00 468.47,270.00 469.28,280.00 470.09,285.00 470.90,295.00 471.71,285.00 472.52,295.00 473.33,280.00 474.14,290.00 474.94,295.00 475.75,315.00 476.56,310.00 477.37,320.00 478.18,335.00 478.99,340.00 479.80,335.00 480.61,345.00 481.42,350.00 482.23,335.00 483.04,325.00 483.85,325.00 484.66,325.00 485.47,330.00 486.28,355.00 487.09,370.00 487.90,370.00 488.70,370.00 489.51,370.00 490.32,365.00 491.13,355.00 491.94,340.00 492.75,335.00 493.56,340.00 494.37,330.00 495.18,325.00 495.99,310.00 496.80,300.00 497.61,315.00 498.42,320.00 499.23,320.00 500.04,320.00 500.85,325.00 501.66,315.00 502.47,305.00 503.27,305.00 504.08,295.00 504.89,295.00 505.70,310.00 506.51,295.00 507.32,285.00 508.13,290.00 508.94,295.00 509.75,315.00 510.56,305.00 511.37,305.00 512.18,320.00 512.99,325.00 513.80,315.00 514.61,320.00 515.42,300.00 516.23,295.00 517.03,300.00 517.84,290.00 518.65,295.00 519.46,280.00 520.27,290.00 521.08,280.00 521.89,290.00 522.70,285.00 523.51,295.00 524.32,290.00 525.13,275.00 525.94,280.00 526.75,270.00 527.56,260.00 528.37,275.00 529.18,285.00 529.99,285.00 530.79,270.00 531.60,275.00 532.41,285.00 533.22,285.00 534.03,295.00 534.84,290.00 535.65,290.00 536.46,290.00 537.27,280.00 538.08,275.00 538.89,275.00 539.70,280.00 540.51,270.00 541.32,275.00 542.13,285.00 542.94,300.00 543.75,305.00 544.55,325.00 545.36,315.00 546.17,315.00 546.98,305.00 547.79,295.00 548.60,290.00 549.41,295.00 550.22,290.00 551.03,305.00 551.84,325.00 552.65,315.00 553.46,310.00 554.27,320.00 555.08,315.00 555.89,320.00 556.70,325.00 557.51,330.00 558.31,315.00 559.12,310.00 559.93,305.00 560.74,305.00 561.55,305.00 562.36,300.00 563.17,305.00 563.98,310.00 564.79,305.00 565.60,300.00 566.41,295.00 567.22,300.00 568.03,305.00 568.84,290.00 569.65,280.00 570.46,285.00 571.27,290.00 572.08,305.00 572.88,310.00 573.69,325.00 574.50,320.00 575.31,310.00 576.12,315.00 576.93,310.00 577.74,320.00 578.55,315.00 579.36,315.00 580.17,310.00 580.98,315.00 581.79,310.00 582.60,310.00 583.41,305.00 584.22,300.00 585.03,295.00 585.84,285.00 586.64,285.00 587.45,285.00 588.26,290.00 589.07,290.00 589.88,295.00 590.69,290.00 591.50,295.00 592.31,300.00 593.12,300.00 593.93,295.00 594.74,295.00 595.55,295.00 596.36,285.00 597.17,285.00 597.98,285.00 598.79,290.00 599.60,290.00 600.40,300.00 601.21,305.00 602.02,310.00 602.83,305.00 603.64,320.00 604.45,335.00 605.26,345.00 606.07,350.00 606.88,340.00 607.69,335.00 608.50,335.00 609.31,330.00 610.12,330.00 610.93,335.00 611.74,320.00 612.55,315.00 613.36,325.00 614.16,335.00 614.97,340.00 615.78,335.00 616.59,315.00 617.40,310.00 618.21,325.00 619.02,335.00 619.83,350.00 620.64,340.00 621.45,330.00 622.26,325.00 623.07,330.00 623.88,320.00 624.69,315.00 625.50,315.00 626.31,320.00 627.12,315.00 627.92,300.00 628.73,295.00 629.54,290.00 630.35,295.00 631.16,295.00 631.97,285.00 632.78,285.00 633.59,300.00 634.40,295.00 635.21,290.00 636.02,285.00 636.83,275.00 637.64,280.00 638.45,280.00 639.26,280.00 640.07,270.00 640.88,275.00 641.69,270.00 642.49,275.00 643.30,270.00 644.11,275.00 644.92,275.00 645.73,260.00 646.54,265.00 647.35,260.00 648.16,260.00 648.97,265.00 649.78,270.00 650.59,265.00 651.40,265.00 652.21,260.00 653.02,255.00 653.83,255.00 654.64,250.00 655.45,250.00 656.25,255.00 657.06,255.00 657.87,255.00 658.68,255.00 659.49,245.00 660.30,245.00 661.11,245.00 661.92,235.00 662.73,240.00 663.54,240.00 664.35,245.00 665.16,255.00 665.97,255.00 666.78,260.00 667.59,265.00 668.40,265.00 669.21,280.00 670.01,280.00 670.82,280.00 671.63,280.00 672.44,295.00 673.25,290.00 674.06,290.00 674.87,290.00 675.68,295.00 676.49,300.00 677.30,310.00 678.11,310.00 678.92,315.00 679.73,315.00 680.54,310.00 681.35,315.00 682.16,315.00 682.97,330.00 683.77,335.00 684.58,335.00 685.39,345.00 686.20,340.00 687.01,335.00 687.82,325.00 688.63,325.00 689.44,325.00 690.25,345.00 691.06,360.00 691.87,350.00 692.68,350.00 693.49,350.00 694.30,365.00 695.11,345.00 695.92,335.00 696.73,340.00 697.53,320.00 698.34,310.00 699.15,320.00 699.96,330.00 700.77,330.00 701.58,315.00 702.39,300.00 703.20,310.00 704.01,315.00 704.82,320.00 705.63,315.00 706.44,320.00 707.25,315.00 708.06,320.00 708.87,315.00 709.68,310.00 710.49,325.00 711.30,335.00 712.10,325.00 712.91,320.00 713.72,335.00 714.53,335.00 715.34,330.00 716.15,325.00 716.96,330.00 717.77,325.00 718.58,340.00 719.39,335.00 720.20,335.00 721.01,345.00 721.82,340.00 722.63,335.00 723.44,350.00 724.25,350.00 725.06,360.00 725.86,370.00 726.67,380.00 727.48,380.00 728.29,385.00 729.10,370.00 729.91,370.00 730.72,375.00 731.53,400.00 732.34,385.00 733.15,375.00 733.96,370.00 734.77,390.00 735.58,385.00 736.39,390.00 737.20,385.00 738.01,375.00 738.82,365.00 739.62,375.00 740.43,375.00 741.24,370.00 742.05,365.00 742.86,370.00 743.67,380.00 744.48,375.00 745.29,410.00 746.10,430.00 746.91,445.00 747.72,435.00 748.53,440.00 749.34,435.00 750.15,440.00 750.96,450.00 751.77,440.00 752.58,440.00 753.38,430.00 754.19,430.00 755.00,445.00 755.81,445.00 756.62,445.00 757.43,475.00 758.24,485.00 759.05,485.00 759.86,485.00 760.67,470.00 761.48,465.00 762.29,480.00 763.10,470.00 763.91,460.00 764.72,465.00 765.53,470.00 766.34,480.00 767.14,480.00 767.95,480.00 768.76,485.00 769.57,475.00 770.38,465.00 771.19,470.00 772.00,470.00 772.81,475.00 773.62,470.00 774.43,480.00 775.24,485.00 776.05,475.00 776.86,470.00 777.67,465.00 778.48,475.00 779.29,470.00 780.10,455.00 780.91,445.00 781.71,445.00 782.52,450.00 783.33,445.00 784.14,455.00 784.95,450.00 785.76,460.00 786.57,455.00 787.38,460.00 788.19,445.00 789.00,450.00 789.81,440.00 790.62,445.00 791.43,440.00 792.24,445.00 793.05,445.00 793.86,450.00 794.67,450.00 795.47,445.00 796.28,435.00 797.09,415.00 797.90,420.00 798.71,425.00 799.52,440.00 800.33,430.00 801.14,435.00 801.95,440.00 802.76,440.00 803.57,435.00 804.38,435.00 805.19,430.00 806.00,420.00 806.81,425.00 807.62,430.00 808.43,425.00 809.23,420.00 810.04,415.00 810.85,410.00 811.66,400.00 812.47,385.00 813.28,390.00 814.09,405.00 814.90,395.00 815.71,395.00 816.52,405.00 817.33,400.00 818.14,400.00 818.95,390.00 819.76,395.00 820.57,390.00 821.38,385.00 822.19,395.00 822.99,405.00 823.80,420.00 824.61,420.00 825.42,420.00 826.23,430.00 827.04,430.00 827.85,425.00 828.66,430.00 829.47,430.00 830.28,435.00 831.09,430.00 831.90,435.00 832.71,440.00 833.52,440.00 834.33,445.00 835.14,455.00 835.95,460.00 836.75,455.00 837.56,445.00 838.37,450.00 839.18,440.00 839.99,440.00 840.80,445.00 841.61,440.00 842.42,435.00 843.23,440.00 844.04,455.00 844.85,445.00 845.66,445.00 846.47,455.00 847.28,455.00 848.09,460.00 848.90,460.00 849.71,465.00 850.52,465.00 851.32,460.00 852.13,460.00 852.94,455.00 853.75,450.00 854.56,435.00 855.37,440.00 856.18,450.00 856.99,450.00 857.80,440.00 858.61,435.00 859.42,445.00 860.23,430.00 861.04,435.00 861.85,445.00 862.66,445.00 863.47,440.00 864.28,445.00 865.08,450.00 865.89,435.00 866.70,445.00 867.51,460.00 868.32,460.00 869.13,465.00 869.94,460.00 870.75,465.00 871.56,460.00 872.37,460.00 873.18,470.00 873.99,465.00 874.80,470.00 875.61,475.00 876.42,485.00 877.23,495.00 878.04,490.00 878.84,480.00 879.65,485.00 880.46,480.00 881.27,470.00 882.08,470.00 882.89,480.00 883.70,480.00 884.51,460.00 885.32,445.00 886.13,455.00 886.94,450.00 887.75,455.00 888.56,450.00 889.37,455.00 890.18,450.00 890.99,440.00 891.80,430.00 892.60,445.00 893.41,440.00 894.22,440.00 895.03,440.00 895.84,445.00 896.65,440.00 897.46,435.00 898.27,450.00 899.08,445.00 899.89,445.00 900.70,455.00 901.51,445.00 902.32,480.00 903.13,515.00 903.94,470.00 904.75,480.00 905.56,470.00 906.36,470.00 907.17,475.00 907.98,470.00 908.79,475.00 909.60,490.00 910.41,485.00 911.22,480.00 912.03,460.00 912.84,470.00 913.65,475.00 914.46,480.00 915.27,470.00 916.08,465.00 916.89,465.00 917.70,455.00 918.51,440.00 919.32,440.00 920.13,440.00 920.93,440.00 921.74,425.00 922.55,430.00 923.36,455.00 924.17,450.00 924.98,460.00 925.79,450.00 926.60,445.00 927.41,450.00 928.22,445.00 929.03,450.00 929.84,435.00 930.65,435.00 931.46,430.00 932.27,430.00 933.08,425.00 933.89,435.00 934.69,420.00 935.50,415.00 936.31,410.00 937.12,415.00 937.93,415.00 938.74,410.00 939.55,410.00 940.36,410.00 941.17,405.00 941.98,395.00 942.79,400.00 943.60,405.00 944.41,400.00 945.22,400.00 946.03,405.00 946.84,405.00 947.65,410.00 948.45,405.00 949.26,400.00 950.07,405.00 950.88,395.00 951.69,390.00 952.50,385.00 953.31,385.00 954.12,385.00 954.93,390.00 955.74,405.00 956.55,400.00 957.36,405.00 958.17,400.00 958.98,405.00 959.79,410.00 960.60,400.00 961.41,400.00 962.21,400.00 963.02,415.00 963.83,405.00 964.64,400.00 965.45,405.00 966.26,410.00 967.07,410.00 967.88,420.00 968.69,415.00 969.50,405.00 970.31,405.00 971.12,410.00 971.93,420.00 972.74,425.00 973.55,420.00 974.36,430.00 975.17,435.00 975.97,430.00 976.78,435.00 977.59,425.00 978.40,420.00 979.21,415.00 980.02,410.00 980.83,415.00 981.64,425.00 982.45,420.00 983.26,415.00 984.07,415.00 984.88,425.00 985.69,435.00 986.50,445.00 987.31,435.00 988.12,435.00 988.93,440.00 989.74,445.00 990.54,440.00 991.35,455.00 992.16,465.00 992.97,480.00 993.78,480.00 994.59,470.00 995.40,465.00 996.21,470.00 997.02,480.00 997.83,485.00 998.64,480.00 999.45,490.00 1000.26,495.00 1001.07,500.00 1001.88,495.00 1002.69,485.00 1003.50,490.00 1004.30,490.00 1005.11,505.00 1005.92,510.00 1006.73,520.00 1007.54,515.00 1008.35,525.00 1009.16,550.00 1009.97,535.00 1010.78,540.00 1011.59,535.00 1012.40,530.00 1013.21,515.00 1014.02,525.00 1014.83,505.00 1015.64,500.00 1016.45,490.00 1017.26,480.00 1018.06,480.00 1018.87,490.00 1019.68,490.00 1020.49,490.00 1021.30,490.00 1022.11,485.00 1022.92,475.00 1023.73,475.00 1024.54,490.00 1025.35,490.00 1026.16,495.00 1026.97,500.00 1027.78,495.00 1028.59,495.00 1029.40,485.00 1030.21,485.00 1031.02,480.00 1031.82,475.00 1032.63,475.00 1033.44,475.00 1034.25,465.00 1035.06,465.00 1035.87,470.00 1036.68,475.00 1037.49,480.00 1038.30,470.00 1039.11,465.00 1039.92,455.00 1040.73,460.00 1041.54,460.00 1042.35,455.00 1043.16,440.00 1043.97,450.00 1044.78,450.00 1045.58,460.00 1046.39,460.00 1047.20,460.00 1048.01,465.00 1048.82,465.00 1049.63,470.00 1050.44,475.00 1051.25,485.00 1052.06,485.00 1052.87,485.00 1053.68,490.00 1054.49,485.00 1055.30,490.00 1056.11,475.00 1056.92,485.00 1057.73,470.00 1058.54,465.00 1059.35,460.00 1060.15,470.00 1060.96,460.00 1061.77,460.00 1062.58,460.00 1063.39,460.00 1064.20,455.00 1065.01,460.00 1065.82,460.00 1066.63,465.00 1067.44,465.00 1068.25,465.00 1069.06,460.00 1069.87,460.00 1070.68,450.00 1071.49,460.00 1072.30,465.00 1073.11,465.00 1073.91,465.00 1074.72,470.00 1075.53,475.00 1076.34,470.00 1077.15,470.00 1077.96,470.00 1078.77,460.00 1079.58,460.00 1080.39,460.00 1081.20,460.00 1082.01,460.00 1082.82,465.00 1083.63,465.00 1084.44,455.00 1085.25,445.00 1086.06,450.00 1086.87,450.00 1087.67,455.00 1088.48,455.00 1089.29,450.00 1090.10,435.00 1090.91,440.00 1091.72,440.00 1092.53,440.00 1093.34,430.00 1094.15,425.00 1094.96,440.00 1095.77,440.00 1096.58,440.00 1097.39,445.00 1098.20,450.00 1099.01,450.00 1099.82,465.00 1100.63,470.00 1101.43,460.00 1102.24,460.00 1103.05,465.00 1103.86,465.00 1104.67,465.00 1105.48,475.00 1106.29,485.00 1107.10,485.00 1107.91,470.00 1108.72,475.00 1109.53,475.00 1110.34,465.00 1111.15,465.00 1111.96,465.00 1112.77,450.00 1113.58,450.00 1114.39,450.00 1115.19,450.00 1116.00,450.00 1116.81,440.00 1117.62,430.00 1118.43,430.00 1119.24,430.00 1120.05,430.00 1120.86,430.00 1121.67,420.00 1122.48,420.00 1123.29,420.00 1124.10,415.00 1124.91,420.00 1125.72,410.00 1126.53,410.00 1127.34,420.00 1128.15,425.00 1128.96,425.00 1129.76,430.00 1130.57,420.00 1131.38,415.00 1132.19,420.00 1133.00,420.00 1133.81,420.00 1134.62,415.00 1135.43,420.00 1136.24,425.00 1137.05,420.00 1137.86,425.00 1138.67,425.00 1139.48,430.00 1140.29,435.00 1141.10,435.00 1141.91,435.00 1142.72,440.00 1143.52,435.00 1144.33,430.00 1145.14,425.00 1145.95,425.00 1146.76,420.00 1147.57,420.00 1148.38,425.00 1149.19,425.00 1150.00,415.00" fill="none" stroke="#2f6fb0" stroke-width="2" />
  <text x="50" y="575.0" font-size="12" fill="#444">2000-01-07</text>
  <text x="1150" y="575.0" font-size="12" text-anchor="end" fill="#444">2026-01-23</text>
  <text x="50" y="50" font-size="12" fill="#444">Max: 2.0900</text>
  <text x="50" y="66" font-size="12" fill="#444">Min: 1.0900</text>
</svg>
