<svg xmlns="http://www.w3.org/2000/svg" width="1200" height="600">
  <rect width="100%" height="100%" fill="white" />
  <text x="600.0" y="25.0" font-size="20" text-anchor="middle" fill="#222">IDRUSD Weekly Exchange Rate</text>
  <polyline points="50.00,50.00 50.81,50.00 51.62,50.00 52.43,112.50 53.24,112.50 54.05,50.00 54.86,112.50 55.67,50.00 56.48,112.50 57.28,50.00 58.09,112.50 58.90,112.50 59.71,112.50 60.52,112.50 61.33,112.50 62.14,112.50 62.95,112.50 63.76,112.50 64.57,175.00 65.38,175.00 66.19,175.00 67.00,175.00 67.81,175.00 68.62,175.00 69.43,175.00 70.24,237.50 71.04,237.50 71.85,237.50 72.66,237.50 73.47,237.50 74.28,175.00 75.09,175.00 75.90,175.00 76.71,175.00 77.52,175.00 78.33,175.00 79.14,237.50 79.95,237.50 80.76,237.50 81.57,237.50 82.38,237.50 83.19,237.50 84.00,237.50 84.81,237.50 85.61,237.50 86.42,237.50 87.23,237.50 88.04,237.50 88.85,300.00 89.66,237.50 90.47,237.50 91.28,300.00 92.09,237.50 92.90,300.00 93.71,237.50 94.52,237.50 95.33,300.00 96.14,300.00 96.95,300.00 97.76,300.00 98.57,300.00 99.37,300.00 100.18,300.00 100.99,300.00 101.80,300.00 102.61,362.50 103.42,362.50 104.23,425.00 105.04,425.00 105.85,362.50 106.66,362.50 107.47,362.50 108.28,362.50 109.09,362.50 109.90,362.50 110.71,362.50 111.52,362.50 112.33,362.50 113.13,362.50 113.94,362.50 114.75,362.50 115.56,300.00 116.37,237.50 117.18,237.50 117.99,237.50 118.80,175.00 119.61,237.50 120.42,237.50 121.23,237.50 122.04,237.50 122.85,300.00 123.66,300.00 124.47,300.00 125.28,300.00 126.09,300.00 126.89,362.50 127.70,300.00 128.51,362.50 129.32,300.00 130.13,300.00 130.94,300.00 131.75,300.00 132.56,300.00 133.37,300.00 134.18,300.00 134.99,300.00 135.80,300.00 136.61,300.00 137.42,300.00 138.23,300.00 139.04,300.00 139.85,300.00 140.65,300.00 141.46,300.00 142.27,300.00 143.08,300.00 143.89,300.00 144.70,300.00 145.51,300.00 146.32,237.50 147.13,237.50 147.94,237.50 148.75,237.50 149.56,237.50 150.37,237.50 151.18,237.50 151.99,237.50 152.80,175.00 153.61,175.00 154.42,237.50 155.22,237.50 156.03,237.50 156.84,237.50 157.65,237.50 158.46,237.50 159.27,237.50 160.08,237.50 160.89,237.50 161.70,237.50 162.51,237.50 163.32,237.50 164.13,237.50 164.94,237.50 165.75,237.50 166.56,237.50 167.37,237.50 168.18,237.50 168.98,237.50 169.79,237.50 170.60,237.50 171.41,237.50 172.22,237.50 173.03,237.50 173.84,237.50 174.65,237.50 175.46,237.50 176.27,237.50 177.08,237.50 177.89,237.50 178.70,237.50 179.51,237.50 180.32,237.50 181.13,237.50 181.94,237.50 182.74,237.50 183.55,237.50 184.36,237.50 185.17,237.50 185.98,237.50 186.79,237.50 187.60,237.50 188.41,237.50 189.22,237.50 190.03,175.00 190.84,175.00 191.65,175.00 192.46,175.00 193.27,175.00 194.08,175.00 194.89,175.00 195.70,175.00 196.50,175.00 197.31,175.00 198.12,175.00 198.93,175.00 199.74,175.00 200.55,175.00 201.36,175.00 202.17,175.00 202.98,175.00 203.79,175.00 204.60,175.00 205.41,175.00 206.22,175.00 207.03,175.00 207.84,175.00 208.65,175.00 209.46,175.00 210.26,175.00 211.07,175.00 211.88,175.00 212.69,175.00 213.50,175.00 214.31,175.00 215.12,175.00 215.93,175.00 216.74,175.00 217.55,175.00 218.36,175.00 219.17,175.00 219.98,175.00 220.79,175.00 221.60,175.00 222.41,175.00 223.22,175.00 224.03,175.00 224.83,175.00 225.64,175.00 226.45,175.00 227.26,175.00 228.07,175.00 228.88,175.00 229.69,175.00 230.50,175.00 231.31,175.00 232.12,237.50 232.93,237.50 233.74,237.50 234.55,237.50 235.36,237.50 236.17,237.50 236.98,237.50 237.79,237.50 238.59,237.50 239.40,237.50 240.21,237.50 241.02,237.50 241.83,237.50 242.64,237.50 243.45,237.50 244.26,237.50 245.07,237.50 245.88,237.50 246.69,237.50 247.50,237.50 248.31,237.50 249.12,237.50 249.93,237.50 250.74,237.50 251.55,237.50 252.35,237.50 253.16,237.50 253.97,237.50 254.78,237.50 255.59,237.50 256.40,237.50 257.21,237.50 258.02,237.50 258.83,237.50 259.64,237.50 260.45,237.50 261.26,237.50 262.07,237.50 262.88,237.50 263.69,237.50 264.50,237.50 265.31,237.50 266.11,237.50 266.92,237.50 267.73,237.50 268.54,237.50 269.35,237.50 270.16,237.50 270.97,237.50 271.78,237.50 272.59,300.00 273.40,300.00 274.21,300.00 275.02,237.50 275.83,237.50 276.64,237.50 277.45,237.50 278.26,300.00 279.07,300.00 279.87,300.00 280.68,300.00 281.49,300.00 282.30,300.00 283.11,300.00 283.92,300.00 284.73,300.00 285.54,300.00 286.35,300.00 287.16,300.00 287.97,300.00 288.78,300.00 289.59,300.00 290.40,300.00 291.21,300.00 292.02,300.00 292.83,300.00 293.64,300.00 294.44,300.00 295.25,300.00 296.06,300.00 296.87,300.00 297.68,300.00 298.49,300.00 299.30,300.00 300.11,300.00 300.92,300.00 301.73,300.00 302.54,300.00 303.35,300.00 304.16,237.50 304.97,237.50 305.78,237.50 306.59,237.50 307.40,237.50 308.20,237.50 309.01,237.50 309.82,237.50 310.63,237.50 311.44,237.50 312.25,237.50 313.06,237.50 313.87,237.50 314.68,237.50 315.49,237.50 316.30,237.50 317.11,237.50 317.92,237.50 318.73,237.50 319.54,237.50 320.35,237.50 321.16,237.50 321.96,237.50 322.77,237.50 323.58,237.50 324.39,237.50 325.20,237.50 326.01,237.50 326.82,237.50 327.63,237.50 328.44,237.50 329.25,237.50 330.06,237.50 330.87,237.50 331.68,237.50 332.49,237.50 333.30,237.50 334.11,237.50 334.92,237.50 335.72,237.50 336.53,237.50 337.34,237.50 338.15,237.50 338.96,237.50 339.77,237.50 340.58,237.50 341.39,237.50 342.20,237.50 343.01,237.50 343.82,237.50 344.63,237.50 345.44,237.50 346.25,237.50 347.06,237.50 347.87,237.50 348.68,237.50 349.48,237.50 350.29,237.50 351.10,237.50 351.91,237.50 352.72,237.50 353.53,237.50 354.34,237.50 355.15,237.50 355.96,237.50 356.77,237.50 357.58,237.50 358.39,237.50 359.20,237.50 360.01,237.50 360.82,237.50 361.63,237.50 362.44,237.50 363.25,237.50 364.05,237.50 364.86,237.50 365.67,237.50 366.48,237.50 367.29,237.50 368.10,237.50 368.91,237.50 369.72,237.50 370.53,237.50 371.34,237.50 372.15,237.50 372.96,237.50 373.77,237.50 374.58,237.50 375.39,237.50 376.20,237.50 377.01,237.50 377.81,237.50 378.62,237.50 379.43,237.50 380.24,237.50 381.05,237.50 381.86,237.50 382.67,237.50 383.48,237.50 384.29,237.50 385.10,237.50 385.91,237.50 386.72,237.50 387.53,237.50 388.34,237.50 389.15,237.50 389.96,237.50 390.77,237.50 391.57,237.50 392.38,237.50 393.19,237.50 394.00,237.50 394.81,237.50 395.62,237.50 396.43,237.50 397.24,237.50 398.05,237.50 398.86,237.50 399.67,237.50 400.48,237.50 401.29,237.50 402.10,237.50 402.91,237.50 403.72,237.50 404.53,237.50 405.33,237.50 406.14,237.50 406.95,237.50 407.76,237.50 408.57,237.50 409.38,237.50 410.19,237.50 411.00,237.50 411.81,237.50 412.62,237.50 413.43,237.50 414.24,237.50 415.05,237.50 415.86,237.50 416.67,237.50 417.48,237.50 418.29,237.50 419.09,237.50 419.90,300.00 420.71,300.00 421.52,300.00 422.33,362.50 423.14,362.50 423.95,362.50 424.76,425.00 425.57,425.00 426.38,425.00 427.19,362.50 428.00,362.50 428.81,362.50 429.62,362.50 430.43,362.50 431.24,362.50 432.05,362.50 432.86,362.50 433.66,362.50 434.47,425.00 435.28,425.00 436.09,425.00 436.90,425.00 437.71,425.00 438.52,425.00 439.33,362.50 440.14,362.50 440.95,362.50 441.76,362.50 442.57,362.50 443.38,362.50 444.19,300.00 445.00,300.00 445.81,300.00 446.62,300.00 447.42,300.00 448.23,300.00 449.04,300.00 449.85,300.00 450.66,300.00 451.47,300.00 452.28,300.00 453.09,300.00 453.90,300.00 454.71,300.00 455.52,300.00 456.33,300.00 457.14,300.00 457.95,300.00 458.76,300.00 459.57,300.00 460.38,300.00 461.18,300.00 461.99,237.50 462.80,237.50 463.61,237.50 464.42,300.00 465.23,237.50 466.04,237.50 466.85,237.50 467.66,237.50 468.47,237.50 469.28,237.50 470.09,237.50 470.90,237.50 471.71,237.50 472.52,237.50 473.33,237.50 474.14,237.50 474.94,237.50 475.75,237.50 476.56,237.50 477.37,237.50 478.18,237.50 478.99,237.50 479.80,237.50 480.61,237.50 481.42,237.50 482.23,237.50 483.04,237.50 483.85,237.50 484.66,237.50 485.47,237.50 486.28,237.50 487.09,237.50 487.90,237.50 488.70,237.50 489.51,237.50 490.32,237.50 491.13,237.50 491.94,237.50 492.75,237.50 493.56,237.50 494.37,237.50 495.18,237.50 495.99,237.50 496.80,237.50 497.61,237.50 498.42,237.50 499.23,237.50 500.04,237.50 500.85,237.50 501.66,237.50 502.47,237.50 503.27,237.50 504.08,237.50 504.89,237.50 505.70,237.50 506.51,237.50 507.32,237.50 508.13,237.50 508.94,237.50 509.75,237.50 510.56,237.50 511.37,237.50 512.18,237.50 512.99,237.50 513.80,237.50 514.61,237.50 515.42,237.50 516.23,237.50 517.03,237.50 517.84,237.50 518.65,237.50 519.46,237.50 520.27,237.50 521.08,237.50 521.89,237.50 522.70,237.50 523.51,237.50 524.32,175.00 525.13,175.00 525.94,175.00 526.75,175.00 527.56,175.00 528.37,175.00 529.18,175.00 529.99,175.00 530.79,175.00 531.60,175.00 532.41,175.00 533.22,175.00 534.03,175.00 534.84,175.00 535.65,175.00 536.46,175.00 537.27,175.00 538.08,175.00 538.89,175.00 539.70,175.00 540.51,175.00 541.32,175.00 542.13,175.00 542.94,175.00 543.75,237.50 544.55,237.50 545.36,237.50 546.17,237.50 546.98,237.50 547.79,237.50 548.60,237.50 549.41,237.50 550.22,237.50 551.03,237.50 551.84,237.50 552.65,237.50 553.46,237.50 554.27,237.50 555.08,237.50 555.89,237.50 556.70,237.50 557.51,237.50 558.31,237.50 559.12,237.50 559.93,237.50 560.74,237.50 561.55,237.50 562.36,237.50 563.17,237.50 563.98,237.50 564.79,237.50 565.60,237.50 566.41,237.50 567.22,237.50 568.03,237.50 568.84,237.50 569.65,237.50 570.46,237.50 571.27,237.50 572.08,237.50 572.88,237.50 573.69,237.50 574.50,237.50 575.31,237.50 576.12,237.50 576.93,237.50 577.74,237.50 578.55,237.50 579.36,237.50 580.17,237.50 580.98,237.50 581.79,237.50 582.60,237.50 583.41,237.50 584.22,300.00 585.03,300.00 585.84,237.50 586.64,300.00 587.45,300.00 588.26,300.00 589.07,300.00 589.88,300.00 590.69,300.00 591.50,300.00 592.31,300.00 593.12,300.00 593.93,300.00 594.74,300.00 595.55,300.00 596.36,300.00 597.17,300.00 597.98,300.00 598.79,300.00 599.60,300.00 600.40,300.00 601.21,300.00 602.02,300.00 602.83,300.00 603.64,300.00 604.45,300.00 605.26,300.00 606.07,300.00 606.88,300.00 607.69,300.00 608.50,300.00 609.31,300.00 610.12,300.00 610.93,300.00 611.74,300.00 612.55,300.00 613.36,300.00 614.16,300.00 614.97,300.00 615.78,300.00 616.59,300.00 617.40,300.00 618.21,300.00 619.02,300.00 619.83,300.00 620.64,300.00 621.45,300.00 622.26,300.00 623.07,300.00 623.88,300.00 624.69,300.00 625.50,362.50 626.31,362.50 627.12,362.50 627.92,362.50 628.73,362.50 629.54,362.50 630.35,362.50 631.16,362.50 631.97,362.50 632.78,362.50 633.59,362.50 634.40,362.50 635.21,362.50 636.02,362.50 636.83,362.50 637.64,425.00 638.45,425.00 639.26,425.00 640.07,425.00 640.88,425.00 641.69,425.00 642.49,425.00 643.30,425.00 644.11,425.00 644.92,425.00 645.73,425.00 646.54,362.50 647.35,362.50 648.16,362.50 648.97,362.50 649.78,362.50 650.59,362.50 651.40,362.50 652.21,362.50 653.02,362.50 653.83,362.50 654.64,362.50 655.45,362.50 656.25,362.50 657.06,362.50 657.87,362.50 658.68,425.00 659.49,425.00 660.30,425.00 661.11,425.00 661.92,425.00 662.73,362.50 663.54,362.50 664.35,362.50 665.16,425.00 665.97,425.00 666.78,362.50 667.59,362.50 668.40,362.50 669.21,362.50 670.01,425.00 670.82,425.00 671.63,425.00 672.44,425.00 673.25,425.00 674.06,425.00 674.87,425.00 675.68,425.00 676.49,425.00 677.30,425.00 678.11,425.00 678.92,425.00 679.73,425.00 680.54,425.00 681.35,425.00 682.16,425.00 682.97,425.00 683.77,425.00 684.58,425.00 685.39,425.00 686.20,425.00 687.01,425.00 687.82,425.00 688.63,425.00 689.44,425.00 690.25,425.00 691.06,425.00 691.87,425.00 692.68,425.00 693.49,425.00 694.30,425.00 695.11,425.00 695.92,425.00 696.73,425.00 697.53,425.00 698.34,425.00 699.15,425.00 699.96,425.00 700.77,487.50 701.58,425.00 702.39,425.00 703.20,425.00 704.01,487.50 704.82,425.00 705.63,487.50 706.44,487.50 707.25,487.50 708.06,487.50 708.87,487.50 709.68,487.50 710.49,487.50 711.30,487.50 712.10,487.50 712.91,487.50 713.72,487.50 714.53,487.50 715.34,487.50 716.15,487.50 716.96,487.50 717.77,487.50 718.58,487.50 719.39,487.50 720.20,487.50 721.01,487.50 721.82,487.50 722.63,487.50 723.44,487.50 724.25,487.50 725.06,487.50 725.86,487.50 726.67,487.50 727.48,487.50 728.29,487.50 729.10,487.50 729.91,487.50 730.72,487.50 731.53,487.50 732.34,425.00 733.15,425.00 733.96,425.00 734.77,425.00 735.58,425.00 736.39,425.00 737.20,425.00 738.01,425.00 738.82,425.00 739.62,487.50 740.43,425.00 741.24,487.50 742.05,487.50 742.86,487.50 743.67,425.00 744.48,487.50 745.29,487.50 746.10,425.00 746.91,425.00 747.72,425.00 748.53,425.00 749.34,425.00 750.15,425.00 750.96,425.00 751.77,425.00 752.58,425.00 753.38,425.00 754.19,425.00 755.00,425.00 755.81,425.00 756.62,425.00 757.43,425.00 758.24,425.00 759.05,425.00 759.86,425.00 760.67,425.00 761.48,487.50 762.29,487.50 763.10,487.50 763.91,487.50 764.72,487.50 765.53,487.50 766.34,487.50 767.14,487.50 767.95,487.50 768.76,425.00 769.57,487.50 770.38,487.50 771.19,425.00 772.00,425.00 772.81,487.50 773.62,425.00 774.43,487.50 775.24,487.50 776.05,487.50 776.86,425.00 777.67,425.00 778.48,425.00 779.29,425.00 780.10,425.00 780.91,425.00 781.71,425.00 782.52,425.00 783.33,425.00 784.14,425.00 784.95,425.00 785.76,425.00 786.57,425.00 787.38,425.00 788.19,425.00 789.00,487.50 789.81,425.00 790.62,425.00 791.43,425.00 792.24,425.00 793.05,487.50 793.86,487.50 794.67,487.50 795.47,425.00 796.28,425.00 797.09,425.00 797.90,425.00 798.71,487.50 799.52,487.50 800.33,487.50 801.14,487.50 801.95,487.50 802.76,487.50 803.57,487.50 804.38,487.50 805.19,487.50 806.00,487.50 806.81,487.50 807.62,487.50 808.43,487.50 809.23,487.50 810.04,487.50 810.85,425.00 811.66,425.00 812.47,425.00 813.28,487.50 814.09,487.50 814.90,487.50 815.71,487.50 816.52,487.50 817.33,487.50 818.14,487.50 818.95,487.50 819.76,487.50 820.57,487.50 821.38,487.50 822.19,487.50 822.99,487.50 823.80,487.50 824.61,487.50 825.42,487.50 826.23,487.50 827.04,487.50 827.85,487.50 828.66,487.50 829.47,487.50 830.28,487.50 831.09,487.50 831.90,487.50 832.71,487.50 833.52,487.50 834.33,487.50 835.14,487.50 835.95,487.50 836.75,487.50 837.56,487.50 838.37,487.50 839.18,487.50 839.99,487.50 840.80,487.50 841.61,487.50 842.42,487.50 843.23,487.50 844.04,487.50 844.85,487.50 845.66,487.50 846.47,487.50 847.28,487.50 848.09,487.50 848.90,487.50 849.71,487.50 850.52,487.50 851.32,487.50 852.13,487.50 852.94,487.50 853.75,487.50 854.56,487.50 855.37,487.50 856.18,487.50 856.99,487.50 857.80,487.50 858.61,487.50 859.42,487.50 860.23,487.50 861.04,487.50 861.85,487.50 862.66,487.50 863.47,487.50 864.28,487.50 865.08,487.50 865.89,487.50 866.70,487.50 867.51,487.50 868.32,487.50 869.13,487.50 869.94,487.50 870.75,487.50 871.56,487.50 872.37,487.50 873.18,487.50 873.99,487.50 874.80,487.50 875.61,487.50 876.42,487.50 877.23,487.50 878.04,487.50 878.84,487.50 879.65,487.50 880.46,487.50 881.27,487.50 882.08,487.50 882.89,487.50 883.70,487.50 884.51,487.50 885.32,487.50 886.13,487.50 886.94,487.50 887.75,487.50 888.56,487.50 889.37,487.50 890.18,487.50 890.99,487.50 891.80,487.50 892.60,487.50 893.41,487.50 894.22,487.50 895.03,487.50 895.84,487.50 896.65,487.50 897.46,487.50 898.27,487.50 899.08,487.50 899.89,487.50 900.70,487.50 901.51,487.50 902.32,487.50 903.13,550.00 903.94,550.00 904.75,550.00 905.56,550.00 906.36,550.00 907.17,550.00 907.98,487.50 908.79,487.50 909.60,487.50 910.41,487.50 911.22,487.50 912.03,487.50 912.84,487.50 913.65,487.50 914.46,487.50 915.27,487.50 916.08,487.50 916.89,487.50 917.70,487.50 918.51,487.50 919.32,487.50 920.13,487.50 920.93,487.50 921.74,487.50 922.55,487.50 923.36,487.50 924.17,487.50 924.98,487.50 925.79,487.50 926.60,487.50 927.41,487.50 928.22,487.50 929.03,487.50 929.84,487.50 930.65,487.50 931.46,487.50 932.27,487.50 933.08,487.50 933.89,487.50 934.69,487.50 935.50,487.50 936.31,487.50 937.12,487.50 937.93,487.50 938.74,487.50 939.55,487.50 940.36,487.50 941.17,487.50 941.98,487.50 942.79,487.50 943.60,487.50 944.41,487.50 945.22,487.50 946.03,487.50 946.84,487.50 947.65,487.50 948.45,487.50 949.26,487.50 950.07,487.50 950.88,487.50 951.69,487.50 952.50,487.50 953.31,487.50 954.12,487.50 954.93,487.50 955.74,487.50 956.55,487.50 957.36,487.50 958.17,487.50 958.98,487.50 959.79,487.50 960.60,487.50 961.41,487.50 962.21,487.50 963.02,487.50 963.83,487.50 964.64,487.50 965.45,487.50 966.26,487.50 967.07,487.50 967.88,487.50 968.69,487.50 969.50,487.50 970.31,487.50 971.12,487.50 971.93,487.50 972.74,487.50 973.55,487.50 974.36,487.50 975.17,487.50 975.97,487.50 976.78,487.50 977.59,487.50 978.40,487.50 979.21,487.50 980.02,487.50 980.83,487.50 981.64,487.50 982.45,487.50 983.26,487.50 984.07,487.50 984.88,487.50 985.69,487.50 986.50,487.50 987.31,487.50 988.12,487.50 988.93,487.50 989.74,487.50 990.54,487.50 991.35,487.50 992.16,487.50 992.97,487.50 993.78,487.50 994.59,487.50 995.40,487.50 996.21,487.50 997.02,487.50 997.83,487.50 998.64,487.50 999.45,487.50 1000.26,487.50 1001.07,487.50 1001.88,487.50 1002.69,487.50 1003.50,487.50 1004.30,487.50 1005.11,487.50 1005.92,487.50 1006.73,487.50 1007.54,487.50 1008.35,487.50 1009.16,487.50 1009.97,487.50 1010.78,487.50 1011.59,550.00 1012.40,550.00 1013.21,550.00 1014.02,550.00 1014.83,550.00 1015.64,550.00 1016.45,550.00 1017.26,550.00 1018.06,550.00 1018.87,550.00 1019.68,550.00 1020.49,550.00 1021.30,550.00 1022.11,487.50 1022.92,487.50 1023.73,487.50 1024.54,487.50 1025.35,487.50 1026.16,487.50 1026.97,487.50 1027.78,487.50 1028.59,550.00 1029.40,487.50 1030.21,487.50 1031.02,487.50 1031.82,487.50 1032.63,487.50 1033.44,487.50 1034.25,487.50 1035.06,487.50 1035.87,487.50 1036.68,487.50 1037.49,487.50 1038.30,487.50 1039.11,487.50 1039.92,487.50 1040.73,487.50 1041.54,487.50 1042.35,487.50 1043.16,487.50 1043.97,487.50 1044.78,487.50 1045.58,487.50 1046.39,487.50 1047.20,487.50 1048.01,487.50 1048.82,487.50 1049.63,487.50 1050.44,487.50 1051.25,487.50 1052.06,550.00 1052.87,550.00 1053.68,550.00 1054.49,550.00 1055.30,550.00 1056.11,550.00 1056.92,550.00 1057.73,550.00 1058.54,550.00 1059.35,550.00 1060.15,550.00 1060.96,550.00 1061.77,550.00 1062.58,550.00 1063.39,550.00 1064.20,550.00 1065.01,550.00 1065.82,550.00 1066.63,550.00 1067.44,550.00 1068.25,550.00 1069.06,550.00 1069.87,550.00 1070.68,550.00 1071.49,550.00 1072.30,550.00 1073.11,550.00 1073.91,550.00 1075.53,550.00 1076.34,550.00 1077.15,550.00 1077.96,550.00 1078.77,550.00 1079.58,550.00 1080.39,550.00 1081.20,550.00 1082.01,550.00 1082.82,550.00 1083.63,550.00 1084.44,550.00 1085.25,550.00 1086.06,550.00 1086.87,550.00 1087.67,550.00 1088.48,550.00 1089.29,550.00 1090.10,550.00 1090.91,550.00 1091.72,487.50 1092.53,550.00 1093.34,487.50 1094.15,487.50 1094.96,550.00 1095.77,550.00 1096.58,550.00 1097.39,550.00 1098.20,550.00 1099.01,550.00 1099.82,550.00 1100.63,550.00 1101.43,550.00 1102.24,550.00 1103.05,550.00 1103.86,550.00 1104.67,550.00 1105.48,550.00 1106.29,550.00 1107.10,550.00 1107.91,550.00 1108.72,550.00 1109.53,550.00 1110.34,550.00 1111.15,550.00 1111.96,550.00 1112.77,550.00 1113.58,550.00 1114.39,550.00 1115.19,550.00 1116.00,550.00 1116.81,550.00 1117.62,550.00 1118.43,550.00 1119.24,550.00 1120.05,550.00 1120.86,550.00 1121.67,550.00 1122.48,550.00 1123.29,550.00 1124.10,550.00 1124.91,550.00 1125.72,550.00 1126.53,550.00 1127.34,550.00 1128.15,550.00 1128.96,550.00 1129.76,550.00 1130.57,550.00 1131.38,550.00 1132.19,550.00 1133.00,550.00 1133.81,550.00 1134.62,550.00 1135.43,550.00 1136.24,550.00 1137.05,550.00 1137.86,550.00 1138.67,550.00 1139.48,550.00 1140.29,550.00 1141.10,550.00 1141.91,550.00 1142.72,550.00 1143.52,550.00 1144.33,550.00 1145.14,550.00 1145.95,550.00 1146.76,550.00 1147.57,550.00 1148.38,550.00 1149.19,550.00 1150.00,550.00" fill="none" stroke="#2f6fb0" stroke-width="2" />
  <text x="50" y="575.0" font-size="12" fill="#444">2000-01-07</text>
  <text x="1150" y="575.0" font-size="12" text-anchor="end" fill="#444">2026-01-23</text>
  <text x="50" y="50" font-size="12" fill="#444">Max: 0.1400</text>
  <text x="50" y="66" font-size="12" fill="#444">Min: 0.0600</text>
</svg>
