<svg xmlns="http://www.w3.org/2000/svg" width="1200" height="600">
  <rect width="100%" height="100%" fill="white" />
  <text x="600.0" y="25.0" font-size="20" text-anchor="middle" fill="#222">INRUSD Weekly Exchange Rate</text>
  <polyline points="50.00,300.00 50.81,300.00 51.62,300.00 52.43,300.00 53.24,300.00 54.05,300.00 54.86,300.00 55.67,300.00 56.48,300.00 57.28,300.00 58.09,300.00 58.90,300.00 59.71,300.00 60.52,300.00 61.33,300.00 62.14,300.00 62.95,300.00 63.76,300.00 64.57,300.00 65.38,300.00 66.19,300.00 67.00,300.00 67.81,300.00 68.62,300.00 69.43,300.00 70.24,300.00 71.04,300.00 71.85,300.00 72.66,300.00 73.47,300.00 74.28,300.00 75.09,300.00 75.90,300.00 76.71,300.00 77.52,300.00 78.33,300.00 79.14,300.00 79.95,300.00 80.76,300.00 81.57,300.00 82.38,300.00 83.19,300.00 84.00,300.00 84.81,300.00 85.61,300.00 86.42,300.00 87.23,300.00 88.04,300.00 88.85,300.00 89.66,300.00 90.47,300.00 91.28,300.00 92.09,300.00 92.90,300.00 93.71,300.00 94.52,300.00 95.33,300.00 96.14,300.00 96.95,300.00 97.76,300.00 98.57,300.00 99.37,300.00 100.18,300.00 100.99,300.00 101.80,300.00 102.61,300.00 103.42,300.00 104.23,300.00 105.04,300.00 105.85,300.00 106.66,300.00 107.47,300.00 108.28,300.00 109.09,300.00 109.90,300.00 110.71,300.00 111.52,300.00 112.33,300.00 113.13,300.00 113.94,300.00 114.75,300.00 115.56,300.00 116.37,300.00 117.18,300.00 117.99,300.00 118.80,300.00 119.61,300.00 120.42,300.00 121.23,300.00 122.04,300.00 122.85,300.00 123.66,300.00 124.47,300.00 125.28,300.00 126.09,300.00 126.89,300.00 127.70,300.00 128.51,300.00 129.32,300.00 130.13,300.00 130.94,300.00 131.75,300.00 132.56,300.00 133.37,300.00 134.18,300.00 134.99,300.00 135.80,300.00 136.61,300.00 137.42,300.00 138.23,300.00 139.04,300.00 139.85,300.00 140.65,300.00 141.46,300.00 142.27,300.00 143.08,300.00 143.89,300.00 144.70,300.00 145.51,300.00 146.32,300.00 147.13,300.00 147.94,300.00 148.75,300.00 149.56,300.00 150.37,300.00 151.18,300.00 151.99,300.00 152.80,300.00 153.61,300.00 154.42,300.00 155.22,300.00 156.03,300.00 156.84,300.00 157.65,300.00 158.46,300.00 159.27,300.00 160.08,300.00 160.89,300.00 161.70,300.00 162.51,300.00 163.32,300.00 164.13,300.00 164.94,300.00 165.75,300.00 166.56,300.00 167.37,300.00 168.18,300.00 168.98,300.00 169.79,300.00 170.60,300.00 171.41,300.00 172.22,300.00 173.03,300.00 173.84,300.00 174.65,300.00 175.46,300.00 176.27,300.00 177.08,300.00 177.89,300.00 178.70,300.00 179.51,300.00 180.32,300.00 181.13,300.00 181.94,300.00 182.74,300.00 183.55,300.00 184.36,300.00 185.17,300.00 185.98,300.00 186.79,300.00 187.60,300.00 188.41,300.00 189.22,300.00 190.03,300.00 190.84,300.00 191.65,300.00 192.46,300.00 193.27,300.00 194.08,300.00 194.89,300.00 195.70,300.00 196.50,300.00 197.31,300.00 198.12,300.00 198.93,300.00 199.74,300.00 200.55,300.00 201.36,300.00 202.17,300.00 202.98,300.00 203.79,300.00 204.60,300.00 205.41,300.00 206.22,300.00 207.03,300.00 207.84,300.00 208.65,300.00 209.46,300.00 210.26,300.00 211.07,300.00 211.88,300.00 212.69,300.00 213.50,300.00 214.31,300.00 215.12,300.00 215.93,300.00 216.74,300.00 217.55,300.00 218.36,300.00 219.17,300.00 219.98,300.00 220.79,300.00 221.60,300.00 222.41,300.00 223.22,300.00 224.03,300.00 224.83,300.00 225.64,300.00 226.45,300.00 227.26,300.00 228.07,300.00 228.88,300.00 229.69,300.00 230.50,300.00 231.31,300.00 232.12,300.00 232.93,300.00 233.74,300.00 234.55,300.00 235.36,300.00 236.17,300.00 236.98,300.00 237.79,300.00 238.59,300.00 239.40,300.00 240.21,300.00 241.02,300.00 241.83,300.00 242.64,300.00 243.45,300.00 244.26,300.00 245.07,300.00 245.88,300.00 246.69,300.00 247.50,300.00 248.31,300.00 249.12,300.00 249.93,300.00 250.74,300.00 251.55,300.00 252.35,300.00 253.16,300.00 253.97,300.00 254.78,300.00 255.59,300.00 256.40,300.00 257.21,300.00 258.02,300.00 258.83,300.00 259.64,300.00 260.45,300.00 261.26,300.00 262.07,300.00 262.88,300.00 263.69,300.00 264.50,300.00 265.31,300.00 266.11,300.00 266.92,300.00 267.73,300.00 268.54,300.00 269.35,300.00 270.16,300.00 270.97,300.00 271.78,300.00 272.59,300.00 273.40,300.00 274.21,300.00 275.02,300.00 275.83,300.00 276.64,300.00 277.45,300.00 278.26,300.00 279.07,300.00 279.87,300.00 280.68,300.00 281.49,300.00 282.30,300.00 283.11,300.00 283.92,300.00 284.73,300.00 285.54,300.00 286.35,300.00 287.16,300.00 287.97,300.00 288.78,300.00 289.59,300.00 290.40,300.00 291.21,300.00 292.02,300.00 292.83,300.00 293.64,300.00 294.44,300.00 295.25,300.00 296.06,300.00 296.87,300.00 297.68,300.00 298.49,300.00 299.30,300.00 300.11,300.00 300.92,300.00 301.73,300.00 302.54,300.00 303.35,300.00 304.16,300.00 304.97,300.00 305.78,300.00 306.59,300.00 307.40,300.00 308.20,300.00 309.01,300.00 309.82,300.00 310.63,300.00 311.44,300.00 312.25,300.00 313.06,300.00 313.87,300.00 314.68,300.00 315.49,300.00 316.30,300.00 317.11,300.00 317.92,300.00 318.73,300.00 319.54,300.00 320.35,300.00 321.16,300.00 321.96,300.00 322.77,300.00 323.58,300.00 324.39,300.00 325.20,300.00 326.01,300.00 326.82,300.00 327.63,300.00 328.44,300.00 329.25,300.00 330.06,300.00 330.87,300.00 331.68,300.00 332.49,300.00 333.30,300.00 334.11,300.00 334.92,300.00 335.72,300.00 336.53,300.00 337.34,300.00 338.15,300.00 338.96,300.00 339.77,300.00 340.58,300.00 341.39,300.00 342.20,300.00 343.01,300.00 343.82,300.00 344.63,300.00 345.44,300.00 346.25,300.00 347.06,300.00 347.87,300.00 348.68,300.00 349.48,300.00 350.29,300.00 351.10,300.00 351.91,300.00 352.72,300.00 353.53,300.00 354.34,300.00 355.15,300.00 355.96,300.00 356.77,300.00 357.58,300.00 358.39,300.00 359.20,300.00 360.01,300.00 360.82,300.00 361.63,300.00 362.44,300.00 363.25,300.00 364.05,300.00 364.86,300.00 365.67,300.00 366.48,300.00 367.29,300.00 368.10,300.00 368.91,300.00 369.72,300.00 370.53,300.00 371.34,300.00 372.15,300.00 372.96,300.00 373.77,300.00 374.58,300.00 375.39,50.00 376.20,50.00 377.01,50.00 377.81,50.00 378.62,50.00 379.43,50.00 380.24,50.00 381.05,50.00 381.86,50.00 382.67,50.00 383.48,50.00 384.29,50.00 385.10,50.00 385.91,50.00 386.72,50.00 387.53,50.00 388.34,50.00 389.15,50.00 389.96,50.00 390.77,50.00 391.57,50.00 392.38,50.00 393.19,50.00 394.00,50.00 394.81,300.00 395.62,300.00 396.43,300.00 397.24,50.00 398.05,50.00 398.86,50.00 399.67,50.00 400.48,300.00 401.29,300.00 402.10,300.00 402.91,300.00 403.72,300.00 404.53,300.00 405.33,300.00 406.14,300.00 406.95,300.00 407.76,300.00 408.57,300.00 409.38,300.00 410.19,300.00 411.00,300.00 411.81,300.00 412.62,300.00 413.43,300.00 414.24,300.00 415.05,300.00 415.86,300.00 416.67,300.00 417.48,300.00 418.29,300.00 419.09,300.00 419.90,300.00 420.71,300.00 421.52,300.00 422.33,300.00 423.14,300.00 423.95,300.00 424.76,300.00 425.57,300.00 426.38,300.00 427.19,300.00 428.00,300.00 428.81,300.00 429.62,300.00 430.43,300.00 431.24,300.00 432.05,300.00 432.86,300.00 433.66,300.00 434.47,300.00 435.28,300.00 436.09,300.00 436.90,300.00 437.71,300.00 438.52,300.00 439.33,300.00 440.14,300.00 440.95,300.00 441.76,300.00 442.57,300.00 443.38,300.00 444.19,300.00 445.00,300.00 445.81,300.00 446.62,300.00 447.42,300.00 448.23,300.00 449.04,300.00 449.85,300.00 450.66,300.00 451.47,300.00 452.28,300.00 453.09,300.00 453.90,300.00 454.71,300.00 455.52,300.00 456.33,300.00 457.14,300.00 457.95,300.00 458.76,300.00 459.57,300.00 460.38,300.00 461.18,300.00 461.99,300.00 462.80,300.00 463.61,300.00 464.42,300.00 465.23,300.00 466.04,300.00 466.85,300.00 467.66,300.00 468.47,300.00 469.28,300.00 470.09,300.00 470.90,300.00 471.71,300.00 472.52,300.00 473.33,300.00 474.14,300.00 474.94,300.00 475.75,300.00 476.56,300.00 477.37,300.00 478.18,300.00 478.99,300.00 479.80,300.00 480.61,300.00 481.42,300.00 482.23,300.00 483.04,300.00 483.85,300.00 484.66,300.00 485.47,300.00 486.28,300.00 487.09,300.00 487.90,300.00 488.70,300.00 489.51,300.00 490.32,300.00 491.13,300.00 491.94,300.00 492.75,300.00 493.56,300.00 494.37,300.00 495.18,300.00 495.99,300.00 496.80,300.00 497.61,300.00 498.42,300.00 499.23,300.00 500.04,300.00 500.85,300.00 501.66,300.00 502.47,300.00 503.27,300.00 504.08,300.00 504.89,300.00 505.70,300.00 506.51,300.00 507.32,300.00 508.13,300.00 508.94,300.00 509.75,300.00 510.56,300.00 511.37,300.00 512.18,300.00 512.99,300.00 513.80,300.00 514.61,300.00 515.42,300.00 516.23,300.00 517.03,300.00 517.84,300.00 518.65,300.00 519.46,300.00 520.27,300.00 521.08,300.00 521.89,300.00 522.70,300.00 523.51,300.00 524.32,300.00 525.13,300.00 525.94,300.00 526.75,300.00 527.56,300.00 528.37,300.00 529.18,300.00 529.99,300.00 530.79,300.00 531.60,300.00 532.41,300.00 533.22,300.00 534.03,300.00 534.84,300.00 535.65,300.00 536.46,300.00 537.27,300.00 538.08,300.00 538.89,300.00 539.70,300.00 540.51,300.00 541.32,300.00 542.13,300.00 542.94,300.00 543.75,300.00 544.55,300.00 545.36,300.00 546.17,300.00 546.98,300.00 547.79,300.00 548.60,300.00 549.41,300.00 550.22,300.00 551.03,300.00 551.84,300.00 552.65,300.00 553.46,300.00 554.27,300.00 555.08,300.00 555.89,300.00 556.70,300.00 557.51,300.00 558.31,300.00 559.12,300.00 559.93,300.00 560.74,300.00 561.55,300.00 562.36,300.00 563.17,300.00 563.98,300.00 564.79,300.00 565.60,300.00 566.41,300.00 567.22,300.00 568.03,300.00 568.84,300.00 569.65,300.00 570.46,300.00 571.27,300.00 572.08,300.00 572.88,300.00 573.69,300.00 574.50,300.00 575.31,300.00 576.12,300.00 576.93,300.00 577.74,300.00 578.55,300.00 579.36,300.00 580.17,300.00 580.98,300.00 581.79,300.00 582.60,300.00 583.41,300.00 584.22,300.00 585.03,300.00 585.84,300.00 586.64,300.00 587.45,300.00 588.26,300.00 589.07,300.00 589.88,300.00 590.69,300.00 591.50,300.00 592.31,300.00 593.12,300.00 593.93,300.00 594.74,300.00 595.55,300.00 596.36,300.00 597.17,300.00 597.98,300.00 598.79,300.00 599.60,300.00 600.40,300.00 601.21,300.00 602.02,300.00 602.83,300.00 603.64,300.00 604.45,300.00 605.26,300.00 606.07,300.00 606.88,300.00 607.69,300.00 608.50,300.00 609.31,300.00 610.12,300.00 610.93,300.00 611.74,300.00 612.55,300.00 613.36,300.00 614.16,300.00 614.97,300.00 615.78,300.00 616.59,300.00 617.40,300.00 618.21,300.00 619.02,300.00 619.83,300.00 620.64,300.00 621.45,300.00 622.26,300.00 623.07,300.00 623.88,300.00 624.69,300.00 625.50,300.00 626.31,300.00 627.12,300.00 627.92,300.00 628.73,300.00 629.54,300.00 630.35,300.00 631.16,300.00 631.97,300.00 632.78,300.00 633.59,300.00 634.40,300.00 635.21,300.00 636.02,300.00 636.83,300.00 637.64,300.00 638.45,300.00 639.26,300.00 640.07,300.00 640.88,300.00 641.69,300.00 642.49,300.00 643.30,300.00 644.11,300.00 644.92,300.00 645.73,300.00 646.54,300.00 647.35,300.00 648.16,300.00 648.97,300.00 649.78,300.00 650.59,300.00 651.40,300.00 652.21,300.00 653.02,300.00 653.83,300.00 654.64,300.00 655.45,300.00 656.25,300.00 657.06,300.00 657.87,300.00 658.68,300.00 659.49,300.00 660.30,300.00 661.11,300.00 661.92,300.00 662.73,300.00 663.54,300.00 664.35,300.00 665.16,300.00 665.97,300.00 666.78,300.00 667.59,300.00 668.40,300.00 669.21,300.00 670.01,300.00 670.82,300.00 671.63,300.00 672.44,300.00 673.25,300.00 674.06,300.00 674.87,300.00 675.68,300.00 676.49,300.00 677.30,300.00 678.11,300.00 678.92,300.00 679.73,300.00 680.54,300.00 681.35,300.00 682.16,300.00 682.97,300.00 683.77,300.00 684.58,300.00 685.39,300.00 686.20,300.00 687.01,300.00 687.82,300.00 688.63,300.00 689.44,300.00 690.25,300.00 691.06,300.00 691.87,300.00 692.68,300.00 693.49,300.00 694.30,300.00 695.11,300.00 695.92,300.00 696.73,300.00 697.53,300.00 698.34,300.00 699.15,300.00 699.96,300.00 700.77,300.00 701.58,300.00 702.39,300.00 703.20,300.00 704.01,300.00 704.82,300.00 705.63,300.00 706.44,300.00 707.25,300.00 708.06,300.00 708.87,300.00 709.68,300.00 710.49,300.00 711.30,300.00 712.10,300.00 712.91,300.00 713.72,300.00 714.53,300.00 715.34,300.00 716.15,300.00 716.96,300.00 717.77,300.00 718.58,300.00 719.39,300.00 720.20,300.00 721.01,300.00 721.82,300.00 722.63,550.00 723.44,300.00 724.25,300.00 725.06,300.00 725.86,300.00 726.67,550.00 727.48,550.00 728.29,550.00 729.10,550.00 729.91,550.00 730.72,550.00 731.53,550.00 732.34,550.00 733.15,550.00 733.96,300.00 734.77,300.00 735.58,300.00 736.39,300.00 737.20,300.00 738.01,300.00 738.82,300.00 739.62,300.00 740.43,550.00 741.24,550.00 742.05,550.00 742.86,300.00 743.67,550.00 744.48,550.00 745.29,550.00 746.10,550.00 746.91,550.00 747.72,550.00 748.53,550.00 749.34,300.00 750.15,300.00 750.96,550.00 751.77,550.00 752.58,550.00 753.38,300.00 754.19,550.00 755.00,550.00 755.81,300.00 756.62,300.00 757.43,300.00 758.24,300.00 759.05,550.00 759.86,300.00 760.67,300.00 761.48,550.00 762.29,550.00 763.10,550.00 763.91,550.00 764.72,550.00 765.53,550.00 766.34,550.00 767.14,550.00 767.95,550.00 768.76,550.00 769.57,550.00 770.38,550.00 771.19,550.00 772.00,300.00 772.81,550.00 773.62,300.00 774.43,300.00 775.24,300.00 776.05,300.00 776.86,300.00 777.67,300.00 778.48,300.00 779.29,300.00 780.10,300.00 780.91,300.00 781.71,300.00 782.52,300.00 783.33,300.00 784.14,300.00 784.95,300.00 785.76,300.00 786.57,300.00 787.38,300.00 788.19,300.00 789.00,300.00 789.81,300.00 790.62,300.00 791.43,300.00 792.24,300.00 793.05,300.00 793.86,300.00 794.67,300.00 795.47,300.00 796.28,300.00 797.09,300.00 797.90,300.00 798.71,300.00 799.52,300.00 800.33,300.00 801.14,300.00 801.95,300.00 802.76,300.00 803.57,300.00 804.38,300.00 805.19,300.00 806.00,300.00 806.81,300.00 807.62,300.00 808.43,300.00 809.23,300.00 810.04,300.00 810.85,300.00 811.66,300.00 812.47,300.00 813.28,300.00 814.09,300.00 814.90,300.00 815.71,300.00 816.52,300.00 817.33,300.00 818.14,300.00 818.95,300.00 819.76,300.00 820.57,300.00 821.38,300.00 822.19,300.00 822.99,300.00 823.80,300.00 824.61,550.00 825.42,550.00 826.23,550.00 827.04,550.00 827.85,550.00 828.66,550.00 829.47,550.00 830.28,550.00 831.09,550.00 831.90,550.00 832.71,550.00 833.52,550.00 834.33,550.00 835.14,550.00 835.95,550.00 836.75,550.00 837.56,550.00 838.37,550.00 839.18,550.00 839.99,550.00 840.80,550.00 841.61,550.00 842.42,550.00 843.23,550.00 844.04,550.00 844.85,550.00 845.66,550.00 846.47,550.00 847.28,550.00 848.09,550.00 848.90,550.00 849.71,550.00 850.52,550.00 851.32,550.00 852.13,550.00 852.94,550.00 853.75,550.00 854.56,550.00 855.37,550.00 856.18,550.00 856.99,550.00 857.80,550.00 858.61,550.00 859.42,550.00 860.23,550.00 861.04,550.00 861.85,550.00 862.66,550.00 863.47,550.00 864.28,550.00 865.08,550.00 865.89,550.00 866.70,550.00 867.51,550.00 868.32,550.00 869.13,550.00 869.94,550.00 870.75,550.00 871.56,550.00 872.37,550.00 873.18,550.00 873.99,550.00 874.80,550.00 875.61,550.00 876.42,550.00 877.23,550.00 878.04,550.00 878.84,550.00 879.65,550.00 880.46,550.00 881.27,550.00 882.08,550.00 882.89,550.00 883.70,550.00 884.51,550.00 885.32,550.00 886.13,550.00 886.94,550.00 887.75,550.00 888.56,550.00 889.37,550.00 890.18,550.00 890.99,550.00 891.80,550.00 892.60,550.00 893.41,550.00 894.22,550.00 895.03,550.00 895.84,550.00 896.65,550.00 897.46,550.00 898.27,550.00 899.08,550.00 899.89,550.00 900.70,550.00 901.51,550.00 902.32,550.00 903.13,550.00 903.94,550.00 904.75,550.00 905.56,550.00 906.36,550.00 907.17,550.00 907.98,550.00 908.79,550.00 909.60,550.00 910.41,550.00 911.22,550.00 912.03,550.00 912.84,550.00 913.65,550.00 914.46,550.00 915.27,550.00 916.08,550.00 916.89,550.00 917.70,550.00 918.51,550.00 919.32,550.00 920.13,550.00 920.93,550.00 921.74,550.00 922.55,550.00 923.36,550.00 924.17,550.00 924.98,550.00 925.79,550.00 926.60,550.00 927.41,550.00 928.22,550.00 929.03,550.00 929.84,550.00 930.65,550.00 931.46,550.00 932.27,550.00 933.08,550.00 933.89,550.00 934.69,550.00 935.50,550.00 936.31,550.00 937.12,550.00 937.93,550.00 938.74,550.00 939.55,550.00 940.36,550.00 941.17,550.00 941.98,550.00 942.79,550.00 943.60,550.00 944.41,550.00 945.22,550.00 946.03,550.00 946.84,550.00 947.65,550.00 948.45,550.00 949.26,550.00 950.07,550.00 950.88,550.00 951.69,550.00 952.50,550.00 953.31,550.00 954.12,550.00 954.93,550.00 955.74,550.00 956.55,550.00 957.36,550.00 958.17,550.00 958.98,550.00 959.79,550.00 960.60,550.00 961.41,550.00 962.21,550.00 963.02,550.00 963.83,550.00 964.64,550.00 965.45,550.00 966.26,550.00 967.07,550.00 967.88,550.00 968.69,550.00 969.50,550.00 970.31,550.00 971.12,550.00 971.93,550.00 972.74,550.00 973.55,550.00 974.36,550.00 975.17,550.00 975.97,550.00 976.78,550.00 977.59,550.00 978.40,550.00 979.21,550.00 980.02,550.00 980.83,550.00 981.64,550.00 982.45,550.00 983.26,550.00 984.07,550.00 984.88,550.00 985.69,550.00 986.50,550.00 987.31,550.00 988.12,550.00 988.93,550.00 989.74,550.00 990.54,550.00 991.35,550.00 992.16,550.00 992.97,550.00 993.78,550.00 994.59,550.00 995.40,550.00 996.21,550.00 997.02,550.00 997.83,550.00 998.64,550.00 999.45,550.00 1000.26,550.00 1001.07,550.00 1001.88,550.00 1002.69,550.00 1003.50,550.00 1004.30,550.00 1005.11,550.00 1005.92,550.00 1006.73,550.00 1007.54,550.00 1008.35,550.00 1009.16,550.00 1009.97,550.00 1010.78,550.00 1011.59,550.00 1012.40,550.00 1013.21,550.00 1014.02,550.00 1014.83,550.00 1015.64,550.00 1016.45,550.00 1017.26,550.00 1018.06,550.00 1018.87,550.00 1019.68,550.00 1020.49,550.00 1021.30,550.00 1022.11,550.00 1022.92,550.00 1023.73,550.00 1024.54,550.00 1025.35,550.00 1026.16,550.00 1026.97,550.00 1027.78,550.00 1028.59,550.00 1029.40,550.00 1030.21,550.00 1031.02,550.00 1031.82,550.00 1032.63,550.00 1033.44,550.00 1034.25,550.00 1035.06,550.00 1035.87,550.00 1036.68,550.00 1037.49,550.00 1038.30,550.00 1039.11,550.00 1039.92,550.00 1040.73,550.00 1041.54,550.00 1042.35,550.00 1043.16,550.00 1043.97,550.00 1044.78,550.00 1045.58,550.00 1046.39,550.00 1047.20,550.00 1048.01,550.00 1048.82,550.00 1049.63,550.00 1050.44,550.00 1051.25,550.00 1052.06,550.00 1052.87,550.00 1053.68,550.00 1054.49,550.00 1055.30,550.00 1056.11,550.00 1056.92,550.00 1057.73,550.00 1058.54,550.00 1059.35,550.00 1060.15,550.00 1060.96,550.00 1061.77,550.00 1062.58,550.00 1063.39,550.00 1064.20,550.00 1065.01,550.00 1065.82,550.00 1066.63,550.00 1067.44,550.00 1068.25,550.00 1069.06,550.00 1069.87,550.00 1070.68,550.00 1071.49,550.00 1072.30,550.00 1073.11,550.00 1073.91,550.00 1074.72,550.00 1075.53,550.00 1076.34,550.00 1077.15,550.00 1077.96,550.00 1078.77,550.00 1079.58,550.00 1080.39,550.00 1081.20,550.00 1082.01,550.00 1082.82,550.00 1083.63,550.00 1084.44,550.00 1085.25,550.00 1086.06,550.00 1086.87,550.00 1087.67,550.00 1088.48,550.00 1089.29,550.00 1090.10,550.00 1090.91,550.00 1091.72,550.00 1092.53,550.00 1093.34,550.00 1094.15,550.00 1094.96,550.00 1095.77,550.00 1096.58,550.00 1097.39,550.00 1098.20,550.00 1099.01,550.00 1099.82,550.00 1100.63,550.00 1101.43,550.00 1102.24,550.00 1103.05,550.00 1103.86,550.00 1104.67,550.00 1105.48,550.00 1106.29,550.00 1107.10,550.00 1107.91,550.00 1108.72,550.00 1109.53,550.00 1110.34,550.00 1111.15,550.00 1111.96,550.00 1112.77,550.00 1113.58,550.00 1114.39,550.00 1115.19,550.00 1116.00,550.00 1116.81,550.00 1117.62,550.00 1118.43,550.00 1119.24,550.00 1120.05,550.00 1120.86,550.00 1121.67,550.00 1122.48,550.00 1123.29,550.00 1124.10,550.00 1124.91,550.00 1125.72,550.00 1126.53,550.00 1127.34,550.00 1128.15,550.00 1128.96,550.00 1129.76,550.00 1130.57,550.00 1131.38,550.00 1132.19,550.00 1133.00,550.00 1133.81,550.00 1134.62,550.00 1135.43,550.00 1136.24,550.00 1137.05,550.00 1137.86,550.00 1138.67,550.00 1139.48,550.00 1140.29,550.00 1141.10,550.00 1141.91,550.00 1142.72,550.00 1143.52,550.00 1144.33,550.00 1145.14,550.00 1145.95,550.00 1146.76,550.00 1147.57,550.00 1148.38,550.00 1149.19,550.00 1150.00,550.00" fill="none" stroke="#2f6fb0" stroke-width="2" />
  <text x="50" y="575.0" font-size="12" fill="#444">2000-01-07</text>
  <text x="1150" y="575.0" font-size="12" text-anchor="end" fill="#444">2026-01-23</text>
  <text x="50" y="50" font-size="12" fill="#444">Max: 0.0300</text>
  <text x="50" y="66" font-size="12" fill="#444">Min: 0.0100</text>
</svg>
