<svg xmlns="http://www.w3.org/2000/svg" width="1200" height="600">
  <rect width="100%" height="100%" fill="white" />
  <text x="600.0" y="25.0" font-size="20" text-anchor="middle" fill="#222">KRWUSD Weekly Exchange Rate</text>
  <polyline points="50.00,250.00 50.81,250.00 51.62,250.00 52.43,250.00 53.24,250.00 54.05,250.00 54.86,250.00 55.67,250.00 56.48,250.00 57.28,250.00 58.09,250.00 58.90,250.00 59.71,250.00 60.52,250.00 61.33,250.00 62.14,250.00 62.95,250.00 63.76,250.00 64.57,250.00 65.38,250.00 66.19,250.00 67.00,250.00 67.81,250.00 68.62,250.00 69.43,250.00 70.24,250.00 71.04,250.00 71.85,250.00 72.66,250.00 73.47,250.00 74.28,250.00 75.09,250.00 75.90,250.00 76.71,250.00 77.52,250.00 78.33,250.00 79.14,250.00 79.95,250.00 80.76,250.00 81.57,250.00 82.38,250.00 83.19,250.00 84.00,250.00 84.81,250.00 85.61,250.00 86.42,250.00 87.23,350.00 88.04,350.00 88.85,350.00 89.66,350.00 90.47,350.00 91.28,350.00 92.09,350.00 92.90,350.00 93.71,350.00 94.52,350.00 95.33,350.00 96.14,350.00 96.95,350.00 97.76,350.00 98.57,350.00 99.37,350.00 100.18,350.00 100.99,350.00 101.80,350.00 102.61,450.00 103.42,350.00 104.23,350.00 105.04,350.00 105.85,350.00 106.66,350.00 107.47,350.00 108.28,350.00 109.09,350.00 109.90,350.00 110.71,350.00 111.52,350.00 112.33,350.00 113.13,350.00 113.94,350.00 114.75,350.00 115.56,350.00 116.37,350.00 117.18,350.00 117.99,350.00 118.80,350.00 119.61,350.00 120.42,350.00 121.23,350.00 122.04,350.00 122.85,350.00 123.66,350.00 124.47,350.00 125.28,350.00 126.09,350.00 126.89,350.00 127.70,350.00 128.51,350.00 129.32,350.00 130.13,350.00 130.94,350.00 131.75,350.00 132.56,350.00 133.37,350.00 134.18,350.00 134.99,350.00 135.80,350.00 136.61,350.00 137.42,350.00 138.23,350.00 139.04,350.00 139.85,350.00 140.65,350.00 141.46,350.00 142.27,350.00 143.08,350.00 143.89,350.00 144.70,350.00 145.51,350.00 146.32,350.00 147.13,350.00 147.94,350.00 148.75,350.00 149.56,350.00 150.37,350.00 151.18,350.00 151.99,350.00 152.80,350.00 153.61,350.00 154.42,350.00 155.22,350.00 156.03,350.00 156.84,250.00 157.65,350.00 158.46,350.00 159.27,350.00 160.08,350.00 160.89,350.00 161.70,350.00 162.51,350.00 163.32,350.00 164.13,350.00 164.94,350.00 165.75,350.00 166.56,350.00 167.37,350.00 168.18,350.00 168.98,350.00 169.79,350.00 170.60,350.00 171.41,350.00 172.22,350.00 173.03,350.00 173.84,350.00 174.65,350.00 175.46,350.00 176.27,350.00 177.08,350.00 177.89,250.00 178.70,250.00 179.51,250.00 180.32,350.00 181.13,350.00 181.94,350.00 182.74,350.00 183.55,350.00 184.36,350.00 185.17,350.00 185.98,350.00 186.79,350.00 187.60,350.00 188.41,350.00 189.22,350.00 190.03,350.00 190.84,350.00 191.65,350.00 192.46,350.00 193.27,350.00 194.08,350.00 194.89,350.00 195.70,350.00 196.50,350.00 197.31,350.00 198.12,350.00 198.93,350.00 199.74,350.00 200.55,350.00 201.36,350.00 202.17,250.00 202.98,250.00 203.79,350.00 204.60,250.00 205.41,250.00 206.22,250.00 207.03,250.00 207.84,250.00 208.65,250.00 209.46,250.00 210.26,350.00 211.07,350.00 211.88,350.00 212.69,250.00 213.50,350.00 214.31,350.00 215.12,350.00 215.93,350.00 216.74,350.00 217.55,350.00 218.36,350.00 219.17,350.00 219.98,350.00 220.79,350.00 221.60,250.00 222.41,250.00 223.22,250.00 224.03,250.00 224.83,250.00 225.64,250.00 226.45,350.00 227.26,250.00 228.07,250.00 228.88,250.00 229.69,250.00 230.50,250.00 231.31,250.00 232.12,250.00 232.93,250.00 233.74,350.00 234.55,350.00 235.36,250.00 236.17,250.00 236.98,250.00 237.79,250.00 238.59,250.00 239.40,250.00 240.21,250.00 241.02,250.00 241.83,250.00 242.64,250.00 243.45,250.00 244.26,250.00 245.07,250.00 245.88,250.00 246.69,250.00 247.50,250.00 248.31,250.00 249.12,250.00 249.93,250.00 250.74,250.00 251.55,250.00 252.35,250.00 253.16,250.00 253.97,250.00 254.78,250.00 255.59,250.00 256.40,150.00 257.21,150.00 258.02,250.00 258.83,250.00 259.64,150.00 260.45,150.00 261.26,150.00 262.07,150.00 262.88,150.00 263.69,150.00 264.50,150.00 265.31,150.00 266.11,150.00 266.92,150.00 267.73,150.00 268.54,150.00 269.35,150.00 270.16,150.00 270.97,150.00 271.78,150.00 272.59,150.00 273.40,150.00 274.21,150.00 275.02,150.00 275.83,150.00 276.64,150.00 277.45,150.00 278.26,150.00 279.07,150.00 279.87,150.00 280.68,150.00 281.49,150.00 282.30,250.00 283.11,150.00 283.92,150.00 284.73,150.00 285.54,150.00 286.35,150.00 287.16,150.00 287.97,150.00 288.78,150.00 289.59,150.00 290.40,150.00 291.21,150.00 292.02,150.00 292.83,150.00 293.64,150.00 294.44,250.00 295.25,150.00 296.06,150.00 296.87,150.00 297.68,150.00 298.49,150.00 299.30,150.00 300.11,150.00 300.92,150.00 301.73,150.00 302.54,150.00 303.35,150.00 304.16,150.00 304.97,150.00 305.78,150.00 306.59,150.00 307.40,150.00 308.20,150.00 309.01,150.00 309.82,150.00 310.63,150.00 311.44,150.00 312.25,150.00 313.06,150.00 313.87,150.00 314.68,150.00 315.49,50.00 316.30,50.00 317.11,50.00 317.92,50.00 318.73,50.00 319.54,50.00 320.35,50.00 321.16,150.00 321.96,150.00 322.77,150.00 323.58,50.00 324.39,50.00 325.20,150.00 326.01,50.00 326.82,150.00 327.63,150.00 328.44,150.00 329.25,150.00 330.06,150.00 330.87,150.00 331.68,150.00 332.49,150.00 333.30,50.00 334.11,50.00 334.92,50.00 335.72,150.00 336.53,150.00 337.34,50.00 338.15,50.00 338.96,50.00 339.77,50.00 340.58,50.00 341.39,50.00 342.20,50.00 343.01,50.00 343.82,50.00 344.63,50.00 345.44,50.00 346.25,50.00 347.06,50.00 347.87,50.00 348.68,50.00 349.48,50.00 350.29,50.00 351.10,50.00 351.91,50.00 352.72,50.00 353.53,50.00 354.34,50.00 355.15,50.00 355.96,50.00 356.77,50.00 357.58,50.00 358.39,50.00 359.20,50.00 360.01,50.00 360.82,50.00 361.63,50.00 362.44,50.00 363.25,50.00 364.05,50.00 364.86,50.00 365.67,50.00 366.48,50.00 367.29,50.00 368.10,50.00 368.91,50.00 369.72,50.00 370.53,50.00 371.34,50.00 372.15,50.00 372.96,50.00 373.77,50.00 374.58,50.00 375.39,50.00 376.20,50.00 377.01,50.00 377.81,50.00 378.62,50.00 379.43,50.00 380.24,50.00 381.05,50.00 381.86,50.00 382.67,50.00 383.48,50.00 384.29,50.00 385.10,50.00 385.91,50.00 386.72,50.00 387.53,50.00 388.34,50.00 389.15,50.00 389.96,50.00 390.77,50.00 391.57,50.00 392.38,50.00 393.19,50.00 394.00,50.00 394.81,150.00 395.62,150.00 396.43,150.00 397.24,150.00 398.05,150.00 398.86,150.00 399.67,150.00 400.48,150.00 401.29,150.00 402.10,150.00 402.91,150.00 403.72,150.00 404.53,150.00 405.33,150.00 406.14,150.00 406.95,150.00 407.76,150.00 408.57,150.00 409.38,150.00 410.19,150.00 411.00,150.00 411.81,150.00 412.62,150.00 413.43,150.00 414.24,250.00 415.05,250.00 415.86,250.00 416.67,250.00 417.48,250.00 418.29,250.00 419.09,350.00 419.90,350.00 420.71,350.00 421.52,450.00 422.33,450.00 423.14,450.00 423.95,450.00 424.76,450.00 425.57,450.00 426.38,450.00 427.19,450.00 428.00,350.00 428.81,350.00 429.62,350.00 430.43,350.00 431.24,450.00 432.05,450.00 432.86,450.00 433.66,450.00 434.47,450.00 435.28,450.00 436.09,450.00 436.90,550.00 437.71,450.00 438.52,450.00 439.33,450.00 440.14,350.00 440.95,350.00 441.76,350.00 442.57,350.00 443.38,350.00 444.19,350.00 445.00,350.00 445.81,350.00 446.62,350.00 447.42,350.00 448.23,350.00 449.04,350.00 449.85,350.00 450.66,350.00 451.47,350.00 452.28,350.00 453.09,350.00 453.90,350.00 454.71,350.00 455.52,350.00 456.33,350.00 457.14,350.00 457.95,350.00 458.76,350.00 459.57,350.00 460.38,350.00 461.18,250.00 461.99,250.00 462.80,250.00 463.61,350.00 464.42,350.00 465.23,250.00 466.04,250.00 466.85,250.00 467.66,250.00 468.47,250.00 469.28,250.00 470.09,250.00 470.90,250.00 471.71,250.00 472.52,250.00 473.33,250.00 474.14,250.00 474.94,250.00 475.75,250.00 476.56,250.00 477.37,250.00 478.18,250.00 478.99,250.00 479.80,250.00 480.61,250.00 481.42,250.00 482.23,250.00 483.04,250.00 483.85,250.00 484.66,250.00 485.47,250.00 486.28,250.00 487.09,250.00 487.90,350.00 488.70,350.00 489.51,350.00 490.32,350.00 491.13,350.00 491.94,350.00 492.75,350.00 493.56,350.00 494.37,350.00 495.18,350.00 495.99,350.00 496.80,250.00 497.61,350.00 498.42,350.00 499.23,350.00 500.04,250.00 500.85,250.00 501.66,250.00 502.47,250.00 503.27,250.00 504.08,250.00 504.89,250.00 505.70,250.00 506.51,250.00 507.32,250.00 508.13,250.00 508.94,250.00 509.75,250.00 510.56,250.00 511.37,250.00 512.18,250.00 512.99,250.00 513.80,250.00 514.61,250.00 515.42,250.00 516.23,250.00 517.03,250.00 517.84,250.00 518.65,250.00 519.46,250.00 520.27,250.00 521.08,250.00 521.89,250.00 522.70,250.00 523.51,250.00 524.32,250.00 525.13,250.00 525.94,250.00 526.75,250.00 527.56,250.00 528.37,250.00 529.18,250.00 529.99,250.00 530.79,250.00 531.60,250.00 532.41,250.00 533.22,250.00 534.03,250.00 534.84,250.00 535.65,250.00 536.46,250.00 537.27,150.00 538.08,250.00 538.89,250.00 539.70,250.00 540.51,250.00 541.32,250.00 542.13,250.00 542.94,250.00 543.75,250.00 544.55,250.00 545.36,350.00 546.17,350.00 546.98,250.00 547.79,250.00 548.60,250.00 549.41,250.00 550.22,250.00 551.03,250.00 551.84,250.00 552.65,250.00 553.46,250.00 554.27,250.00 555.08,250.00 555.89,250.00 556.70,250.00 557.51,250.00 558.31,250.00 559.12,250.00 559.93,250.00 560.74,250.00 561.55,250.00 562.36,250.00 563.17,250.00 563.98,250.00 564.79,250.00 565.60,250.00 566.41,250.00 567.22,250.00 568.03,250.00 568.84,250.00 569.65,250.00 570.46,250.00 571.27,250.00 572.08,250.00 572.88,350.00 573.69,350.00 574.50,250.00 575.31,250.00 576.12,250.00 576.93,250.00 577.74,250.00 578.55,250.00 579.36,250.00 580.17,250.00 580.98,250.00 581.79,250.00 582.60,250.00 583.41,250.00 584.22,250.00 585.03,250.00 585.84,250.00 586.64,250.00 587.45,250.00 588.26,250.00 589.07,250.00 589.88,250.00 590.69,250.00 591.50,250.00 592.31,250.00 593.12,250.00 593.93,250.00 594.74,250.00 595.55,250.00 596.36,250.00 597.17,250.00 597.98,250.00 598.79,250.00 599.60,250.00 600.40,250.00 601.21,250.00 602.02,250.00 602.83,250.00 603.64,250.00 604.45,250.00 605.26,250.00 606.07,250.00 606.88,250.00 607.69,250.00 608.50,250.00 609.31,250.00 610.12,250.00 610.93,250.00 611.74,250.00 612.55,250.00 613.36,250.00 614.16,250.00 614.97,250.00 615.78,250.00 616.59,250.00 617.40,250.00 618.21,250.00 619.02,250.00 619.83,250.00 620.64,250.00 621.45,250.00 622.26,250.00 623.07,250.00 623.88,250.00 624.69,250.00 625.50,250.00 626.31,250.00 627.12,250.00 627.92,250.00 628.73,250.00 629.54,250.00 630.35,250.00 631.16,250.00 631.97,250.00 632.78,250.00 633.59,250.00 634.40,250.00 635.21,250.00 636.02,250.00 636.83,250.00 637.64,250.00 638.45,250.00 639.26,250.00 640.07,250.00 640.88,250.00 641.69,250.00 642.49,250.00 643.30,250.00 644.11,250.00 644.92,250.00 645.73,250.00 646.54,250.00 647.35,250.00 648.16,250.00 648.97,250.00 649.78,250.00 650.59,250.00 651.40,150.00 652.21,150.00 653.02,150.00 653.83,150.00 654.64,150.00 655.45,150.00 656.25,150.00 657.06,150.00 657.87,150.00 658.68,150.00 659.49,150.00 660.30,150.00 661.11,150.00 661.92,150.00 662.73,150.00 663.54,150.00 664.35,150.00 665.16,150.00 665.97,150.00 666.78,150.00 667.59,150.00 668.40,150.00 669.21,150.00 670.01,150.00 670.82,150.00 671.63,150.00 672.44,250.00 673.25,250.00 674.06,250.00 674.87,250.00 675.68,250.00 676.49,250.00 677.30,250.00 678.11,250.00 678.92,250.00 679.73,250.00 680.54,250.00 681.35,250.00 682.16,250.00 682.97,250.00 683.77,250.00 684.58,250.00 685.39,250.00 686.20,250.00 687.01,250.00 687.82,250.00 688.63,250.00 689.44,250.00 690.25,250.00 691.06,250.00 691.87,250.00 692.68,250.00 693.49,250.00 694.30,250.00 695.11,250.00 695.92,250.00 696.73,250.00 697.53,250.00 698.34,250.00 699.15,250.00 699.96,250.00 700.77,250.00 701.58,250.00 702.39,250.00 703.20,250.00 704.01,250.00 704.82,250.00 705.63,250.00 706.44,250.00 707.25,250.00 708.06,250.00 708.87,350.00 709.68,350.00 710.49,350.00 711.30,350.00 712.10,350.00 712.91,250.00 713.72,350.00 714.53,250.00 715.34,250.00 716.15,250.00 716.96,250.00 717.77,250.00 718.58,250.00 719.39,250.00 720.20,250.00 721.01,250.00 721.82,250.00 722.63,350.00 723.44,350.00 724.25,250.00 725.06,250.00 725.86,350.00 726.67,350.00 727.48,350.00 728.29,350.00 729.10,350.00 729.91,350.00 730.72,350.00 731.53,350.00 732.34,350.00 733.15,350.00 733.96,250.00 734.77,250.00 735.58,250.00 736.39,250.00 737.20,250.00 738.01,250.00 738.82,250.00 739.62,250.00 740.43,250.00 741.24,350.00 742.05,350.00 742.86,250.00 743.67,250.00 744.48,250.00 745.29,250.00 746.10,250.00 746.91,250.00 747.72,250.00 748.53,250.00 749.34,250.00 750.15,250.00 750.96,250.00 751.77,250.00 752.58,250.00 753.38,250.00 754.19,250.00 755.00,250.00 755.81,250.00 756.62,250.00 757.43,250.00 758.24,250.00 759.05,250.00 759.86,250.00 760.67,250.00 761.48,250.00 762.29,350.00 763.10,250.00 763.91,250.00 764.72,250.00 765.53,350.00 766.34,350.00 767.14,350.00 767.95,350.00 768.76,250.00 769.57,250.00 770.38,350.00 771.19,250.00 772.00,250.00 772.81,250.00 773.62,250.00 774.43,250.00 775.24,250.00 776.05,250.00 776.86,250.00 777.67,250.00 778.48,250.00 779.29,250.00 780.10,250.00 780.91,250.00 781.71,250.00 782.52,250.00 783.33,250.00 784.14,250.00 784.95,250.00 785.76,250.00 786.57,250.00 787.38,250.00 788.19,250.00 789.00,250.00 789.81,250.00 790.62,250.00 791.43,250.00 792.24,250.00 793.05,250.00 793.86,250.00 794.67,250.00 795.47,250.00 796.28,250.00 797.09,250.00 797.90,250.00 798.71,250.00 799.52,250.00 800.33,250.00 801.14,250.00 801.95,250.00 802.76,250.00 803.57,250.00 804.38,250.00 805.19,250.00 806.00,250.00 806.81,250.00 807.62,250.00 808.43,250.00 809.23,250.00 810.04,250.00 810.85,250.00 811.66,250.00 812.47,250.00 813.28,250.00 814.09,250.00 814.90,250.00 815.71,250.00 816.52,250.00 817.33,250.00 818.14,250.00 818.95,250.00 819.76,250.00 820.57,250.00 821.38,250.00 822.19,250.00 822.99,250.00 823.80,250.00 824.61,250.00 825.42,250.00 826.23,250.00 827.04,250.00 827.85,250.00 828.66,250.00 829.47,250.00 830.28,250.00 831.09,250.00 831.90,250.00 832.71,250.00 833.52,250.00 834.33,250.00 835.14,250.00 835.95,250.00 836.75,250.00 837.56,250.00 838.37,250.00 839.18,250.00 839.99,250.00 840.80,250.00 841.61,250.00 842.42,250.00 843.23,250.00 844.04,250.00 844.85,250.00 845.66,250.00 846.47,250.00 847.28,250.00 848.09,250.00 848.90,250.00 849.71,250.00 850.52,250.00 851.32,250.00 852.13,250.00 852.94,250.00 853.75,250.00 854.56,250.00 855.37,250.00 856.18,250.00 856.99,250.00 857.80,250.00 858.61,250.00 859.42,250.00 860.23,250.00 861.04,250.00 861.85,250.00 862.66,250.00 863.47,250.00 864.28,250.00 865.08,250.00 865.89,250.00 866.70,250.00 867.51,350.00 868.32,350.00 869.13,350.00 869.94,350.00 870.75,350.00 871.56,250.00 872.37,250.00 873.18,250.00 873.99,350.00 874.80,250.00 875.61,350.00 876.42,350.00 877.23,350.00 878.04,350.00 878.84,350.00 879.65,350.00 880.46,350.00 881.27,350.00 882.08,350.00 882.89,350.00 883.70,350.00 884.51,350.00 885.32,350.00 886.13,250.00 886.94,250.00 887.75,250.00 888.56,250.00 889.37,350.00 890.18,350.00 890.99,350.00 891.80,250.00 892.60,250.00 893.41,250.00 894.22,250.00 895.03,250.00 895.84,250.00 896.65,250.00 897.46,350.00 898.27,350.00 899.08,350.00 899.89,350.00 900.70,350.00 901.51,350.00 902.32,350.00 903.13,350.00 903.94,350.00 904.75,350.00 905.56,350.00 906.36,350.00 907.17,350.00 907.98,350.00 908.79,350.00 909.60,350.00 910.41,350.00 911.22,350.00 912.03,350.00 912.84,350.00 913.65,350.00 914.46,350.00 915.27,350.00 916.08,350.00 916.89,350.00 917.70,350.00 918.51,350.00 919.32,350.00 920.13,350.00 920.93,350.00 921.74,350.00 922.55,350.00 923.36,350.00 924.17,250.00 924.98,250.00 925.79,250.00 926.60,250.00 927.41,250.00 928.22,250.00 929.03,250.00 929.84,250.00 930.65,250.00 931.46,250.00 932.27,250.00 933.08,250.00 933.89,250.00 934.69,250.00 935.50,250.00 936.31,250.00 937.12,250.00 937.93,250.00 938.74,250.00 939.55,250.00 940.36,250.00 941.17,250.00 941.98,250.00 942.79,250.00 943.60,250.00 944.41,250.00 945.22,250.00 946.03,250.00 946.84,250.00 947.65,250.00 948.45,250.00 949.26,250.00 950.07,250.00 950.88,250.00 951.69,250.00 952.50,250.00 953.31,250.00 954.12,250.00 954.93,250.00 955.74,250.00 956.55,250.00 957.36,250.00 958.17,250.00 958.98,250.00 959.79,250.00 960.60,250.00 961.41,250.00 962.21,250.00 963.02,250.00 963.83,250.00 964.64,250.00 965.45,250.00 966.26,350.00 967.07,350.00 967.88,350.00 968.69,350.00 969.50,350.00 970.31,350.00 971.12,250.00 971.93,350.00 972.74,350.00 973.55,350.00 974.36,350.00 975.17,350.00 975.97,350.00 976.78,350.00 977.59,350.00 978.40,350.00 979.21,350.00 980.02,350.00 980.83,350.00 981.64,350.00 982.45,350.00 983.26,350.00 984.07,350.00 984.88,350.00 985.69,350.00 986.50,350.00 987.31,350.00 988.12,350.00 988.93,350.00 989.74,350.00 990.54,350.00 991.35,350.00 992.16,350.00 992.97,350.00 993.78,350.00 994.59,350.00 995.40,350.00 996.21,350.00 997.02,350.00 997.83,350.00 998.64,350.00 999.45,350.00 1000.26,350.00 1001.07,350.00 1001.88,350.00 1002.69,350.00 1003.50,350.00 1004.30,350.00 1005.11,350.00 1005.92,350.00 1006.73,450.00 1007.54,450.00 1008.35,450.00 1009.16,450.00 1009.97,450.00 1010.78,450.00 1011.59,450.00 1012.40,450.00 1013.21,450.00 1014.02,450.00 1014.83,350.00 1015.64,450.00 1016.45,350.00 1017.26,350.00 1018.06,350.00 1018.87,350.00 1019.68,350.00 1020.49,350.00 1021.30,350.00 1022.11,350.00 1022.92,350.00 1023.73,350.00 1024.54,350.00 1025.35,350.00 1026.16,350.00 1026.97,350.00 1027.78,350.00 1028.59,350.00 1029.40,350.00 1030.21,350.00 1031.02,350.00 1031.82,350.00 1032.63,350.00 1033.44,350.00 1034.25,450.00 1035.06,350.00 1035.87,350.00 1036.68,350.00 1037.49,350.00 1038.30,350.00 1039.11,350.00 1039.92,350.00 1040.73,350.00 1041.54,350.00 1042.35,350.00 1043.16,350.00 1043.97,350.00 1044.78,350.00 1045.58,350.00 1046.39,350.00 1047.20,450.00 1048.01,350.00 1048.82,350.00 1049.63,350.00 1050.44,350.00 1051.25,450.00 1052.06,450.00 1052.87,450.00 1053.68,450.00 1054.49,450.00 1055.30,450.00 1056.11,350.00 1056.92,350.00 1057.73,350.00 1058.54,350.00 1059.35,350.00 1060.15,350.00 1060.96,350.00 1061.77,350.00 1062.58,350.00 1063.39,350.00 1064.20,350.00 1065.01,450.00 1065.82,450.00 1066.63,350.00 1067.44,350.00 1068.25,450.00 1069.06,350.00 1069.87,450.00 1070.68,350.00 1071.49,350.00 1072.30,450.00 1073.11,450.00 1073.91,450.00 1074.72,450.00 1075.53,450.00 1076.34,450.00 1077.15,450.00 1077.96,450.00 1078.77,450.00 1079.58,450.00 1080.39,450.00 1081.20,450.00 1082.01,450.00 1082.82,450.00 1083.63,450.00 1084.44,450.00 1085.25,450.00 1086.06,450.00 1086.87,450.00 1087.67,450.00 1088.48,450.00 1089.29,450.00 1090.10,350.00 1090.91,450.00 1091.72,450.00 1092.53,350.00 1093.34,350.00 1094.15,350.00 1094.96,450.00 1095.77,450.00 1096.58,450.00 1097.39,450.00 1098.20,450.00 1099.01,450.00 1099.82,450.00 1100.63,450.00 1101.43,450.00 1102.24,450.00 1103.05,450.00 1103.86,450.00 1104.67,450.00 1105.48,450.00 1106.29,450.00 1107.10,450.00 1107.91,450.00 1108.72,450.00 1109.53,450.00 1110.34,450.00 1111.15,450.00 1111.96,450.00 1112.77,450.00 1113.58,450.00 1114.39,450.00 1115.19,450.00 1116.00,450.00 1116.81,450.00 1117.62,450.00 1118.43,450.00 1119.24,450.00 1120.05,450.00 1120.86,450.00 1121.67,450.00 1122.48,450.00 1123.29,450.00 1124.10,450.00 1124.91,450.00 1125.72,450.00 1126.53,450.00 1127.34,450.00 1128.15,450.00 1128.96,450.00 1129.76,450.00 1130.57,450.00 1131.38,450.00 1132.19,450.00 1133.00,450.00 1133.81,450.00 1134.62,450.00 1135.43,450.00 1136.24,450.00 1137.05,450.00 1137.86,450.00 1138.67,450.00 1139.48,450.00 1140.29,450.00 1141.10,450.00 1141.91,450.00 1142.72,450.00 1143.52,450.00 1144.33,450.00 1145.14,450.00 1145.95,450.00 1146.76,450.00 1147.57,450.00 1148.38,450.00 1149.19,450.00 1150.00,450.00" fill="none" stroke="#2f6fb0" stroke-width="2" />
  <text x="50.00" y="575.0" font-size="12" text-anchor="middle" fill="#444">2000</text>
  <text x="261.26" y="575.0" font-size="12" text-anchor="middle" fill="#444">2005</text>
  <text x="471.71" y="575.0" font-size="12" text-anchor="middle" fill="#444">2010</text>
  <text x="682.97" y="575.0" font-size="12" text-anchor="middle" fill="#444">2015</text>
  <text x="894.22" y="575.0" font-size="12" text-anchor="middle" fill="#444">2020</text>
  <text x="1105.48" y="575.0" font-size="12" text-anchor="middle" fill="#444">2025</text>
  <text x="600.0" y="590" font-size="14" text-anchor="middle" fill="#222">Year</text>
  <text x="20" y="300.0" font-size="14" text-anchor="middle" fill="#222" transform="rotate(-90, 20, 300.0)">Exchange Rate</text>
  <text x="50" y="50" font-size="12" fill="#444">Max: 0.1100</text>
  <text x="50" y="66" font-size="12" fill="#444">Min: 0.0600</text>
</svg>
