<svg xmlns="http://www.w3.org/2000/svg" width="1200" height="600">
  <rect width="100%" height="100%" fill="white" />
  <line x1="50.00" y1="50" x2="50.00" y2="550" stroke="#e0e0e0" stroke-width="1" />
  <line x1="261.26" y1="50" x2="261.26" y2="550" stroke="#e0e0e0" stroke-width="1" />
  <line x1="471.71" y1="50" x2="471.71" y2="550" stroke="#e0e0e0" stroke-width="1" />
  <line x1="682.97" y1="50" x2="682.97" y2="550" stroke="#e0e0e0" stroke-width="1" />
  <line x1="894.22" y1="50" x2="894.22" y2="550" stroke="#e0e0e0" stroke-width="1" />
  <line x1="1105.48" y1="50" x2="1105.48" y2="550" stroke="#e0e0e0" stroke-width="1" />
  <line x1="50" y1="550.00" x2="1150" y2="550.00" stroke="#e0e0e0" stroke-width="1" />
  <line x1="50" y1="500.00" x2="1150" y2="500.00" stroke="#e0e0e0" stroke-width="1" />
  <line x1="50" y1="450.00" x2="1150" y2="450.00" stroke="#e0e0e0" stroke-width="1" />
  <line x1="50" y1="400.00" x2="1150" y2="400.00" stroke="#e0e0e0" stroke-width="1" />
  <line x1="50" y1="350.00" x2="1150" y2="350.00" stroke="#e0e0e0" stroke-width="1" />
  <line x1="50" y1="300.00" x2="1150" y2="300.00" stroke="#e0e0e0" stroke-width="1" />
  <line x1="50" y1="250.00" x2="1150" y2="250.00" stroke="#e0e0e0" stroke-width="1" />
  <line x1="50" y1="200.00" x2="1150" y2="200.00" stroke="#e0e0e0" stroke-width="1" />
  <line x1="50" y1="150.00" x2="1150" y2="150.00" stroke="#e0e0e0" stroke-width="1" />
  <line x1="50" y1="100.00" x2="1150" y2="100.00" stroke="#e0e0e0" stroke-width="1" />
  <line x1="50" y1="50.00" x2="1150" y2="50.00" stroke="#e0e0e0" stroke-width="1" />
  <text x="600.0" y="25.0" font-size="20" text-anchor="middle" fill="#222">LKRUSD Weekly Exchange Rate</text>
  <polyline points="50.00,54.50 50.81,50.00 51.62,54.50 52.43,54.50 53.24,54.50 54.05,59.01 54.86,59.01 55.67,59.01 56.48,59.01 57.28,59.01 58.09,59.01 58.90,59.01 59.71,59.01 60.52,59.01 61.33,59.01 62.14,59.01 62.95,63.51 63.76,63.51 64.57,68.02 65.38,68.02 66.19,68.02 67.00,72.52 67.81,72.52 68.62,72.52 69.43,99.55 70.24,104.05 71.04,99.55 71.85,99.55 72.66,95.05 73.47,95.05 74.28,99.55 75.09,95.05 75.90,95.05 76.71,95.05 77.52,95.05 78.33,95.05 79.14,99.55 79.95,104.05 80.76,104.05 81.57,104.05 82.38,104.05 83.19,104.05 84.00,104.05 84.81,104.05 85.61,108.56 86.42,113.06 87.23,113.06 88.04,117.57 88.85,117.57 89.66,122.07 90.47,122.07 91.28,126.58 92.09,131.08 92.90,140.09 93.71,140.09 94.52,167.12 95.33,171.62 96.14,153.60 96.95,149.10 97.76,149.10 98.57,149.10 99.37,135.59 100.18,144.59 100.99,144.59 101.80,153.60 102.61,158.11 103.42,158.11 104.23,158.11 105.04,167.12 105.85,171.62 106.66,171.62 107.47,171.62 108.28,176.13 109.09,176.13 109.90,171.62 110.71,171.62 111.52,171.62 112.33,176.13 113.13,171.62 113.94,171.62 114.75,171.62 115.56,171.62 116.37,171.62 117.18,171.62 117.99,171.62 118.80,171.62 119.61,171.62 120.42,171.62 121.23,171.62 122.04,171.62 122.85,171.62 123.66,171.62 124.47,171.62 125.28,176.13 126.09,180.63 126.89,180.63 127.70,180.63 128.51,185.14 129.32,185.14 130.13,189.64 130.94,189.64 131.75,185.14 132.56,185.14 133.37,185.14 134.18,185.14 134.99,189.64 135.80,189.64 136.61,189.64 137.42,189.64 138.23,189.64 139.04,189.64 139.85,189.64 140.65,189.64 141.46,194.14 142.27,198.65 143.08,198.65 143.89,198.65 144.70,203.15 145.51,203.15 146.32,203.15 147.13,203.15 147.94,203.15 148.75,203.15 149.56,203.15 150.37,203.15 151.18,203.15 151.99,203.15 152.80,203.15 153.61,203.15 154.42,203.15 155.22,203.15 156.03,203.15 156.84,203.15 157.65,203.15 158.46,203.15 159.27,203.15 160.08,203.15 160.89,203.15 161.70,203.15 162.51,203.15 163.32,203.15 164.13,203.15 164.94,203.15 165.75,203.15 166.56,203.15 167.37,203.15 168.18,203.15 168.98,203.15 169.79,203.15 170.60,203.15 171.41,203.15 172.22,203.15 173.03,203.15 173.84,203.15 174.65,203.15 175.46,203.15 176.27,203.15 177.08,203.15 177.89,207.66 178.70,207.66 179.51,207.66 180.32,207.66 181.13,207.66 181.94,207.66 182.74,207.66 183.55,207.66 184.36,207.66 185.17,207.66 185.98,207.66 186.79,207.66 187.60,207.66 188.41,207.66 189.22,207.66 190.03,207.66 190.84,207.66 191.65,207.66 192.46,207.66 193.27,207.66 194.08,207.66 194.89,207.66 195.70,207.66 196.50,207.66 197.31,207.66 198.12,207.66 198.93,207.66 199.74,207.66 200.55,207.66 201.36,207.66 202.17,207.66 202.98,207.66 203.79,207.66 204.60,203.15 205.41,198.65 206.22,194.14 207.03,194.14 207.84,194.14 208.65,194.14 209.46,194.14 210.26,194.14 211.07,194.14 211.88,198.65 212.69,203.15 213.50,203.15 214.31,203.15 215.12,203.15 215.93,203.15 216.74,203.15 217.55,203.15 218.36,207.66 219.17,212.16 219.98,212.16 220.79,212.16 221.60,207.66 222.41,212.16 223.22,216.67 224.03,216.67 224.83,216.67 225.64,207.66 226.45,207.66 227.26,212.16 228.07,207.66 228.88,212.16 229.69,207.66 230.50,212.16 231.31,212.16 232.12,212.16 232.93,212.16 233.74,216.67 234.55,216.67 235.36,216.67 236.17,221.17 236.98,221.17 237.79,225.68 238.59,230.18 239.40,230.18 240.21,234.68 241.02,234.68 241.83,234.68 242.64,234.68 243.45,239.19 244.26,234.68 245.07,234.68 245.88,234.68 246.69,234.68 247.50,234.68 248.31,234.68 249.12,234.68 249.93,234.68 250.74,239.19 251.55,239.19 252.35,239.19 253.16,239.19 253.97,239.19 254.78,239.19 255.59,243.69 256.40,243.69 257.21,239.19 258.02,243.69 258.83,243.69 259.64,239.19 260.45,239.19 261.26,216.67 262.07,212.16 262.88,212.16 263.69,216.67 264.50,216.67 265.31,216.67 266.11,216.67 266.92,216.67 267.73,221.17 268.54,216.67 269.35,216.67 270.16,216.67 270.97,221.17 271.78,221.17 272.59,221.17 273.40,221.17 274.21,221.17 275.02,221.17 275.83,221.17 276.64,221.17 277.45,221.17 278.26,221.17 279.07,221.17 279.87,221.17 280.68,221.17 281.49,221.17 282.30,221.17 283.11,221.17 283.92,221.17 284.73,225.68 285.54,225.68 286.35,225.68 287.16,225.68 287.97,225.68 288.78,225.68 289.59,225.68 290.40,225.68 291.21,225.68 292.02,225.68 292.83,225.68 293.64,225.68 294.44,230.18 295.25,230.18 296.06,230.18 296.87,230.18 297.68,230.18 298.49,230.18 299.30,230.18 300.11,230.18 300.92,230.18 301.73,230.18 302.54,230.18 303.35,230.18 304.16,230.18 304.97,230.18 305.78,230.18 306.59,230.18 307.40,230.18 308.20,230.18 309.01,230.18 309.82,230.18 310.63,234.68 311.44,234.68 312.25,234.68 313.06,234.68 313.87,230.18 314.68,234.68 315.49,234.68 316.30,234.68 317.11,234.68 317.92,234.68 318.73,234.68 319.54,234.68 320.35,234.68 321.16,234.68 321.96,234.68 322.77,239.19 323.58,239.19 324.39,239.19 325.20,239.19 326.01,239.19 326.82,239.19 327.63,239.19 328.44,239.19 329.25,239.19 330.06,234.68 330.87,230.18 331.68,230.18 332.49,230.18 333.30,230.18 334.11,239.19 334.92,239.19 335.72,248.20 336.53,243.69 337.34,252.70 338.15,248.20 338.96,252.70 339.77,257.21 340.58,252.70 341.39,257.21 342.20,252.70 343.01,252.70 343.82,252.70 344.63,252.70 345.44,257.21 346.25,257.21 347.06,257.21 347.87,257.21 348.68,257.21 349.48,257.21 350.29,257.21 351.10,257.21 351.91,257.21 352.72,257.21 353.53,261.71 354.34,261.71 355.15,257.21 355.96,257.21 356.77,257.21 357.58,261.71 358.39,261.71 359.20,266.22 360.01,266.22 360.82,266.22 361.63,266.22 362.44,266.22 363.25,266.22 364.05,266.22 364.86,266.22 365.67,266.22 366.48,266.22 367.29,270.72 368.10,270.72 368.91,270.72 369.72,270.72 370.53,270.72 371.34,270.72 372.15,270.72 372.96,275.23 373.77,275.23 374.58,275.23 375.39,275.23 376.20,275.23 377.01,275.23 377.81,275.23 378.62,270.72 379.43,270.72 380.24,266.22 381.05,266.22 381.86,261.71 382.67,261.71 383.48,261.71 384.29,257.21 385.10,257.21 385.91,257.21 386.72,257.21 387.53,257.21 388.34,257.21 389.15,252.70 389.96,252.70 390.77,252.70 391.57,252.70 392.38,252.70 393.19,252.70 394.00,252.70 394.81,252.70 395.62,252.70 396.43,252.70 397.24,252.70 398.05,252.70 398.86,252.70 399.67,252.70 400.48,252.70 401.29,252.70 402.10,252.70 402.91,252.70 403.72,252.70 404.53,252.70 405.33,252.70 406.14,252.70 406.95,252.70 407.76,252.70 408.57,252.70 409.38,252.70 410.19,252.70 411.00,252.70 411.81,252.70 412.62,252.70 413.43,252.70 414.24,252.70 415.05,252.70 415.86,252.70 416.67,252.70 417.48,252.70 418.29,252.70 419.09,252.70 419.90,252.70 420.71,252.70 421.52,252.70 422.33,261.71 423.14,261.71 423.95,261.71 424.76,261.71 425.57,261.71 426.38,261.71 427.19,266.22 428.00,270.72 428.81,270.72 429.62,275.23 430.43,275.23 431.24,275.23 432.05,275.23 432.86,275.23 433.66,275.23 434.47,275.23 435.28,275.23 436.09,279.73 436.90,279.73 437.71,275.23 438.52,275.23 439.33,279.73 440.14,284.23 440.95,284.23 441.76,284.23 442.57,297.75 443.38,297.75 444.19,288.74 445.00,288.74 445.81,279.73 446.62,279.73 447.42,279.73 448.23,279.73 449.04,279.73 449.85,279.73 450.66,279.73 451.47,279.73 452.28,279.73 453.09,279.73 453.90,279.73 454.71,279.73 455.52,279.73 456.33,279.73 457.14,279.73 457.95,279.73 458.76,279.73 459.57,279.73 460.38,279.73 461.18,279.73 461.99,279.73 462.80,279.73 463.61,279.73 464.42,279.73 465.23,279.73 466.04,279.73 466.85,275.23 467.66,279.73 468.47,279.73 469.28,279.73 470.09,279.73 470.90,279.73 471.71,279.73 472.52,279.73 473.33,275.23 474.14,279.73 474.94,279.73 475.75,279.73 476.56,279.73 477.37,279.73 478.18,279.73 478.99,275.23 479.80,275.23 480.61,275.23 481.42,275.23 482.23,275.23 483.04,275.23 483.85,275.23 484.66,275.23 485.47,275.23 486.28,275.23 487.09,275.23 487.90,275.23 488.70,275.23 489.51,275.23 490.32,275.23 491.13,275.23 491.94,275.23 492.75,275.23 493.56,275.23 494.37,270.72 495.18,270.72 495.99,270.72 496.80,270.72 497.61,270.72 498.42,270.72 499.23,270.72 500.04,270.72 500.85,270.72 501.66,270.72 502.47,270.72 503.27,270.72 504.08,266.22 504.89,270.72 505.70,266.22 506.51,266.22 507.32,266.22 508.13,266.22 508.94,266.22 509.75,266.22 510.56,266.22 511.37,266.22 512.18,266.22 512.99,266.22 513.80,266.22 514.61,266.22 515.42,266.22 516.23,261.71 517.03,266.22 517.84,266.22 518.65,266.22 519.46,266.22 520.27,266.22 521.08,261.71 521.89,261.71 522.70,261.71 523.51,261.71 524.32,261.71 525.13,261.71 525.94,261.71 526.75,261.71 527.56,261.71 528.37,261.71 529.18,261.71 529.99,261.71 530.79,261.71 531.60,261.71 532.41,261.71 533.22,261.71 534.03,261.71 534.84,261.71 535.65,261.71 536.46,261.71 537.27,261.71 538.08,261.71 538.89,261.71 539.70,261.71 540.51,261.71 541.32,261.71 542.13,261.71 542.94,261.71 543.75,261.71 544.55,261.71 545.36,261.71 546.17,261.71 546.98,261.71 547.79,261.71 548.60,261.71 549.41,261.71 550.22,261.71 551.03,261.71 551.84,275.23 552.65,275.23 553.46,275.23 554.27,275.23 555.08,275.23 555.89,279.73 556.70,275.23 557.51,275.23 558.31,275.23 559.12,275.23 559.93,275.23 560.74,279.73 561.55,293.24 562.36,297.75 563.17,302.25 563.98,302.25 564.79,311.26 565.60,324.77 566.41,320.27 567.22,315.77 568.03,320.27 568.84,324.77 569.65,324.77 570.46,320.27 571.27,320.27 572.08,324.77 572.88,329.28 573.69,329.28 574.50,324.77 575.31,329.28 576.12,333.78 576.93,333.78 577.74,333.78 578.55,333.78 579.36,329.28 580.17,329.28 580.98,329.28 581.79,329.28 582.60,329.28 583.41,329.28 584.22,329.28 585.03,329.28 585.84,329.28 586.64,329.28 587.45,324.77 588.26,320.27 589.07,320.27 589.88,320.27 590.69,324.77 591.50,324.77 592.31,329.28 593.12,324.77 593.93,324.77 594.74,324.77 595.55,320.27 596.36,320.27 597.17,315.77 597.98,315.77 598.79,320.27 599.60,315.77 600.40,315.77 601.21,315.77 602.02,315.77 602.83,315.77 603.64,315.77 604.45,315.77 605.26,320.27 606.07,315.77 606.88,315.77 607.69,315.77 608.50,315.77 609.31,311.26 610.12,311.26 610.93,315.77 611.74,315.77 612.55,315.77 613.36,315.77 614.16,315.77 614.97,315.77 615.78,315.77 616.59,315.77 617.40,320.27 618.21,320.27 619.02,324.77 619.83,324.77 620.64,329.28 621.45,329.28 622.26,329.28 623.07,329.28 623.88,329.28 624.69,329.28 625.50,329.28 626.31,333.78 627.12,333.78 627.92,329.28 628.73,329.28 629.54,329.28 630.35,329.28 631.16,329.28 631.97,329.28 632.78,324.77 633.59,329.28 634.40,329.28 635.21,329.28 636.02,329.28 636.83,329.28 637.64,329.28 638.45,329.28 639.26,324.77 640.07,329.28 640.88,324.77 641.69,324.77 642.49,324.77 643.30,324.77 644.11,329.28 644.92,324.77 645.73,329.28 646.54,329.28 647.35,329.28 648.16,324.77 648.97,324.77 649.78,324.77 650.59,324.77 651.40,324.77 652.21,324.77 653.02,324.77 653.83,324.77 654.64,324.77 655.45,324.77 656.25,324.77 657.06,324.77 657.87,324.77 658.68,324.77 659.49,324.77 660.30,324.77 661.11,324.77 661.92,324.77 662.73,324.77 663.54,324.77 664.35,324.77 665.16,324.77 665.97,324.77 666.78,324.77 667.59,324.77 668.40,324.77 669.21,324.77 670.01,324.77 670.82,324.77 671.63,324.77 672.44,324.77 673.25,324.77 674.06,324.77 674.87,329.28 675.68,329.28 676.49,329.28 677.30,329.28 678.11,329.28 678.92,329.28 679.73,329.28 680.54,329.28 681.35,329.28 682.16,329.28 682.97,329.28 683.77,329.28 684.58,329.28 685.39,329.28 686.20,329.28 687.01,333.78 687.82,333.78 688.63,333.78 689.44,333.78 690.25,333.78 691.06,333.78 691.87,333.78 692.68,333.78 693.49,333.78 694.30,333.78 695.11,333.78 695.92,333.78 696.73,333.78 697.53,333.78 698.34,333.78 699.15,333.78 699.96,333.78 700.77,333.78 701.58,333.78 702.39,338.29 703.20,333.78 704.01,333.78 704.82,333.78 705.63,333.78 706.44,333.78 707.25,333.78 708.06,333.78 708.87,338.29 709.68,333.78 710.49,338.29 711.30,342.79 712.10,347.30 712.91,351.80 713.72,351.80 714.53,351.80 715.34,351.80 716.15,351.80 716.96,351.80 717.77,351.80 718.58,351.80 719.39,356.31 720.20,356.31 721.01,356.31 721.82,356.31 722.63,356.31 723.44,356.31 724.25,356.31 725.06,360.81 725.86,356.31 726.67,356.31 727.48,360.81 728.29,360.81 729.10,360.81 729.91,360.81 730.72,360.81 731.53,360.81 732.34,360.81 733.15,360.81 733.96,360.81 734.77,365.32 735.58,365.32 736.39,360.81 737.20,360.81 738.01,365.32 738.82,365.32 739.62,360.81 740.43,365.32 741.24,365.32 742.05,365.32 742.86,365.32 743.67,360.81 744.48,360.81 745.29,365.32 746.10,365.32 746.91,360.81 747.72,360.81 748.53,360.81 749.34,360.81 750.15,360.81 750.96,360.81 751.77,360.81 752.58,360.81 753.38,360.81 754.19,360.81 755.00,360.81 755.81,365.32 756.62,365.32 757.43,365.32 758.24,365.32 759.05,365.32 759.86,365.32 760.67,369.82 761.48,365.32 762.29,369.82 763.10,369.82 763.91,369.82 764.72,369.82 765.53,369.82 766.34,369.82 767.14,369.82 767.95,369.82 768.76,369.82 769.57,369.82 770.38,369.82 771.19,374.32 772.00,374.32 772.81,374.32 773.62,374.32 774.43,374.32 775.24,374.32 776.05,374.32 776.86,374.32 777.67,374.32 778.48,374.32 779.29,374.32 780.10,374.32 780.91,374.32 781.71,374.32 782.52,374.32 783.33,374.32 784.14,378.83 784.95,374.32 785.76,378.83 786.57,378.83 787.38,378.83 788.19,378.83 789.00,378.83 789.81,378.83 790.62,378.83 791.43,378.83 792.24,378.83 793.05,378.83 793.86,378.83 794.67,378.83 795.47,378.83 796.28,378.83 797.09,378.83 797.90,378.83 798.71,378.83 799.52,378.83 800.33,378.83 801.14,378.83 801.95,378.83 802.76,378.83 803.57,378.83 804.38,378.83 805.19,378.83 806.00,378.83 806.81,378.83 807.62,378.83 808.43,378.83 809.23,378.83 810.04,378.83 810.85,378.83 811.66,378.83 812.47,378.83 813.28,378.83 814.09,378.83 814.90,383.33 815.71,383.33 816.52,383.33 817.33,383.33 818.14,383.33 818.95,383.33 819.76,383.33 820.57,383.33 821.38,383.33 822.19,383.33 822.99,387.84 823.80,387.84 824.61,387.84 825.42,387.84 826.23,387.84 827.04,387.84 827.85,387.84 828.66,387.84 829.47,387.84 830.28,387.84 831.09,387.84 831.90,387.84 832.71,387.84 833.52,387.84 834.33,387.84 835.14,387.84 835.95,392.34 836.75,392.34 837.56,392.34 838.37,392.34 839.18,396.85 839.99,405.86 840.80,405.86 841.61,405.86 842.42,405.86 843.23,410.36 844.04,410.36 844.85,414.86 845.66,414.86 846.47,414.86 847.28,419.37 848.09,419.37 848.90,419.37 849.71,419.37 850.52,423.87 851.32,423.87 852.13,423.87 852.94,423.87 853.75,423.87 854.56,423.87 855.37,414.86 856.18,419.37 856.99,419.37 857.80,419.37 858.61,419.37 859.42,419.37 860.23,419.37 861.04,419.37 861.85,414.86 862.66,414.86 863.47,414.86 864.28,414.86 865.08,414.86 865.89,414.86 866.70,414.86 867.51,414.86 868.32,414.86 869.13,414.86 869.94,414.86 870.75,414.86 871.56,414.86 872.37,414.86 873.18,414.86 873.99,414.86 874.80,414.86 875.61,414.86 876.42,414.86 877.23,414.86 878.04,419.37 878.84,419.37 879.65,419.37 880.46,423.87 881.27,423.87 882.08,423.87 882.89,423.87 883.70,423.87 884.51,423.87 885.32,423.87 886.13,423.87 886.94,423.87 887.75,423.87 888.56,423.87 889.37,419.37 890.18,423.87 890.99,423.87 891.80,423.87 892.60,423.87 893.41,423.87 894.22,423.87 895.03,423.87 895.84,423.87 896.65,423.87 897.46,423.87 898.27,423.87 899.08,423.87 899.89,423.87 900.70,423.87 901.51,423.87 902.32,428.38 903.13,432.88 903.94,432.88 904.75,441.89 905.56,437.39 906.36,437.39 907.17,437.39 907.98,437.39 908.79,432.88 909.60,432.88 910.41,428.38 911.22,428.38 912.03,428.38 912.84,428.38 913.65,428.38 914.46,428.38 915.27,428.38 916.08,428.38 916.89,428.38 917.70,428.38 918.51,428.38 919.32,428.38 920.13,428.38 920.93,428.38 921.74,428.38 922.55,428.38 923.36,428.38 924.17,428.38 924.98,428.38 925.79,428.38 926.60,428.38 927.41,428.38 928.22,428.38 929.03,428.38 929.84,428.38 930.65,428.38 931.46,428.38 932.27,428.38 933.08,428.38 933.89,428.38 934.69,432.88 935.50,432.88 936.31,428.38 937.12,432.88 937.93,437.39 938.74,441.89 939.55,437.39 940.36,437.39 941.17,441.89 941.98,441.89 942.79,441.89 943.60,441.89 944.41,441.89 945.22,441.89 946.03,446.40 946.84,446.40 947.65,446.40 948.45,441.89 949.26,441.89 950.07,441.89 950.88,441.89 951.69,441.89 952.50,441.89 953.31,446.40 954.12,441.89 954.93,446.40 955.74,446.40 956.55,446.40 957.36,446.40 958.17,446.40 958.98,446.40 959.79,446.40 960.60,446.40 961.41,446.40 962.21,446.40 963.02,446.40 963.83,446.40 964.64,446.40 965.45,446.40 966.26,446.40 967.07,446.40 967.88,446.40 968.69,446.40 969.50,446.40 970.31,446.40 971.12,446.40 971.93,446.40 972.74,446.40 973.55,446.40 974.36,450.90 975.17,446.40 975.97,450.90 976.78,446.40 977.59,450.90 978.40,450.90 979.21,450.90 980.02,446.40 980.83,446.40 981.64,446.40 982.45,450.90 983.26,446.40 984.07,446.40 984.88,446.40 985.69,446.40 986.50,495.95 987.31,504.95 988.12,518.47 988.93,518.47 989.74,527.48 990.54,531.98 991.35,536.49 992.16,545.50 992.97,545.50 993.78,545.50 994.59,545.50 995.40,545.50 996.21,545.50 997.02,545.50 997.83,545.50 998.64,545.50 999.45,545.50 1000.26,550.00 1001.07,545.50 1001.88,545.50 1002.69,545.50 1003.50,545.50 1004.30,545.50 1005.11,545.50 1005.92,545.50 1006.73,545.50 1007.54,545.50 1008.35,550.00 1009.16,550.00 1009.97,550.00 1010.78,550.00 1011.59,550.00 1012.40,550.00 1013.21,550.00 1014.02,550.00 1014.83,550.00 1015.64,550.00 1016.45,550.00 1017.26,550.00 1018.06,550.00 1018.87,550.00 1019.68,550.00 1020.49,550.00 1021.30,550.00 1022.11,550.00 1022.92,550.00 1023.73,550.00 1024.54,550.00 1025.35,550.00 1026.16,550.00 1026.97,550.00 1027.78,536.49 1028.59,531.98 1029.40,536.49 1030.21,531.98 1031.02,531.98 1031.82,531.98 1032.63,531.98 1033.44,531.98 1034.25,531.98 1035.06,531.98 1035.87,527.48 1036.68,522.97 1037.49,518.47 1038.30,518.47 1039.11,518.47 1039.92,527.48 1040.73,522.97 1041.54,522.97 1042.35,527.48 1043.16,531.98 1043.97,531.98 1044.78,536.49 1045.58,531.98 1046.39,531.98 1047.20,531.98 1048.01,531.98 1048.82,531.98 1049.63,531.98 1050.44,531.98 1051.25,531.98 1052.06,531.98 1052.87,531.98 1053.68,531.98 1054.49,531.98 1055.30,531.98 1056.11,536.49 1056.92,531.98 1057.73,531.98 1058.54,536.49 1059.35,536.49 1060.15,531.98 1060.96,531.98 1061.77,531.98 1062.58,531.98 1063.39,531.98 1064.20,531.98 1065.01,531.98 1065.82,531.98 1066.63,527.48 1067.44,527.48 1068.25,527.48 1069.06,527.48 1069.87,527.48 1070.68,522.97 1071.49,522.97 1072.30,522.97 1073.11,522.97 1073.91,522.97 1074.72,518.47 1075.53,522.97 1076.34,518.47 1077.15,518.47 1077.96,522.97 1078.77,522.97 1079.58,522.97 1080.39,522.97 1081.20,522.97 1082.01,522.97 1082.82,522.97 1083.63,522.97 1084.44,522.97 1085.25,522.97 1086.06,522.97 1086.87,522.97 1087.67,522.97 1088.48,522.97 1089.29,522.97 1090.10,522.97 1090.91,522.97 1091.72,522.97 1092.53,522.97 1093.34,522.97 1094.15,522.97 1094.96,518.47 1095.77,518.47 1096.58,518.47 1097.39,518.47 1098.20,518.47 1099.01,518.47 1099.82,518.47 1100.63,518.47 1101.43,518.47 1102.24,518.47 1103.05,518.47 1103.86,518.47 1104.67,518.47 1105.48,518.47 1106.29,518.47 1107.10,518.47 1107.91,518.47 1108.72,518.47 1109.53,518.47 1110.34,518.47 1111.15,518.47 1111.96,518.47 1112.77,518.47 1113.58,518.47 1114.39,518.47 1115.19,518.47 1116.00,518.47 1116.81,518.47 1117.62,522.97 1118.43,522.97 1119.24,522.97 1120.05,522.97 1120.86,522.97 1121.67,522.97 1122.48,522.97 1123.29,522.97 1124.10,522.97 1124.91,522.97 1125.72,522.97 1126.53,522.97 1127.34,522.97 1128.15,522.97 1128.96,522.97 1129.76,522.97 1130.57,522.97 1131.38,522.97 1132.19,522.97 1133.00,522.97 1133.81,522.97 1134.62,522.97 1135.43,522.97 1136.24,522.97 1137.05,522.97 1137.86,522.97 1138.67,522.97 1139.48,522.97 1140.29,522.97 1141.10,522.97 1141.91,522.97 1142.72,522.97 1143.52,522.97 1144.33,527.48 1145.14,527.48 1145.95,527.48 1146.76,527.48 1147.57,527.48 1148.38,527.48 1149.19,527.48 1150.00,527.48" fill="none" stroke="#2f6fb0" stroke-width="2" />
  <text x="50.00" y="575.0" font-size="12" text-anchor="middle" fill="#444">2000</text>
  <text x="261.26" y="575.0" font-size="12" text-anchor="middle" fill="#444">2005</text>
  <text x="471.71" y="575.0" font-size="12" text-anchor="middle" fill="#444">2010</text>
  <text x="682.97" y="575.0" font-size="12" text-anchor="middle" fill="#444">2015</text>
  <text x="894.22" y="575.0" font-size="12" text-anchor="middle" fill="#444">2020</text>
  <text x="1105.48" y="575.0" font-size="12" text-anchor="middle" fill="#444">2025</text>
  <text x="42" y="554.00" font-size="12" text-anchor="end" fill="#444">0.2700</text>
  <text x="42" y="504.00" font-size="12" text-anchor="end" fill="#444">0.3810</text>
  <text x="42" y="454.00" font-size="12" text-anchor="end" fill="#444">0.4920</text>
  <text x="42" y="404.00" font-size="12" text-anchor="end" fill="#444">0.6030</text>
  <text x="42" y="354.00" font-size="12" text-anchor="end" fill="#444">0.7140</text>
  <text x="42" y="304.00" font-size="12" text-anchor="end" fill="#444">0.8250</text>
  <text x="42" y="254.00" font-size="12" text-anchor="end" fill="#444">0.9360</text>
  <text x="42" y="204.00" font-size="12" text-anchor="end" fill="#444">1.0470</text>
  <text x="42" y="154.00" font-size="12" text-anchor="end" fill="#444">1.1580</text>
  <text x="42" y="104.00" font-size="12" text-anchor="end" fill="#444">1.2690</text>
  <text x="42" y="54.00" font-size="12" text-anchor="end" fill="#444">1.3800</text>
  <text x="600.0" y="590" font-size="14" text-anchor="middle" fill="#222">Year</text>
  <text x="20" y="300.0" font-size="14" text-anchor="middle" fill="#222" transform="rotate(-90, 20, 300.0)">Exchange Rate</text>
  <text x="50" y="50" font-size="12" fill="#444">Max: 1.3800</text>
  <text x="50" y="66" font-size="12" fill="#444">Min: 0.2700</text>
</svg>
