<svg xmlns="http://www.w3.org/2000/svg" width="1200" height="600">
  <rect width="100%" height="100%" fill="white" />
  <text x="600.0" y="25.0" font-size="20" text-anchor="middle" fill="#222">MXNUSD Weekly Exchange Rate</text>
  <polyline points="50.00,50.00 50.81,50.00 51.62,50.00 52.43,121.43 53.24,50.00 54.05,50.00 54.86,50.00 55.67,50.00 56.48,50.00 57.28,50.00 58.09,50.00 58.90,50.00 59.71,50.00 60.52,50.00 61.33,50.00 62.14,50.00 62.95,50.00 63.76,50.00 64.57,121.43 65.38,121.43 66.19,121.43 67.00,121.43 67.81,121.43 68.62,121.43 69.43,121.43 70.24,121.43 71.04,50.00 71.85,50.00 72.66,50.00 73.47,50.00 74.28,50.00 75.09,50.00 75.90,50.00 76.71,50.00 77.52,50.00 78.33,50.00 79.14,50.00 79.95,50.00 80.76,50.00 81.57,50.00 82.38,121.43 83.19,121.43 84.00,121.43 84.81,121.43 85.61,121.43 86.42,50.00 87.23,50.00 88.04,50.00 88.85,50.00 89.66,50.00 90.47,121.43 91.28,121.43 92.09,121.43 92.90,121.43 93.71,121.43 94.52,121.43 95.33,121.43 96.14,121.43 96.95,121.43 97.76,121.43 98.57,121.43 99.37,121.43 100.18,121.43 100.99,121.43 101.80,50.00 102.61,50.00 103.42,50.00 104.23,50.00 105.04,50.00 105.85,50.00 106.66,50.00 107.47,50.00 108.28,50.00 109.09,50.00 109.90,50.00 110.71,50.00 111.52,50.00 112.33,50.00 113.13,50.00 113.94,50.00 114.75,50.00 115.56,50.00 116.37,50.00 117.18,50.00 117.99,50.00 118.80,50.00 119.61,50.00 120.42,50.00 121.23,50.00 122.04,50.00 122.85,50.00 123.66,121.43 124.47,50.00 125.28,50.00 126.09,50.00 126.89,50.00 127.70,50.00 128.51,50.00 129.32,50.00 130.13,50.00 130.94,50.00 131.75,50.00 132.56,50.00 133.37,50.00 134.18,50.00 134.99,50.00 135.80,50.00 136.61,50.00 137.42,50.00 138.23,50.00 139.04,50.00 139.85,50.00 140.65,50.00 141.46,50.00 142.27,50.00 143.08,50.00 143.89,50.00 144.70,50.00 145.51,50.00 146.32,50.00 147.13,50.00 147.94,50.00 148.75,50.00 149.56,50.00 150.37,121.43 151.18,121.43 151.99,121.43 152.80,121.43 153.61,121.43 154.42,121.43 155.22,121.43 156.03,121.43 156.84,121.43 157.65,121.43 158.46,121.43 159.27,121.43 160.08,121.43 160.89,121.43 161.70,121.43 162.51,121.43 163.32,121.43 164.13,121.43 164.94,121.43 165.75,121.43 166.56,121.43 167.37,121.43 168.18,121.43 168.98,121.43 169.79,121.43 170.60,121.43 171.41,121.43 172.22,121.43 173.03,121.43 173.84,121.43 174.65,121.43 175.46,121.43 176.27,121.43 177.08,192.86 177.89,192.86 178.70,192.86 179.51,192.86 180.32,192.86 181.13,192.86 181.94,192.86 182.74,192.86 183.55,192.86 184.36,192.86 185.17,192.86 185.98,192.86 186.79,192.86 187.60,192.86 188.41,121.43 189.22,121.43 190.03,121.43 190.84,121.43 191.65,121.43 192.46,121.43 193.27,121.43 194.08,192.86 194.89,192.86 195.70,121.43 196.50,121.43 197.31,121.43 198.12,121.43 198.93,121.43 199.74,121.43 200.55,192.86 201.36,192.86 202.17,192.86 202.98,192.86 203.79,192.86 204.60,192.86 205.41,192.86 206.22,192.86 207.03,192.86 207.84,192.86 208.65,192.86 209.46,192.86 210.26,192.86 211.07,192.86 211.88,192.86 212.69,192.86 213.50,192.86 214.31,192.86 215.12,192.86 215.93,192.86 216.74,192.86 217.55,192.86 218.36,192.86 219.17,192.86 219.98,192.86 220.79,192.86 221.60,192.86 222.41,192.86 223.22,192.86 224.03,192.86 224.83,192.86 225.64,192.86 226.45,192.86 227.26,192.86 228.07,192.86 228.88,192.86 229.69,192.86 230.50,192.86 231.31,192.86 232.12,192.86 232.93,192.86 233.74,192.86 234.55,192.86 235.36,192.86 236.17,192.86 236.98,192.86 237.79,192.86 238.59,192.86 239.40,192.86 240.21,192.86 241.02,192.86 241.83,192.86 242.64,192.86 243.45,192.86 244.26,192.86 245.07,192.86 245.88,192.86 246.69,192.86 247.50,192.86 248.31,192.86 249.12,192.86 249.93,192.86 250.74,192.86 251.55,192.86 252.35,192.86 253.16,192.86 253.97,192.86 254.78,192.86 255.59,192.86 256.40,192.86 257.21,192.86 258.02,192.86 258.83,192.86 259.64,192.86 260.45,192.86 261.26,192.86 262.07,192.86 262.88,192.86 263.69,192.86 264.50,192.86 265.31,192.86 266.11,192.86 266.92,192.86 267.73,192.86 268.54,192.86 269.35,192.86 270.16,192.86 270.97,192.86 271.78,192.86 272.59,192.86 273.40,192.86 274.21,192.86 275.02,192.86 275.83,192.86 276.64,192.86 277.45,192.86 278.26,192.86 279.07,192.86 279.87,192.86 280.68,192.86 281.49,192.86 282.30,192.86 283.11,192.86 283.92,192.86 284.73,192.86 285.54,192.86 286.35,192.86 287.16,192.86 287.97,192.86 288.78,192.86 289.59,192.86 290.40,192.86 291.21,192.86 292.02,192.86 292.83,192.86 293.64,192.86 294.44,192.86 295.25,192.86 296.06,192.86 296.87,192.86 297.68,192.86 298.49,192.86 299.30,121.43 300.11,192.86 300.92,192.86 301.73,192.86 302.54,192.86 303.35,192.86 304.16,192.86 304.97,192.86 305.78,121.43 306.59,121.43 307.40,121.43 308.20,121.43 309.01,121.43 309.82,192.86 310.63,192.86 311.44,192.86 312.25,192.86 313.06,192.86 313.87,192.86 314.68,192.86 315.49,192.86 316.30,192.86 317.11,192.86 317.92,192.86 318.73,192.86 319.54,192.86 320.35,192.86 321.16,192.86 321.96,192.86 322.77,192.86 323.58,192.86 324.39,192.86 325.20,192.86 326.01,192.86 326.82,192.86 327.63,192.86 328.44,192.86 329.25,192.86 330.06,192.86 330.87,192.86 331.68,192.86 332.49,192.86 333.30,192.86 334.11,192.86 334.92,192.86 335.72,192.86 336.53,192.86 337.34,192.86 338.15,192.86 338.96,192.86 339.77,192.86 340.58,192.86 341.39,192.86 342.20,192.86 343.01,192.86 343.82,192.86 344.63,192.86 345.44,192.86 346.25,192.86 347.06,192.86 347.87,192.86 348.68,192.86 349.48,192.86 350.29,192.86 351.10,192.86 351.91,192.86 352.72,192.86 353.53,192.86 354.34,192.86 355.15,192.86 355.96,192.86 356.77,192.86 357.58,192.86 358.39,192.86 359.20,192.86 360.01,192.86 360.82,192.86 361.63,192.86 362.44,192.86 363.25,192.86 364.05,192.86 364.86,192.86 365.67,192.86 366.48,192.86 367.29,192.86 368.10,192.86 368.91,192.86 369.72,192.86 370.53,192.86 371.34,192.86 372.15,192.86 372.96,192.86 373.77,192.86 374.58,192.86 375.39,192.86 376.20,192.86 377.01,192.86 377.81,192.86 378.62,192.86 379.43,192.86 380.24,192.86 381.05,192.86 381.86,192.86 382.67,192.86 383.48,192.86 384.29,192.86 385.10,192.86 385.91,192.86 386.72,192.86 387.53,192.86 388.34,192.86 389.15,192.86 389.96,192.86 390.77,192.86 391.57,192.86 392.38,192.86 393.19,192.86 394.00,192.86 394.81,192.86 395.62,192.86 396.43,192.86 397.24,192.86 398.05,192.86 398.86,192.86 399.67,121.43 400.48,121.43 401.29,121.43 402.10,192.86 402.91,121.43 403.72,121.43 404.53,121.43 405.33,121.43 406.14,121.43 406.95,121.43 407.76,121.43 408.57,121.43 409.38,121.43 410.19,121.43 411.00,121.43 411.81,121.43 412.62,121.43 413.43,121.43 414.24,121.43 415.05,121.43 415.86,121.43 416.67,192.86 417.48,192.86 418.29,192.86 419.09,192.86 419.90,264.29 420.71,264.29 421.52,335.71 422.33,264.29 423.14,264.29 423.95,264.29 424.76,335.71 425.57,335.71 426.38,335.71 427.19,335.71 428.00,264.29 428.81,335.71 429.62,335.71 430.43,335.71 431.24,335.71 432.05,335.71 432.86,335.71 433.66,335.71 434.47,335.71 435.28,335.71 436.09,335.71 436.90,335.71 437.71,335.71 438.52,335.71 439.33,335.71 440.14,335.71 440.95,264.29 441.76,264.29 442.57,264.29 443.38,335.71 444.19,264.29 445.00,264.29 445.81,264.29 446.62,264.29 447.42,264.29 448.23,335.71 449.04,335.71 449.85,264.29 450.66,264.29 451.47,335.71 452.28,264.29 453.09,264.29 453.90,264.29 454.71,264.29 455.52,264.29 456.33,264.29 457.14,264.29 457.95,335.71 458.76,264.29 459.57,264.29 460.38,335.71 461.18,335.71 461.99,264.29 462.80,264.29 463.61,264.29 464.42,264.29 465.23,335.71 466.04,264.29 466.85,264.29 467.66,264.29 468.47,264.29 469.28,264.29 470.09,264.29 470.90,264.29 471.71,264.29 472.52,264.29 473.33,264.29 474.14,264.29 474.94,264.29 475.75,264.29 476.56,264.29 477.37,264.29 478.18,264.29 478.99,264.29 479.80,264.29 480.61,264.29 481.42,264.29 482.23,264.29 483.04,264.29 483.85,264.29 484.66,264.29 485.47,264.29 486.28,264.29 487.09,264.29 487.90,264.29 488.70,264.29 489.51,264.29 490.32,264.29 491.13,264.29 491.94,264.29 492.75,264.29 493.56,264.29 494.37,264.29 495.18,264.29 495.99,264.29 496.80,264.29 497.61,264.29 498.42,264.29 499.23,264.29 500.04,264.29 500.85,264.29 501.66,264.29 502.47,264.29 503.27,264.29 504.08,264.29 504.89,264.29 505.70,264.29 506.51,264.29 507.32,264.29 508.13,264.29 508.94,264.29 509.75,264.29 510.56,264.29 511.37,264.29 512.18,264.29 512.99,264.29 513.80,264.29 514.61,264.29 515.42,264.29 516.23,264.29 517.03,264.29 517.84,264.29 518.65,264.29 519.46,264.29 520.27,264.29 521.08,264.29 521.89,264.29 522.70,264.29 523.51,264.29 524.32,264.29 525.13,192.86 525.94,192.86 526.75,192.86 527.56,192.86 528.37,192.86 529.18,192.86 529.99,192.86 530.79,192.86 531.60,192.86 532.41,264.29 533.22,264.29 534.03,264.29 534.84,192.86 535.65,192.86 536.46,192.86 537.27,192.86 538.08,192.86 538.89,264.29 539.70,264.29 540.51,264.29 541.32,264.29 542.13,264.29 542.94,264.29 543.75,264.29 544.55,335.71 545.36,335.71 546.17,335.71 546.98,264.29 547.79,335.71 548.60,264.29 549.41,335.71 550.22,335.71 551.03,335.71 551.84,335.71 552.65,335.71 553.46,335.71 554.27,335.71 555.08,335.71 555.89,335.71 556.70,335.71 557.51,335.71 558.31,264.29 559.12,264.29 559.93,264.29 560.74,264.29 561.55,264.29 562.36,264.29 563.17,264.29 563.98,264.29 564.79,264.29 565.60,264.29 566.41,264.29 567.22,264.29 568.03,264.29 568.84,264.29 569.65,264.29 570.46,264.29 571.27,335.71 572.08,335.71 572.88,335.71 573.69,335.71 574.50,335.71 575.31,335.71 576.12,335.71 576.93,335.71 577.74,335.71 578.55,264.29 579.36,335.71 580.17,264.29 580.98,264.29 581.79,264.29 582.60,264.29 583.41,264.29 584.22,264.29 585.03,264.29 585.84,264.29 586.64,264.29 587.45,264.29 588.26,264.29 589.07,264.29 589.88,264.29 590.69,264.29 591.50,264.29 592.31,264.29 593.12,264.29 593.93,264.29 594.74,264.29 595.55,264.29 596.36,264.29 597.17,264.29 597.98,264.29 598.79,264.29 599.60,264.29 600.40,264.29 601.21,264.29 602.02,264.29 602.83,264.29 603.64,264.29 604.45,264.29 605.26,264.29 606.07,264.29 606.88,264.29 607.69,264.29 608.50,264.29 609.31,264.29 610.12,264.29 610.93,264.29 611.74,264.29 612.55,264.29 613.36,264.29 614.16,264.29 614.97,264.29 615.78,264.29 616.59,264.29 617.40,264.29 618.21,264.29 619.02,264.29 619.83,264.29 620.64,264.29 621.45,264.29 622.26,264.29 623.07,264.29 623.88,264.29 624.69,264.29 625.50,264.29 626.31,335.71 627.12,264.29 627.92,264.29 628.73,264.29 629.54,264.29 630.35,264.29 631.16,264.29 631.97,264.29 632.78,264.29 633.59,264.29 634.40,264.29 635.21,264.29 636.02,264.29 636.83,264.29 637.64,264.29 638.45,264.29 639.26,264.29 640.07,264.29 640.88,264.29 641.69,264.29 642.49,264.29 643.30,335.71 644.11,335.71 644.92,264.29 645.73,264.29 646.54,264.29 647.35,264.29 648.16,264.29 648.97,264.29 649.78,264.29 650.59,264.29 651.40,264.29 652.21,264.29 653.02,264.29 653.83,264.29 654.64,264.29 655.45,264.29 656.25,264.29 657.06,264.29 657.87,264.29 658.68,264.29 659.49,264.29 660.30,264.29 661.11,264.29 661.92,264.29 662.73,264.29 663.54,264.29 664.35,264.29 665.16,264.29 665.97,264.29 666.78,264.29 667.59,264.29 668.40,264.29 669.21,264.29 670.01,264.29 670.82,264.29 671.63,335.71 672.44,335.71 673.25,335.71 674.06,335.71 674.87,335.71 675.68,335.71 676.49,335.71 677.30,335.71 678.11,335.71 678.92,335.71 679.73,335.71 680.54,335.71 681.35,335.71 682.16,335.71 682.97,335.71 683.77,335.71 684.58,335.71 685.39,335.71 686.20,335.71 687.01,335.71 687.82,335.71 688.63,335.71 689.44,335.71 690.25,407.14 691.06,407.14 691.87,335.71 692.68,335.71 693.49,335.71 694.30,335.71 695.11,335.71 695.92,335.71 696.73,407.14 697.53,335.71 698.34,335.71 699.15,335.71 699.96,335.71 700.77,407.14 701.58,407.14 702.39,335.71 703.20,407.14 704.01,407.14 704.82,407.14 705.63,407.14 706.44,407.14 707.25,407.14 708.06,407.14 708.87,407.14 709.68,407.14 710.49,407.14 711.30,407.14 712.10,407.14 712.91,407.14 713.72,407.14 714.53,407.14 715.34,407.14 716.15,407.14 716.96,407.14 717.77,407.14 718.58,407.14 719.39,407.14 720.20,407.14 721.01,407.14 721.82,407.14 722.63,407.14 723.44,407.14 724.25,407.14 725.06,407.14 725.86,407.14 726.67,478.57 727.48,478.57 728.29,407.14 729.10,478.57 729.91,478.57 730.72,478.57 731.53,478.57 732.34,407.14 733.15,407.14 733.96,407.14 734.77,407.14 735.58,407.14 736.39,407.14 737.20,407.14 738.01,407.14 738.82,407.14 739.62,407.14 740.43,407.14 741.24,478.57 742.05,478.57 742.86,478.57 743.67,478.57 744.48,478.57 745.29,478.57 746.10,478.57 746.91,478.57 747.72,478.57 748.53,478.57 749.34,478.57 750.15,478.57 750.96,478.57 751.77,478.57 752.58,478.57 753.38,478.57 754.19,478.57 755.00,478.57 755.81,478.57 756.62,478.57 757.43,478.57 758.24,478.57 759.05,478.57 759.86,478.57 760.67,478.57 761.48,478.57 762.29,478.57 763.10,478.57 763.91,478.57 764.72,478.57 765.53,478.57 766.34,478.57 767.14,478.57 767.95,478.57 768.76,478.57 769.57,478.57 770.38,478.57 771.19,478.57 772.00,478.57 772.81,478.57 773.62,478.57 774.43,478.57 775.24,478.57 776.05,478.57 776.86,478.57 777.67,478.57 778.48,478.57 779.29,478.57 780.10,478.57 780.91,478.57 781.71,478.57 782.52,478.57 783.33,478.57 784.14,478.57 784.95,478.57 785.76,407.14 786.57,407.14 787.38,407.14 788.19,407.14 789.00,407.14 789.81,407.14 790.62,407.14 791.43,407.14 792.24,407.14 793.05,407.14 793.86,407.14 794.67,407.14 795.47,407.14 796.28,407.14 797.09,407.14 797.90,407.14 798.71,478.57 799.52,478.57 800.33,478.57 801.14,478.57 801.95,478.57 802.76,478.57 803.57,478.57 804.38,478.57 805.19,478.57 806.00,478.57 806.81,478.57 807.62,478.57 808.43,478.57 809.23,478.57 810.04,478.57 810.85,478.57 811.66,478.57 812.47,478.57 813.28,478.57 814.09,478.57 814.90,478.57 815.71,478.57 816.52,478.57 817.33,478.57 818.14,478.57 818.95,478.57 819.76,407.14 820.57,478.57 821.38,407.14 822.19,478.57 822.99,478.57 823.80,478.57 824.61,478.57 825.42,478.57 826.23,478.57 827.04,478.57 827.85,478.57 828.66,478.57 829.47,478.57 830.28,478.57 831.09,478.57 831.90,478.57 832.71,478.57 833.52,478.57 834.33,478.57 835.14,478.57 835.95,478.57 836.75,478.57 837.56,478.57 838.37,478.57 839.18,478.57 839.99,478.57 840.80,478.57 841.61,478.57 842.42,478.57 843.23,478.57 844.04,478.57 844.85,478.57 845.66,478.57 846.47,478.57 847.28,478.57 848.09,478.57 848.90,478.57 849.71,478.57 850.52,478.57 851.32,478.57 852.13,478.57 852.94,478.57 853.75,478.57 854.56,478.57 855.37,478.57 856.18,478.57 856.99,478.57 857.80,478.57 858.61,478.57 859.42,478.57 860.23,478.57 861.04,478.57 861.85,478.57 862.66,478.57 863.47,478.57 864.28,478.57 865.08,478.57 865.89,478.57 866.70,478.57 867.51,478.57 868.32,478.57 869.13,478.57 869.94,478.57 870.75,478.57 871.56,478.57 872.37,478.57 873.18,478.57 873.99,478.57 874.80,478.57 875.61,478.57 876.42,478.57 877.23,478.57 878.04,478.57 878.84,478.57 879.65,478.57 880.46,478.57 881.27,478.57 882.08,478.57 882.89,478.57 883.70,478.57 884.51,478.57 885.32,478.57 886.13,478.57 886.94,478.57 887.75,478.57 888.56,478.57 889.37,478.57 890.18,478.57 890.99,478.57 891.80,478.57 892.60,478.57 893.41,478.57 894.22,478.57 895.03,478.57 895.84,478.57 896.65,478.57 897.46,478.57 898.27,478.57 899.08,478.57 899.89,478.57 900.70,478.57 901.51,478.57 902.32,478.57 903.13,550.00 903.94,550.00 904.75,550.00 905.56,550.00 906.36,550.00 907.17,550.00 907.98,550.00 908.79,550.00 909.60,550.00 910.41,550.00 911.22,478.57 912.03,478.57 912.84,478.57 913.65,550.00 914.46,550.00 915.27,550.00 916.08,550.00 916.89,550.00 917.70,550.00 918.51,550.00 919.32,550.00 920.13,478.57 920.93,478.57 921.74,478.57 922.55,478.57 923.36,478.57 924.17,478.57 924.98,550.00 925.79,478.57 926.60,478.57 927.41,478.57 928.22,478.57 929.03,478.57 929.84,478.57 930.65,478.57 931.46,478.57 932.27,478.57 933.08,478.57 933.89,478.57 934.69,478.57 935.50,478.57 936.31,478.57 937.12,478.57 937.93,478.57 938.74,478.57 939.55,478.57 940.36,478.57 941.17,478.57 941.98,478.57 942.79,478.57 943.60,478.57 944.41,478.57 945.22,478.57 946.03,478.57 946.84,478.57 947.65,478.57 948.45,478.57 949.26,478.57 950.07,478.57 950.88,478.57 951.69,478.57 952.50,478.57 953.31,478.57 954.12,478.57 954.93,478.57 955.74,478.57 956.55,478.57 957.36,478.57 958.17,478.57 958.98,478.57 959.79,478.57 960.60,478.57 961.41,478.57 962.21,478.57 963.02,478.57 963.83,478.57 964.64,478.57 965.45,478.57 966.26,478.57 967.07,478.57 967.88,478.57 968.69,478.57 969.50,478.57 970.31,478.57 971.12,478.57 971.93,478.57 972.74,478.57 973.55,478.57 974.36,478.57 975.17,478.57 975.97,478.57 976.78,478.57 977.59,478.57 978.40,478.57 979.21,478.57 980.02,478.57 980.83,478.57 981.64,478.57 982.45,478.57 983.26,478.57 984.07,478.57 984.88,478.57 985.69,478.57 986.50,478.57 987.31,478.57 988.12,478.57 988.93,478.57 989.74,478.57 990.54,478.57 991.35,478.57 992.16,478.57 992.97,478.57 993.78,478.57 994.59,478.57 995.40,478.57 996.21,478.57 997.02,478.57 997.83,478.57 998.64,478.57 999.45,478.57 1000.26,478.57 1001.07,478.57 1001.88,478.57 1002.69,478.57 1003.50,478.57 1004.30,478.57 1005.11,478.57 1005.92,478.57 1006.73,478.57 1007.54,478.57 1008.35,478.57 1009.16,478.57 1009.97,478.57 1010.78,478.57 1011.59,478.57 1012.40,478.57 1013.21,478.57 1014.02,478.57 1014.83,478.57 1015.64,478.57 1016.45,478.57 1017.26,478.57 1018.06,478.57 1018.87,478.57 1019.68,478.57 1020.49,478.57 1021.30,478.57 1022.11,478.57 1022.92,478.57 1023.73,478.57 1024.54,478.57 1025.35,478.57 1026.16,478.57 1026.97,478.57 1027.78,407.14 1028.59,478.57 1029.40,478.57 1030.21,478.57 1031.02,407.14 1031.82,407.14 1032.63,407.14 1033.44,407.14 1034.25,407.14 1035.06,407.14 1035.87,407.14 1036.68,407.14 1037.49,407.14 1038.30,407.14 1039.11,407.14 1039.92,407.14 1040.73,407.14 1041.54,407.14 1042.35,407.14 1043.16,407.14 1043.97,407.14 1044.78,407.14 1045.58,407.14 1046.39,407.14 1047.20,407.14 1048.01,407.14 1048.82,407.14 1049.63,407.14 1050.44,407.14 1051.25,407.14 1052.06,407.14 1052.87,407.14 1053.68,407.14 1054.49,478.57 1055.30,407.14 1056.11,407.14 1056.92,407.14 1057.73,407.14 1058.54,407.14 1059.35,407.14 1060.15,407.14 1060.96,407.14 1061.77,407.14 1062.58,407.14 1063.39,407.14 1064.20,407.14 1065.01,407.14 1065.82,407.14 1066.63,407.14 1067.44,407.14 1068.25,407.14 1069.06,407.14 1069.87,407.14 1070.68,407.14 1071.49,407.14 1072.30,407.14 1073.11,407.14 1073.91,407.14 1074.72,407.14 1075.53,407.14 1076.34,407.14 1077.15,407.14 1077.96,407.14 1078.77,407.14 1079.58,407.14 1080.39,407.14 1081.20,478.57 1082.01,478.57 1082.82,407.14 1083.63,478.57 1084.44,407.14 1085.25,407.14 1086.06,407.14 1086.87,478.57 1087.67,478.57 1088.48,478.57 1089.29,478.57 1090.10,478.57 1090.91,478.57 1091.72,478.57 1092.53,478.57 1093.34,478.57 1094.15,478.57 1094.96,478.57 1095.77,478.57 1096.58,478.57 1097.39,478.57 1098.20,478.57 1099.01,478.57 1099.82,478.57 1100.63,478.57 1101.43,478.57 1102.24,478.57 1103.05,478.57 1103.86,478.57 1104.67,478.57 1105.48,478.57 1106.29,478.57 1107.10,478.57 1107.91,478.57 1108.72,478.57 1109.53,478.57 1110.34,478.57 1111.15,478.57 1111.96,478.57 1112.77,478.57 1113.58,478.57 1114.39,478.57 1115.19,478.57 1116.00,478.57 1116.81,478.57 1117.62,478.57 1118.43,478.57 1119.24,478.57 1120.05,478.57 1120.86,478.57 1121.67,478.57 1122.48,478.57 1123.29,478.57 1124.10,478.57 1124.91,478.57 1125.72,478.57 1126.53,478.57 1127.34,478.57 1128.15,478.57 1128.96,478.57 1129.76,478.57 1130.57,478.57 1131.38,478.57 1132.19,478.57 1133.00,478.57 1133.81,478.57 1134.62,478.57 1135.43,478.57 1136.24,478.57 1137.05,478.57 1137.86,478.57 1138.67,478.57 1139.48,478.57 1140.29,478.57 1141.10,478.57 1141.91,478.57 1142.72,478.57 1143.52,478.57 1144.33,407.14 1145.14,407.14 1145.95,407.14 1146.76,407.14 1147.57,407.14 1148.38,407.14 1149.19,407.14 1150.00,407.14" fill="none" stroke="#2f6fb0" stroke-width="2" />
  <text x="50.00" y="575.0" font-size="12" text-anchor="middle" fill="#444">2000</text>
  <text x="261.26" y="575.0" font-size="12" text-anchor="middle" fill="#444">2005</text>
  <text x="471.71" y="575.0" font-size="12" text-anchor="middle" fill="#444">2010</text>
  <text x="682.97" y="575.0" font-size="12" text-anchor="middle" fill="#444">2015</text>
  <text x="894.22" y="575.0" font-size="12" text-anchor="middle" fill="#444">2020</text>
  <text x="1105.48" y="575.0" font-size="12" text-anchor="middle" fill="#444">2025</text>
  <text x="600.0" y="590" font-size="14" text-anchor="middle" fill="#222">Year</text>
  <text x="20" y="300.0" font-size="14" text-anchor="middle" fill="#222" transform="rotate(-90, 20, 300.0)">Exchange Rate</text>
  <text x="50" y="50" font-size="12" fill="#444">Max: 0.1100</text>
  <text x="50" y="66" font-size="12" fill="#444">Min: 0.0400</text>
</svg>
