<svg xmlns="http://www.w3.org/2000/svg" width="1200" height="600">
  <rect width="100%" height="100%" fill="white" />
  <text x="600.0" y="25.0" font-size="20" text-anchor="middle" fill="#222">NZDUSD Weekly Exchange Rate</text>
  <polyline points="50.00,417.35 50.81,417.35 51.62,427.55 52.43,447.96 53.24,437.76 54.05,447.96 54.86,447.96 55.67,447.96 56.48,447.96 57.28,447.96 58.09,458.16 58.90,447.96 59.71,437.76 60.52,437.76 61.33,437.76 62.14,447.96 62.95,447.96 63.76,447.96 64.57,458.16 65.38,478.57 66.19,478.57 67.00,468.37 67.81,468.37 68.62,458.16 69.43,468.37 70.24,468.37 71.04,478.57 71.85,478.57 72.66,478.57 73.47,478.57 74.28,478.57 75.09,488.78 75.90,488.78 76.71,498.98 77.52,509.18 78.33,519.39 79.14,519.39 79.95,529.59 80.76,529.59 81.57,539.80 82.38,539.80 83.19,539.80 84.00,539.80 84.81,539.80 85.61,550.00 86.42,539.80 87.23,539.80 88.04,519.39 88.85,509.18 89.66,519.39 90.47,498.98 91.28,498.98 92.09,488.78 92.90,488.78 93.71,488.78 94.52,498.98 95.33,488.78 96.14,498.98 96.95,509.18 97.76,498.98 98.57,498.98 99.37,519.39 100.18,519.39 100.99,519.39 101.80,539.80 102.61,529.59 103.42,529.59 104.23,529.59 105.04,529.59 105.85,519.39 106.66,519.39 107.47,509.18 108.28,519.39 109.09,529.59 109.90,519.39 110.71,519.39 111.52,529.59 112.33,529.59 113.13,529.59 113.94,529.59 114.75,529.59 115.56,529.59 116.37,519.39 117.18,509.18 117.99,498.98 118.80,498.98 119.61,498.98 120.42,509.18 121.23,519.39 122.04,539.80 122.85,529.59 123.66,529.59 124.47,519.39 125.28,519.39 126.09,529.59 126.89,519.39 127.70,519.39 128.51,519.39 129.32,529.59 130.13,519.39 130.94,529.59 131.75,519.39 132.56,519.39 133.37,519.39 134.18,509.18 134.99,519.39 135.80,519.39 136.61,519.39 137.42,519.39 138.23,519.39 139.04,519.39 139.85,519.39 140.65,519.39 141.46,509.18 142.27,498.98 143.08,498.98 143.89,498.98 144.70,498.98 145.51,498.98 146.32,488.78 147.13,488.78 147.94,488.78 148.75,488.78 149.56,478.57 150.37,468.37 151.18,458.16 151.99,447.96 152.80,458.16 153.61,437.76 154.42,447.96 155.22,447.96 156.03,458.16 156.84,447.96 157.65,478.57 158.46,478.57 159.27,478.57 160.08,468.37 160.89,468.37 161.70,468.37 162.51,468.37 163.32,468.37 164.13,468.37 164.94,468.37 165.75,458.16 166.56,458.16 167.37,458.16 168.18,447.96 168.98,447.96 169.79,437.76 170.60,437.76 171.41,437.76 172.22,437.76 173.03,437.76 173.84,427.55 174.65,417.35 175.46,417.35 176.27,407.14 177.08,396.94 177.89,386.73 178.70,386.73 179.51,386.73 180.32,386.73 181.13,386.73 181.94,376.53 182.74,376.53 183.55,376.53 184.36,386.73 185.17,386.73 185.98,386.73 186.79,396.94 187.60,386.73 188.41,376.53 189.22,386.73 190.03,376.53 190.84,356.12 191.65,356.12 192.46,356.12 193.27,356.12 194.08,356.12 194.89,356.12 195.70,356.12 196.50,356.12 197.31,345.92 198.12,345.92 198.93,366.33 199.74,345.92 200.55,356.12 201.36,356.12 202.17,345.92 202.98,345.92 203.79,356.12 204.60,356.12 205.41,356.12 206.22,345.92 207.03,345.92 207.84,345.92 208.65,335.71 209.46,335.71 210.26,325.51 211.07,325.51 211.88,315.31 212.69,305.10 213.50,294.90 214.31,294.90 215.12,284.69 215.93,284.69 216.74,294.90 217.55,284.69 218.36,274.49 219.17,254.08 219.98,264.29 220.79,264.29 221.60,264.29 222.41,243.88 223.22,233.67 224.03,254.08 224.83,243.88 225.64,264.29 226.45,294.90 227.26,274.49 228.07,284.69 228.88,274.49 229.69,274.49 230.50,294.90 231.31,305.10 232.12,305.10 232.93,315.31 233.74,335.71 234.55,325.51 235.36,305.10 236.17,315.31 236.98,305.10 237.79,305.10 238.59,294.90 239.40,284.69 240.21,274.49 241.02,274.49 241.83,294.90 242.64,294.90 243.45,284.69 244.26,264.29 245.07,264.29 245.88,284.69 246.69,284.69 247.50,284.69 248.31,274.49 249.12,264.29 249.93,264.29 250.74,243.88 251.55,243.88 252.35,233.67 253.16,254.08 253.97,243.88 254.78,243.88 255.59,223.47 256.40,213.27 257.21,213.27 258.02,233.67 258.83,223.47 259.64,213.27 260.45,213.27 261.26,243.88 262.07,233.67 262.88,223.47 263.69,223.47 264.50,223.47 265.31,223.47 266.11,213.27 266.92,213.27 267.73,203.06 268.54,192.86 269.35,192.86 270.16,223.47 270.97,223.47 271.78,213.27 272.59,213.27 273.40,203.06 274.21,203.06 275.02,203.06 275.83,223.47 276.64,223.47 277.45,213.27 278.26,233.67 279.07,223.47 279.87,213.27 280.68,223.47 281.49,254.08 282.30,264.29 283.11,264.29 283.92,243.88 284.73,254.08 285.54,243.88 286.35,223.47 287.16,243.88 287.97,233.67 288.78,223.47 289.59,223.47 290.40,233.67 291.21,243.88 292.02,243.88 292.83,233.67 293.64,233.67 294.44,233.67 295.25,233.67 296.06,254.08 296.87,243.88 297.68,243.88 298.49,233.67 299.30,223.47 300.11,233.67 300.92,243.88 301.73,264.29 302.54,254.08 303.35,243.88 304.16,233.67 304.97,254.08 305.78,254.08 306.59,243.88 307.40,254.08 308.20,264.29 309.01,274.49 309.82,264.29 310.63,294.90 311.44,305.10 312.25,325.51 313.06,315.31 313.87,325.51 314.68,315.31 315.49,305.10 316.30,294.90 317.11,294.90 317.92,305.10 318.73,315.31 319.54,305.10 320.35,305.10 321.16,305.10 321.96,315.31 322.77,325.51 323.58,325.51 324.39,325.51 325.20,315.31 326.01,315.31 326.82,315.31 327.63,305.10 328.44,305.10 329.25,294.90 330.06,294.90 330.87,274.49 331.68,294.90 332.49,274.49 333.30,274.49 334.11,284.69 334.92,274.49 335.72,274.49 336.53,264.29 337.34,274.49 338.15,264.29 338.96,264.29 339.77,264.29 340.58,264.29 341.39,243.88 342.20,243.88 343.01,243.88 343.82,233.67 344.63,233.67 345.44,243.88 346.25,243.88 347.06,233.67 347.87,233.67 348.68,254.08 349.48,254.08 350.29,233.67 351.10,223.47 351.91,243.88 352.72,243.88 353.53,233.67 354.34,223.47 355.15,223.47 355.96,213.27 356.77,192.86 357.58,182.65 358.39,192.86 359.20,192.86 360.01,203.06 360.82,203.06 361.63,203.06 362.44,182.65 363.25,172.45 364.05,172.45 364.86,172.45 365.67,162.24 366.48,152.04 367.29,141.84 368.10,131.63 368.91,162.24 369.72,172.45 370.53,182.65 371.34,233.67 372.15,213.27 372.96,233.67 373.77,243.88 374.58,223.47 375.39,192.86 376.20,172.45 377.01,172.45 377.81,152.04 378.62,182.65 379.43,162.24 380.24,162.24 381.05,172.45 381.86,172.45 382.67,172.45 383.48,172.45 384.29,152.04 385.10,162.24 385.91,172.45 386.72,162.24 387.53,162.24 388.34,152.04 389.15,172.45 389.96,162.24 390.77,141.84 391.57,141.84 392.38,141.84 393.19,121.43 394.00,131.63 394.81,141.84 395.62,121.43 396.43,141.84 397.24,131.63 398.05,141.84 398.86,141.84 399.67,141.84 400.48,152.04 401.29,152.04 402.10,162.24 402.91,162.24 403.72,141.84 404.53,152.04 405.33,162.24 406.14,182.65 406.95,172.45 407.76,172.45 408.57,172.45 409.38,172.45 410.19,172.45 411.00,192.86 411.81,203.06 412.62,233.67 413.43,223.47 414.24,223.47 415.05,233.67 415.86,264.29 416.67,264.29 417.48,243.88 418.29,243.88 419.09,274.49 419.90,345.92 420.71,325.51 421.52,376.53 422.33,356.12 423.14,345.92 423.95,386.73 424.76,396.94 425.57,386.73 426.38,407.14 427.19,386.73 428.00,366.33 428.81,356.12 429.62,345.92 430.43,345.92 431.24,386.73 432.05,407.14 432.86,427.55 433.66,407.14 434.47,417.35 435.28,427.55 436.09,437.76 436.90,437.76 437.71,407.14 438.52,376.53 439.33,366.33 440.14,345.92 440.95,356.12 441.76,366.33 442.57,366.33 443.38,366.33 444.19,335.71 445.00,345.92 445.81,315.31 446.62,294.90 447.42,305.10 448.23,294.90 449.04,294.90 449.85,284.69 450.66,305.10 451.47,305.10 452.28,294.90 453.09,274.49 453.90,274.49 454.71,264.29 455.52,254.08 456.33,254.08 457.14,254.08 457.95,243.88 458.76,223.47 459.57,223.47 460.38,213.27 461.18,213.27 461.99,203.06 462.80,192.86 463.61,182.65 464.42,213.27 465.23,203.06 466.04,192.86 466.85,213.27 467.66,223.47 468.47,213.27 469.28,203.06 470.09,223.47 470.90,223.47 471.71,213.27 472.52,192.86 473.33,192.86 474.14,223.47 474.94,233.67 475.75,243.88 476.56,233.67 477.37,233.67 478.18,233.67 478.99,233.67 479.80,233.67 480.61,223.47 481.42,233.67 482.23,223.47 483.04,213.27 483.85,223.47 484.66,213.27 485.47,203.06 486.28,223.47 487.09,223.47 487.90,254.08 488.70,254.08 489.51,264.29 490.32,243.88 491.13,223.47 491.94,223.47 492.75,243.88 493.56,223.47 494.37,223.47 495.18,203.06 495.99,203.06 496.80,203.06 497.61,223.47 498.42,223.47 499.23,223.47 500.04,213.27 500.85,203.06 501.66,203.06 502.47,203.06 503.27,192.86 504.08,172.45 504.89,172.45 505.70,182.65 506.51,162.24 507.32,131.63 508.13,162.24 508.94,152.04 509.75,182.65 510.56,162.24 511.37,182.65 512.18,192.86 512.99,182.65 513.80,152.04 514.61,172.45 515.42,162.24 516.23,172.45 517.03,162.24 517.84,162.24 518.65,172.45 519.46,172.45 520.27,182.65 521.08,192.86 521.89,192.86 522.70,203.06 523.51,182.65 524.32,162.24 525.13,152.04 525.94,131.63 526.75,131.63 527.56,121.43 528.37,141.84 529.18,141.84 529.99,131.63 530.79,111.22 531.60,111.22 532.41,111.22 533.22,121.43 534.03,121.43 534.84,101.02 535.65,90.82 536.46,80.61 537.27,70.41 538.08,50.00 538.89,90.82 539.70,101.02 540.51,111.22 541.32,90.82 542.13,80.61 542.94,111.22 543.75,101.02 544.55,152.04 545.36,172.45 546.17,162.24 546.98,121.43 547.79,131.63 548.60,111.22 549.41,141.84 550.22,141.84 551.03,172.45 551.84,192.86 552.65,152.04 553.46,152.04 554.27,172.45 555.08,162.24 555.89,152.04 556.70,152.04 557.51,141.84 558.31,121.43 559.12,111.22 559.93,90.82 560.74,101.02 561.55,101.02 562.36,90.82 563.17,101.02 563.98,111.22 564.79,111.22 565.60,111.22 566.41,111.22 567.22,111.22 568.03,111.22 568.84,111.22 569.65,111.22 570.46,131.63 571.27,152.04 572.08,172.45 572.88,182.65 573.69,182.65 574.50,162.24 575.31,141.84 576.12,141.84 576.93,131.63 577.74,131.63 578.55,131.63 579.36,131.63 580.17,121.43 580.98,111.22 581.79,121.43 582.60,121.43 583.41,121.43 584.22,131.63 585.03,121.43 585.84,101.02 586.64,101.02 587.45,101.02 588.26,111.22 589.07,111.22 589.88,111.22 590.69,111.22 591.50,101.02 592.31,121.43 593.12,121.43 593.93,111.22 594.74,111.22 595.55,101.02 596.36,80.61 597.17,111.22 597.98,111.22 598.79,101.02 599.60,90.82 600.40,90.82 601.21,90.82 602.02,90.82 602.83,90.82 603.64,80.61 604.45,90.82 605.26,101.02 606.07,111.22 606.88,101.02 607.69,90.82 608.50,90.82 609.31,90.82 610.12,70.41 610.93,90.82 611.74,80.61 612.55,80.61 613.36,101.02 614.16,121.43 614.97,121.43 615.78,141.84 616.59,141.84 617.40,121.43 618.21,152.04 619.02,162.24 619.83,162.24 620.64,152.04 621.45,141.84 622.26,121.43 623.07,152.04 623.88,131.63 624.69,121.43 625.50,152.04 626.31,162.24 627.12,131.63 627.92,121.43 628.73,90.82 629.54,101.02 630.35,101.02 631.16,101.02 631.97,80.61 632.78,101.02 633.59,101.02 634.40,101.02 635.21,101.02 636.02,111.22 636.83,121.43 637.64,101.02 638.45,101.02 639.26,111.22 640.07,111.22 640.88,101.02 641.69,101.02 642.49,101.02 643.30,111.22 644.11,121.43 644.92,101.02 645.73,90.82 646.54,101.02 647.35,90.82 648.16,80.61 648.97,80.61 649.78,80.61 650.59,60.20 651.40,70.41 652.21,60.20 653.02,70.41 653.83,70.41 654.64,60.20 655.45,70.41 656.25,70.41 657.06,70.41 657.87,80.61 658.68,80.61 659.49,60.20 660.30,60.20 661.11,50.00 661.92,60.20 662.73,50.00 663.54,60.20 664.35,70.41 665.16,80.61 665.97,80.61 666.78,80.61 667.59,90.82 668.40,90.82 669.21,101.02 670.01,111.22 670.82,121.43 671.63,141.84 672.44,152.04 673.25,152.04 674.06,141.84 674.87,141.84 675.68,152.04 676.49,152.04 677.30,141.84 678.11,141.84 678.92,152.04 679.73,162.24 680.54,152.04 681.35,152.04 682.16,152.04 682.97,162.24 683.77,152.04 684.58,152.04 685.39,182.65 686.20,203.06 687.01,192.86 687.82,182.65 688.63,182.65 689.44,172.45 690.25,192.86 691.06,203.06 691.87,172.45 692.68,172.45 693.49,172.45 694.30,182.65 695.11,162.24 695.92,172.45 696.73,182.65 697.53,182.65 698.34,182.65 699.15,203.06 699.96,223.47 700.77,233.67 701.58,233.67 702.39,243.88 703.20,243.88 704.01,264.29 704.82,264.29 705.63,284.69 706.44,274.49 707.25,274.49 708.06,274.49 708.87,284.69 709.68,264.29 710.49,284.69 711.30,305.10 712.10,305.10 712.91,294.90 713.72,294.90 714.53,294.90 715.34,264.29 716.15,254.08 716.96,254.08 717.77,254.08 718.58,284.69 719.39,284.69 720.20,274.49 721.01,284.69 721.82,264.29 722.63,264.29 723.44,264.29 724.25,254.08 725.06,254.08 725.86,284.69 726.67,284.69 727.48,284.69 728.29,284.69 729.10,274.49 729.91,274.49 730.72,274.49 731.53,274.49 732.34,254.08 733.15,264.29 733.96,254.08 734.77,264.29 735.58,243.88 736.39,254.08 737.20,243.88 738.01,243.88 738.82,233.67 739.62,254.08 740.43,254.08 741.24,254.08 742.05,264.29 742.86,233.67 743.67,223.47 744.48,233.67 745.29,223.47 746.10,213.27 746.91,203.06 747.72,223.47 748.53,233.67 749.34,213.27 750.15,223.47 750.96,213.27 751.77,203.06 752.58,213.27 753.38,203.06 754.19,203.06 755.00,203.06 755.81,213.27 756.62,203.06 757.43,213.27 758.24,223.47 759.05,213.27 759.86,213.27 760.67,203.06 761.48,223.47 762.29,233.67 763.10,233.67 763.91,223.47 764.72,223.47 765.53,233.67 766.34,243.88 767.14,243.88 767.95,233.67 768.76,223.47 769.57,213.27 770.38,203.06 771.19,203.06 772.00,213.27 772.81,213.27 773.62,213.27 774.43,233.67 775.24,243.88 776.05,233.67 776.86,233.67 777.67,233.67 778.48,243.88 779.29,233.67 780.10,233.67 780.91,243.88 781.71,243.88 782.52,243.88 783.33,243.88 784.14,223.47 784.95,223.47 785.76,213.27 786.57,203.06 787.38,203.06 788.19,203.06 789.00,203.06 789.81,203.06 790.62,182.65 791.43,182.65 792.24,192.86 793.05,203.06 793.86,203.06 794.67,213.27 795.47,213.27 796.28,203.06 797.09,203.06 797.90,203.06 798.71,213.27 799.52,223.47 800.33,213.27 801.14,233.67 801.95,243.88 802.76,243.88 803.57,243.88 804.38,254.08 805.19,243.88 806.00,243.88 806.81,254.08 807.62,233.67 808.43,233.67 809.23,223.47 810.04,213.27 810.85,213.27 811.66,203.06 812.47,192.86 813.28,203.06 814.09,203.06 814.90,192.86 815.71,203.06 816.52,213.27 817.33,203.06 818.14,213.27 818.95,213.27 819.76,213.27 820.57,203.06 821.38,192.86 822.19,213.27 822.99,223.47 823.80,233.67 824.61,233.67 825.42,243.88 826.23,243.88 827.04,233.67 827.85,233.67 828.66,243.88 829.47,243.88 830.28,254.08 831.09,254.08 831.90,254.08 832.71,254.08 833.52,254.08 834.33,264.29 835.14,274.49 835.95,274.49 836.75,264.29 837.56,274.49 838.37,284.69 839.18,284.69 839.99,264.29 840.80,274.49 841.61,294.90 842.42,284.69 843.23,274.49 844.04,284.69 844.85,264.29 845.66,264.29 846.47,243.88 847.28,254.08 848.09,243.88 848.90,243.88 849.71,254.08 850.52,264.29 851.32,264.29 852.13,264.29 852.94,254.08 853.75,264.29 854.56,254.08 855.37,243.88 856.18,264.29 856.99,243.88 857.80,254.08 858.61,254.08 859.42,254.08 860.23,254.08 861.04,243.88 861.85,254.08 862.66,264.29 863.47,254.08 864.28,264.29 865.08,264.29 865.89,274.49 866.70,274.49 867.51,284.69 868.32,274.49 869.13,284.69 869.94,264.29 870.75,284.69 871.56,274.49 872.37,264.29 873.18,274.49 873.99,264.29 874.80,254.08 875.61,274.49 876.42,284.69 877.23,284.69 878.04,294.90 878.84,294.90 879.65,305.10 880.46,294.90 881.27,294.90 882.08,305.10 882.89,305.10 883.70,305.10 884.51,305.10 885.32,294.90 886.13,305.10 886.94,294.90 887.75,305.10 888.56,294.90 889.37,294.90 890.18,294.90 890.99,274.49 891.80,274.49 892.60,274.49 893.41,264.29 894.22,264.29 895.03,274.49 895.84,274.49 896.65,274.49 897.46,284.69 898.27,294.90 899.08,294.90 899.89,305.10 900.70,315.31 901.51,294.90 902.32,325.51 903.13,366.33 903.94,335.71 904.75,345.92 905.56,325.51 906.36,335.71 907.17,335.71 907.98,325.51 908.79,325.51 909.60,345.92 910.41,325.51 911.22,315.31 912.03,284.69 912.84,294.90 913.65,294.90 914.46,294.90 915.27,284.69 916.08,274.49 916.89,274.49 917.70,274.49 918.51,274.49 919.32,274.49 920.13,284.69 920.93,284.69 921.74,264.29 922.55,264.29 923.36,264.29 924.17,254.08 924.98,284.69 925.79,274.49 926.60,264.29 927.41,274.49 928.22,264.29 929.03,274.49 929.84,254.08 930.65,254.08 931.46,243.88 932.27,233.67 933.08,233.67 933.89,223.47 934.69,223.47 935.50,223.47 936.31,213.27 937.12,213.27 937.93,223.47 938.74,213.27 939.55,213.27 940.36,213.27 941.17,213.27 941.98,203.06 942.79,213.27 943.60,213.27 944.41,213.27 945.22,213.27 946.03,233.67 946.84,233.67 947.65,233.67 948.45,223.47 949.26,213.27 950.07,213.27 950.88,203.06 951.69,203.06 952.50,213.27 953.31,203.06 954.12,213.27 954.93,223.47 955.74,243.88 956.55,223.47 957.36,233.67 958.17,233.67 958.98,233.67 959.79,233.67 960.60,233.67 961.41,233.67 962.21,233.67 963.02,254.08 963.83,233.67 964.64,213.27 965.45,223.47 966.26,233.67 967.07,233.67 967.88,243.88 968.69,243.88 969.50,223.47 970.31,213.27 971.12,213.27 971.93,223.47 972.74,233.67 973.55,233.67 974.36,254.08 975.17,254.08 975.97,254.08 976.78,254.08 977.59,254.08 978.40,254.08 979.21,254.08 980.02,254.08 980.83,264.29 981.64,284.69 982.45,274.49 983.26,274.49 984.07,264.29 984.88,264.29 985.69,243.88 986.50,254.08 987.31,243.88 988.12,233.67 988.93,243.88 989.74,254.08 990.54,254.08 991.35,274.49 992.16,284.69 992.97,294.90 993.78,305.10 994.59,294.90 995.40,284.69 996.21,284.69 997.02,294.90 997.83,305.10 998.64,305.10 999.45,315.31 1000.26,315.31 1001.07,315.31 1001.88,305.10 1002.69,305.10 1003.50,315.31 1004.30,284.69 1005.11,315.31 1005.92,325.51 1006.73,325.51 1007.54,325.51 1008.35,335.71 1009.16,366.33 1009.97,376.53 1010.78,376.53 1011.59,376.53 1012.40,366.33 1013.21,356.12 1014.02,345.92 1014.83,325.51 1015.64,325.51 1016.45,315.31 1017.26,294.90 1018.06,294.90 1018.87,294.90 1019.68,305.10 1020.49,294.90 1021.30,305.10 1022.11,294.90 1022.92,284.69 1023.73,284.69 1024.54,305.10 1025.35,305.10 1026.16,315.31 1026.97,315.31 1027.78,315.31 1028.59,325.51 1029.40,305.10 1030.21,315.31 1031.02,305.10 1031.82,315.31 1032.63,315.31 1033.44,325.51 1034.25,315.31 1035.06,305.10 1035.87,315.31 1036.68,305.10 1037.49,325.51 1038.30,325.51 1039.11,325.51 1039.92,315.31 1040.73,325.51 1041.54,325.51 1042.35,315.31 1043.16,294.90 1043.97,315.31 1044.78,315.31 1045.58,325.51 1046.39,335.71 1047.20,345.92 1048.01,345.92 1048.82,345.92 1049.63,345.92 1050.44,345.92 1051.25,335.71 1052.06,335.71 1052.87,335.71 1053.68,345.92 1054.49,356.12 1055.30,356.12 1056.11,335.71 1056.92,345.92 1057.73,335.71 1058.54,325.51 1059.35,315.31 1060.15,325.51 1060.96,315.31 1061.77,305.10 1062.58,305.10 1063.39,315.31 1064.20,315.31 1065.01,325.51 1065.82,325.51 1066.63,325.51 1067.44,315.31 1068.25,325.51 1069.06,315.31 1069.87,325.51 1070.68,315.31 1071.49,325.51 1072.30,335.71 1073.11,335.71 1073.91,335.71 1074.72,345.92 1075.53,345.92 1076.34,345.92 1077.15,335.71 1077.96,335.71 1078.77,325.51 1079.58,325.51 1080.39,325.51 1081.20,325.51 1082.01,325.51 1082.82,325.51 1083.63,325.51 1084.44,325.51 1085.25,325.51 1086.06,335.71 1086.87,345.92 1087.67,335.71 1088.48,335.71 1089.29,325.51 1090.10,315.31 1090.91,315.31 1091.72,315.31 1092.53,315.31 1093.34,315.31 1094.15,305.10 1094.96,315.31 1095.77,325.51 1096.58,325.51 1097.39,335.71 1098.20,335.71 1099.01,335.71 1099.82,345.92 1100.63,356.12 1101.43,345.92 1102.24,356.12 1103.05,356.12 1103.86,366.33 1104.67,376.53 1105.48,376.53 1106.29,376.53 1107.10,376.53 1107.91,366.33 1108.72,376.53 1109.53,366.33 1110.34,366.33 1111.15,366.33 1111.96,376.53 1112.77,366.33 1113.58,366.33 1114.39,366.33 1115.19,366.33 1116.00,376.53 1116.81,356.12 1117.62,345.92 1118.43,335.71 1119.24,345.92 1120.05,345.92 1120.86,345.92 1121.67,335.71 1122.48,335.71 1123.29,335.71 1124.10,335.71 1124.91,335.71 1125.72,325.51 1126.53,325.51 1127.34,335.71 1128.15,335.71 1128.96,335.71 1129.76,345.92 1130.57,335.71 1131.38,345.92 1132.19,345.92 1133.00,345.92 1133.81,345.92 1134.62,335.71 1135.43,345.92 1136.24,356.12 1137.05,356.12 1137.86,366.33 1138.67,366.33 1139.48,356.12 1140.29,366.33 1141.10,376.53 1141.91,366.33 1142.72,376.53 1143.52,366.33 1144.33,356.12 1145.14,356.12 1145.95,356.12 1146.76,356.12 1147.57,356.12 1148.38,366.33 1149.19,356.12 1150.00,345.92" fill="none" stroke="#2f6fb0" stroke-width="2" />
  <text x="50.00" y="575.0" font-size="12" text-anchor="middle" fill="#444">2000</text>
  <text x="261.26" y="575.0" font-size="12" text-anchor="middle" fill="#444">2005</text>
  <text x="471.71" y="575.0" font-size="12" text-anchor="middle" fill="#444">2010</text>
  <text x="682.97" y="575.0" font-size="12" text-anchor="middle" fill="#444">2015</text>
  <text x="894.22" y="575.0" font-size="12" text-anchor="middle" fill="#444">2020</text>
  <text x="1105.48" y="575.0" font-size="12" text-anchor="middle" fill="#444">2025</text>
  <text x="600.0" y="590" font-size="14" text-anchor="middle" fill="#222">Year</text>
  <text x="20" y="300.0" font-size="14" text-anchor="middle" fill="#222" transform="rotate(-90, 20, 300.0)">Exchange Rate</text>
  <text x="50" y="50" font-size="12" fill="#444">Max: 0.8800</text>
  <text x="50" y="66" font-size="12" fill="#444">Min: 0.3900</text>
</svg>
