<svg xmlns="http://www.w3.org/2000/svg" width="1200" height="600">
  <rect width="100%" height="100%" fill="white" />
  <text x="600.0" y="25.0" font-size="20" text-anchor="middle" fill="#222">RUBUSD Weekly Exchange Rate</text>
  <polyline points="50.00,50.00 50.81,216.67 51.62,50.00 52.43,216.67 53.24,216.67 54.05,216.67 54.86,216.67 55.67,216.67 56.48,216.67 57.28,50.00 58.09,50.00 58.90,50.00 59.71,216.67 60.52,216.67 61.33,50.00 62.14,216.67 62.95,50.00 63.76,50.00 64.57,50.00 65.38,50.00 66.19,50.00 67.00,50.00 67.81,50.00 68.62,50.00 69.43,50.00 70.24,50.00 71.04,50.00 71.85,50.00 72.66,50.00 73.47,50.00 74.28,50.00 75.09,50.00 75.90,50.00 76.71,50.00 77.52,50.00 78.33,50.00 79.14,50.00 79.95,50.00 80.76,50.00 81.57,50.00 82.38,50.00 83.19,50.00 84.00,50.00 84.81,50.00 85.61,50.00 86.42,50.00 87.23,50.00 88.04,50.00 88.85,50.00 89.66,50.00 90.47,50.00 91.28,50.00 92.09,50.00 92.90,50.00 93.71,50.00 94.52,50.00 95.33,50.00 96.14,216.67 96.95,216.67 97.76,216.67 98.57,216.67 99.37,216.67 100.18,216.67 100.99,216.67 101.80,216.67 102.61,216.67 103.42,216.67 104.23,216.67 105.04,216.67 105.85,216.67 106.66,216.67 107.47,216.67 108.28,216.67 109.09,216.67 109.90,216.67 110.71,216.67 111.52,216.67 112.33,216.67 113.13,216.67 113.94,216.67 114.75,216.67 115.56,216.67 116.37,216.67 117.18,216.67 117.99,216.67 118.80,216.67 119.61,216.67 120.42,216.67 121.23,216.67 122.04,216.67 122.85,216.67 123.66,216.67 124.47,216.67 125.28,216.67 126.09,216.67 126.89,216.67 127.70,216.67 128.51,216.67 129.32,216.67 130.13,216.67 130.94,216.67 131.75,216.67 132.56,216.67 133.37,216.67 134.18,216.67 134.99,216.67 135.80,216.67 136.61,216.67 137.42,216.67 138.23,216.67 139.04,216.67 139.85,216.67 140.65,216.67 141.46,216.67 142.27,216.67 143.08,216.67 143.89,216.67 144.70,216.67 145.51,216.67 146.32,216.67 147.13,216.67 147.94,216.67 148.75,216.67 149.56,216.67 150.37,216.67 151.18,216.67 151.99,216.67 152.80,216.67 153.61,216.67 154.42,216.67 155.22,216.67 156.03,216.67 156.84,216.67 157.65,216.67 158.46,216.67 159.27,216.67 160.08,216.67 160.89,216.67 161.70,216.67 162.51,216.67 163.32,216.67 164.13,216.67 164.94,216.67 165.75,216.67 166.56,216.67 167.37,216.67 168.18,216.67 168.98,216.67 169.79,216.67 170.60,216.67 171.41,216.67 172.22,216.67 173.03,216.67 173.84,216.67 174.65,216.67 175.46,216.67 176.27,216.67 177.08,216.67 177.89,216.67 178.70,216.67 179.51,216.67 180.32,216.67 181.13,216.67 181.94,216.67 182.74,216.67 183.55,216.67 184.36,216.67 185.17,216.67 185.98,216.67 186.79,216.67 187.60,216.67 188.41,216.67 189.22,216.67 190.03,216.67 190.84,216.67 191.65,216.67 192.46,216.67 193.27,216.67 194.08,216.67 194.89,216.67 195.70,216.67 196.50,216.67 197.31,216.67 198.12,216.67 198.93,216.67 199.74,216.67 200.55,216.67 201.36,216.67 202.17,216.67 202.98,216.67 203.79,216.67 204.60,216.67 205.41,216.67 206.22,216.67 207.03,216.67 207.84,216.67 208.65,216.67 209.46,216.67 210.26,216.67 211.07,216.67 211.88,216.67 212.69,216.67 213.50,216.67 214.31,216.67 215.12,216.67 215.93,216.67 216.74,216.67 217.55,216.67 218.36,216.67 219.17,216.67 219.98,216.67 220.79,50.00 221.60,50.00 222.41,50.00 223.22,50.00 224.03,50.00 224.83,50.00 225.64,216.67 226.45,50.00 227.26,50.00 228.07,50.00 228.88,50.00 229.69,50.00 230.50,216.67 231.31,216.67 232.12,216.67 232.93,216.67 233.74,216.67 234.55,216.67 235.36,216.67 236.17,216.67 236.98,216.67 237.79,216.67 238.59,216.67 239.40,216.67 240.21,216.67 241.02,216.67 241.83,216.67 242.64,216.67 243.45,216.67 244.26,216.67 245.07,216.67 245.88,216.67 246.69,216.67 247.50,216.67 248.31,216.67 249.12,216.67 249.93,216.67 250.74,216.67 251.55,216.67 252.35,216.67 253.16,216.67 253.97,216.67 254.78,216.67 255.59,50.00 256.40,50.00 257.21,50.00 258.02,50.00 258.83,50.00 259.64,50.00 260.45,50.00 261.26,50.00 262.07,50.00 262.88,50.00 263.69,50.00 264.50,50.00 265.31,50.00 266.11,50.00 266.92,50.00 267.73,50.00 268.54,50.00 269.35,50.00 270.16,50.00 270.97,50.00 271.78,50.00 272.59,50.00 273.40,50.00 274.21,50.00 275.02,50.00 275.83,50.00 276.64,50.00 277.45,50.00 278.26,50.00 279.07,50.00 279.87,50.00 280.68,216.67 281.49,216.67 282.30,216.67 283.11,216.67 283.92,216.67 284.73,216.67 285.54,50.00 286.35,50.00 287.16,50.00 287.97,50.00 288.78,50.00 289.59,50.00 290.40,50.00 291.21,50.00 292.02,50.00 292.83,50.00 293.64,50.00 294.44,216.67 295.25,50.00 296.06,50.00 296.87,216.67 297.68,216.67 298.49,216.67 299.30,216.67 300.11,216.67 300.92,216.67 301.73,216.67 302.54,216.67 303.35,216.67 304.16,50.00 304.97,50.00 305.78,50.00 306.59,50.00 307.40,50.00 308.20,50.00 309.01,50.00 309.82,50.00 310.63,50.00 311.44,50.00 312.25,50.00 313.06,50.00 313.87,50.00 314.68,50.00 315.49,50.00 316.30,50.00 317.11,50.00 317.92,50.00 318.73,50.00 319.54,50.00 320.35,50.00 321.16,50.00 321.96,50.00 322.77,50.00 323.58,50.00 324.39,50.00 325.20,50.00 326.01,50.00 326.82,50.00 327.63,50.00 328.44,50.00 329.25,50.00 330.06,50.00 330.87,50.00 331.68,50.00 332.49,50.00 333.30,50.00 334.11,50.00 334.92,50.00 335.72,50.00 336.53,50.00 337.34,50.00 338.15,50.00 338.96,50.00 339.77,50.00 340.58,50.00 341.39,50.00 342.20,50.00 343.01,50.00 343.82,50.00 344.63,50.00 345.44,50.00 346.25,50.00 347.06,50.00 347.87,50.00 348.68,50.00 349.48,50.00 350.29,50.00 351.10,50.00 351.91,50.00 352.72,50.00 353.53,50.00 354.34,50.00 355.15,50.00 355.96,50.00 356.77,50.00 357.58,50.00 358.39,50.00 359.20,50.00 360.01,50.00 360.82,50.00 361.63,50.00 362.44,50.00 363.25,50.00 364.05,50.00 364.86,50.00 365.67,50.00 366.48,50.00 367.29,50.00 368.10,50.00 368.91,50.00 369.72,50.00 370.53,50.00 371.34,50.00 372.15,50.00 372.96,50.00 373.77,50.00 374.58,50.00 375.39,50.00 376.20,50.00 377.01,50.00 377.81,50.00 378.62,50.00 379.43,50.00 380.24,50.00 381.05,50.00 381.86,50.00 382.67,50.00 383.48,50.00 384.29,50.00 385.10,50.00 385.91,50.00 386.72,50.00 387.53,50.00 388.34,50.00 389.15,50.00 389.96,50.00 390.77,50.00 391.57,50.00 392.38,50.00 393.19,50.00 394.00,50.00 394.81,50.00 395.62,50.00 396.43,50.00 397.24,50.00 398.05,50.00 398.86,50.00 399.67,50.00 400.48,50.00 401.29,50.00 402.10,50.00 402.91,50.00 403.72,50.00 404.53,50.00 405.33,50.00 406.14,50.00 406.95,50.00 407.76,50.00 408.57,50.00 409.38,50.00 410.19,50.00 411.00,50.00 411.81,50.00 412.62,50.00 413.43,50.00 414.24,50.00 415.05,50.00 415.86,50.00 416.67,50.00 417.48,50.00 418.29,50.00 419.09,50.00 419.90,50.00 420.71,50.00 421.52,50.00 422.33,50.00 423.14,50.00 423.95,50.00 424.76,50.00 425.57,50.00 426.38,50.00 427.19,50.00 428.00,50.00 428.81,216.67 429.62,216.67 430.43,216.67 431.24,216.67 432.05,216.67 432.86,216.67 433.66,216.67 434.47,216.67 435.28,216.67 436.09,216.67 436.90,216.67 437.71,216.67 438.52,216.67 439.33,216.67 440.14,216.67 440.95,216.67 441.76,216.67 442.57,216.67 443.38,216.67 444.19,216.67 445.00,216.67 445.81,216.67 446.62,216.67 447.42,216.67 448.23,216.67 449.04,216.67 449.85,216.67 450.66,216.67 451.47,216.67 452.28,216.67 453.09,216.67 453.90,216.67 454.71,216.67 455.52,216.67 456.33,216.67 457.14,216.67 457.95,216.67 458.76,216.67 459.57,216.67 460.38,216.67 461.18,216.67 461.99,216.67 462.80,216.67 463.61,216.67 464.42,216.67 465.23,216.67 466.04,216.67 466.85,216.67 467.66,216.67 468.47,216.67 469.28,216.67 470.09,216.67 470.90,216.67 471.71,216.67 472.52,216.67 473.33,216.67 474.14,216.67 474.94,216.67 475.75,216.67 476.56,216.67 477.37,216.67 478.18,216.67 478.99,216.67 479.80,216.67 480.61,216.67 481.42,216.67 482.23,216.67 483.04,216.67 483.85,216.67 484.66,216.67 485.47,216.67 486.28,216.67 487.09,216.67 487.90,216.67 488.70,216.67 489.51,216.67 490.32,216.67 491.13,216.67 491.94,216.67 492.75,216.67 493.56,216.67 494.37,216.67 495.18,216.67 495.99,216.67 496.80,216.67 497.61,216.67 498.42,216.67 499.23,216.67 500.04,216.67 500.85,216.67 501.66,216.67 502.47,216.67 503.27,216.67 504.08,216.67 504.89,216.67 505.70,216.67 506.51,216.67 507.32,216.67 508.13,216.67 508.94,216.67 509.75,216.67 510.56,216.67 511.37,216.67 512.18,216.67 512.99,216.67 513.80,216.67 514.61,216.67 515.42,216.67 516.23,216.67 517.03,216.67 517.84,216.67 518.65,216.67 519.46,216.67 520.27,216.67 521.08,50.00 521.89,216.67 522.70,50.00 523.51,50.00 524.32,50.00 525.13,50.00 525.94,50.00 526.75,50.00 527.56,50.00 528.37,50.00 529.18,50.00 529.99,50.00 530.79,50.00 531.60,50.00 532.41,50.00 533.22,50.00 534.03,50.00 534.84,50.00 535.65,50.00 536.46,50.00 537.27,50.00 538.08,50.00 538.89,50.00 539.70,216.67 540.51,216.67 541.32,216.67 542.13,216.67 542.94,216.67 543.75,216.67 544.55,216.67 545.36,216.67 546.17,216.67 546.98,216.67 547.79,216.67 548.60,216.67 549.41,216.67 550.22,216.67 551.03,216.67 551.84,216.67 552.65,216.67 553.46,216.67 554.27,216.67 555.08,216.67 555.89,216.67 556.70,216.67 557.51,216.67 558.31,216.67 559.12,216.67 559.93,216.67 560.74,216.67 561.55,216.67 562.36,216.67 563.17,216.67 563.98,216.67 564.79,216.67 565.60,216.67 566.41,216.67 567.22,216.67 568.03,216.67 568.84,216.67 569.65,216.67 570.46,216.67 571.27,216.67 572.08,216.67 572.88,216.67 573.69,216.67 574.50,216.67 575.31,216.67 576.12,216.67 576.93,216.67 577.74,216.67 578.55,216.67 579.36,216.67 580.17,216.67 580.98,216.67 581.79,216.67 582.60,216.67 583.41,216.67 584.22,216.67 585.03,216.67 585.84,216.67 586.64,216.67 587.45,216.67 588.26,216.67 589.07,216.67 589.88,216.67 590.69,216.67 591.50,216.67 592.31,216.67 593.12,216.67 593.93,216.67 594.74,216.67 595.55,216.67 596.36,216.67 597.17,216.67 597.98,216.67 598.79,216.67 599.60,216.67 600.40,216.67 601.21,216.67 602.02,216.67 602.83,216.67 603.64,216.67 604.45,216.67 605.26,216.67 606.07,216.67 606.88,216.67 607.69,216.67 608.50,216.67 609.31,216.67 610.12,216.67 610.93,216.67 611.74,216.67 612.55,216.67 613.36,216.67 614.16,216.67 614.97,216.67 615.78,216.67 616.59,216.67 617.40,216.67 618.21,216.67 619.02,216.67 619.83,216.67 620.64,216.67 621.45,216.67 622.26,216.67 623.07,216.67 623.88,216.67 624.69,216.67 625.50,216.67 626.31,216.67 627.12,216.67 627.92,216.67 628.73,216.67 629.54,216.67 630.35,216.67 631.16,216.67 631.97,216.67 632.78,216.67 633.59,216.67 634.40,216.67 635.21,216.67 636.02,216.67 636.83,216.67 637.64,216.67 638.45,216.67 639.26,216.67 640.07,216.67 640.88,216.67 641.69,216.67 642.49,216.67 643.30,216.67 644.11,216.67 644.92,216.67 645.73,216.67 646.54,216.67 647.35,216.67 648.16,216.67 648.97,216.67 649.78,216.67 650.59,216.67 651.40,216.67 652.21,216.67 653.02,216.67 653.83,216.67 654.64,216.67 655.45,216.67 656.25,216.67 657.06,216.67 657.87,216.67 658.68,216.67 659.49,216.67 660.30,216.67 661.11,216.67 661.92,216.67 662.73,216.67 663.54,216.67 664.35,216.67 665.16,216.67 665.97,216.67 666.78,216.67 667.59,216.67 668.40,216.67 669.21,216.67 670.01,216.67 670.82,216.67 671.63,216.67 672.44,383.33 673.25,383.33 674.06,383.33 674.87,383.33 675.68,383.33 676.49,383.33 677.30,383.33 678.11,383.33 678.92,383.33 679.73,383.33 680.54,383.33 681.35,383.33 682.16,383.33 682.97,383.33 683.77,383.33 684.58,383.33 685.39,383.33 686.20,550.00 687.01,383.33 687.82,383.33 688.63,383.33 689.44,383.33 690.25,383.33 691.06,383.33 691.87,383.33 692.68,383.33 693.49,383.33 694.30,383.33 695.11,383.33 695.92,383.33 696.73,383.33 697.53,383.33 698.34,383.33 699.15,383.33 699.96,383.33 700.77,383.33 701.58,383.33 702.39,383.33 703.20,383.33 704.01,383.33 704.82,383.33 705.63,383.33 706.44,383.33 707.25,383.33 708.06,383.33 708.87,383.33 709.68,550.00 710.49,383.33 711.30,550.00 712.10,550.00 712.91,383.33 713.72,383.33 714.53,383.33 715.34,383.33 716.15,383.33 716.96,383.33 717.77,383.33 718.58,383.33 719.39,383.33 720.20,383.33 721.01,383.33 721.82,550.00 722.63,550.00 723.44,550.00 724.25,550.00 725.06,550.00 725.86,550.00 726.67,550.00 727.48,550.00 728.29,550.00 729.10,550.00 729.91,550.00 730.72,550.00 731.53,550.00 732.34,550.00 733.15,550.00 733.96,550.00 734.77,550.00 735.58,550.00 736.39,550.00 737.20,383.33 738.01,383.33 738.82,383.33 739.62,383.33 740.43,383.33 741.24,383.33 742.05,383.33 742.86,383.33 743.67,383.33 744.48,383.33 745.29,383.33 746.10,383.33 746.91,383.33 747.72,383.33 748.53,383.33 749.34,383.33 750.15,383.33 750.96,383.33 751.77,383.33 752.58,383.33 753.38,383.33 754.19,383.33 755.00,383.33 755.81,383.33 756.62,383.33 757.43,383.33 758.24,383.33 759.05,383.33 759.86,383.33 760.67,383.33 761.48,383.33 762.29,383.33 763.10,383.33 763.91,383.33 764.72,383.33 765.53,383.33 766.34,383.33 767.14,383.33 767.95,383.33 768.76,383.33 769.57,383.33 770.38,383.33 771.19,383.33 772.00,383.33 772.81,383.33 773.62,383.33 774.43,383.33 775.24,383.33 776.05,383.33 776.86,383.33 777.67,383.33 778.48,383.33 779.29,383.33 780.10,383.33 780.91,383.33 781.71,383.33 782.52,383.33 783.33,383.33 784.14,383.33 784.95,383.33 785.76,383.33 786.57,383.33 787.38,383.33 788.19,383.33 789.00,383.33 789.81,383.33 790.62,383.33 791.43,383.33 792.24,383.33 793.05,383.33 793.86,383.33 794.67,383.33 795.47,383.33 796.28,383.33 797.09,383.33 797.90,383.33 798.71,383.33 799.52,383.33 800.33,383.33 801.14,383.33 801.95,383.33 802.76,383.33 803.57,383.33 804.38,383.33 805.19,383.33 806.00,383.33 806.81,383.33 807.62,383.33 808.43,383.33 809.23,383.33 810.04,383.33 810.85,383.33 811.66,383.33 812.47,383.33 813.28,383.33 814.09,383.33 814.90,383.33 815.71,383.33 816.52,383.33 817.33,383.33 818.14,383.33 818.95,383.33 819.76,383.33 820.57,383.33 821.38,383.33 822.19,383.33 822.99,383.33 823.80,383.33 824.61,383.33 825.42,383.33 826.23,383.33 827.04,383.33 827.85,383.33 828.66,383.33 829.47,383.33 830.28,383.33 831.09,383.33 831.90,383.33 832.71,383.33 833.52,383.33 834.33,383.33 835.14,550.00 835.95,550.00 836.75,550.00 837.56,550.00 838.37,550.00 839.18,550.00 839.99,383.33 840.80,383.33 841.61,383.33 842.42,383.33 843.23,383.33 844.04,383.33 844.85,383.33 845.66,550.00 846.47,383.33 847.28,383.33 848.09,550.00 848.90,383.33 849.71,383.33 850.52,550.00 851.32,550.00 852.13,550.00 852.94,383.33 853.75,383.33 854.56,383.33 855.37,383.33 856.18,383.33 856.99,383.33 857.80,383.33 858.61,383.33 859.42,383.33 860.23,383.33 861.04,383.33 861.85,383.33 862.66,383.33 863.47,383.33 864.28,383.33 865.08,383.33 865.89,383.33 866.70,383.33 867.51,383.33 868.32,383.33 869.13,383.33 869.94,383.33 870.75,383.33 871.56,383.33 872.37,383.33 873.18,383.33 873.99,383.33 874.80,383.33 875.61,383.33 876.42,383.33 877.23,383.33 878.04,383.33 878.84,383.33 879.65,383.33 880.46,383.33 881.27,383.33 882.08,383.33 882.89,383.33 883.70,383.33 884.51,383.33 885.32,383.33 886.13,383.33 886.94,383.33 887.75,383.33 888.56,383.33 889.37,383.33 890.18,383.33 890.99,383.33 891.80,383.33 892.60,383.33 893.41,383.33 894.22,383.33 895.03,383.33 895.84,383.33 896.65,383.33 897.46,383.33 898.27,383.33 899.08,383.33 899.89,383.33 900.70,383.33 901.51,550.00 902.32,550.00 903.13,550.00 903.94,550.00 904.75,550.00 905.56,550.00 906.36,550.00 907.17,550.00 907.98,550.00 908.79,550.00 909.60,550.00 910.41,550.00 911.22,550.00 912.03,550.00 912.84,550.00 913.65,550.00 914.46,550.00 915.27,550.00 916.08,550.00 916.89,550.00 917.70,550.00 918.51,550.00 919.32,550.00 920.13,550.00 920.93,550.00 921.74,550.00 922.55,550.00 923.36,550.00 924.17,550.00 924.98,550.00 925.79,550.00 926.60,550.00 927.41,550.00 928.22,550.00 929.03,550.00 929.84,550.00 930.65,550.00 931.46,550.00 932.27,550.00 933.08,550.00 933.89,550.00 934.69,550.00 935.50,550.00 936.31,550.00 937.12,550.00 937.93,550.00 938.74,550.00 939.55,550.00 940.36,550.00 941.17,550.00 941.98,550.00 942.79,550.00 943.60,550.00 944.41,550.00 945.22,550.00 946.03,550.00 946.84,550.00 947.65,550.00 948.45,550.00 949.26,550.00 950.07,550.00 950.88,550.00 951.69,550.00 952.50,550.00 953.31,550.00 954.12,550.00 954.93,550.00 955.74,550.00 956.55,550.00 957.36,550.00 958.17,550.00 958.98,550.00 959.79,550.00 960.60,550.00 961.41,550.00 962.21,550.00 963.02,550.00 963.83,550.00 964.64,550.00 965.45,550.00 966.26,550.00 967.07,550.00 967.88,550.00 968.69,550.00 969.50,550.00 970.31,550.00 971.12,550.00 971.93,550.00 972.74,550.00 973.55,550.00 974.36,550.00 975.17,550.00 975.97,550.00 976.78,550.00 977.59,550.00 978.40,550.00 979.21,550.00 980.02,550.00 980.83,550.00 981.64,550.00 982.45,550.00 983.26,550.00 984.07,550.00 984.88,550.00 985.69,550.00 986.50,550.00 987.31,550.00 988.12,550.00 988.93,550.00 989.74,550.00 990.54,550.00 991.35,550.00 992.16,550.00 992.97,550.00 993.78,383.33 994.59,383.33 995.40,383.33 996.21,383.33 997.02,383.33 997.83,383.33 998.64,383.33 999.45,383.33 1000.26,383.33 1001.07,383.33 1001.88,383.33 1002.69,383.33 1003.50,383.33 1004.30,383.33 1005.11,383.33 1005.92,383.33 1006.73,383.33 1007.54,383.33 1008.35,383.33 1009.16,383.33 1009.97,383.33 1010.78,383.33 1011.59,383.33 1012.40,383.33 1013.21,383.33 1014.02,383.33 1014.83,383.33 1015.64,383.33 1016.45,383.33 1017.26,383.33 1018.06,383.33 1018.87,383.33 1019.68,550.00 1020.49,550.00 1021.30,550.00 1022.11,550.00 1022.92,550.00 1023.73,550.00 1024.54,550.00 1025.35,550.00 1026.16,550.00 1026.97,550.00 1027.78,550.00 1028.59,550.00 1029.40,550.00 1030.21,550.00 1031.02,550.00 1031.82,550.00 1032.63,550.00 1033.44,550.00 1034.25,550.00 1035.06,550.00 1035.87,550.00 1036.68,550.00 1037.49,550.00 1038.30,550.00 1039.11,550.00 1039.92,550.00 1040.73,550.00 1041.54,550.00 1042.35,550.00 1043.16,550.00 1043.97,550.00 1044.78,550.00 1045.58,550.00 1046.39,550.00 1047.20,550.00 1048.01,550.00 1048.82,550.00 1049.63,550.00 1050.44,550.00 1051.25,550.00 1052.06,550.00 1052.87,550.00 1053.68,550.00 1054.49,550.00 1055.30,550.00 1056.11,550.00 1056.92,550.00 1057.73,550.00 1058.54,550.00 1059.35,550.00 1060.15,550.00 1060.96,550.00 1061.77,550.00 1062.58,550.00 1063.39,550.00 1064.20,550.00 1065.01,550.00 1065.82,550.00 1066.63,550.00 1067.44,550.00 1068.25,550.00 1069.06,550.00 1069.87,550.00 1070.68,550.00 1071.49,550.00 1072.30,550.00 1073.11,550.00 1073.91,550.00 1074.72,550.00 1075.53,550.00 1076.34,550.00 1077.15,550.00 1077.96,550.00 1078.77,550.00 1079.58,550.00 1080.39,550.00 1081.20,550.00 1082.01,550.00 1082.82,550.00 1083.63,550.00 1084.44,550.00 1085.25,550.00 1086.06,550.00 1086.87,550.00 1087.67,550.00 1088.48,550.00 1089.29,550.00 1090.10,550.00 1090.91,550.00 1091.72,550.00 1092.53,550.00 1093.34,550.00 1094.15,550.00 1094.96,550.00 1095.77,550.00 1096.58,550.00 1097.39,550.00 1098.20,550.00 1099.01,550.00 1099.82,550.00 1100.63,550.00 1101.43,550.00 1102.24,550.00 1103.05,550.00 1103.86,550.00 1104.67,550.00 1105.48,550.00 1106.29,550.00 1107.10,550.00 1107.91,550.00 1108.72,550.00 1109.53,550.00 1110.34,550.00 1111.15,550.00 1111.96,550.00 1112.77,550.00 1113.58,550.00 1114.39,550.00 1115.19,550.00 1116.00,550.00 1116.81,550.00 1117.62,550.00 1118.43,550.00 1119.24,550.00 1120.05,550.00 1120.86,550.00 1121.67,550.00 1122.48,550.00 1123.29,550.00 1124.10,550.00 1124.91,550.00 1125.72,550.00 1126.53,550.00 1127.34,550.00 1128.15,550.00 1128.96,550.00 1129.76,550.00 1130.57,550.00 1131.38,550.00 1132.19,550.00 1133.00,550.00 1133.81,550.00 1134.62,550.00 1135.43,550.00 1136.24,550.00 1137.05,550.00 1137.86,550.00 1138.67,550.00 1139.48,550.00 1140.29,550.00 1141.10,550.00 1141.91,550.00 1142.72,550.00 1143.52,550.00 1144.33,550.00 1145.14,550.00 1145.95,550.00 1146.76,550.00 1147.57,550.00 1148.38,550.00 1149.19,550.00 1150.00,550.00" fill="none" stroke="#2f6fb0" stroke-width="2" />
  <text x="50.00" y="575.0" font-size="12" text-anchor="middle" fill="#444">2000</text>
  <text x="261.26" y="575.0" font-size="12" text-anchor="middle" fill="#444">2005</text>
  <text x="471.71" y="575.0" font-size="12" text-anchor="middle" fill="#444">2010</text>
  <text x="682.97" y="575.0" font-size="12" text-anchor="middle" fill="#444">2015</text>
  <text x="894.22" y="575.0" font-size="12" text-anchor="middle" fill="#444">2020</text>
  <text x="1105.48" y="575.0" font-size="12" text-anchor="middle" fill="#444">2025</text>
  <text x="600.0" y="590" font-size="14" text-anchor="middle" fill="#222">Year</text>
  <text x="20" y="300.0" font-size="14" text-anchor="middle" fill="#222" transform="rotate(-90, 20, 300.0)">Exchange Rate</text>
  <text x="50" y="50" font-size="12" fill="#444">Max: 0.0400</text>
  <text x="50" y="66" font-size="12" fill="#444">Min: 0.0100</text>
</svg>
