<svg xmlns="http://www.w3.org/2000/svg" width="1200" height="600">
  <rect width="100%" height="100%" fill="white" />
  <text x="600.0" y="25.0" font-size="20" text-anchor="middle" fill="#222">TRYUSD Weekly Exchange Rate</text>
  <polyline points="50.00,50.00 50.81,58.20 51.62,58.20 52.43,66.39 53.24,69.13 54.05,71.86 54.86,74.59 55.67,77.32 56.48,82.79 57.28,82.79 58.09,82.79 58.90,88.25 59.71,90.98 60.52,93.72 61.33,96.45 62.14,101.91 62.95,107.38 63.76,112.84 64.57,112.84 65.38,118.31 66.19,112.84 67.00,112.84 67.81,110.11 68.62,110.11 69.43,118.31 70.24,112.84 71.04,118.31 71.85,121.04 72.66,121.04 73.47,126.50 74.28,131.97 75.09,131.97 75.90,131.97 76.71,134.70 77.52,137.43 78.33,142.90 79.14,148.36 79.95,142.90 80.76,145.63 81.57,148.36 82.38,151.09 83.19,153.83 84.00,156.56 84.81,151.09 85.61,153.83 86.42,159.29 87.23,162.02 88.04,159.29 88.85,153.83 89.66,153.83 90.47,148.36 91.28,145.63 92.09,142.90 92.90,145.63 93.71,151.09 94.52,153.83 95.33,151.09 96.14,153.83 96.95,156.56 97.76,304.10 98.57,263.11 99.37,268.58 100.18,284.97 100.99,279.51 101.80,293.17 102.61,328.69 103.42,334.15 104.23,334.15 105.04,315.03 105.85,315.03 106.66,317.76 107.47,309.56 108.28,309.56 109.09,317.76 109.90,320.49 110.71,325.96 111.52,342.35 112.33,336.89 113.13,350.55 113.94,350.55 114.75,350.55 115.56,350.55 116.37,353.28 117.18,358.74 117.99,364.21 118.80,366.94 119.61,356.01 120.42,361.48 121.23,372.40 122.04,377.87 122.85,377.87 123.66,383.33 124.47,383.33 125.28,388.80 126.09,386.07 126.89,380.60 127.70,380.60 128.51,375.14 129.32,372.40 130.13,369.67 130.94,366.94 131.75,366.94 132.56,372.40 133.37,366.94 134.18,361.48 134.99,361.48 135.80,353.28 136.61,350.55 137.42,347.81 138.23,358.74 139.04,353.28 139.85,358.74 140.65,358.74 141.46,356.01 142.27,353.28 143.08,353.28 143.89,353.28 144.70,347.81 145.51,345.08 146.32,345.08 147.13,356.01 147.94,358.74 148.75,358.74 149.56,369.67 150.37,361.48 151.18,366.94 151.99,369.67 152.80,383.33 153.61,380.60 154.42,383.33 155.22,386.07 156.03,391.53 156.84,391.53 157.65,394.26 158.46,388.80 159.27,388.80 160.08,388.80 160.89,388.80 161.70,388.80 162.51,388.80 163.32,391.53 164.13,391.53 164.94,391.53 165.75,388.80 166.56,388.80 167.37,391.53 168.18,394.26 168.98,394.26 169.79,386.07 170.60,386.07 171.41,383.33 172.22,377.87 173.03,380.60 173.84,377.87 174.65,388.80 175.46,391.53 176.27,388.80 177.08,391.53 177.89,391.53 178.70,391.53 179.51,388.80 180.32,388.80 181.13,391.53 181.94,386.07 182.74,383.33 183.55,386.07 184.36,388.80 185.17,396.99 185.98,394.26 186.79,391.53 187.60,388.80 188.41,386.07 189.22,383.33 190.03,377.87 190.84,372.40 191.65,375.14 192.46,369.67 193.27,364.21 194.08,364.21 194.89,364.21 195.70,364.21 196.50,364.21 197.31,358.74 198.12,358.74 198.93,361.48 199.74,361.48 200.55,364.21 201.36,361.48 202.17,358.74 202.98,358.74 203.79,361.48 204.60,358.74 205.41,356.01 206.22,356.01 207.03,356.01 207.84,358.74 208.65,358.74 209.46,366.94 210.26,372.40 211.07,372.40 211.88,372.40 212.69,369.67 213.50,369.67 214.31,369.67 215.12,366.94 215.93,364.21 216.74,364.21 217.55,361.48 218.36,358.74 219.17,353.28 219.98,353.28 220.79,350.55 221.60,350.55 222.41,350.55 223.22,347.81 224.03,350.55 224.83,350.55 225.64,347.81 226.45,347.81 227.26,347.81 228.07,347.81 228.88,347.81 229.69,350.55 230.50,353.28 231.31,358.74 232.12,364.21 232.93,375.14 233.74,377.87 234.55,377.87 235.36,372.40 236.17,372.40 236.98,372.40 237.79,372.40 238.59,372.40 239.40,366.94 240.21,366.94 241.02,364.21 241.83,369.67 242.64,369.67 243.45,366.94 244.26,369.67 245.07,369.67 245.88,375.14 246.69,375.14 247.50,372.40 248.31,375.14 249.12,372.40 249.93,375.14 250.74,372.40 251.55,372.40 252.35,372.40 253.16,369.67 253.97,366.94 254.78,369.67 255.59,366.94 256.40,364.21 257.21,361.48 258.02,364.21 258.83,361.48 259.64,356.01 260.45,350.55 261.26,358.74 262.07,353.28 262.88,353.28 263.69,350.55 264.50,347.81 265.31,347.81 266.11,347.81 266.92,345.08 267.73,336.89 268.54,342.35 269.35,347.81 270.16,353.28 270.97,353.28 271.78,353.28 272.59,356.01 273.40,356.01 274.21,358.74 275.02,353.28 275.83,356.01 276.64,356.01 277.45,356.01 278.26,356.01 279.07,356.01 279.87,353.28 280.68,353.28 281.49,350.55 282.30,353.28 283.11,350.55 283.92,350.55 284.73,350.55 285.54,347.81 286.35,353.28 287.16,358.74 287.97,353.28 288.78,350.55 289.59,350.55 290.40,353.28 291.21,353.28 292.02,353.28 292.83,353.28 293.64,356.01 294.44,356.01 295.25,353.28 296.06,353.28 296.87,356.01 297.68,356.01 298.49,353.28 299.30,353.28 300.11,353.28 300.92,353.28 301.73,353.28 302.54,353.28 303.35,350.55 304.16,350.55 304.97,350.55 305.78,350.55 306.59,350.55 307.40,350.55 308.20,347.81 309.01,347.81 309.82,345.08 310.63,353.28 311.44,350.55 312.25,350.55 313.06,353.28 313.87,350.55 314.68,353.28 315.49,350.55 316.30,347.81 317.11,347.81 317.92,364.21 318.73,372.40 319.54,377.87 320.35,386.07 321.16,377.87 321.96,383.33 322.77,394.26 323.58,383.33 324.39,380.60 325.20,383.33 326.01,380.60 326.82,372.40 327.63,369.67 328.44,366.94 329.25,366.94 330.06,372.40 330.87,369.67 331.68,369.67 332.49,369.67 333.30,375.14 334.11,375.14 334.92,372.40 335.72,369.67 336.53,369.67 337.34,366.94 338.15,366.94 338.96,366.94 339.77,366.94 340.58,369.67 341.39,366.94 342.20,364.21 343.01,364.21 343.82,364.21 344.63,361.48 345.44,366.94 346.25,364.21 347.06,361.48 347.87,364.21 348.68,361.48 349.48,361.48 350.29,358.74 351.10,358.74 351.91,364.21 352.72,361.48 353.53,361.48 354.34,358.74 355.15,358.74 355.96,356.01 356.77,356.01 357.58,353.28 358.39,350.55 359.20,353.28 360.01,350.55 360.82,350.55 361.63,350.55 362.44,347.81 363.25,350.55 364.05,347.81 364.86,347.81 365.67,347.81 366.48,342.35 367.29,339.62 368.10,342.35 368.91,347.81 369.72,345.08 370.53,342.35 371.34,353.28 372.15,347.81 372.96,345.08 373.77,347.81 374.58,339.62 375.39,334.15 376.20,328.69 377.01,323.22 377.81,325.96 378.62,331.42 379.43,325.96 380.24,323.22 381.05,328.69 381.86,325.96 382.67,328.69 383.48,325.96 384.29,323.22 385.10,325.96 385.91,325.96 386.72,320.49 387.53,323.22 388.34,317.76 389.15,325.96 389.96,325.96 390.77,320.49 391.57,331.42 392.38,328.69 393.19,328.69 394.00,331.42 394.81,336.89 395.62,334.15 396.43,336.89 397.24,345.08 398.05,345.08 398.86,345.08 399.67,347.81 400.48,342.35 401.29,339.62 402.10,339.62 402.91,334.15 403.72,336.89 404.53,331.42 405.33,336.89 406.14,336.89 406.95,331.42 407.76,334.15 408.57,334.15 409.38,331.42 410.19,325.96 411.00,328.69 411.81,320.49 412.62,325.96 413.43,325.96 414.24,325.96 415.05,325.96 415.86,334.15 416.67,334.15 417.48,336.89 418.29,334.15 419.09,347.81 419.90,364.21 420.71,372.40 421.52,394.26 422.33,377.87 423.14,377.87 423.95,386.07 424.76,391.53 425.57,380.60 426.38,383.33 427.19,380.60 428.00,375.14 428.81,375.14 429.62,377.87 430.43,380.60 431.24,388.80 432.05,391.53 432.86,388.80 433.66,386.07 434.47,388.80 435.28,394.26 436.09,394.26 436.90,402.46 437.71,394.26 438.52,394.26 439.33,391.53 440.14,383.33 440.95,380.60 441.76,386.07 442.57,386.07 443.38,383.33 444.19,377.87 445.00,380.60 445.81,377.87 446.62,377.87 447.42,377.87 448.23,377.87 449.04,380.60 449.85,377.87 450.66,377.87 451.47,380.60 452.28,375.14 453.09,369.67 453.90,369.67 454.71,369.67 455.52,372.40 456.33,372.40 457.14,372.40 457.95,372.40 458.76,372.40 459.57,369.67 460.38,372.40 461.18,372.40 461.99,369.67 462.80,369.67 463.61,369.67 464.42,375.14 465.23,372.40 466.04,369.67 466.85,372.40 467.66,375.14 468.47,372.40 469.28,375.14 470.09,375.14 470.90,375.14 471.71,372.40 472.52,366.94 473.33,366.94 474.14,372.40 474.94,372.40 475.75,377.87 476.56,375.14 477.37,375.14 478.18,377.87 478.99,377.87 479.80,377.87 480.61,377.87 481.42,377.87 482.23,375.14 483.04,372.40 483.85,372.40 484.66,372.40 485.47,372.40 486.28,380.60 487.09,377.87 487.90,383.33 488.70,380.60 489.51,386.07 490.32,383.33 491.13,380.60 491.94,380.60 492.75,380.60 493.56,380.60 494.37,377.87 495.18,375.14 495.99,375.14 496.80,372.40 497.61,375.14 498.42,375.14 499.23,375.14 500.04,372.40 500.85,375.14 501.66,372.40 502.47,369.67 503.27,366.94 504.08,361.48 504.89,361.48 505.70,364.21 506.51,364.21 507.32,358.74 508.13,366.94 508.94,366.94 509.75,372.40 510.56,369.67 511.37,375.14 512.18,377.87 512.99,377.87 513.80,377.87 514.61,380.60 515.42,380.60 516.23,380.60 517.03,386.07 517.84,383.33 518.65,383.33 519.46,383.33 520.27,383.33 521.08,383.33 521.89,383.33 522.70,383.33 523.51,380.60 524.32,377.87 525.13,375.14 525.94,375.14 526.75,375.14 527.56,375.14 528.37,377.87 529.18,383.33 529.99,383.33 530.79,386.07 531.60,380.60 532.41,383.33 533.22,383.33 534.03,388.80 534.84,386.07 535.65,388.80 536.46,388.80 537.27,394.26 538.08,394.26 538.89,399.73 539.70,402.46 540.51,402.46 541.32,399.73 542.13,399.73 542.94,402.46 543.75,402.46 544.55,407.92 545.36,407.92 546.17,407.92 546.98,405.19 547.79,405.19 548.60,399.73 549.41,399.73 550.22,402.46 551.03,405.19 551.84,410.66 552.65,405.19 553.46,407.92 554.27,410.66 555.08,410.66 555.89,410.66 556.70,410.66 557.51,407.92 558.31,405.19 559.12,402.46 559.93,399.73 560.74,399.73 561.55,399.73 562.36,399.73 563.17,399.73 563.98,402.46 564.79,402.46 565.60,402.46 566.41,402.46 567.22,402.46 568.03,402.46 568.84,402.46 569.65,399.73 570.46,399.73 571.27,402.46 572.08,407.92 572.88,407.92 573.69,407.92 574.50,405.19 575.31,405.19 576.12,405.19 576.93,405.19 577.74,405.19 578.55,405.19 579.36,405.19 580.17,405.19 580.98,402.46 581.79,402.46 582.60,402.46 583.41,402.46 584.22,405.19 585.03,402.46 585.84,402.46 586.64,402.46 587.45,402.46 588.26,405.19 589.07,405.19 589.88,402.46 590.69,402.46 591.50,402.46 592.31,402.46 593.12,402.46 593.93,402.46 594.74,402.46 595.55,402.46 596.36,402.46 597.17,402.46 597.98,402.46 598.79,402.46 599.60,402.46 600.40,399.73 601.21,399.73 602.02,399.73 602.83,402.46 603.64,399.73 604.45,402.46 605.26,402.46 606.07,405.19 606.88,405.19 607.69,405.19 608.50,405.19 609.31,402.46 610.12,402.46 610.93,402.46 611.74,402.46 612.55,402.46 613.36,402.46 614.16,407.92 614.97,407.92 615.78,410.66 616.59,410.66 617.40,407.92 618.21,413.39 619.02,413.39 619.83,416.12 620.64,416.12 621.45,413.39 622.26,413.39 623.07,413.39 623.88,413.39 624.69,416.12 625.50,418.85 626.31,421.58 627.12,421.58 627.92,421.58 628.73,416.12 629.54,421.58 630.35,418.85 631.16,418.85 631.97,416.12 632.78,418.85 633.59,418.85 634.40,421.58 635.21,421.58 636.02,418.85 636.83,418.85 637.64,421.58 638.45,421.58 639.26,424.32 640.07,429.78 640.88,429.78 641.69,429.78 642.49,432.51 643.30,437.98 644.11,435.25 644.92,432.51 645.73,429.78 646.54,429.78 647.35,432.51 648.16,432.51 648.97,432.51 649.78,432.51 650.59,429.78 651.40,427.05 652.21,427.05 653.02,427.05 653.83,427.05 654.64,424.32 655.45,424.32 656.25,424.32 657.06,424.32 657.87,424.32 658.68,424.32 659.49,427.05 660.30,427.05 661.11,427.05 661.92,427.05 662.73,427.05 663.54,427.05 664.35,424.32 665.16,427.05 665.97,427.05 666.78,429.78 667.59,429.78 668.40,429.78 669.21,429.78 670.01,432.51 670.82,432.51 671.63,435.25 672.44,435.25 673.25,435.25 674.06,432.51 674.87,432.51 675.68,432.51 676.49,435.25 677.30,432.51 678.11,432.51 678.92,432.51 679.73,435.25 680.54,435.25 681.35,437.98 682.16,437.98 682.97,437.98 683.77,435.25 684.58,437.98 685.39,437.98 686.20,443.44 687.01,446.17 687.82,443.44 688.63,443.44 689.44,446.17 690.25,451.64 691.06,451.64 691.87,448.91 692.68,451.64 693.49,448.91 694.30,451.64 695.11,454.37 695.92,454.37 696.73,454.37 697.53,454.37 698.34,448.91 699.15,451.64 699.96,451.64 700.77,451.64 701.58,454.37 702.39,454.37 703.20,451.64 704.01,454.37 704.82,451.64 705.63,451.64 706.44,454.37 707.25,457.10 708.06,457.10 708.87,459.84 709.68,462.57 710.49,462.57 711.30,465.30 712.10,465.30 712.91,465.30 713.72,465.30 714.53,465.30 715.34,462.57 716.15,459.84 716.96,462.57 717.77,462.57 718.58,462.57 719.39,459.84 720.20,459.84 721.01,462.57 721.82,459.84 722.63,462.57 723.44,462.57 724.25,462.57 725.06,462.57 725.86,465.30 726.67,465.30 727.48,465.30 728.29,462.57 729.10,462.57 729.91,462.57 730.72,462.57 731.53,465.30 732.34,462.57 733.15,459.84 733.96,459.84 734.77,459.84 735.58,459.84 736.39,459.84 737.20,459.84 738.01,459.84 738.82,457.10 739.62,462.57 740.43,462.57 741.24,462.57 742.05,462.57 742.86,462.57 743.67,462.57 744.48,462.57 745.29,462.57 746.10,462.57 746.91,459.84 747.72,465.30 748.53,465.30 749.34,462.57 750.15,465.30 750.96,462.57 751.77,462.57 752.58,462.57 753.38,462.57 754.19,462.57 755.00,462.57 755.81,462.57 756.62,465.30 757.43,465.30 758.24,468.03 759.05,468.03 759.86,468.03 760.67,468.03 761.48,470.77 762.29,473.50 763.10,476.23 763.91,478.96 764.72,476.23 765.53,476.23 766.34,478.96 767.14,478.96 767.95,481.69 768.76,481.69 769.57,481.69 770.38,484.43 771.19,481.69 772.00,481.69 772.81,478.96 773.62,478.96 774.43,481.69 775.24,481.69 776.05,478.96 776.86,478.96 777.67,481.69 778.48,481.69 779.29,481.69 780.10,481.69 780.91,478.96 781.71,478.96 782.52,478.96 783.33,478.96 784.14,478.96 784.95,476.23 785.76,478.96 786.57,476.23 787.38,476.23 788.19,478.96 789.00,478.96 789.81,478.96 790.62,478.96 791.43,478.96 792.24,478.96 793.05,478.96 793.86,478.96 794.67,476.23 795.47,476.23 796.28,476.23 797.09,476.23 797.90,476.23 798.71,478.96 799.52,478.96 800.33,478.96 801.14,481.69 801.95,484.43 802.76,484.43 803.57,484.43 804.38,484.43 805.19,487.16 806.00,484.43 806.81,484.43 807.62,484.43 808.43,484.43 809.23,484.43 810.04,481.69 810.85,481.69 811.66,484.43 812.47,481.69 813.28,481.69 814.09,484.43 814.90,481.69 815.71,484.43 816.52,484.43 817.33,484.43 818.14,484.43 818.95,487.16 819.76,487.16 820.57,487.16 821.38,489.89 822.19,487.16 822.99,487.16 823.80,489.89 824.61,492.62 825.42,495.36 826.23,498.09 827.04,498.09 827.85,495.36 828.66,498.09 829.47,498.09 830.28,495.36 831.09,495.36 831.90,498.09 832.71,498.09 833.52,498.09 834.33,500.82 835.14,511.75 835.95,509.02 836.75,509.02 837.56,514.48 838.37,511.75 839.18,511.75 839.99,511.75 840.80,509.02 841.61,511.75 842.42,509.02 843.23,506.28 844.04,506.28 844.85,506.28 845.66,506.28 846.47,503.55 847.28,503.55 848.09,503.55 848.90,503.55 849.71,503.55 850.52,503.55 851.32,503.55 852.13,503.55 852.94,506.28 853.75,503.55 854.56,503.55 855.37,503.55 856.18,503.55 856.99,503.55 857.80,503.55 858.61,503.55 859.42,506.28 860.23,506.28 861.04,509.02 861.85,506.28 862.66,506.28 863.47,509.02 864.28,509.02 865.08,509.02 865.89,509.02 866.70,509.02 867.51,509.02 868.32,511.75 869.13,509.02 869.94,509.02 870.75,509.02 871.56,509.02 872.37,509.02 873.18,506.28 873.99,509.02 874.80,506.28 875.61,506.28 876.42,506.28 877.23,506.28 878.04,506.28 878.84,509.02 879.65,509.02 880.46,506.28 881.27,506.28 882.08,509.02 882.89,506.28 883.70,506.28 884.51,509.02 885.32,509.02 886.13,509.02 886.94,506.28 887.75,509.02 888.56,509.02 889.37,506.28 890.18,509.02 890.99,509.02 891.80,509.02 892.60,509.02 893.41,509.02 894.22,509.02 895.03,509.02 895.84,509.02 896.65,509.02 897.46,509.02 898.27,509.02 899.08,509.02 899.89,511.75 900.70,511.75 901.51,511.75 902.32,511.75 903.13,514.48 903.94,511.75 904.75,514.48 905.56,514.48 906.36,517.21 907.17,517.21 907.98,517.21 908.79,517.21 909.60,517.21 910.41,514.48 911.22,514.48 912.03,514.48 912.84,514.48 913.65,514.48 914.46,514.48 915.27,514.48 916.08,514.48 916.89,514.48 917.70,514.48 918.51,517.21 919.32,517.21 920.13,517.21 920.93,517.21 921.74,517.21 922.55,519.95 923.36,519.95 924.17,519.95 924.98,519.95 925.79,519.95 926.60,519.95 927.41,519.95 928.22,519.95 929.03,522.68 929.84,522.68 930.65,519.95 931.46,519.95 932.27,519.95 933.08,519.95 933.89,519.95 934.69,519.95 935.50,519.95 936.31,519.95 937.12,517.21 937.93,519.95 938.74,519.95 939.55,517.21 940.36,517.21 941.17,517.21 941.98,517.21 942.79,519.95 943.60,519.95 944.41,519.95 945.22,517.21 946.03,522.68 946.84,522.68 947.65,522.68 948.45,522.68 949.26,522.68 950.07,522.68 950.88,522.68 951.69,522.68 952.50,522.68 953.31,522.68 954.12,522.68 954.93,522.68 955.74,525.41 956.55,525.41 957.36,522.68 958.17,522.68 958.98,522.68 959.79,522.68 960.60,522.68 961.41,522.68 962.21,522.68 963.02,522.68 963.83,522.68 964.64,522.68 965.45,522.68 966.26,522.68 967.07,525.41 967.88,525.41 968.69,525.41 969.50,525.41 970.31,528.14 971.12,528.14 971.93,528.14 972.74,528.14 973.55,530.87 974.36,533.61 975.17,536.34 975.97,536.34 976.78,539.07 977.59,530.87 978.40,533.61 979.21,536.34 980.02,536.34 980.83,536.34 981.64,536.34 982.45,536.34 983.26,536.34 984.07,536.34 984.88,536.34 985.69,536.34 986.50,536.34 987.31,536.34 988.12,536.34 988.93,536.34 989.74,536.34 990.54,536.34 991.35,536.34 992.16,536.34 992.97,536.34 993.78,539.07 994.59,539.07 995.40,539.07 996.21,539.07 997.02,539.07 997.83,539.07 998.64,539.07 999.45,539.07 1000.26,539.07 1001.07,539.07 1001.88,539.07 1002.69,539.07 1003.50,539.07 1004.30,539.07 1005.11,539.07 1005.92,539.07 1006.73,539.07 1007.54,541.80 1008.35,541.80 1009.16,541.80 1009.97,541.80 1010.78,541.80 1011.59,541.80 1012.40,541.80 1013.21,541.80 1014.02,541.80 1014.83,541.80 1015.64,541.80 1016.45,541.80 1017.26,541.80 1018.06,541.80 1018.87,541.80 1019.68,541.80 1020.49,541.80 1021.30,541.80 1022.11,541.80 1022.92,541.80 1023.73,541.80 1024.54,541.80 1025.35,541.80 1026.16,541.80 1026.97,541.80 1027.78,541.80 1028.59,541.80 1029.40,541.80 1030.21,541.80 1031.02,541.80 1031.82,541.80 1032.63,541.80 1033.44,541.80 1034.25,541.80 1035.06,541.80 1035.87,541.80 1036.68,541.80 1037.49,541.80 1038.30,541.80 1039.11,544.54 1039.92,544.54 1040.73,544.54 1041.54,544.54 1042.35,544.54 1043.16,544.54 1043.97,544.54 1044.78,544.54 1045.58,544.54 1046.39,544.54 1047.20,544.54 1048.01,544.54 1048.82,544.54 1049.63,544.54 1050.44,544.54 1051.25,544.54 1052.06,544.54 1052.87,544.54 1053.68,544.54 1054.49,544.54 1055.30,544.54 1056.11,544.54 1056.92,544.54 1057.73,547.27 1058.54,547.27 1059.35,547.27 1060.15,547.27 1060.96,547.27 1061.77,547.27 1062.58,547.27 1063.39,547.27 1064.20,547.27 1065.01,547.27 1065.82,547.27 1066.63,547.27 1067.44,547.27 1068.25,547.27 1069.06,547.27 1069.87,547.27 1070.68,547.27 1071.49,547.27 1072.30,547.27 1073.11,547.27 1073.91,547.27 1074.72,547.27 1075.53,547.27 1076.34,547.27 1077.15,547.27 1077.96,547.27 1078.77,547.27 1079.58,547.27 1080.39,547.27 1081.20,547.27 1082.01,547.27 1082.82,547.27 1083.63,547.27 1084.44,547.27 1085.25,547.27 1086.06,547.27 1086.87,547.27 1087.67,547.27 1088.48,547.27 1089.29,547.27 1090.10,547.27 1090.91,547.27 1091.72,547.27 1092.53,547.27 1093.34,547.27 1094.15,547.27 1094.96,547.27 1095.77,547.27 1096.58,547.27 1097.39,547.27 1098.20,547.27 1099.01,547.27 1099.82,547.27 1100.63,547.27 1101.43,547.27 1102.24,547.27 1103.05,547.27 1103.86,547.27 1104.67,547.27 1105.48,547.27 1106.29,547.27 1107.10,547.27 1107.91,547.27 1108.72,547.27 1109.53,547.27 1110.34,547.27 1111.15,547.27 1111.96,547.27 1112.77,547.27 1113.58,547.27 1114.39,547.27 1115.19,547.27 1116.00,547.27 1116.81,547.27 1117.62,547.27 1118.43,547.27 1119.24,547.27 1120.05,547.27 1120.86,547.27 1121.67,547.27 1122.48,547.27 1123.29,547.27 1124.10,547.27 1124.91,547.27 1125.72,547.27 1126.53,547.27 1127.34,550.00 1128.15,550.00 1128.96,550.00 1129.76,550.00 1130.57,550.00 1131.38,550.00 1132.19,550.00 1133.00,550.00 1133.81,550.00 1134.62,550.00 1135.43,550.00 1136.24,550.00 1137.05,550.00 1137.86,550.00 1138.67,550.00 1139.48,550.00 1140.29,550.00 1141.10,550.00 1141.91,550.00 1142.72,550.00 1143.52,550.00 1144.33,550.00 1145.14,550.00 1145.95,550.00 1146.76,550.00 1147.57,550.00 1148.38,550.00 1149.19,550.00 1150.00,550.00" fill="none" stroke="#2f6fb0" stroke-width="2" />
  <text x="50.00" y="575.0" font-size="12" text-anchor="middle" fill="#444">2000</text>
  <text x="261.26" y="575.0" font-size="12" text-anchor="middle" fill="#444">2005</text>
  <text x="471.71" y="575.0" font-size="12" text-anchor="middle" fill="#444">2010</text>
  <text x="682.97" y="575.0" font-size="12" text-anchor="middle" fill="#444">2015</text>
  <text x="894.22" y="575.0" font-size="12" text-anchor="middle" fill="#444">2020</text>
  <text x="1105.48" y="575.0" font-size="12" text-anchor="middle" fill="#444">2025</text>
  <text x="600.0" y="590" font-size="14" text-anchor="middle" fill="#222">Year</text>
  <text x="20" y="300.0" font-size="14" text-anchor="middle" fill="#222" transform="rotate(-90, 20, 300.0)">Exchange Rate</text>
  <text x="50" y="50" font-size="12" fill="#444">Max: 1.8500</text>
  <text x="50" y="66" font-size="12" fill="#444">Min: 0.0200</text>
</svg>
