<svg xmlns="http://www.w3.org/2000/svg" width="1200" height="600">
  <rect width="100%" height="100%" fill="white" />
  <text x="600.0" y="25.0" font-size="20" text-anchor="middle" fill="#222">ZARUSD Weekly Exchange Rate</text>
  <polyline points="50.00,88.46 50.81,88.46 51.62,126.92 52.43,126.92 53.24,126.92 54.05,126.92 54.86,126.92 55.67,126.92 56.48,126.92 57.28,126.92 58.09,165.38 58.90,165.38 59.71,165.38 60.52,165.38 61.33,165.38 62.14,165.38 62.95,165.38 63.76,203.85 64.57,203.85 65.38,203.85 66.19,203.85 67.00,203.85 67.81,203.85 68.62,165.38 69.43,165.38 70.24,165.38 71.04,165.38 71.85,165.38 72.66,203.85 73.47,203.85 74.28,203.85 75.09,165.38 75.90,203.85 76.71,203.85 77.52,203.85 78.33,203.85 79.14,203.85 79.95,203.85 80.76,203.85 81.57,203.85 82.38,242.31 83.19,242.31 84.00,242.31 84.81,242.31 85.61,242.31 86.42,242.31 87.23,242.31 88.04,242.31 88.85,242.31 89.66,242.31 90.47,242.31 91.28,242.31 92.09,242.31 92.90,242.31 93.71,242.31 94.52,242.31 95.33,242.31 96.14,242.31 96.95,242.31 97.76,242.31 98.57,242.31 99.37,242.31 100.18,242.31 100.99,242.31 101.80,280.77 102.61,280.77 103.42,280.77 104.23,280.77 105.04,280.77 105.85,280.77 106.66,242.31 107.47,242.31 108.28,242.31 109.09,280.77 109.90,280.77 110.71,242.31 111.52,280.77 112.33,280.77 113.13,280.77 113.94,280.77 114.75,280.77 115.56,280.77 116.37,280.77 117.18,280.77 117.99,280.77 118.80,280.77 119.61,280.77 120.42,280.77 121.23,280.77 122.04,319.23 122.85,319.23 123.66,319.23 124.47,319.23 125.28,319.23 126.09,319.23 126.89,319.23 127.70,357.69 128.51,357.69 129.32,357.69 130.13,357.69 130.94,396.15 131.75,434.62 132.56,434.62 133.37,434.62 134.18,434.62 134.99,396.15 135.80,396.15 136.61,396.15 137.42,396.15 138.23,396.15 139.04,396.15 139.85,396.15 140.65,396.15 141.46,396.15 142.27,434.62 143.08,396.15 143.89,396.15 144.70,396.15 145.51,396.15 146.32,396.15 147.13,396.15 147.94,357.69 148.75,357.69 149.56,357.69 150.37,357.69 151.18,357.69 151.99,357.69 152.80,357.69 153.61,357.69 154.42,357.69 155.22,357.69 156.03,357.69 156.84,357.69 157.65,357.69 158.46,357.69 159.27,357.69 160.08,396.15 160.89,396.15 161.70,396.15 162.51,357.69 163.32,357.69 164.13,396.15 164.94,396.15 165.75,357.69 166.56,357.69 167.37,357.69 168.18,357.69 168.98,357.69 169.79,357.69 170.60,357.69 171.41,319.23 172.22,319.23 173.03,319.23 173.84,319.23 174.65,319.23 175.46,280.77 176.27,280.77 177.08,280.77 177.89,319.23 178.70,319.23 179.51,280.77 180.32,280.77 181.13,280.77 181.94,280.77 182.74,280.77 183.55,242.31 184.36,280.77 185.17,280.77 185.98,242.31 186.79,242.31 187.60,242.31 188.41,242.31 189.22,203.85 190.03,242.31 190.84,203.85 191.65,242.31 192.46,242.31 193.27,280.77 194.08,280.77 194.89,242.31 195.70,242.31 196.50,242.31 197.31,242.31 198.12,242.31 198.93,242.31 199.74,242.31 200.55,242.31 201.36,203.85 202.17,203.85 202.98,242.31 203.79,203.85 204.60,242.31 205.41,203.85 206.22,203.85 207.03,203.85 207.84,203.85 208.65,203.85 209.46,203.85 210.26,203.85 211.07,165.38 211.88,203.85 212.69,165.38 213.50,165.38 214.31,126.92 215.12,126.92 215.93,126.92 216.74,203.85 217.55,165.38 218.36,165.38 219.17,165.38 219.98,203.85 220.79,203.85 221.60,203.85 222.41,203.85 223.22,165.38 224.03,165.38 224.83,165.38 225.64,165.38 226.45,165.38 227.26,165.38 228.07,165.38 228.88,126.92 229.69,126.92 230.50,126.92 231.31,165.38 232.12,203.85 232.93,203.85 233.74,165.38 234.55,165.38 235.36,165.38 236.17,126.92 236.98,165.38 237.79,126.92 238.59,126.92 239.40,126.92 240.21,126.92 241.02,88.46 241.83,126.92 242.64,126.92 243.45,126.92 244.26,165.38 245.07,165.38 245.88,165.38 246.69,165.38 247.50,165.38 248.31,165.38 249.12,126.92 249.93,165.38 250.74,165.38 251.55,126.92 252.35,126.92 253.16,126.92 253.97,126.92 254.78,126.92 255.59,88.46 256.40,88.46 257.21,50.00 258.02,88.46 258.83,88.46 259.64,50.00 260.45,50.00 261.26,126.92 262.07,88.46 262.88,88.46 263.69,88.46 264.50,126.92 265.31,126.92 266.11,88.46 266.92,88.46 267.73,88.46 268.54,88.46 269.35,88.46 270.16,126.92 270.97,126.92 271.78,126.92 272.59,126.92 273.40,88.46 274.21,126.92 275.02,88.46 275.83,126.92 276.64,165.38 277.45,165.38 278.26,165.38 279.07,165.38 279.87,165.38 280.68,165.38 281.49,165.38 282.30,165.38 283.11,165.38 283.92,165.38 284.73,165.38 285.54,165.38 286.35,126.92 287.16,165.38 287.97,165.38 288.78,126.92 289.59,126.92 290.40,126.92 291.21,126.92 292.02,126.92 292.83,165.38 293.64,165.38 294.44,165.38 295.25,165.38 296.06,165.38 296.87,165.38 297.68,165.38 298.49,165.38 299.30,126.92 300.11,126.92 300.92,126.92 301.73,126.92 302.54,126.92 303.35,126.92 304.16,88.46 304.97,88.46 305.78,126.92 306.59,126.92 307.40,126.92 308.20,88.46 309.01,126.92 309.82,126.92 310.63,126.92 311.44,126.92 312.25,126.92 313.06,126.92 313.87,126.92 314.68,126.92 315.49,88.46 316.30,88.46 317.11,126.92 317.92,126.92 318.73,165.38 319.54,165.38 320.35,165.38 321.16,165.38 321.96,165.38 322.77,242.31 323.58,203.85 324.39,203.85 325.20,203.85 326.01,203.85 326.82,165.38 327.63,165.38 328.44,165.38 329.25,203.85 330.06,203.85 330.87,203.85 331.68,203.85 332.49,203.85 333.30,242.31 334.11,242.31 334.92,242.31 335.72,242.31 336.53,242.31 337.34,242.31 338.15,203.85 338.96,203.85 339.77,203.85 340.58,203.85 341.39,203.85 342.20,203.85 343.01,203.85 343.82,203.85 344.63,203.85 345.44,203.85 346.25,203.85 347.06,203.85 347.87,203.85 348.68,203.85 349.48,203.85 350.29,203.85 351.10,203.85 351.91,242.31 352.72,203.85 353.53,242.31 354.34,203.85 355.15,203.85 355.96,203.85 356.77,203.85 357.58,203.85 358.39,203.85 359.20,203.85 360.01,203.85 360.82,203.85 361.63,203.85 362.44,203.85 363.25,203.85 364.05,203.85 364.86,203.85 365.67,203.85 366.48,203.85 367.29,203.85 368.10,165.38 368.91,203.85 369.72,203.85 370.53,203.85 371.34,203.85 372.15,203.85 372.96,203.85 373.77,203.85 374.58,203.85 375.39,203.85 376.20,165.38 377.01,165.38 377.81,165.38 378.62,165.38 379.43,165.38 380.24,165.38 381.05,165.38 381.86,165.38 382.67,165.38 383.48,165.38 384.29,165.38 385.10,165.38 385.91,203.85 386.72,165.38 387.53,165.38 388.34,165.38 389.15,203.85 389.96,203.85 390.77,203.85 391.57,242.31 392.38,242.31 393.19,242.31 394.00,242.31 394.81,280.77 395.62,242.31 396.43,280.77 397.24,280.77 398.05,242.31 398.86,242.31 399.67,242.31 400.48,242.31 401.29,242.31 402.10,242.31 402.91,242.31 403.72,242.31 404.53,242.31 405.33,242.31 406.14,280.77 406.95,242.31 407.76,242.31 408.57,242.31 409.38,242.31 410.19,242.31 411.00,242.31 411.81,203.85 412.62,242.31 413.43,242.31 414.24,242.31 415.05,242.31 415.86,242.31 416.67,242.31 417.48,242.31 418.29,280.77 419.09,280.77 419.90,319.23 420.71,357.69 421.52,396.15 422.33,357.69 423.14,357.69 423.95,357.69 424.76,357.69 425.57,357.69 426.38,357.69 427.19,357.69 428.00,357.69 428.81,357.69 429.62,319.23 430.43,357.69 431.24,357.69 432.05,357.69 432.86,357.69 433.66,357.69 434.47,357.69 435.28,357.69 436.09,357.69 436.90,357.69 437.71,357.69 438.52,357.69 439.33,357.69 440.14,319.23 440.95,319.23 441.76,319.23 442.57,319.23 443.38,280.77 444.19,280.77 445.00,319.23 445.81,280.77 446.62,242.31 447.42,280.77 448.23,280.77 449.04,280.77 449.85,242.31 450.66,242.31 451.47,280.77 452.28,280.77 453.09,242.31 453.90,242.31 454.71,242.31 455.52,280.77 456.33,242.31 457.14,242.31 457.95,242.31 458.76,242.31 459.57,242.31 460.38,242.31 461.18,242.31 461.99,203.85 462.80,203.85 463.61,242.31 464.42,242.31 465.23,242.31 466.04,242.31 466.85,242.31 467.66,203.85 468.47,242.31 469.28,242.31 470.09,242.31 470.90,242.31 471.71,203.85 472.52,203.85 473.33,203.85 474.14,242.31 474.94,242.31 475.75,242.31 476.56,242.31 477.37,242.31 478.18,242.31 478.99,203.85 479.80,203.85 480.61,203.85 481.42,242.31 482.23,203.85 483.04,203.85 483.85,203.85 484.66,242.31 485.47,203.85 486.28,242.31 487.09,242.31 487.90,242.31 488.70,242.31 489.51,242.31 490.32,242.31 491.13,242.31 491.94,242.31 492.75,242.31 493.56,242.31 494.37,242.31 495.18,242.31 495.99,203.85 496.80,203.85 497.61,203.85 498.42,203.85 499.23,203.85 500.04,203.85 500.85,203.85 501.66,203.85 502.47,203.85 503.27,203.85 504.08,165.38 504.89,165.38 505.70,203.85 506.51,203.85 507.32,165.38 508.13,203.85 508.94,203.85 509.75,203.85 510.56,165.38 511.37,165.38 512.18,165.38 512.99,165.38 513.80,165.38 514.61,165.38 515.42,203.85 516.23,203.85 517.03,203.85 517.84,203.85 518.65,203.85 519.46,203.85 520.27,203.85 521.08,165.38 521.89,165.38 522.70,203.85 523.51,165.38 524.32,165.38 525.13,165.38 525.94,165.38 526.75,165.38 527.56,165.38 528.37,165.38 529.18,203.85 529.99,203.85 530.79,203.85 531.60,165.38 532.41,165.38 533.22,165.38 534.03,203.85 534.84,165.38 535.65,165.38 536.46,165.38 537.27,165.38 538.08,165.38 538.89,203.85 539.70,203.85 540.51,203.85 541.32,203.85 542.13,203.85 542.94,203.85 543.75,242.31 544.55,280.77 545.36,280.77 546.17,242.31 546.98,242.31 547.79,280.77 548.60,242.31 549.41,242.31 550.22,242.31 551.03,280.77 551.84,280.77 552.65,280.77 553.46,280.77 554.27,280.77 555.08,280.77 555.89,280.77 556.70,280.77 557.51,280.77 558.31,242.31 559.12,242.31 559.93,242.31 560.74,242.31 561.55,242.31 562.36,242.31 563.17,242.31 563.98,242.31 564.79,242.31 565.60,242.31 566.41,242.31 567.22,242.31 568.03,242.31 568.84,242.31 569.65,242.31 570.46,242.31 571.27,280.77 572.08,280.77 572.88,280.77 573.69,280.77 574.50,280.77 575.31,280.77 576.12,280.77 576.93,280.77 577.74,280.77 578.55,280.77 579.36,280.77 580.17,280.77 580.98,280.77 581.79,280.77 582.60,280.77 583.41,280.77 584.22,280.77 585.03,280.77 585.84,280.77 586.64,280.77 587.45,280.77 588.26,319.23 589.07,319.23 589.88,280.77 590.69,280.77 591.50,319.23 592.31,319.23 593.12,319.23 593.93,319.23 594.74,319.23 595.55,280.77 596.36,280.77 597.17,280.77 597.98,280.77 598.79,280.77 599.60,319.23 600.40,319.23 601.21,319.23 602.02,319.23 602.83,319.23 603.64,319.23 604.45,319.23 605.26,319.23 606.07,319.23 606.88,319.23 607.69,319.23 608.50,319.23 609.31,319.23 610.12,319.23 610.93,319.23 611.74,319.23 612.55,319.23 613.36,319.23 614.16,319.23 614.97,357.69 615.78,357.69 616.59,357.69 617.40,357.69 618.21,357.69 619.02,357.69 619.83,357.69 620.64,357.69 621.45,357.69 622.26,357.69 623.07,357.69 623.88,357.69 624.69,357.69 625.50,357.69 626.31,357.69 627.12,357.69 627.92,357.69 628.73,357.69 629.54,357.69 630.35,357.69 631.16,357.69 631.97,357.69 632.78,357.69 633.59,357.69 634.40,357.69 635.21,357.69 636.02,357.69 636.83,357.69 637.64,357.69 638.45,357.69 639.26,357.69 640.07,357.69 640.88,396.15 641.69,396.15 642.49,396.15 643.30,396.15 644.11,396.15 644.92,396.15 645.73,396.15 646.54,396.15 647.35,396.15 648.16,396.15 648.97,396.15 649.78,396.15 650.59,396.15 651.40,396.15 652.21,357.69 653.02,357.69 653.83,396.15 654.64,357.69 655.45,357.69 656.25,357.69 657.06,357.69 657.87,396.15 658.68,396.15 659.49,396.15 660.30,396.15 661.11,396.15 661.92,396.15 662.73,396.15 663.54,396.15 664.35,357.69 665.16,396.15 665.97,396.15 666.78,396.15 667.59,396.15 668.40,396.15 669.21,396.15 670.01,396.15 670.82,396.15 671.63,396.15 672.44,396.15 673.25,396.15 674.06,396.15 674.87,396.15 675.68,396.15 676.49,396.15 677.30,396.15 678.11,396.15 678.92,396.15 679.73,396.15 680.54,396.15 681.35,396.15 682.16,396.15 682.97,396.15 683.77,396.15 684.58,396.15 685.39,396.15 686.20,396.15 687.01,396.15 687.82,396.15 688.63,396.15 689.44,396.15 690.25,434.62 691.06,434.62 691.87,434.62 692.68,434.62 693.49,434.62 694.30,434.62 695.11,434.62 695.92,434.62 696.73,434.62 697.53,434.62 698.34,434.62 699.15,434.62 699.96,434.62 700.77,434.62 701.58,434.62 702.39,434.62 703.20,434.62 704.01,434.62 704.82,434.62 705.63,434.62 706.44,434.62 707.25,434.62 708.06,434.62 708.87,434.62 709.68,434.62 710.49,434.62 711.30,473.08 712.10,473.08 712.91,434.62 713.72,473.08 714.53,473.08 715.34,473.08 716.15,434.62 716.96,473.08 717.77,473.08 718.58,473.08 719.39,473.08 720.20,473.08 721.01,473.08 721.82,473.08 722.63,511.54 723.44,473.08 724.25,473.08 725.06,511.54 725.86,511.54 726.67,511.54 727.48,511.54 728.29,511.54 729.10,511.54 729.91,511.54 730.72,511.54 731.53,511.54 732.34,473.08 733.15,473.08 733.96,473.08 734.77,511.54 735.58,473.08 736.39,473.08 737.20,473.08 738.01,473.08 738.82,473.08 739.62,473.08 740.43,511.54 741.24,511.54 742.05,511.54 742.86,473.08 743.67,473.08 744.48,473.08 745.29,473.08 746.10,473.08 746.91,473.08 747.72,473.08 748.53,473.08 749.34,473.08 750.15,473.08 750.96,473.08 751.77,473.08 752.58,473.08 753.38,473.08 754.19,473.08 755.00,473.08 755.81,473.08 756.62,473.08 757.43,473.08 758.24,473.08 759.05,473.08 759.86,473.08 760.67,473.08 761.48,473.08 762.29,473.08 763.10,473.08 763.91,473.08 764.72,473.08 765.53,473.08 766.34,473.08 767.14,473.08 767.95,473.08 768.76,473.08 769.57,473.08 770.38,473.08 771.19,434.62 772.00,473.08 772.81,434.62 773.62,434.62 774.43,434.62 775.24,434.62 776.05,434.62 776.86,434.62 777.67,473.08 778.48,473.08 779.29,473.08 780.10,434.62 780.91,473.08 781.71,473.08 782.52,473.08 783.33,434.62 784.14,434.62 784.95,434.62 785.76,434.62 786.57,434.62 787.38,434.62 788.19,434.62 789.00,473.08 789.81,434.62 790.62,434.62 791.43,434.62 792.24,473.08 793.05,473.08 793.86,434.62 794.67,434.62 795.47,434.62 796.28,434.62 797.09,434.62 797.90,434.62 798.71,473.08 799.52,473.08 800.33,434.62 801.14,473.08 801.95,473.08 802.76,473.08 803.57,473.08 804.38,473.08 805.19,473.08 806.00,473.08 806.81,473.08 807.62,434.62 808.43,434.62 809.23,434.62 810.04,434.62 810.85,434.62 811.66,434.62 812.47,434.62 813.28,434.62 814.09,434.62 814.90,396.15 815.71,396.15 816.52,434.62 817.33,434.62 818.14,434.62 818.95,396.15 819.76,434.62 820.57,434.62 821.38,434.62 822.19,434.62 822.99,434.62 823.80,434.62 824.61,434.62 825.42,434.62 826.23,434.62 827.04,434.62 827.85,434.62 828.66,473.08 829.47,473.08 830.28,473.08 831.09,473.08 831.90,434.62 832.71,473.08 833.52,434.62 834.33,434.62 835.14,473.08 835.95,473.08 836.75,473.08 837.56,473.08 838.37,473.08 839.18,473.08 839.99,473.08 840.80,473.08 841.61,473.08 842.42,473.08 843.23,473.08 844.04,473.08 844.85,473.08 845.66,473.08 846.47,473.08 847.28,473.08 848.09,473.08 848.90,473.08 849.71,473.08 850.52,473.08 851.32,473.08 852.13,473.08 852.94,473.08 853.75,473.08 854.56,473.08 855.37,434.62 856.18,473.08 856.99,473.08 857.80,473.08 858.61,473.08 859.42,473.08 860.23,473.08 861.04,473.08 861.85,473.08 862.66,473.08 863.47,473.08 864.28,473.08 865.08,473.08 865.89,473.08 866.70,473.08 867.51,473.08 868.32,473.08 869.13,473.08 869.94,473.08 870.75,473.08 871.56,473.08 872.37,473.08 873.18,473.08 873.99,473.08 874.80,473.08 875.61,473.08 876.42,473.08 877.23,473.08 878.04,473.08 878.84,473.08 879.65,473.08 880.46,473.08 881.27,473.08 882.08,473.08 882.89,473.08 883.70,473.08 884.51,473.08 885.32,473.08 886.13,473.08 886.94,473.08 887.75,473.08 888.56,473.08 889.37,473.08 890.18,473.08 890.99,473.08 891.80,473.08 892.60,473.08 893.41,473.08 894.22,473.08 895.03,473.08 895.84,473.08 896.65,473.08 897.46,473.08 898.27,473.08 899.08,473.08 899.89,473.08 900.70,511.54 901.51,511.54 902.32,511.54 903.13,511.54 903.94,511.54 904.75,550.00 905.56,511.54 906.36,550.00 907.17,550.00 907.98,550.00 908.79,550.00 909.60,550.00 910.41,511.54 911.22,511.54 912.03,511.54 912.84,511.54 913.65,511.54 914.46,511.54 915.27,511.54 916.08,511.54 916.89,511.54 917.70,511.54 918.51,511.54 919.32,511.54 920.13,511.54 920.93,511.54 921.74,511.54 922.55,511.54 923.36,511.54 924.17,511.54 924.98,511.54 925.79,511.54 926.60,511.54 927.41,511.54 928.22,511.54 929.03,511.54 929.84,511.54 930.65,511.54 931.46,511.54 932.27,473.08 933.08,473.08 933.89,473.08 934.69,473.08 935.50,473.08 936.31,473.08 937.12,473.08 937.93,473.08 938.74,473.08 939.55,473.08 940.36,473.08 941.17,473.08 941.98,473.08 942.79,473.08 943.60,473.08 944.41,473.08 945.22,473.08 946.03,473.08 946.84,473.08 947.65,473.08 948.45,473.08 949.26,473.08 950.07,473.08 950.88,473.08 951.69,473.08 952.50,473.08 953.31,473.08 954.12,473.08 954.93,473.08 955.74,473.08 956.55,473.08 957.36,473.08 958.17,473.08 958.98,473.08 959.79,473.08 960.60,473.08 961.41,473.08 962.21,473.08 963.02,473.08 963.83,473.08 964.64,473.08 965.45,473.08 966.26,473.08 967.07,473.08 967.88,473.08 968.69,473.08 969.50,473.08 970.31,473.08 971.12,473.08 971.93,473.08 972.74,473.08 973.55,511.54 974.36,511.54 975.17,511.54 975.97,511.54 976.78,511.54 977.59,511.54 978.40,511.54 979.21,511.54 980.02,511.54 980.83,473.08 981.64,511.54 982.45,511.54 983.26,473.08 984.07,473.08 984.88,473.08 985.69,473.08 986.50,473.08 987.31,473.08 988.12,473.08 988.93,473.08 989.74,473.08 990.54,473.08 991.35,511.54 992.16,511.54 992.97,511.54 993.78,511.54 994.59,511.54 995.40,511.54 996.21,511.54 997.02,511.54 997.83,511.54 998.64,511.54 999.45,511.54 1000.26,511.54 1001.07,511.54 1001.88,511.54 1002.69,511.54 1003.50,511.54 1004.30,511.54 1005.11,511.54 1005.92,511.54 1006.73,511.54 1007.54,511.54 1008.35,511.54 1009.16,511.54 1009.97,511.54 1010.78,511.54 1011.59,550.00 1012.40,511.54 1013.21,511.54 1014.02,511.54 1014.83,511.54 1015.64,511.54 1016.45,511.54 1017.26,511.54 1018.06,511.54 1018.87,511.54 1019.68,511.54 1020.49,511.54 1021.30,511.54 1022.11,511.54 1022.92,511.54 1023.73,511.54 1024.54,511.54 1025.35,511.54 1026.16,511.54 1026.97,550.00 1027.78,511.54 1028.59,550.00 1029.40,550.00 1030.21,511.54 1031.02,511.54 1031.82,511.54 1032.63,511.54 1033.44,511.54 1034.25,550.00 1035.06,550.00 1035.87,550.00 1036.68,550.00 1037.49,550.00 1038.30,550.00 1039.11,550.00 1039.92,511.54 1040.73,550.00 1041.54,550.00 1042.35,550.00 1043.16,511.54 1043.97,511.54 1044.78,511.54 1045.58,550.00 1046.39,550.00 1047.20,550.00 1048.01,550.00 1048.82,550.00 1049.63,550.00 1050.44,550.00 1051.25,550.00 1052.06,550.00 1052.87,550.00 1053.68,550.00 1054.49,550.00 1055.30,550.00 1056.11,550.00 1056.92,550.00 1057.73,550.00 1058.54,550.00 1059.35,550.00 1060.15,550.00 1060.96,550.00 1061.77,550.00 1062.58,550.00 1063.39,550.00 1064.20,550.00 1065.01,550.00 1065.82,550.00 1066.63,550.00 1067.44,550.00 1068.25,550.00 1069.06,550.00 1069.87,550.00 1070.68,550.00 1071.49,550.00 1072.30,550.00 1073.11,550.00 1073.91,550.00 1074.72,550.00 1075.53,550.00 1076.34,550.00 1077.15,550.00 1077.96,550.00 1078.77,511.54 1079.58,550.00 1080.39,550.00 1081.20,550.00 1082.01,550.00 1082.82,511.54 1083.63,511.54 1084.44,511.54 1085.25,511.54 1086.06,550.00 1086.87,550.00 1087.67,550.00 1088.48,550.00 1089.29,511.54 1090.10,511.54 1090.91,511.54 1091.72,511.54 1092.53,511.54 1093.34,511.54 1094.15,511.54 1094.96,511.54 1095.77,511.54 1096.58,511.54 1097.39,511.54 1098.20,511.54 1099.01,511.54 1099.82,511.54 1100.63,511.54 1101.43,511.54 1102.24,511.54 1103.05,511.54 1103.86,550.00 1104.67,550.00 1105.48,550.00 1106.29,550.00 1107.10,550.00 1107.91,550.00 1108.72,550.00 1109.53,550.00 1110.34,550.00 1111.15,550.00 1111.96,550.00 1112.77,550.00 1113.58,511.54 1114.39,550.00 1115.19,550.00 1116.00,550.00 1116.81,550.00 1117.62,550.00 1118.43,550.00 1119.24,550.00 1120.05,550.00 1120.86,511.54 1121.67,511.54 1122.48,511.54 1123.29,511.54 1124.10,511.54 1124.91,511.54 1125.72,511.54 1126.53,511.54 1127.34,511.54 1128.15,511.54 1128.96,511.54 1129.76,511.54 1130.57,511.54 1131.38,511.54 1132.19,511.54 1133.00,511.54 1133.81,511.54 1134.62,511.54 1135.43,511.54 1136.24,511.54 1137.05,511.54 1137.86,511.54 1138.67,511.54 1139.48,511.54 1140.29,511.54 1141.10,511.54 1141.91,511.54 1142.72,511.54 1143.52,511.54 1144.33,511.54 1145.14,511.54 1145.95,511.54 1146.76,511.54 1147.57,511.54 1148.38,511.54 1149.19,511.54 1150.00,511.54" fill="none" stroke="#2f6fb0" stroke-width="2" />
  <text x="50" y="575.0" font-size="12" fill="#444">2000-01-07</text>
  <text x="1150" y="575.0" font-size="12" text-anchor="end" fill="#444">2026-01-23</text>
  <text x="50" y="50" font-size="12" fill="#444">Max: 0.1800</text>
  <text x="50" y="66" font-size="12" fill="#444">Min: 0.0500</text>
</svg>
